<svg xmlns="http://www.w3.org/2000/svg" viewBox="0 0 512 128"><title>Calibre</title><path fill="#999" d="M38.6 87.8c13.5 8.5 23.8-2.3 23.8-2.3-3.7 13.2-12.1 15.6-12.1 15.6l1.9 3.8H81l1.9-3.8s-8.4-2.4-12.1-15.6c0 0 10.3 10.8 23.8 2.3s13.4-41.3-28-62.9c-41.4 21.6-41.5 54.4-28 62.9zm120.3-62.7c18.6 0 30 10.9 32.9 26.6h-16.2c-2.7-7.2-7.6-12-16.6-12-12.5 0-20 11-20 26 0 14.8 7.4 26 20 26 9.1 0 14-4.9 16.6-12.2h16.3c-2.9 15.9-14.3 26.8-32.9 26.8-21 0-36.6-16.5-36.6-40.6s15.5-40.6 36.5-40.6zm75 79.8v-3.1c-1.9 1.9-7.7 4.1-14 4.1-11.5 0-21.2-6.7-21.2-18.6 0-10.9 9.7-18.3 22.1-18.3 5 0 10.8 1.7 13.1 3.3v-4.2c0-4.9-2.9-8.8-9.3-8.8-4.5 0-7.2 2-8.4 5.4h-15.1c1.7-10.4 11-18.3 24.1-18.3 15.2 0 24.1 8.3 24.1 22v36.5h-15.4zm0-19.7c-1.4-3.1-5.8-5-10.4-5-5 0-10.1 2.2-10.1 7 0 5 5.1 7 10.1 7 4.6 0 9-1.9 10.4-5v-4zm44.1 19.7h-15.9V21.7H278v83.2zm21.7-64.6c-5.1 0-9.5-3.7-9.5-9.1 0-5.2 4.4-9.1 9.5-9.1 5 0 9.3 3.8 9.3 9.1.1 5.4-4.3 9.1-9.3 9.1zm8 64.6h-15.9V47.8h15.9v57.1zm29.7 0h-16V21.7h16v30.7c2.6-3.1 8.2-6 14.3-6 16.6 0 26 13.6 26 30s-9.3 29.8-26 29.8c-6.1 0-11.8-2.9-14.3-6v4.7zm0-19.1c1.8 4 6 6.7 10.8 6.7 8.6 0 13.7-6.9 13.7-16 0-9.2-5.1-16.1-13.7-16.1-4.6 0-9 2.8-10.8 6.7v18.7zm85.2-22.5c-2.2-1.3-5-1.9-7.9-1.9-5.4 0-9.7 2.8-10.9 8.1v35.4h-15.9V47.8h15.9v5.6c2.4-4.1 7.2-6.9 12.8-6.9 2.7 0 5.1.5 6 1v15.8zM481 86.2c-2 12.2-11 20-25.3 20-16.6 0-27.8-12.2-27.8-29.8 0-17.3 11.5-30 27.5-30 16.8 0 26 11.6 26 28.4v4.9h-38.1c.5 8.6 5.4 13.7 12.4 13.7 5.4 0 9.3-2.3 10.6-7.2H481zm-37.4-16.1h22.1c-.1-6-3.7-10.8-10.2-10.8-6.1 0-10.5 3.7-11.9 10.8z"/></svg>
