<svg width="100" height="96" viewBox="0 0 100 96" xmlns="http://www.w3.org/2000/svg" xmlns:sketch="http://www.bohemiancoding.com/sketch/ns"><title>Untitled 6</title><g sketch:type="MSPage" fill="#DDF0F2"><path d="M100 30.746l-.014-.199-.013-.188-.037-.187-.039-.194-.059-.171-.065-.194-.083-.167-.087-.177-.109-.163-.104-.156-.132-.153-.121-.138-.146-.129-.146-.127-.326-.219-47.145-27.218c-.919-.531-2.052-.529-2.97.004l-46.82 27.209-.001.001-.001.001-.009.005-.144.097-.177.12-.149.13-.142.125-.135.154-.118.135-.115.172-.098.147-.089.18-.081.164-.064.186-.061.177-.04.197-.037.183-.014.201-.013.185-.096 34.502c-.003 1.061.562 2.043 1.481 2.573l47.145 27.219c.458.266.97.397 1.48.397l.385-.024.069-.015.31-.062.069-.022.3-.102.083-.041.263-.129.006-.004.005-.003 46.833-27.217c.909-.528 1.471-1.5 1.474-2.553l.097-34.499v-.013000000000000001zm-50.103-23.79l17.747 10.246-41.06 23.706-17.613-10.169 40.926-23.783zm-2.738 80.389l-41.229-23.804.079-27.67 41.228 23.803-.078 27.671zm3.041-32.803l-17.691-10.213 41.061-23.706 17.556 10.136-40.926 23.783zm43.781 9.001l-40.897 23.768.078-27.637 40.898-23.767-.079 27.636zM43.817 81.419l-17.703-10.221.033-11.882 17.704 10.221-.034 11.882z" sketch:type="MSShapeGroup"/></g></svg>