<svg xmlns="http://www.w3.org/2000/svg" width="841.89" height="595.28" viewBox="0 0 841.89 595.28"><g><g><linearGradient id="a" gradientUnits="userSpaceOnUse" x1="160.444" y1="295.557" x2="179.243" y2="295.557"><stop offset="0" stop-color="#E1F0EA"/><stop offset="1" stop-color="#ADC5BF"/></linearGradient><path fill="url(#a)" d="M174.061 178.429h-8.436l-5.182 21.471 5.264 17.617v191.051c0 2.274 1.852 4.117 4.135 4.117s4.135-1.843 4.135-4.117v-191.051l5.264-17.617-5.18-21.471z"/><path fill="#74968E" d="M174.061 178.429h-2l5.182 21.471-5.264 17.617v191.051c0 1.929-1.337 3.535-3.135 3.982.322.08.653.135 1 .135 2.284 0 4.135-1.843 4.135-4.117v-191.051l5.264-17.617-5.182-21.471z"/><path fill="#E1F0EA" d="M175.544 184.574l-1.483-6.145h-8.436l-1.482 6.145z"/><linearGradient id="b" gradientUnits="userSpaceOnUse" x1="163.464" y1="185.98" x2="176.223" y2="185.98"><stop offset="0" stop-color="#E1F0EA"/><stop offset="1" stop-color="#74968E"/></linearGradient><path fill="url(#b)" d="M175.544 184.574h-11.401l-.679 2.811h12.759z"/><linearGradient id="c" gradientUnits="userSpaceOnUse" x1="164.967" y1="216.278" x2="174.719" y2="216.278"><stop offset="0" stop-color="#E1F0EA"/><stop offset="1" stop-color="#74968E"/></linearGradient><path fill="url(#c)" d="M164.967 215.039l.741 2.478h8.271l.74-2.478z"/></g><g><linearGradient id="d" gradientUnits="userSpaceOnUse" x1="148.247" y1="395.87" x2="191.44" y2="395.87"><stop offset="0" stop-color="#EB6C60"/><stop offset="1" stop-color="#C43934"/></linearGradient><path fill="url(#d)" d="M191.44 345.16l-4.218-15.312h-34.757l-4.218 15.312c4.716 1.558 8.123 5.994 8.123 11.231 0 5.238-3.407 9.674-8.123 11.232v83.72c0 3.962 3.212 9.704 7.174 9.704 0 0 9.412.844 14.423.844l14.423-.844c3.962 0 7.174-5.742 7.174-9.704v-83.72c-4.716-1.559-8.123-5.994-8.123-11.232-.001-5.237 3.406-9.672 8.122-11.231z"/><g><linearGradient id="e" gradientUnits="userSpaceOnUse" x1="151.768" y1="337.508" x2="191.44" y2="337.508"><stop offset="0" stop-color="#F3A79C"/><stop offset="1" stop-color="#C43934"/></linearGradient><path fill="url(#e)" d="M184.691 332.379s5.731 13.117 6.749 12.781l-4.218-15.312h-34.757l-.697 2.53h32.923z"/><path fill="#96241E" d="M183.317 356.392c0-2.616.851-5.032 2.29-6.991-2.922 2.154-4.82 5.614-4.82 9.522 0 5.237 3.407 9.673 8.123 11.231v83.72c0 2.001-.82 4.452-2.14 6.393 2.726-1.698 4.671-5.843 4.671-8.923v-83.72c-4.717-1.559-8.124-5.994-8.124-11.232z"/></g><g><linearGradient id="f" gradientUnits="userSpaceOnUse" x1="174.061" y1="411.202" x2="184.424" y2="411.202"><stop offset="0" stop-color="#EB6C60"/><stop offset="1" stop-color="#96241E"/></linearGradient><path fill="url(#f)" d="M179.243 369.711c-2.861 0-5.182 2.32-5.182 5.182v72.619c0 2.861 2.32 5.182 5.182 5.182s5.182-2.32 5.182-5.182v-72.619c-.001-2.862-2.321-5.182-5.182-5.182z"/><path fill="#96241E" d="M180.93 451.006c-2.861 0-5.181-2.32-5.181-5.182v-72.619c0-.998.287-1.927.776-2.718-1.476.913-2.463 2.542-2.463 4.405v72.619c0 2.861 2.32 5.182 5.182 5.182 1.863 0 3.492-.987 4.404-2.464-.791.49-1.72.777-2.718.777z"/><linearGradient id="g" gradientUnits="userSpaceOnUse" x1="155.263" y1="411.202" x2="165.625" y2="411.202"><stop offset="0" stop-color="#EB6C60"/><stop offset="1" stop-color="#96241E"/></linearGradient><path fill="url(#g)" d="M160.444 369.711c-2.862 0-5.182 2.32-5.182 5.182v72.619c0 2.861 2.32 5.182 5.182 5.182 2.861 0 5.181-2.32 5.181-5.182v-72.619c0-2.862-2.32-5.182-5.181-5.182z"/><path fill="#96241E" d="M162.131 451.006c-2.861 0-5.181-2.32-5.181-5.182v-72.619c0-.998.287-1.927.776-2.718-1.476.913-2.463 2.542-2.463 4.405v72.619c0 2.861 2.32 5.182 5.182 5.182 1.863 0 3.492-.987 4.404-2.464-.79.49-1.72.777-2.718.777z"/></g><path fill="#F3A79C" d="M149.934 452.188v-83.721c4.716-1.558 8.123-5.994 8.123-11.231 0-4.966-3.065-9.207-7.402-10.962 3.423 2.072 5.715 5.824 5.715 10.118 0 5.238-3.407 9.674-8.123 11.232v83.72c0 3.552 2.585 8.524 5.976 9.516-2.525-1.832-4.289-5.738-4.289-8.672z"/></g></g><g><g><linearGradient id="h" gradientUnits="userSpaceOnUse" x1="206.295" y1="320.161" x2="261.81" y2="320.161"><stop offset="0" stop-color="#E1F0EA"/><stop offset="1" stop-color="#ADC5BF"/></linearGradient><path fill="url(#h)" d="M208.708 422.818l53.101 8.602c-10.885-16.488-14.024-20.012-14.024-23.395v-175.729c0-2.492 1.129-4.149 11.611-14.792l-53.101-8.602c10.885 16.488 14.024 20.011 14.024 23.394v175.729c0 2.493-1.129 4.15-11.611 14.793z"/><path fill="#4C6966" d="M257.166 217.504c-10.482 10.643-11.61 12.3-11.61 14.792v175.729c0 3.354 3.09 6.855 13.756 22.989l2.498.405c-10.885-16.488-14.024-20.012-14.024-23.395v-175.728c0-2.492 1.129-4.149 11.611-14.792l-53.101-8.602.268.405 50.602 8.197z"/><g><linearGradient id="i" gradientUnits="userSpaceOnUse" x1="227.969" y1="320.091" x2="240.135" y2="320.091"><stop offset="0" stop-color="#E1F0EA"/><stop offset="1" stop-color="#74968E"/></linearGradient><path fill="url(#i)" d="M234.052 237.367c-3.358 0-6.083 2.724-6.083 6.083l.007 153.422c.075 3.294 2.764 5.943 6.076 5.943 3.311 0 6-2.649 6.076-5.943l.007-153.422c0-3.36-2.725-6.083-6.083-6.083z"/><path fill="#4C6966" d="M236.282 401.7c-3.312 0-6-2.649-6.076-5.943l-.006-153.423c0-1.93.902-3.646 2.304-4.761-2.607.686-4.534 3.053-4.534 5.876l.007 153.422c.075 3.294 2.764 5.943 6.076 5.943 1.425 0 2.715-.511 3.751-1.331-.49.128-.992.217-1.522.217z"/></g></g><g><linearGradient id="j" gradientUnits="userSpaceOnUse" x1="203.974" y1="201.591" x2="263.302" y2="201.591"><stop offset="0" stop-color="#E1F0EA"/><stop offset="1" stop-color="#ADC5BF"/></linearGradient><path fill="url(#j)" d="M250.371 183.633l-4.703 20.798c-3.079.261-7.143.073-11.871-.997-4.729-1.068-8.477-2.646-11.145-4.207l4.702-20.799c-37.332 13.167-24.855 39.112 1.888 45.158 26.744 6.047 49.167-12.008 21.129-39.953z"/><g fill="#4C6966"><path d="M250.371 183.633l-.017.073c24.57 26.625 2.658 43.529-23.343 37.65-7.341-1.66-13.604-4.821-18.06-8.804 4.461 5.025 11.625 9.075 20.29 11.034 26.745 6.047 49.168-12.008 21.13-39.953zM224.918 179.339l-4.496 19.889c2.668 1.561 6.417 3.139 11.145 4.207 3.988.902 7.496 1.173 10.346 1.08-2.385-.079-5.114-.401-8.116-1.08-4.729-1.068-8.477-2.646-11.145-4.207l4.702-20.799c-.84.296-1.646.601-2.436.91z"/></g></g><g><linearGradient id="k" gradientUnits="userSpaceOnUse" x1="204.803" y1="438.731" x2="264.131" y2="438.731"><stop offset="0" stop-color="#E1F0EA"/><stop offset="1" stop-color="#ADC5BF"/></linearGradient><path fill="url(#k)" d="M217.734 456.689l4.703-20.798c3.079-.262 7.142-.074 11.871.995 4.728 1.07 8.477 2.646 11.145 4.209l-4.702 20.797c37.332-13.165 24.855-39.111-1.888-45.156-26.743-6.047-49.167 12.009-21.129 39.953z"/><g fill="#4C6966"><path d="M238.863 416.736c-8.508-1.923-16.577-1.405-22.726 1.094 5.601-1.49 12.339-1.57 19.38.021 25.9 5.854 38.419 30.375 5.271 43.874l-.038.167c37.333-13.164 24.856-39.111-1.887-45.156zM232.078 435.771c-4.729-1.069-8.792-1.257-11.871-.995l-4.482 19.826c.64.69 1.305 1.384 2.009 2.087l4.703-20.798c3.079-.262 7.142-.074 11.871.995 3.235.732 6 1.704 8.286 2.743-2.618-1.443-6.142-2.868-10.516-3.858z"/></g></g></g><g><g><g><linearGradient id="l" gradientUnits="userSpaceOnUse" x1="606.529" y1="255.251" x2="633.547" y2="255.251"><stop offset="0" stop-color="#ADC5BF"/><stop offset="1" stop-color="#74968E"/></linearGradient><path fill="url(#l)" d="M606.529 235.126h27.018v40.25h-27.018z"/><linearGradient id="m" gradientUnits="userSpaceOnUse" x1="594.398" y1="207.25" x2="645.678" y2="207.25"><stop offset="0" stop-color="#ADC5BF"/><stop offset="1" stop-color="#74968E"/></linearGradient><path fill="url(#m)" d="M620.037 179.375c12.961 0 25.641 2.269 25.641 2.269v35.067l-12.131 18.415h-27.018l-12.131-18.415v-35.067s12.68-2.269 25.639-2.269z"/><linearGradient id="n" gradientUnits="userSpaceOnUse" x1="581.993" y1="216.711" x2="581.993" y2="181.644"><stop offset="0" stop-color="#74968E"/><stop offset="1" stop-color="#E1F0EA"/></linearGradient><path fill="url(#n)" d="M569.588 216.711s5.777-3.402 12.406-3.402c6.631 0 12.404 3.402 12.404 3.402v-35.067s-4.961 3.402-12.404 3.402l-12.406-3.402v35.067z"/><linearGradient id="o" gradientUnits="userSpaceOnUse" x1="559.388" y1="219.926" x2="559.388" y2="178.429"><stop offset="0" stop-color="#74968E"/><stop offset="1" stop-color="#E1F0EA"/></linearGradient><path fill="url(#o)" d="M569.588 216.711c0 1.775-1.439 3.215-3.215 3.215h-13.971c-1.775 0-3.215-1.439-3.215-3.215v-35.067c0-1.776 1.439-3.215 3.215-3.215h13.971c1.775 0 3.215 1.439 3.215 3.215v35.067z"/><linearGradient id="p" gradientUnits="userSpaceOnUse" x1="645.678" y1="208.385" x2="693.646" y2="208.385"><stop offset="0" stop-color="#ADC5BF"/><stop offset="1" stop-color="#74968E"/></linearGradient><path fill="url(#p)" d="M645.678 216.711s26.07-3.088 42.061 18.415h5.908c-7.168-45.212-47.969-53.482-47.969-53.482v35.067z"/></g><g fill="#E1F0EA"><path d="M593.266 182.304v33.814c.719.352 1.133.593 1.133.593v-35.067c-.001 0-.405.273-1.133.66zM551.457 216.711v-35.067c0-1.776 1.439-3.215 3.215-3.215h-2.27c-1.775 0-3.215 1.439-3.215 3.215v35.067c0 1.775 1.439 3.215 3.215 3.215h2.27c-1.776 0-3.215-1.44-3.215-3.215zM606.529 235.126h1.135v40.25h-1.135z"/></g><g><path fill="#4C6966" d="M571.857 182.858c-1.451-.66-2.27-1.215-2.27-1.215v35.067s.852-.5 2.27-1.115v-32.737z"/><linearGradient id="q" gradientUnits="userSpaceOnUse" x1="605.783" y1="227.375" x2="645.678" y2="227.375"><stop offset="0" stop-color="#E1F0EA"/><stop offset=".162" stop-color="#B7CAC4"/><stop offset=".337" stop-color="#90A7A3"/><stop offset=".51" stop-color="#738C88"/><stop offset=".68" stop-color="#5D7975"/><stop offset=".846" stop-color="#506D6A"/><stop offset="1" stop-color="#4C6966"/></linearGradient><path fill="url(#q)" d="M620.037 179.375l-1.133.006c12.555.125 24.504 2.262 24.504 2.262v35.067l-11.383 17.281h-26.242l.746 1.134h24.75v40.25h2.268v-40.25l12.131-18.415v-35.067c0 .001-12.68-2.268-25.641-2.268z"/><path fill="#4C6966" d="M645.678 181.644v.588c8.641 2.506 39.549 14.088 45.699 52.894h2.27c-7.168-45.212-47.969-53.482-47.969-53.482z"/></g></g><g><linearGradient id="r" gradientUnits="userSpaceOnUse" x1="598.813" y1="368.634" x2="644.543" y2="368.634"><stop offset="0" stop-color="#EB6C60"/><stop offset=".11" stop-color="#DA5E53"/><stop offset=".342" stop-color="#BD453C"/><stop offset=".57" stop-color="#A7332B"/><stop offset=".792" stop-color="#9A2821"/><stop offset="1" stop-color="#96241E"/></linearGradient><path fill="url(#r)" d="M606.529 275.375c-3.307 0-5.512 5.514-5.512 38.595 0 33.081 3.402 39.146 3.402 68.921 0 16.018-5.607 32.723-5.607 53.303 0 25.698 0 25.698 21.225 25.698 24.506 0 24.506-.972 24.506-22.296s-6.033-45.127-6.033-56.705c0-11.579 2.205-36.941 2.205-68.369 0-31.428-1.656-39.147-7.168-39.147h-27.018z"/><path fill="#F3A79C" d="M601.08 437.329c0-20.58 5.607-37.286 5.607-53.304 0-29.774-3.402-35.839-3.402-68.921 0-33.081 2.205-38.595 5.512-38.595h27.018c.252 0 .492.022.729.056-.842-.84-1.832-1.19-2.996-1.19h-27.018c-3.307 0-5.512 5.514-5.512 38.595 0 33.081 3.402 39.146 3.402 68.921 0 16.018-5.607 32.723-5.607 53.303 0 16.887 0 22.676 6.021 24.662-3.752-2.777-3.754-9.103-3.754-23.527z"/><g><linearGradient id="s" gradientUnits="userSpaceOnUse" x1="617.313" y1="344.139" x2="625.031" y2="344.139"><stop offset="0" stop-color="#C43934"/><stop offset="1" stop-color="#96241E"/></linearGradient><circle fill="url(#s)" cx="621.172" cy="344.14" r="3.859"/><linearGradient id="t" gradientUnits="userSpaceOnUse" x1="617.313" y1="355.481" x2="625.031" y2="355.481"><stop offset="0" stop-color="#C43934"/><stop offset="1" stop-color="#96241E"/></linearGradient><circle fill="url(#t)" cx="621.172" cy="355.482" r="3.859"/><linearGradient id="u" gradientUnits="userSpaceOnUse" x1="617.313" y1="366.824" x2="625.031" y2="366.824"><stop offset="0" stop-color="#C43934"/><stop offset="1" stop-color="#96241E"/></linearGradient><circle fill="url(#u)" cx="621.172" cy="366.824" r="3.859"/><linearGradient id="v" gradientUnits="userSpaceOnUse" x1="617.313" y1="378.167" x2="625.031" y2="378.167"><stop offset="0" stop-color="#C43934"/><stop offset="1" stop-color="#96241E"/></linearGradient><circle fill="url(#v)" cx="621.172" cy="378.167" r="3.859"/><linearGradient id="w" gradientUnits="userSpaceOnUse" x1="617.313" y1="389.51" x2="625.031" y2="389.51"><stop offset="0" stop-color="#C43934"/><stop offset="1" stop-color="#96241E"/></linearGradient><circle fill="url(#w)" cx="621.172" cy="389.51" r="3.859"/><linearGradient id="x" gradientUnits="userSpaceOnUse" x1="617.313" y1="400.853" x2="625.031" y2="400.853"><stop offset="0" stop-color="#C43934"/><stop offset="1" stop-color="#96241E"/></linearGradient><circle fill="url(#x)" cx="621.172" cy="400.853" r="3.859"/><linearGradient id="y" gradientUnits="userSpaceOnUse" x1="617.313" y1="412.195" x2="625.031" y2="412.195"><stop offset="0" stop-color="#C43934"/><stop offset="1" stop-color="#96241E"/></linearGradient><circle fill="url(#y)" cx="621.172" cy="412.195" r="3.859"/><linearGradient id="z" gradientUnits="userSpaceOnUse" x1="617.313" y1="423.538" x2="625.031" y2="423.538"><stop offset="0" stop-color="#C43934"/><stop offset="1" stop-color="#96241E"/></linearGradient><circle fill="url(#z)" cx="621.172" cy="423.538" r="3.859"/><linearGradient id="A" gradientUnits="userSpaceOnUse" x1="617.313" y1="434.881" x2="625.031" y2="434.881"><stop offset="0" stop-color="#C43934"/><stop offset="1" stop-color="#96241E"/></linearGradient><circle fill="url(#A)" cx="621.172" cy="434.881" r="3.859"/><circle fill="#96241E" cx="632.515" cy="344.14" r="3.858"/><circle fill="#96241E" cx="632.515" cy="355.482" r="3.858"/><circle fill="#96241E" cx="632.515" cy="366.824" r="3.858"/><circle fill="#96241E" cx="632.515" cy="378.167" r="3.858"/><circle fill="#96241E" cx="632.515" cy="389.51" r="3.858"/><circle fill="#96241E" cx="632.515" cy="400.853" r="3.858"/><circle fill="#96241E" cx="632.515" cy="412.195" r="3.858"/><circle fill="#96241E" cx="632.515" cy="423.538" r="3.858"/><circle fill="#96241E" cx="632.515" cy="434.881" r="3.858"/><linearGradient id="B" gradientUnits="userSpaceOnUse" x1="605.971" y1="344.139" x2="613.688" y2="344.139"><stop offset="0" stop-color="#EB6C60"/><stop offset="1" stop-color="#96241E"/></linearGradient><circle fill="url(#B)" cx="609.829" cy="344.14" r="3.858"/><linearGradient id="C" gradientUnits="userSpaceOnUse" x1="605.971" y1="355.481" x2="613.688" y2="355.481"><stop offset="0" stop-color="#EB6C60"/><stop offset="1" stop-color="#96241E"/></linearGradient><circle fill="url(#C)" cx="609.829" cy="355.482" r="3.858"/><linearGradient id="D" gradientUnits="userSpaceOnUse" x1="605.971" y1="366.824" x2="613.688" y2="366.824"><stop offset="0" stop-color="#EB6C60"/><stop offset="1" stop-color="#96241E"/></linearGradient><circle fill="url(#D)" cx="609.829" cy="366.824" r="3.858"/><linearGradient id="E" gradientUnits="userSpaceOnUse" x1="605.971" y1="378.167" x2="613.688" y2="378.167"><stop offset="0" stop-color="#EB6C60"/><stop offset="1" stop-color="#96241E"/></linearGradient><circle fill="url(#E)" cx="609.829" cy="378.167" r="3.858"/><linearGradient id="F" gradientUnits="userSpaceOnUse" x1="605.971" y1="389.51" x2="613.688" y2="389.51"><stop offset="0" stop-color="#EB6C60"/><stop offset="1" stop-color="#96241E"/></linearGradient><circle fill="url(#F)" cx="609.829" cy="389.51" r="3.858"/><linearGradient id="G" gradientUnits="userSpaceOnUse" x1="605.971" y1="400.853" x2="613.688" y2="400.853"><stop offset="0" stop-color="#EB6C60"/><stop offset="1" stop-color="#96241E"/></linearGradient><circle fill="url(#G)" cx="609.829" cy="400.853" r="3.858"/><linearGradient id="H" gradientUnits="userSpaceOnUse" x1="605.971" y1="412.195" x2="613.688" y2="412.195"><stop offset="0" stop-color="#EB6C60"/><stop offset="1" stop-color="#96241E"/></linearGradient><circle fill="url(#H)" cx="609.829" cy="412.195" r="3.858"/><linearGradient id="I" gradientUnits="userSpaceOnUse" x1="605.971" y1="423.538" x2="613.688" y2="423.538"><stop offset="0" stop-color="#EB6C60"/><stop offset="1" stop-color="#96241E"/></linearGradient><circle fill="url(#I)" cx="609.829" cy="423.538" r="3.858"/><linearGradient id="J" gradientUnits="userSpaceOnUse" x1="605.971" y1="434.881" x2="613.688" y2="434.881"><stop offset="0" stop-color="#EB6C60"/><stop offset="1" stop-color="#96241E"/></linearGradient><circle fill="url(#J)" cx="609.829" cy="434.881" r="3.858"/></g><g fill="#F3A79C"><path d="M607.104 355.482c0-1.938 1.434-3.527 3.293-3.803-.186-.027-.373-.058-.568-.058-2.131 0-3.857 1.728-3.857 3.86 0 2.131 1.727 3.858 3.857 3.858.195 0 .383-.03.568-.058-1.86-.273-3.293-1.862-3.293-3.799zM607.104 366.824c0-1.938 1.434-3.526 3.293-3.802-.186-.027-.373-.058-.568-.058-2.131 0-3.857 1.728-3.857 3.859s1.727 3.859 3.857 3.859c.195 0 .383-.03.568-.058-1.86-.274-3.293-1.862-3.293-3.8zM607.104 378.167c0-1.938 1.434-3.526 3.293-3.802-.186-.027-.373-.058-.568-.058-2.131 0-3.857 1.728-3.857 3.859s1.727 3.859 3.857 3.859c.195 0 .383-.03.568-.058-1.86-.275-3.293-1.863-3.293-3.8zM607.104 389.51c0-1.938 1.434-3.526 3.293-3.802-.186-.028-.373-.058-.568-.058-2.131 0-3.857 1.728-3.857 3.859 0 2.131 1.727 3.859 3.857 3.859.195 0 .383-.03.568-.058-1.86-.275-3.293-1.863-3.293-3.8zM607.104 400.853c0-1.938 1.434-3.526 3.293-3.802-.186-.028-.373-.058-.568-.058-2.131 0-3.857 1.728-3.857 3.859 0 2.131 1.727 3.859 3.857 3.859.195 0 .383-.03.568-.058-1.86-.275-3.293-1.863-3.293-3.8zM607.104 412.195c0-1.938 1.434-3.526 3.293-3.802-.186-.028-.373-.058-.568-.058-2.131 0-3.857 1.728-3.857 3.859 0 2.131 1.727 3.859 3.857 3.859.195 0 .383-.03.568-.058-1.86-.274-3.293-1.862-3.293-3.8zM607.104 423.538c0-1.938 1.434-3.526 3.293-3.802-.186-.028-.373-.058-.568-.058-2.131 0-3.857 1.728-3.857 3.859 0 2.131 1.727 3.859 3.857 3.859.195 0 .383-.03.568-.058-1.86-.275-3.293-1.862-3.293-3.8zM607.104 434.881c0-1.938 1.434-3.526 3.293-3.802-.186-.028-.373-.058-.568-.058-2.131 0-3.857 1.728-3.857 3.859 0 2.131 1.727 3.859 3.857 3.859.195 0 .383-.03.568-.058-1.86-.275-3.293-1.863-3.293-3.8zM609.828 347.998c.195 0 .383-.03.568-.058-1.859-.275-3.293-1.864-3.293-3.801 0-1.938 1.434-3.527 3.293-3.803-.186-.027-.373-.058-.568-.058-2.131 0-3.857 1.728-3.857 3.86 0 2.133 1.726 3.86 3.857 3.86z"/></g><g fill="#EB6C60"><path d="M618.447 355.482c0-1.938 1.432-3.527 3.291-3.803-.186-.027-.373-.058-.566-.058-2.131 0-3.859 1.728-3.859 3.86 0 2.131 1.729 3.858 3.859 3.858.193 0 .381-.03.566-.058-1.859-.273-3.291-1.862-3.291-3.799zM618.447 366.824c0-1.938 1.432-3.526 3.291-3.802-.186-.027-.373-.058-.566-.058-2.131 0-3.859 1.728-3.859 3.859s1.729 3.859 3.859 3.859c.193 0 .381-.03.566-.058-1.859-.274-3.291-1.862-3.291-3.8zM618.447 378.167c0-1.938 1.432-3.526 3.291-3.802-.186-.027-.373-.058-.566-.058-2.131 0-3.859 1.728-3.859 3.859s1.729 3.859 3.859 3.859c.193 0 .381-.03.566-.058-1.859-.275-3.291-1.863-3.291-3.8zM618.447 389.51c0-1.938 1.432-3.526 3.291-3.802-.186-.028-.373-.058-.566-.058-2.131 0-3.859 1.728-3.859 3.859 0 2.131 1.729 3.859 3.859 3.859.193 0 .381-.03.566-.058-1.859-.275-3.291-1.863-3.291-3.8zM618.447 400.853c0-1.938 1.432-3.526 3.291-3.802-.186-.028-.373-.058-.566-.058-2.131 0-3.859 1.728-3.859 3.859 0 2.131 1.729 3.859 3.859 3.859.193 0 .381-.03.566-.058-1.859-.275-3.291-1.863-3.291-3.8zM618.447 412.195c0-1.938 1.432-3.526 3.291-3.802-.186-.028-.373-.058-.566-.058-2.131 0-3.859 1.728-3.859 3.859 0 2.131 1.729 3.859 3.859 3.859.193 0 .381-.03.566-.058-1.859-.274-3.291-1.862-3.291-3.8zM618.447 423.538c0-1.938 1.432-3.526 3.291-3.802-.186-.028-.373-.058-.566-.058-2.131 0-3.859 1.728-3.859 3.859 0 2.131 1.729 3.859 3.859 3.859.193 0 .381-.03.566-.058-1.859-.275-3.291-1.862-3.291-3.8zM618.447 434.881c0-1.938 1.432-3.526 3.291-3.802-.186-.028-.373-.058-.566-.058-2.131 0-3.859 1.728-3.859 3.859 0 2.131 1.729 3.859 3.859 3.859.193 0 .381-.03.566-.058-1.859-.275-3.291-1.863-3.291-3.8zM621.172 347.998c.193 0 .381-.03.566-.058-1.859-.275-3.291-1.864-3.291-3.801 0-1.938 1.432-3.527 3.291-3.803-.186-.027-.373-.058-.566-.058-2.131 0-3.859 1.728-3.859 3.86-.001 2.133 1.728 3.86 3.859 3.86z"/></g><g fill="#C43934"><path d="M629.789 355.482c0-1.938 1.434-3.527 3.293-3.803-.188-.027-.373-.058-.568-.058-2.131 0-3.857 1.728-3.857 3.86 0 2.131 1.727 3.858 3.857 3.858.195 0 .381-.03.568-.058-1.859-.273-3.293-1.862-3.293-3.799zM629.789 366.824c0-1.938 1.434-3.526 3.293-3.802-.188-.027-.373-.058-.568-.058-2.131 0-3.857 1.728-3.857 3.859s1.727 3.859 3.857 3.859c.195 0 .381-.03.568-.058-1.859-.274-3.293-1.862-3.293-3.8zM629.789 378.167c0-1.938 1.434-3.526 3.293-3.802-.188-.027-.373-.058-.568-.058-2.131 0-3.857 1.728-3.857 3.859s1.727 3.859 3.857 3.859c.195 0 .381-.03.568-.058-1.859-.275-3.293-1.863-3.293-3.8zM629.789 389.51c0-1.938 1.434-3.526 3.293-3.802-.188-.028-.373-.058-.568-.058-2.131 0-3.857 1.728-3.857 3.859 0 2.131 1.727 3.859 3.857 3.859.195 0 .381-.03.568-.058-1.859-.275-3.293-1.863-3.293-3.8zM629.789 400.853c0-1.938 1.434-3.526 3.293-3.802-.188-.028-.373-.058-.568-.058-2.131 0-3.857 1.728-3.857 3.859 0 2.131 1.727 3.859 3.857 3.859.195 0 .381-.03.568-.058-1.859-.275-3.293-1.863-3.293-3.8zM629.789 412.195c0-1.938 1.434-3.526 3.293-3.802-.188-.028-.373-.058-.568-.058-2.131 0-3.857 1.728-3.857 3.859 0 2.131 1.727 3.859 3.857 3.859.195 0 .381-.03.568-.058-1.859-.274-3.293-1.862-3.293-3.8zM629.789 423.538c0-1.938 1.434-3.526 3.293-3.802-.188-.028-.373-.058-.568-.058-2.131 0-3.857 1.728-3.857 3.859 0 2.131 1.727 3.859 3.857 3.859.195 0 .381-.03.568-.058-1.859-.275-3.293-1.862-3.293-3.8zM629.789 434.881c0-1.938 1.434-3.526 3.293-3.802-.188-.028-.373-.058-.568-.058-2.131 0-3.857 1.728-3.857 3.859 0 2.131 1.727 3.859 3.857 3.859.195 0 .381-.03.568-.058-1.859-.275-3.293-1.863-3.293-3.8zM632.514 347.998c.195 0 .381-.03.568-.058-1.859-.275-3.293-1.864-3.293-3.801 0-1.938 1.434-3.527 3.293-3.803-.188-.027-.373-.058-.568-.058-2.131 0-3.857 1.728-3.857 3.86-.001 2.133 1.726 3.86 3.857 3.86z"/></g><g fill="#C43934"><path d="M642.617 415.218c-.9-.701-1.484-1.788-1.484-3.022 0-.844.283-1.612.742-2.244l-.143-.975c-1.045.691-1.734 1.873-1.734 3.219 0 1.726 1.141 3.17 2.703 3.663l-.084-.641zM643.98 427.385l-.014-.156c-1.629-.448-2.834-1.917-2.834-3.69 0-1.497.857-2.777 2.104-3.413l-.043-.379c-1.814.315-3.195 1.889-3.195 3.792 0 2.131 1.729 3.859 3.859 3.859l.123-.013zM644.424 438.683c-1.859-.276-3.291-1.864-3.291-3.802 0-1.878 1.35-3.417 3.125-3.763l-.004-.058-.396-.039c-2.131 0-3.859 1.728-3.859 3.859 0 2.131 1.729 3.859 3.859 3.859.193.001.38-.029.566-.056z"/></g></g></g><g><g><linearGradient id="K" gradientUnits="userSpaceOnUse" x1="405.321" y1="132.955" x2="444.45" y2="132.955"><stop offset="0" stop-color="#4C6966"/><stop offset="1" stop-color="#ADC5BF"/></linearGradient><path fill="url(#K)" d="M424.886 113.391c-10.805 0-19.564 8.76-19.564 19.565 0 10.805 8.76 19.564 19.564 19.564s19.564-8.76 19.564-19.564c0-10.806-8.76-19.565-19.564-19.565zm0 35.431c-8.762 0-15.866-7.104-15.866-15.866s7.104-15.865 15.866-15.865c8.763 0 15.866 7.103 15.866 15.865s-7.104 15.866-15.866 15.866z"/><path fill="#4C6966" d="M428.94 140.185c0-1.291-1.057-2.348-2.348-2.348h-3.239c-1.291 0-2.348 1.057-2.348 2.348v26.187c0 1.291 1.057 2.348 2.348 2.348h3.239c1.291 0 2.348-1.057 2.348-2.348v-26.187z"/><linearGradient id="L" gradientUnits="userSpaceOnUse" x1="402.671" y1="167.982" x2="447.101" y2="167.982"><stop offset="0" stop-color="#4C6966"/><stop offset="1" stop-color="#ADC5BF"/></linearGradient><path fill="url(#L)" d="M447.101 160.74c0-5.571-14.628-5.571-22.127-5.571-7.561 0-22.302 0-22.302 5.596v20.032h44.429v-20.057z"/><g fill="#4C6966"><path d="M423.42 155.17v25.626h3.107v-25.626l-1.554-.001-1.553.001zM428.94 180.796h3.108v-25.523c-1.062-.042-2.106-.069-3.108-.083v25.606zM434.464 180.796h3.105v-25.103c-1.013-.123-2.057-.218-3.105-.291v25.394zM439.984 180.796h3.106v-23.951c-.929-.32-1.979-.578-3.106-.787v24.738zM445.506 158.02v22.777h1.595v-20.057c0-1.117-.595-2.007-1.595-2.72zM417.898 180.796h3.107v-25.607c-1.001.015-2.047.04-3.107.083v25.524zM412.376 180.796h3.107v-25.398c-1.049.07-2.092.165-3.107.285v25.113zM406.855 180.796h3.107v-24.756c-1.124.203-2.172.454-3.107.763v23.993zM404.44 157.918c-1.106.736-1.769 1.665-1.769 2.846v20.032h1.769v-22.878z"/></g></g><g><path fill="#4C6966" d="M338.297 180.103l7.988-3.914 11.424 16.792-7.986 3.913z"/><linearGradient id="M" gradientUnits="userSpaceOnUse" x1="297.01" y1="45.392" x2="328.346" y2="45.392" gradientTransform="matrix(.866 -.5 -.5 -.866 93.599 373.006)"><stop offset="0" stop-color="#4C6966"/><stop offset="1" stop-color="#ADC5BF"/></linearGradient><path fill="url(#M)" d="M328.711 185.686c2.034 2.988 11.309-1.556 16.066-3.887 4.719-2.312 13.922-6.821 11.899-9.795l-2.036-2.99c-2.024-2.976-11.228 1.533-15.946 3.845-4.759 2.332-14.033 6.875-12.001 9.863l2.018 2.964z"/><g fill="#4C6966"><path d="M337.717 173.339l6.082 8.938.979-.479.978-.479-6.083-8.938-.099.048-.878.429-.894.44-.085.041zM350.664 178.748c.634-.361 1.255-.733 1.85-1.112l-5.702-8.38c-.683.247-1.374.519-2.06.802l5.912 8.69zM354.318 168.658l-.066-.058c-.128-.1-.264-.188-.417-.259l-.031-.012c-.331-.151-.719-.241-1.155-.276l4.011 5.896c.371-.69.422-1.348.016-1.944l-2.036-2.99c-.09-.138-.203-.252-.322-.357zM336.664 185.407c.683-.248 1.373-.52 2.059-.806l-5.917-8.695-.006.004c-.632.36-1.251.73-1.844 1.105l5.708 8.392zM330.859 186.66l-4.084-6.004-.002.002c-.207.354-.329.702-.354 1.035l-.003.058c-.008.156.008.307.046.457l.022.07c.048.152.111.299.209.444l2.018 2.964c.428.63 1.184.922 2.148.974z"/></g></g><g><path fill="#4C6966" d="M503.521 176.21l8.014 3.913-11.464 16.792-8.011-3.914z"/><linearGradient id="N" gradientUnits="userSpaceOnUse" x1="428.502" y1="307.319" x2="459.922" y2="307.319" gradientTransform="matrix(.866 .5 .5 -.866 -30.314 221.355)"><stop offset="0" stop-color="#4C6966"/><stop offset="1" stop-color="#ADC5BF"/></linearGradient><path fill="url(#N)" d="M492.995 171.959c-2.04 2.987 7.267 7.531 12.039 9.862 4.735 2.312 13.97 6.821 16.001 3.846l2.041-2.992c2.031-2.974-7.203-7.482-11.939-9.794-4.771-2.331-14.078-6.875-16.118-3.888l-2.024 2.966z"/><g fill="#4C6966"><path d="M510.157 172.402l-6.104 8.939.98.479.982.478 6.101-8.938-.098-.049-.883-.431-.897-.438-.081-.04zM511.111 184.621c.689.285 1.383.556 2.068.802l5.719-8.379c-.596-.379-1.219-.751-1.855-1.114l-5.932 8.691zM523.275 182.261l.025-.079c.041-.143.062-.287.059-.434l-.004-.03c-.01-.319-.111-.648-.295-.986h-.002l-4.023 5.895c.893-.071 1.592-.363 2-.959l2.041-2.992c.092-.135.153-.275.199-.415zM497.27 177.663c.599.377 1.222.749 1.858 1.11l5.937-8.695-.008-.003c-.687-.284-1.376-.556-2.058-.801l-5.729 8.389zM493.075 174.024l4.098-6.004h-.002c-.468.024-.883.109-1.237.257l-.062.027c-.162.071-.311.159-.443.262l-.06.051c-.132.111-.252.232-.351.375l-2.023 2.966c-.431.632-.35 1.331.08 2.066z"/></g></g><g><circle fill="#4C6966" cx="424.974" cy="325.379" r="156.516"/><circle fill="#ADC5BF" cx="424.975" cy="325.379" r="149.447"/></g><g><circle fill="#E1F0EA" cx="424.974" cy="325.379" r="135.757"/><g fill="#74968E"><circle cx="424.885" cy="202.172" r="6.221"/><circle cx="486.588" cy="218.659" r="6.221"/><circle cx="531.689" cy="263.768" r="6.221"/><circle cx="548.181" cy="325.379" r="6.222"/><circle cx="531.674" cy="386.983" r="6.221"/><circle cx="486.577" cy="432.078" r="6.221"/><circle cx="424.973" cy="448.587" r="6.221"/><circle cx="363.364" cy="432.091" r="6.221"/><circle cx="318.255" cy="386.995" r="6.221"/><circle cx="363.357" cy="218.654" r="6.221"/><circle cx="318.234" cy="263.754" r="6.221"/><circle cx="301.765" cy="325.379" r="6.221"/></g><g fill="#ADC5BF"><circle cx="412.093" cy="202.826" r="2.935"/><circle cx="399.378" cy="204.846" r="2.935"/><circle cx="386.897" cy="208.195" r="2.935"/><circle cx="374.873" cy="212.812" r="2.935"/><circle cx="352.242" cy="225.837" r="2.935"/><circle cx="342.24" cy="233.945" r="2.935"/><circle cx="333.105" cy="243.085" r="2.934"/><circle cx="325.001" cy="253.096" r="2.935"/><circle cx="312.074" cy="275.802" r="2.935"/><circle cx="307.467" cy="287.824" r="2.935"/><circle cx="304.126" cy="300.308" r="2.934"/><circle cx="302.112" cy="313.03" r="2.935"/><circle cx="302.455" cy="338.894" r="2.936"/><circle cx="304.476" cy="351.609" r="2.935"/><path d="M307.517 361.172c1.612-.171 3.056 1 3.226 2.609.168 1.615-1 3.057-2.612 3.228-1.612.169-3.056-1-3.225-2.612-.17-1.611 1-3.056 2.611-3.225z"/><circle cx="312.441" cy="376.114" r="2.935"/><path d="M323.883 395.98c1.312-.952 3.146-.663 4.102.65.95 1.309.66 3.145-.65 4.098-1.311.953-3.147.663-4.099-.648-.954-1.313-.661-3.146.647-4.1zM331.991 405.98c1.312-.951 3.148-.66 4.1.648.953 1.314.663 3.147-.648 4.101-1.312.954-3.145.662-4.098-.648s-.663-3.147.646-4.101zM341.132 415.115c1.312-.952 3.146-.662 4.098.648.954 1.313.663 3.147-.649 4.101-1.311.953-3.146.661-4.098-.651-.952-1.309-.662-3.145.649-4.098zM351.142 423.221c1.31-.954 3.146-.662 4.1.65.951 1.309.661 3.146-.65 4.098-1.311.955-3.147.663-4.099-.65-.951-1.309-.662-3.145.649-4.098zM372.73 437.057c.661-1.479 2.395-2.146 3.877-1.487 1.478.66 2.145 2.394 1.486 3.874-.659 1.482-2.395 2.148-3.875 1.487-1.479-.66-2.142-2.392-1.488-3.874zM384.752 441.664c.662-1.479 2.396-2.146 3.875-1.487 1.483.661 2.149 2.395 1.489 3.875-.659 1.481-2.393 2.146-3.873 1.487-1.481-.657-2.147-2.394-1.491-3.875zM397.236 445.004c.659-1.48 2.394-2.146 3.874-1.487 1.483.661 2.148 2.395 1.488 3.876-.659 1.481-2.393 2.146-3.874 1.485-1.481-.657-2.146-2.393-1.488-3.874zM409.958 447.02c.659-1.48 2.394-2.146 3.875-1.488 1.479.659 2.145 2.395 1.485 3.875-.658 1.481-2.394 2.147-3.874 1.486-1.477-.66-2.145-2.392-1.486-3.873zM435.569 448.203c-.169-1.612 1-3.055 2.613-3.226 1.608-.168 3.054 1 3.225 2.612.17 1.612-1 3.057-2.612 3.226-1.612.167-3.054-1.001-3.226-2.612z"/><circle cx="451.203" cy="445.875" r="2.936"/><path d="M460.764 442.835c-.168-1.614 1.001-3.059 2.611-3.227 1.615-.168 3.058 1 3.227 2.613.17 1.612-.999 3.055-2.613 3.223-1.611.169-3.054-.999-3.225-2.609z"/><circle cx="475.708" cy="437.911" r="2.935"/><circle cx="497.936" cy="424.724" r="2.935"/><circle cx="507.937" cy="416.616" r="2.935"/><path d="M514.697 409.201c-.953-1.312-.662-3.147.648-4.099 1.314-.954 3.146-.663 4.1.649.955 1.312.662 3.145-.65 4.098-1.311.952-3.145.662-4.098-.648z"/><circle cx="525.177" cy="397.467" r="2.934"/><path d="M536.641 377.615c-1.482-.66-2.148-2.394-1.488-3.877.658-1.477 2.393-2.144 3.875-1.486 1.48.657 2.146 2.396 1.486 3.876s-2.395 2.144-3.873 1.487zM541.248 365.594c-1.482-.662-2.146-2.396-1.49-3.874.664-1.483 2.395-2.146 3.877-1.489 1.48.66 2.145 2.391 1.486 3.872s-2.396 2.147-3.873 1.491zM544.588 353.11c-1.482-.659-2.148-2.396-1.488-3.872.66-1.484 2.393-2.149 3.875-1.489s2.146 2.393 1.486 3.874c-.66 1.479-2.393 2.146-3.873 1.487zM546.602 340.39c-1.48-.66-2.146-2.396-1.486-3.877.656-1.479 2.395-2.145 3.873-1.485 1.48.659 2.148 2.395 1.486 3.873-.659 1.479-2.393 2.146-3.873 1.489zM547.799 314.785c-1.611.168-3.057-1-3.227-2.615-.17-1.607.998-3.053 2.611-3.225 1.611-.169 3.057 1.002 3.227 2.612.166 1.613-1.002 3.055-2.611 3.228zM545.777 302.069c-1.615.169-3.057-1.002-3.227-2.611-.166-1.615.998-3.056 2.611-3.228 1.613-.168 3.055.998 3.225 2.61.173 1.613-.999 3.058-2.609 3.229zM542.428 289.588c-1.611.169-3.055-1-3.223-2.609-.172-1.615.998-3.058 2.609-3.228 1.615-.17 3.057 1 3.225 2.612.168 1.61-.998 3.054-2.611 3.225zM537.811 277.563c-1.611.17-3.055-1-3.225-2.612-.17-1.609 1.002-3.054 2.613-3.223 1.611-.17 3.057.998 3.225 2.61.166 1.612-1 3.056-2.613 3.225zM526.062 254.784c-1.314.952-3.148.663-4.104-.65-.949-1.309-.66-3.144.65-4.099 1.311-.954 3.148-.662 4.102.649.952 1.312.659 3.147-.648 4.1zM517.955 244.783c-1.316.953-3.148.661-4.1-.649-.953-1.314-.664-3.146.646-4.101 1.312-.951 3.143-.662 4.098.649.956 1.312.663 3.147-.644 4.101z"/><circle cx="507.087" cy="233.274" r="2.935"/><circle cx="497.077" cy="225.169" r="2.934"/><path d="M477.224 213.692c-.661 1.482-2.396 2.149-3.879 1.488-1.477-.658-2.144-2.392-1.486-3.875.658-1.481 2.396-2.146 3.877-1.488 1.478.661 2.143 2.396 1.488 3.875zM465.2 209.085c-.662 1.482-2.395 2.147-3.874 1.489-1.482-.662-2.147-2.393-1.49-3.876.661-1.48 2.391-2.145 3.873-1.486 1.482.657 2.145 2.393 1.491 3.873z"/><circle cx="450.036" cy="204.552" r="2.935"/><circle cx="437.314" cy="202.538" r="2.934"/></g><g><path fill="#74968E" d="M372.676 338.505c0 1.626-1.312 2.938-2.934 2.938-1.62 0-2.935-1.312-2.935-2.938 0-1.619 1.314-2.932 2.935-2.932 1.622 0 2.934 1.313 2.934 2.932z"/><circle fill="#74968E" cx="379.069" cy="341" r="2.935"/><path fill="#74968E" d="M388.822 347.816c0 1.626-1.314 2.937-2.935 2.937-1.623 0-2.935-1.311-2.935-2.937 0-1.621 1.312-2.932 2.935-2.932 1.62.001 2.935 1.311 2.935 2.932z"/><circle fill="#74968E" cx="388.379" cy="357.132" r="2.935"/><path fill="#74968E" d="M388.818 366.446c0 1.62-1.312 2.931-2.934 2.931-1.621 0-2.935-1.311-2.935-2.931s1.314-2.938 2.935-2.938c1.622.001 2.934 1.318 2.934 2.938zM382.002 373.264c0 1.617-1.315 2.93-2.934 2.93-1.622 0-2.936-1.312-2.936-2.93 0-1.625 1.314-2.938 2.936-2.938 1.619 0 2.934 1.313 2.934 2.938zM372.69 375.759c0 1.619-1.314 2.931-2.935 2.931-1.623 0-2.935-1.312-2.935-2.931 0-1.627 1.312-2.938 2.935-2.938 1.621-.001 2.935 1.311 2.935 2.938zM363.376 373.261c0 1.62-1.314 2.937-2.933 2.937-1.622 0-2.936-1.316-2.936-2.937 0-1.618 1.314-2.934 2.936-2.934 1.619 0 2.933 1.316 2.933 2.934z"/><circle fill="#74968E" cx="353.624" cy="366.443" r="2.935"/><path fill="#74968E" d="M363.377 340.999c0 1.625-1.312 2.936-2.934 2.936-1.623 0-2.935-1.311-2.935-2.936 0-1.622 1.312-2.933 2.935-2.933 1.622 0 2.934 1.311 2.934 2.933zM356.556 347.818c0 1.618-1.315 2.932-2.937 2.932-1.619 0-2.933-1.313-2.933-2.932 0-1.624 1.314-2.937 2.933-2.937 1.622.001 2.937 1.313 2.937 2.937z"/><circle fill="#74968E" cx="351.131" cy="357.132" r="2.935"/><g><path fill="#74968E" d="M365.039 346.959h3.913v15.65h-3.913z"/><path fill="#4C6966" d="M366.418 345.579h3.914v15.65h-3.914z"/></g></g><g><path fill="#74968E" d="M483.113 338.505c0 1.626-1.314 2.938-2.936 2.938-1.619 0-2.936-1.312-2.936-2.938 0-1.619 1.316-2.932 2.936-2.932 1.622 0 2.936 1.313 2.936 2.932z"/><circle fill="#74968E" cx="489.504" cy="341" r="2.934"/><path fill="#74968E" d="M499.258 347.816c0 1.626-1.315 2.937-2.936 2.937-1.624 0-2.935-1.311-2.935-2.937 0-1.621 1.311-2.932 2.935-2.932 1.62.001 2.936 1.311 2.936 2.932z"/><circle fill="#74968E" cx="498.815" cy="357.132" r="2.935"/><path fill="#74968E" d="M499.254 366.446c0 1.62-1.312 2.931-2.934 2.931s-2.936-1.311-2.936-2.931 1.313-2.938 2.936-2.938c1.621.001 2.934 1.318 2.934 2.938zM492.438 373.264c0 1.617-1.315 2.93-2.934 2.93-1.621 0-2.935-1.312-2.935-2.93 0-1.625 1.313-2.938 2.935-2.938 1.618 0 2.934 1.313 2.934 2.938zM483.126 375.759c0 1.619-1.314 2.931-2.935 2.931-1.623 0-2.935-1.312-2.935-2.931 0-1.627 1.312-2.938 2.935-2.938 1.621-.001 2.935 1.311 2.935 2.938zM473.812 373.261c0 1.62-1.314 2.937-2.934 2.937-1.622 0-2.936-1.316-2.936-2.937 0-1.618 1.313-2.934 2.936-2.934 1.62 0 2.934 1.316 2.934 2.934zM466.994 366.443c0 1.625-1.313 2.938-2.934 2.938-1.624 0-2.936-1.313-2.936-2.938 0-1.621 1.312-2.933 2.936-2.933 1.621.001 2.934 1.312 2.934 2.933zM473.812 340.999c0 1.625-1.312 2.936-2.934 2.936-1.623 0-2.936-1.311-2.936-2.936 0-1.622 1.312-2.933 2.936-2.933 1.623 0 2.934 1.311 2.934 2.933zM466.991 347.818c0 1.618-1.315 2.932-2.937 2.932-1.618 0-2.934-1.313-2.934-2.932 0-1.624 1.315-2.937 2.934-2.937 1.622.001 2.937 1.313 2.937 2.937z"/><circle fill="#74968E" cx="461.567" cy="357.132" r="2.935"/><g><path fill="#74968E" d="M476.853 345.579h3.913v15.65h-3.913z"/><path fill="#4C6966" d="M478.232 344.198h3.913v15.65h-3.913z"/></g></g></g><g><path fill="#74968E" d="M434.762 328.141c0-4.701-2.59-8.792-6.416-10.942v-89.562l-6.133-9.618-6.134 9.618v89.562c-3.826 2.15-6.415 6.241-6.415 10.942 0 4.699 2.589 8.791 6.415 10.942v8.318h12.267v-8.318c3.826-2.151 6.416-6.243 6.416-10.942z"/><path fill="#4C6966" d="M431.106 224.875l-6.132-9.618-6.134 9.618v119.768h12.266z"/><g><circle fill="#ADC5BF" cx="424.973" cy="325.379" r="12.548"/><circle fill="#E1F0EA" cx="424.973" cy="325.379" r="3.912"/></g></g><g><linearGradient id="O" gradientUnits="userSpaceOnUse" x1="316.875" y1="330.14" x2="542.594" y2="330.14"><stop offset="0" stop-color="#fff" stop-opacity="0"/><stop offset="1" stop-color="#fff"/></linearGradient><path opacity=".7" fill="url(#O)" d="M507.098 217.281l-190.223 190.221c10.909 14.338 24.598 26.44 40.271 35.496l185.447-185.447c-9.058-15.674-21.159-29.363-35.495-40.27z"/><linearGradient id="P" gradientUnits="userSpaceOnUse" x1="300.098" y1="294.863" x2="488.816" y2="294.863"><stop offset="0" stop-color="#fff" stop-opacity="0"/><stop offset="1" stop-color="#fff"/></linearGradient><path opacity=".7" fill="url(#P)" d="M305.146 389.223l183.671-183.672c-3.422-1.827-6.929-3.514-10.517-5.048l-178.202 178.203c1.534 3.589 3.221 7.096 5.048 10.517z"/><linearGradient id="Q" gradientUnits="userSpaceOnUse" x1="362.205" y1="358.527" x2="554.041" y2="358.527"><stop offset="0" stop-color="#fff" stop-opacity="0"/><stop offset="1" stop-color="#fff"/></linearGradient><path opacity=".7" fill="url(#Q)" d="M382.799 454.446l171.242-171.243c-2.334-7.144-5.242-14.026-8.672-20.595l-183.164 183.167c6.567 3.43 13.451 6.337 20.594 8.671z"/></g><path fill="#74968E" d="M424.974 189.623c-37.839 0-72.057 15.487-96.676 40.46 24.51-24.162 58.159-39.08 95.295-39.08 74.976 0 135.757 60.781 135.757 135.758 0 37.137-14.916 70.784-39.08 95.295 24.973-24.621 40.461-58.837 40.461-96.677-.001-74.976-60.781-135.756-135.757-135.756z"/></g></svg>