<svg xmlns="http://www.w3.org/2000/svg" width="40" height="40" viewBox="14 14 100 100" enable-background="new 14 14 100 100"><g fill="#DDF0F2"><path d="M32 72c-4.418 0-8 3.582-8 8s3.582 8 8 8 8-3.582 8-8-3.582-8-8-8zm0 12c-2.209 0-4-1.791-4-4s1.791-4 4-4 4 1.791 4 4-1.791 4-4 4zM96 56c-4.418 0-8 3.582-8 8s3.582 8 8 8 8-3.582 8-8-3.582-8-8-8zm0 12c-2.209 0-4-1.791-4-4s1.791-4 4-4 4 1.791 4 4-1.791 4-4 4zM64 40c-4.418 0-8 3.582-8 8s3.582 8 8 8 8-3.582 8-8-3.582-8-8-8zm0 12c-2.209 0-4-1.791-4-4s1.791-4 4-4 4 1.791 4 4-1.791 4-4 4zM64 36c.684 0 1.35.07 2 .18v-4.18h-4v4.18c.652-.11 1.317-.18 2-.18zM64 60c-.683 0-1.348-.07-2-.18v36.18h4v-36.18c-.65.11-1.316.18-2 .18zM96 52c.684 0 1.35.07 2 .18v-20.18h-4v20.18c.65-.11 1.316-.18 2-.18zM96 76c-.684 0-1.35-.07-2-.18v20.18h4v-20.18c-.65.11-1.316.18-2 .18zM32 68c.683 0 1.348.07 2 .18v-36.18h-4v36.18c.652-.11 1.317-.18 2-.18zM32 92c-.683 0-1.348-.07-2-.18v4.18h4v-4.18c-.652.11-1.317.18-2 .18z"/></g></svg>
