<?xml version="1.0" encoding="utf-8"?>
<!-- Generator: Adobe Illustrator 16.0.4, SVG Export Plug-In . SVG Version: 6.00 Build 0)  -->
<!DOCTYPE svg PUBLIC "-//W3C//DTD SVG 1.1//EN" "http://www.w3.org/Graphics/SVG/1.1/DTD/svg11.dtd">
<svg version="1.1" id="Layer_1" xmlns="http://www.w3.org/2000/svg" xmlns:xlink="http://www.w3.org/1999/xlink" x="0px" y="0px"
	 width="165.908px" height="175.75px" viewBox="0.554 0.875 165.908 175.75" enable-background="new 0.554 0.875 165.908 175.75"
	 xml:space="preserve">
<g>
	<path d="M83.243,0.875l-82.689,29.1l13.067,108.335l69.71,38.314l70.069-38.833L166.462,29.46L83.243,0.875z M146.041,132.609
		l-62.992,34.861l-62.02-34.398L9.833,36.183l73.216-26.096l75.165,25.634L146.041,132.609z"/>
	<path d="M83.05,15.804L83.05,15.804L83.05,15.804l-0.001,0.002L31.925,129.539l19.067-0.354l10.251-25.64h45.819l11.223,25.997
		l18.244,0.338L83.051,15.809L83.05,15.804z M100.454,88.382H67.969l15.218-36.11L100.454,88.382z"/>
</g>
</svg>
