<?xml version="1.0" encoding="utf-8"?>
<!-- Generator: Adobe Illustrator 16.0.4, SVG Export Plug-In . SVG Version: 6.00 Build 0)  -->
<!DOCTYPE svg PUBLIC "-//W3C//DTD SVG 1.1//EN" "http://www.w3.org/Graphics/SVG/1.1/DTD/svg11.dtd">
<svg version="1.1" id="Capa_1" xmlns="http://www.w3.org/2000/svg" xmlns:xlink="http://www.w3.org/1999/xlink" x="0px" y="0px"
	 width="791.996px" height="341.388px" viewBox="0 225.305 791.996 341.388" enable-background="new 0 225.305 791.996 341.388"
	 xml:space="preserve">
<g>
	<path d="M260.974,549.142c66.846-21.68,113.819-31.013,113.819-31.013s34.63-44.265,41.552-59.621
		c-2.369,15.433-12.344,51.489-12.344,51.489s115.924-44.866,158.078-81.298c42.156-36.431,59.621-105.086,59.621-105.086
		s146.035-65.941,152.061-71.962c6.023-6.025,38.537-45.769-1.207-14.453c-39.746,31.312-149.039,59.81-152.459,58.714
		c-8.031-8.033-70.664-16.862-77.885-24.09c-7.229-7.226-74.676,10.439-74.676,10.439s77.084-3.21,91.535,24.087
		c-69.053-12.848-130.877-12.848-130.877-12.848s-126.066,61.828-147.743,65.843c-21.676,4.016-88.322,28.905-88.322,28.905
		s33.72-4.817,48.98,10.438c-64.237-4.814-92.34-0.803-92.34-0.803s-79.49,51.391-110.806,82.705
		c-19.375,4.719-31.314,17.665-31.314,17.665s-9.438,16.561-5.822,29.81c12.945-2.409,20.771,2.711,20.771,2.711
		s-11.139,14.451-1.504,29.207c11.441,0,17.768,1.806,17.768,1.806s21.977,4.515,46.668,4.515
		C109.218,566.302,194.132,570.821,260.974,549.142z M50.805,516.415c0,0,420.739-134.895,443.222-146.939
		c21.539-11.539,78.785-38.906,87.438-45.067c1.143-1.003,1.504-1.315,0.891-0.7c-0.186,0.185-0.508,0.429-0.891,0.7
		c-7.057,6.215-45.166,40.043-81.814,58.714C457.097,404.801,125.476,508.384,50.805,516.415z"/>
</g>
</svg>
