<svg xmlns="http://www.w3.org/2000/svg" viewBox="0 554.6 425.2 183.3"><path d="M140.1 728.5c35.9-11.6 61.1-16.7 61.1-16.7s18.6-23.8 22.3-32c-1.3 8.3-6.6 27.6-6.6 27.6s62.2-24.1 84.9-43.6c22.6-19.6 32-56.4 32-56.4s78.4-35.4 81.6-38.6c3.2-3.2 20.7-24.6-.6-7.8s-80 32.1-81.9 31.5c-4.3-4.3-37.9-9.1-41.8-12.9-3.9-3.9-40.1 5.6-40.1 5.6s41.4-1.7 49.1 12.9c-37.1-6.9-70.3-6.9-70.3-6.9s-67.7 33.2-79.3 35.3c-11.6 2.2-47.4 15.5-47.4 15.5s18.1-2.6 26.3 5.6c-34.5-2.6-49.6-.4-49.6-.4s-42.7 27.6-59.5 44.4c-10.4 2.5-16.8 9.5-16.8 9.5s-5.1 8.9-3.1 16c6.9-1.3 11.2 1.5 11.2 1.5s-6 7.8-.8 15.7c6.1 0 9.5 1 9.5 1s11.8 2.4 25.1 2.4c13.2 0 58.8 2.4 94.7-9.2zm-112.8-17.6s225.9-72.4 238-78.9c11.6-6.2 42.3-20.9 46.9-24.2.6-.5.8-.7.5-.4-.1.1-.3.2-.5.4-3.8 3.3-24.2 21.5-43.9 31.5-22.9 11.7-200.9 67.3-241 71.6z"/></svg>
