<?xml version="1.0" encoding="utf-8"?>

<!-- License Agreement at http://iconmonstr.com/license/ -->

<!DOCTYPE svg PUBLIC "-//W3C//DTD SVG 1.1//EN" "http://www.w3.org/Graphics/SVG/1.1/DTD/svg11.dtd">
<svg version="1.1" xmlns="http://www.w3.org/2000/svg" xmlns:xlink="http://www.w3.org/1999/xlink" x="0px" y="0px"
	 width="512px" height="512px" viewBox="0 0 512 512" enable-background="new 0 0 512 512" xml:space="preserve">
<path id="apple-os-icon" d="M423.754,352.263c-13.494,39.14-49.969,108.441-91.588,109.193
	c-27.609,0.523-36.465-16.355-68.025-16.355c-31.543,0-41.397,15.849-67.502,16.879c-44.153,1.677-108.393-100.042-108.393-188.75
	c0-81.495,52.872-121.895,102.488-122.639c26.604-0.475,51.734,17.942,67.977,17.942c16.283,0,46.811-22.146,78.895-18.891
	c13.42,0.556,51.137,5.413,75.344,40.809C348.719,232.363,354.812,320.033,423.754,352.263z M338.021,50
	c-48.52,1.955-88.103,52.847-82.565,94.948C300.279,148.432,343.312,98.169,338.021,50z"/>
</svg>
