<svg xmlns="http://www.w3.org/2000/svg" width="512" height="512" viewBox="0 0 512 512"><path d="M423.754 352.263c-13.494 39.14-49.969 108.441-91.588 109.193-27.609.523-36.465-16.355-68.025-16.355-31.543 0-41.397 15.849-67.502 16.879-44.153 1.677-108.393-100.042-108.393-188.75 0-81.495 52.872-121.895 102.488-122.639 26.604-.475 51.734 17.942 67.977 17.942 16.283 0 46.811-22.146 78.895-18.891 13.42.556 51.137 5.413 75.344 40.809-64.231 41.912-58.138 129.582 10.804 161.812zm-85.733-302.263c-48.52 1.955-88.103 52.847-82.565 94.948 44.823 3.484 87.856-46.779 82.565-94.948z"/></svg>