<svg xmlns="http://www.w3.org/2000/svg" viewBox="0.1 -0.1 480 498.3"><path d="M479.9 132.7c-.8-8.4-8-23.8-12.5-29.3-5.9-7.2-11.7-14.8-19-20.7-7.2-5.8-15.2-10.5-23.7-14-8.8-3.7-19.3-5.8-27.6-7.3-1.3-6.7-3-11.3-7.6-19.4-5.7-10.3-12-15-21.9-22.2-12.3-9-29.4-18.3-46-19.5-7.2-.5-17.7-.8-30.9 2.1-11.5 2.5-22.8 7.1-31.4 11.5-17.3-6.6-33.4-5.6-46.1-2.2-10.7 2.9-13 4.7-22.9 10.4-9.6 4.2-20.1 13.9-28.2 25.1-30.2.9-55.4 11.5-73.3 21.7-20.3 11.5-38.6 33.6-45.8 47.7-8 15.7-16 37.9-9.2 72.2-44.5 27.4-39.9 71.1-14.9 95.6 21.9 21.4 58.3 28.1 92.7 24.6 10.3 10.4 49.2 57.6 49.2 57.6s39.2 44.2 25.5 103.2c2.3 4.7 6.2 9.9 10.4 13.5 5.1 4.4 11.4 7.4 18.1 9.9 4.7 1.7 10.8 3.2 15.8 4.1 5.2.9 11.5.9 17.5.8 10.6-.1 19-1.1 28.5-3.4 6-1.5 11.6-3.1 16.2-4.9 8.7-3.4 14.2-7.2 15.4-9.7-.9-4.1-2.2-10.5-3.2-16.2-1.1-6.1-1.8-11.5-2.3-15.6-1.3-11.3-.6-19.2.8-32.4 2.1-19.3 6.3-28.2 12.3-39.6 5.8-11 15.3-26.3 22.6-36.2 7.6-10.3 26.8-30.4 33.7-37.9 2.4.7 7.1 2.3 14.4 3.7 5.5 1.1 12 2.4 20.1 2.1 19.3-.7 26.4-4.3 37.6-11.7 10.2-6.6 20-19.9 25.1-32.7 3.9-9.8 5.1-19.8 3.4-31.5-1.1-7.9-3.7-17.2-5.7-23.4-2.2-6.7-5.7-13.9-8.6-19.4 0 0 11.7-14 16.4-25.7 4.1-9.9 6-22.8 5.1-30.9zm-276.6 203.7c-1.7.8-3.4 1.2-5.5.4-7.5-2.7-19.9-12-28.8-20.3-13.8-12.9-24.9-29.6-24.9-29.6 5.3-5.3 9.9-12.9 13.4-18.8 4 .2 12.3.8 20.4.4 8.2-.4 16.8-1.6 20.3-3.6 1 2.9 7.7 27 8.2 41.8.6 19.5 0 22.9-3.1 29.7zm123.4-30.8c-6 4.5-13 10.9-22.9 12.7-2.8-2.7-4-9.7-5.1-17.2-1.1-7.4-1-15.9-.7-18.2 4.1-.2 14.3-1 23-2.9 6.9-1.4 20.6-5.5 20.6-5.5 1.4 3.7 5.5 9.8 8.3 12.4-3.6 3.4-23.2 18.7-23.2 18.7z"/></svg>
