<svg xmlns="http://www.w3.org/2000/svg" viewBox="41.5 250 342.2 342"><path d="M82.8 309.5c79.5-92.5 227-74.2 282.1 33.8h-132.5c-23.9 0-39.3-.5-56 8.2-19.6 10.3-34.4 29.5-39.6 51.9l-54-93.9zm72.9 111.4c0 31.4 25.5 56.9 56.9 56.9s56.9-25.5 56.9-56.9-25.5-56.9-56.9-56.9c-31.4.1-56.9 25.6-56.9 56.9zm78.9 74.5c-31.9 9.5-69.3-1-89.7-36.3-15.6-26.9-56.9-98.8-75.6-131.4-65.7 100.5-9.1 237.6 110.1 261l55.2-93.3zm30.8-131.3c26.6 24.7 32.4 64.7 14.4 95.7-13.6 23.4-56.9 96.4-77.8 131.8 122.8 7.6 212.4-112.8 172-227.5h-108.6z"/></svg>
