<svg xmlns="http://www.w3.org/2000/svg" width="23.303" height="23.7" viewBox="0 0 23.303 23.7"><g fill="#DDF0F2"><path d="M22.355 7.477h-7.326c1.315 1.009 2.184 2.583 2.184 4.372 0 1.42-.665 2.614-1.434 3.683-1.313 1.827-4.442 7.829-4.442 7.829l.354.018c6.367 0 11.529-5.162 11.529-11.529-.001-1.549-.311-3.024-.865-4.373zM11.666 6.329c2.522-.018 10.089-.095 10.089-.095-1.973-3.526-5.736-5.914-10.065-5.914-3.61 0-6.83 1.661-8.943 4.258l3.522 6.255c.476-2.555 2.705-4.485 5.397-4.504zM11.689 17.372c-2.409 0-4.245-1.628-5.191-3.702-.952-2.087-4.546-7.973-4.546-7.973-1.128 1.782-1.791 3.887-1.791 6.152 0 5.783 4.262 10.558 9.814 11.388l3.583-6.213c-.586.214-1.21.348-1.869.348z"/><circle cx="11.689" cy="11.85" r="3.728"/></g></svg>
