<svg xmlns="http://www.w3.org/2000/svg" viewBox="57 249.9 311.2 342.2"><path d="M225.3 530.5c-14.4-44.7-52.9-105.6-142.7-111.9v-103c94.5-1.1 138.3-35.3 171.4-39.1 29.2-3.4 60.3.5 64.5 29.6l-13.4-4.5c-11.4-3.4-16.4 13.7-5.2 17.1l12.6 4.3c12.3 3.7 12.8 8.6 15 25.5l-15.9-5.2c-11.2-3.4-16.6 13.6-5.2 17.1l12.9 4c12.7 3.8 12.9 7.1 15.8 25.8l-16.8-5c-11.4-3.4-16.4 13.7-5.2 17.1l16.3 4.3c10.9 3.1 11.6 10.1 12.6 24.8-43.5-5.4-81.8 10.1-98.1 21.9 16.3 48.6 20.5 107.3 2.6 112.7-14.2 4.3-15.8-18.8-21.2-35.5zm49.2-64.1c30.3-12.8 69.8-12.9 93.7-7-6.1-57.4-18.3-125.8-26.6-157-11.9-44.8-44-56.6-90.5-51.4-50 5.6-65.4 40.4-194.1 40.4v150c43.4 3.4 117.3 8.1 145.8 103.1 7.1 23.6 13.8 47.5 40.4 47.5 49.2 0 42.9-78.8 31.3-125.6z"/></svg>
