<svg xmlns="http://www.w3.org/2000/svg" viewBox="0 0 512 512"><path d="M271.28 387.914c-17.307-53.859-63.697-127.136-171.845-134.803v-124.057c113.814-1.277 166.521-42.479 206.369-47.118 35.122-4.089 72.641.592 77.63 35.666l-16.098-5.4c-13.68-4.152-19.787 16.469-6.223 20.566l15.225 5.191c14.772 4.469 15.36 10.34 18.069 30.715l-19.089-6.25c-13.544-4.111-19.944 16.422-6.231 20.57l15.543 4.777c15.264 4.625 15.555 8.529 18.992 31.1l-20.255-5.973c-13.687-4.143-19.794 16.469-6.229 20.572l19.582 5.205c13.113 3.718 13.939 12.192 15.138 29.868-52.403-6.541-98.463 12.154-118.087 26.352 19.603 58.491 24.727 129.205 3.165 135.719-17.245 5.212-19.178-22.542-25.656-42.7zm59.293-77.223c36.52-15.377 84.09-15.548 112.785-8.374-7.346-69.176-22.035-151.506-32.01-189.047-14.318-53.89-53.036-68.187-108.984-61.886-60.227 6.781-78.781 48.671-233.723 48.671v180.666c52.274 4.058 141.274 9.724 175.604 124.14 8.531 28.435 16.667 57.14 48.62 57.14 59.205-.001 51.597-94.948 37.708-151.31z"/></svg>
