<svg xmlns="http://www.w3.org/2000/svg" viewBox="41.5 266.3 342.2 309.2"><path d="M160.5 321.9c1.3-11.4 9-26.2 23.3-33-21.5-3.3-39 6.8-47.7 19.8-13.8-3-22.3-3.1-36.2-.5-8.8-6.7-19.2-21.9-18.4-37.9-16.7 19.7-20.1 34.5-18.1 52.2-64.3 114.8 22.1 253.1 145.3 253.1 110.7 0 174.9-84.7 174.9-171.4 0-58.5-26.5-109.3-53.5-120.3 10.1 11.1 21.5 40.1 19.4 60.1-21.8-56.8-76.3-78.8-94.7-77.6 60.4 23.5 74.8 103.7 69.5 127.3-5.2-27.7-22-51.6-32-57.9 58.5 137-82.7 179-125.8 131.5 11.1 2.9 33 1.5 49.5-9.5 15.4-10.3 16.8-10.9 26.7-11.7 11.7-.9-.7-24.1-26.3-20.2-10.5 1.6-27.9 14-49.3 5.8-25.8-9.9-25-45.1 1.7-34.5 5.8-7.5 1.5-21.6 1.5-21.6 7.7-7.1 17.5-12.1 23.4-15.6 3.9-2.3 14.2-8.7 13.6-21.1-2.1-1.6-5.5-3.7-13.1-3.3-29.8 2-31.8-8.7-33.7-13.7z"/></svg>
