<svg xmlns="http://www.w3.org/2000/svg" viewBox="0 0 512 512"><path d="M193.236 136.759c1.611-13.756 10.781-31.599 28.046-39.777-25.94-3.966-47.005 8.179-57.497 23.792-16.648-3.592-26.877-3.789-43.619-.661-10.624-8.052-23.118-26.401-22.14-45.601-20.101 23.677-24.243 41.531-21.765 62.845-77.367 138.394 26.723 304.812 175.09 304.812 133.296-.001 210.649-101.942 210.649-206.4 0-70.445-31.887-131.594-64.444-144.815 12.147 13.387 25.947 48.257 23.303 72.387-26.277-68.42-91.888-94.863-113.998-93.455 72.682 28.34 90.076 124.814 83.628 153.287-6.319-33.388-26.483-62.146-38.546-69.748 70.391 164.908-99.609 215.575-151.479 158.343 13.376 3.469 39.78 1.764 59.561-11.483 18.506-12.393 20.247-13.12 32.137-14.043 14.123-1.098-.851-28.986-31.702-24.268-12.694 1.942-33.612 16.869-59.341 7.031-31.045-11.872-30.068-54.25 1.99-41.5 6.939-9.003 1.817-26.021 1.817-26.021 9.314-8.529 21.072-14.539 28.234-18.763 4.697-2.77 17.077-10.439 16.376-25.351-2.522-1.972-6.598-4.492-15.779-3.965-35.775 2.268-38.167-10.658-40.521-16.646z"/></svg>
