<?xml version="1.0" encoding="utf-8"?>

<!-- License Agreement at http://iconmonstr.com/license/ -->

<!DOCTYPE svg PUBLIC "-//W3C//DTD SVG 1.1//EN" "http://www.w3.org/Graphics/SVG/1.1/DTD/svg11.dtd">
<svg version="1.1" xmlns="http://www.w3.org/2000/svg" xmlns:xlink="http://www.w3.org/1999/xlink" x="0px" y="0px"
	 width="512px" height="512px" viewBox="0 0 512 512" enable-background="new 0 0 512 512" xml:space="preserve">
<path id="firefox-icon" d="M193.236,136.759c1.611-13.756,10.781-31.599,28.046-39.777c-25.94-3.966-47.005,8.179-57.497,23.792
	c-16.648-3.592-26.877-3.789-43.619-0.661c-10.624-8.052-23.118-26.401-22.14-45.601c-20.101,23.677-24.243,41.531-21.765,62.845
	c-77.367,138.394,26.723,304.812,175.09,304.812C384.647,442.168,462,340.227,462,235.769c0-70.445-31.887-131.594-64.444-144.815
	c12.147,13.387,25.947,48.257,23.303,72.387c-26.277-68.42-91.888-94.863-113.998-93.455
	c72.682,28.34,90.076,124.814,83.628,153.287c-6.319-33.388-26.483-62.146-38.546-69.748
	C422.334,318.333,252.334,369,200.464,311.768c13.376,3.469,39.78,1.764,59.561-11.483c18.506-12.393,20.247-13.12,32.137-14.043
	c14.123-1.098-0.851-28.986-31.702-24.268c-12.694,1.942-33.612,16.869-59.341,7.031c-31.045-11.872-30.068-54.25,1.99-41.5
	c6.939-9.003,1.817-26.021,1.817-26.021c9.314-8.529,21.072-14.539,28.234-18.763c4.697-2.77,17.077-10.439,16.376-25.351
	c-2.522-1.972-6.598-4.492-15.779-3.965C197.982,155.673,195.59,142.747,193.236,136.759z"/>
</svg>
