<svg xmlns="http://www.w3.org/2000/svg" viewBox="41.5 254.1 342.2 333.7"><path d="M212.6 254.1c-94.5 0-171.1 76.6-171.1 171.1 0 75.6 49 139.7 117 162.3 8.5 1.6 11.3-3.7 11.3-8.2v-31.9c-47.6 10.4-57.5-20.2-57.5-20.2-7.8-19.8-19-25-19-25-15.5-10.6 1.2-10.4 1.2-10.4 17.2 1.2 26.2 17.6 26.2 17.6 15.3 26.1 40 18.6 49.8 14.2 1.5-11.1 6-18.6 10.9-22.9-38-4.3-77.9-19-77.9-84.6 0-18.7 6.7-33.9 17.6-45.9-1.8-4.3-7.6-21.7 1.6-45.3 0 0 14.4-4.6 47.1 17.5 13.7-3.8 28.3-5.7 42.8-5.8 14.5.1 29.2 2 42.9 5.8 32.7-22.1 47-17.5 47-17.5 9.3 23.6 3.5 41 1.7 45.3 11 12 17.6 27.2 17.6 45.9 0 65.7-40 80.2-78.1 84.4 6.1 5.3 11.7 15.7 11.7 31.7v46.9c0 4.6 2.7 9.9 11.4 8.2 67.9-22.7 116.9-86.7 116.9-162.3 0-94.3-76.6-170.9-171.1-170.9z"/></svg>
