<svg xmlns="http://www.w3.org/2000/svg" viewBox="0 0 512 512"><path d="M462 256c0-115.604-93.762-206-206-206-111.458 0-206 89.449-206 206 0 117.234 95.125 206 206 206 111.564 0 206-89.594 206-206zm-303.473-75.583c-3.932 18.902-6.367 39.029-7.146 59.793h-59.098c2.635-27.648 12.112-53.299 26.723-75.242 12.689 6.423 26.057 11.47 39.521 15.449zm-7.056 91.372c.898 20.948 3.489 41.223 7.6 60.219-13.784 4.044-26.991 9.04-39.779 15.46-14.774-22.038-24.356-47.847-27.009-75.679h59.188zm15.888 90.67c4.935 14.79 11.216 29.376 19.297 42.713-17.433-8.118-33.21-19.194-46.675-32.595 8.49-3.848 17.654-7.232 27.378-10.118zm104.43-43.301v-47.369h57.664c-.857 18.496-3.139 36.317-6.701 52.957-16.283-2.998-33.397-4.887-50.963-5.588zm42.49 36.118c-7.732 22.147-21.896 50.895-42.49 62.079v-66.595c14.66.633 28.914 2.153 42.49 4.516zm-42.49-115.066v-46.786c17.764-.71 35.062-2.634 51.508-5.689 3.383 16.53 5.504 34.188 6.242 52.476h-57.75zm0-78.39v-69.28c21.248 11.54 35.648 41.664 43.357 64.609-13.837 2.452-28.384 4.026-43.357 4.671zm-31.579-68.997v68.975c-14.788-.659-29.156-2.227-42.831-4.649 7.67-22.832 21.909-52.582 42.831-64.326zm0 100.577v46.81h-57.225c.738-18.289 2.86-35.946 6.242-52.477 16.284 3.027 33.403 4.941 50.983 5.667zm-50.436 131.347c-3.563-16.641-5.845-34.46-6.701-52.958h57.138v47.392c-17.383.718-34.316 2.598-50.437 5.566zm50.436 26.036v66.289c-20.311-11.4-34.28-39.795-41.965-61.795 13.416-2.335 27.49-3.848 41.965-4.494zm104.956 11.675c9.588 2.844 18.629 6.176 27.02 9.956-13.314 13.288-28.898 24.299-46.115 32.418 8.025-13.32 14.208-27.733 19.095-42.374zm8.289-30.452c4.109-18.995 6.701-39.27 7.6-60.217h58.662c-2.645 27.748-12.178 53.483-26.877 75.478-12.813-6.387-25.836-11.286-39.385-15.261zm39.672-166.837c14.533 21.899 23.963 47.477 26.59 75.041h-58.572c-.779-20.763-3.215-40.89-7.146-59.792 13.407-3.963 26.636-8.96 39.128-15.249zm-20.545-25.18c-8.266 3.748-17.174 7.057-26.615 9.893-4.709-14.58-10.629-28.794-18.174-41.894 16.707 8.118 31.832 18.98 44.789 32.001zm-187.64-32.36c-7.712 13.324-13.653 27.607-18.385 42.252-9.578-2.878-18.609-6.241-26.979-10.058 13.112-13.139 28.435-24.072 45.364-32.194z"/></svg>
