<svg xmlns="http://www.w3.org/2000/svg" viewBox="41.5 249.9 342.2 342.2"><path d="M383.7 420.9c0-96-77.9-171.1-171.1-171.1-92.6 0-171.1 74.3-171.1 171.1 0 97.4 79 171.1 171.1 171.1 92.7 0 171.1-74.4 171.1-171.1zm-252-62.7c-3.3 15.7-5.3 32.4-5.9 49.7h-49.2c2.2-23 10.1-44.3 22.2-62.5 10.6 5.3 21.7 9.5 32.9 12.8zm-5.9 75.9c.7 17.4 2.9 34.2 6.3 50-11.4 3.4-22.4 7.5-33 12.8-12.3-18.3-20.2-39.7-22.4-62.8h49.1zm13.2 75.3c4.1 12.3 9.3 24.4 16 35.5-14.5-6.7-27.6-15.9-38.8-27.1 7.1-3.2 14.7-6 22.8-8.4zm86.7-36v-39.3h47.9c-.7 15.4-2.6 30.2-5.6 44-13.5-2.6-27.7-4.1-42.3-4.7zm35.3 30c-6.4 18.4-18.2 42.3-35.3 51.6v-55.3c12.2.5 24 1.7 35.3 3.7zm-35.3-95.6v-38.8c14.8-.6 29.1-2.2 42.8-4.7 2.8 13.7 4.6 28.4 5.2 43.6l-48-.1zm0-65.1v-57.5c17.6 9.6 29.6 34.6 36 53.7-11.5 2-23.6 3.3-36 3.8zm-26.2-57.3v57.3c-12.3-.5-24.2-1.8-35.6-3.9 6.4-18.9 18.2-43.6 35.6-53.4zm0 83.6v38.9h-47.5c.6-15.2 2.4-29.9 5.2-43.6 13.5 2.5 27.7 4.1 42.3 4.7zm-41.9 109c-3-13.8-4.9-28.6-5.6-44h47.5v39.4c-14.4.6-28.5 2.2-41.9 4.6zm41.9 21.7v55.1c-16.9-9.5-28.5-33-34.9-51.3 11.2-2 22.9-3.3 34.9-3.8zm87.1 9.7c8 2.4 15.5 5.1 22.4 8.3-11.1 11-24 20.2-38.3 26.9 6.8-11.1 11.9-23.1 15.9-35.2zm6.9-25.3c3.4-15.8 5.6-32.6 6.3-50h48.7c-2.2 23-10.1 44.4-22.3 62.7-10.6-5.4-21.4-9.4-32.7-12.7zm33-138.6c12.1 18.2 19.9 39.4 22.1 62.3h-48.6c-.6-17.2-2.7-34-5.9-49.7 11-3.2 22-7.4 32.4-12.6zm-17.1-20.9c-6.9 3.1-14.3 5.9-22.1 8.2-3.9-12.1-8.8-23.9-15.1-34.8 13.9 6.8 26.5 15.8 37.2 26.6zm-155.8-26.9c-6.4 11.1-11.3 22.9-15.3 35.1-8-2.4-15.5-5.2-22.4-8.4 10.9-10.8 23.6-19.9 37.7-26.7z"/></svg>
