<svg xmlns="http://www.w3.org/2000/svg" viewBox="0.9 135.5 425.3 569.8"><path d="M257 395.3c.6 8.9 1.3 17.7 15.2 34.2-1.9-12-7-17.7 1.3-34.9 4.4 6.3 67.2 26.6 75.4-46.3 3.8 10.1 5.1 17.1 5.1 17.1s12.7-20.9-.6-33c4.4-1.9 11.4-5.7 11.4-5.7s-52.6-13.3-100.8 46.9c-10.8 1.9-17.7 4.4-30.4 0 4.4 10.9 1.2 15.3 23.4 21.7zm71.6-48.8c5.7 36.8-17.7 52.6-49.4 38.7 19.6-25.4 41.2-37.4 49.4-38.7zm-256 19s1.3-7 5.1-17.1c8.9 72.9 71 52.6 75.4 46.3 8.2 17.1 3.2 22.2 1.3 34.9 13.9-17.1 14.6-25.3 15.2-34.2 22.2-5.7 19-10.8 22.8-20.9-12.7 4.4-19.6 1.9-30.4 0-48.2-60.2-100.8-46.9-100.8-46.9s7 3.8 11.4 5.7c-12.7 11.9 0 32.2 0 32.2zm25.4-19c8.2 1.3 29.8 13.3 49.4 38.7-31.1 13.9-55.1-2-49.4-38.7zm293.3 142.6c-10.8 31.7-15.2 34.9-28.5 46.9-5.1-27.9-3.8-51.3-3.8-72.9 0-21.5 18.4-27.9 43.1-39.9 54.5-38.7-.6-75.4-.6-75.4s-3.8-15.8-3.8-40.6c49.4-60.8-23.4-71-22.8-65.3l1.3-27.9c7-13.9 21.5-20.3 47.5-26-33.6-33.6-93.8-53.9-144.5 17.7-7.6 2.5-7.6-.6-11.4-2.5 0-24.7 0-21.5 9.5-43.7-20.3 0-22.2 7-38 17.7-8.2-31.7-3.2-25.3-1.3-41.8-29.1 4.4-38.7 31.1-45 45-5.7-7-6.3-14.6-7.6-31.1-35.5 25.3-29.8 53.9-29.8 53.9s-3.8 2.5-8.2 2.5c-70.4-83.5-127.4-32.2-142-18.3 36.1 4.4 48.2 26.6 48.2 26.6s0 5.1-1.3 27.2c-60.8-8.2-34.2 62.1-23.4 65.3-.6 39.9-2.5 38.7-2.5 38.7s-3.8 6.3-21.5 19.6c-15.2 37.4 19 54.5 19 54.5s7.6 3.8 25.3 13.9l19.6 27.9s0 22.2-3.8 76.7c-22.2-15.8-25.3-39.3-30.4-49.4-49.4 66.5-8.2 129.9 32.3 139.4 29.1 52.6 48.8 46.9 76.7 53.9 60.2 45.6 119.8 13.3 142.6-.6 50.1-10.1 53.9-24.7 75.4-56.4 86.8-35.5 45-129.9 29.7-135.6zm-3.8-308.6c-3.8 4.4-9.5 5.7-9.5 5.7s-39.9-10.1-66.5 33c-5.7-1.9-12-6.3-12-6.3s33.5-57.2 88-32.4zm-31.6 50.7l-4.4 10.1-12 2.5s-1.9-2.5-12.7-13.3c8.9-30.4 27.9-33 36.8-33-9 11.5-7.7 33.7-7.7 33.7zm-307.4-45s-5.7-1.3-9.5-5.7c54.5-25.3 88.1 32.3 88.1 32.3s-6.3 4.4-12 6.3c-26.7-43.1-66.6-32.9-66.6-32.9zm14.6 12c8.9 0 27.9 2.5 36.8 33-10.8 10.1-12.7 13.3-12.7 13.3l-11.4-2.5-5.1-10.8s1.3-22.2-7.6-33zm-26 211c-33-19-6.3-45-6.3-45v13.3s28.5-29.1 11.4-94.4c-1.3 7.6 0 17.1 0 17.1s-31.7-43.7 6.3-45.6c21.5-.6 60.2 4.4 119.1 52-17.7-25.3-12-27.2-60.8-57 20.9-22.2 124.8-64 214.2 0-22.8 11.4-39.3 20.3-62.1 57 32.3-22.2 63.4-52 119.8-52 12.7 3.8 29.8 7 7 45.6-1.9-11.4 0-17.1 0-17.1s-23.4 52 9.5 94.4c-.6-3.8 0-13.3 0-13.3s28.5 23.4-3.2 45c-29.1 16.5-45.6 18.4-49.4 53.2 0 34.9-1.9 39.9 3.2 84.9-15.8 5.1-21.5 7-43.1 7-13.9-32.3-17.7-43.7-35.5-80.5 1.3 17.1 10.8 60.2 26 97-38.7 0-157.8-.6-157.8-.6s20.9-52 24.7-97c-8.9 17.1-19 41.2-34.2 81.1-24.1 0-29.1-1.9-44.4-7 5.1-45 3.8-58.9 4.4-81.7-5.7-32.3-12.7-38-48.8-56.4zm-5.7 109.6c7.6 13.3 15.2 46.3 84.3 52-10.8 14.6-22.8 23.4-13.3 46.9-20.9 1.3-91.9-11.4-71-98.9zm57 114.7l19.6.6s1.3 3.2 13.3 27.9c-17.6-6.9-32.9-28.5-32.9-28.5zm126.8 55.2c-68.4 0-91.3-45.6-98.9-83.6 0-15.2 6.3-17.7 19-20.9 68.4-.6 152.7 0 152.7 0s27.9 1.3 22.8 20.9c-4.4 20.8-20.2 82.3-95.6 83.6zm89.3-27.3c12-24.7 13.3-27.9 13.3-27.9l19.6-.6c.7.6-14.5 22.2-32.9 28.5zm19.7-44.3c9.5-22.8-2.5-32.3-13.3-46.9 69.1-5.7 76.7-38.7 84.3-52 20.9 88.1-50.1 100.8-71 98.9zm-143.2-16.5h-40.6s-10.8.6-7.6 9.5c3.8 12.7 17.7 27.9 28.5 27.9s24.1-18.4 26.6-28.5l-6.9-8.9zm105.2 0h-40.6s-9.5-.6-7 9.5 15.8 28.5 26.6 28.5 24.7-15.2 28.5-27.9c3.2-9.5-7.5-10.1-7.5-10.1z"/></svg>
