<svg xmlns="http://www.w3.org/2000/svg" viewBox="1 0 67.1 89.9"><path d="M41.4 40.9c.1 1.4.2 2.8 2.4 5.4-.3-1.9-1.1-2.8.2-5.5.7 1 10.6 4.2 11.9-7.3.6 1.6.8 2.7.8 2.7s2-3.3-.1-5.2c.7-.3 1.8-.9 1.8-.9s-8.3-2.1-15.9 7.4c-1.7.3-2.8.7-4.8 0 .7 1.7.2 2.4 3.7 3.4zm11.3-7.7c.9 5.8-2.8 8.3-7.8 6.1 3.1-4 6.5-5.9 7.8-6.1zM12.3 36.2s.2-1.1.8-2.7c1.4 11.5 11.2 8.3 11.9 7.3 1.3 2.7.5 3.5.2 5.5 2.2-2.7 2.3-4 2.4-5.4 3.5-.9 3-1.7 3.6-3.3-2 .7-3.1.3-4.8 0-7.6-9.5-15.9-7.4-15.9-7.4s1.1.6 1.8.9c-2 1.9 0 5.1 0 5.1zm4-3c1.3.2 4.7 2.1 7.8 6.1-4.9 2.2-8.7-.3-7.8-6.1zM62.6 55.7c-1.7 5-2.4 5.5-4.5 7.4-.8-4.4-.6-8.1-.6-11.5s2.9-4.4 6.8-6.3c8.6-6.1-.1-11.9-.1-11.9s-.6-2.5-.6-6.4c7.8-9.6-3.7-11.2-3.6-10.3l.2-4.4c1.1-2.2 3.4-3.2 7.5-4.1-5.3-5.3-14.8-8.5-22.8 2.8-1.2.4-1.2-.1-1.8-.4 0-3.9 0-3.4 1.5-6.9-3.2 0-3.5 1.1-6 2.8-1.3-5-.5-4-.2-6.6-4.6.7-6.1 4.9-7.1 7.1-.9-1.1-1-2.3-1.2-4.9-5.6 4-4.7 8.5-4.7 8.5s-.6.4-1.3.4c-11.1-13.2-20.1-5.1-22.4-2.9 5.7.7 7.6 4.2 7.6 4.2s0 .8-.2 4.3c-9.6-1.3-5.4 9.8-3.7 10.3-.1 6.3-.4 6.1-.4 6.1s-.6 1-3.4 3.1c-2.4 5.9 3 8.6 3 8.6s1.2.6 4 2.2l3.1 4.4s0 3.5-.6 12.1c-3.5-2.5-4-6.2-4.8-7.8-7.8 10.5-1.3 20.5 5.1 22 4.6 8.3 7.7 7.4 12.1 8.5 9.5 7.2 18.9 2.1 22.5-.1 7.9-1.6 8.5-3.9 11.9-8.9 13.7-5.6 7.1-20.5 4.7-21.4zm-.6-48.7c-.6.7-1.5.9-1.5.9s-6.3-1.6-10.5 5.2c-.9-.3-1.9-1-1.9-1s5.3-9 13.9-5.1zm-5 8l-.7 1.6-1.9.4s-.3-.4-2-2.1c1.4-4.8 4.4-5.2 5.8-5.2-1.4 1.8-1.2 5.3-1.2 5.3zm-48.5-7.1s-.9-.2-1.5-.9c8.6-4 13.9 5.1 13.9 5.1s-1 .7-1.9 1c-4.2-6.8-10.5-5.2-10.5-5.2zm2.3 1.9c1.4 0 4.4.4 5.8 5.2-1.7 1.6-2 2.1-2 2.1l-1.8-.4-.8-1.7s.2-3.5-1.2-5.2zm-4.1 33.3c-5.2-3-1-7.1-1-7.1v2.1s4.5-4.6 1.8-14.9c-.2 1.2 0 2.7 0 2.7s-5-6.9 1-7.2c3.4-.1 9.5.7 18.8 8.2-2.8-4-1.9-4.3-9.6-9 3.3-3.5 19.7-10.1 33.8 0-3.6 1.8-6.2 3.2-9.8 9 5.1-3.5 10-8.2 18.9-8.2 2 .6 4.7 1.1 1.1 7.2-.3-1.8 0-2.7 0-2.7s-3.7 8.2 1.5 14.9c-.1-.6 0-2.1 0-2.1s4.5 3.7-.5 7.1c-4.6 2.6-7.2 2.9-7.8 8.4 0 5.5-.3 6.3.5 13.4-2.5.8-3.4 1.1-6.8 1.1-2.2-5.1-2.8-6.9-5.6-12.7.2 2.7 1.7 9.5 4.1 15.3-6.1 0-24.9-.1-24.9-.1s3.3-8.2 3.9-15.3c-1.4 2.7-3 6.5-5.4 12.8-3.8 0-4.6-.3-7-1.1.8-7.1.6-9.3.7-12.9-.9-5.1-2-6-7.7-8.9zm-.9 17.3c1.2 2.1 2.4 7.3 13.3 8.2-1.7 2.3-3.6 3.7-2.1 7.4-3.3.2-14.5-1.8-11.2-15.6zm9 18.1l3.1.1s.2.5 2.1 4.4c-2.8-1.1-5.2-4.5-5.2-4.5zm20 8.7c-10.8 0-14.4-7.2-15.6-13.2 0-2.4 1-2.8 3-3.3 10.8-.1 24.1 0 24.1 0s4.4.2 3.6 3.3c-.7 3.3-3.2 13-15.1 13.2zm14.1-4.3c1.9-3.9 2.1-4.4 2.1-4.4l3.1-.1c.1.1-2.3 3.5-5.2 4.5zm3.1-7c1.5-3.6-.4-5.1-2.1-7.4 10.9-.9 12.1-6.1 13.3-8.2 3.3 13.9-7.9 15.9-11.2 15.6zM29.4 73.3h-6.4s-1.7.1-1.2 1.5c.6 2 2.8 4.4 4.5 4.4s3.8-2.9 4.2-4.5l-1.1-1.4zM46 73.3h-6.4s-1.5-.1-1.1 1.5 2.5 4.5 4.2 4.5 3.9-2.4 4.5-4.4c.5-1.5-1.2-1.6-1.2-1.6z"/></svg>
