<?xml version="1.0" encoding="UTF-8" standalone="no"?>
<svg width="69px" height="90px" viewBox="0 0 69 90" version="1.1" xmlns="http://www.w3.org/2000/svg" xmlns:xlink="http://www.w3.org/1999/xlink">
    <defs></defs>
    <g id="Page-1" stroke="none" stroke-width="1" fill="none" fill-rule="evenodd">
        <path d="M6.412196,55.7299805 C7.13192257,57.2471401 7.63055982,60.9976636 11.1653462,63.495745 C11.7309964,54.8662458 11.7309964,51.3741629 11.7309964,51.3741629 C11.7309964,51.3741629 11.4138735,48.5888671 8.62677986,46.9471959 C5.83968624,45.3055246 4.6550923,44.7321429 4.6550923,44.7321429 C4.6550923,44.7321429 -0.743384705,42.0247973 1.64479902,36.1277553 C4.39759482,34.0440151 5.04450447,33.0348424 5.04450447,33.0348424 C5.04450447,33.0348424 5.2808956,33.1530762 5.38378906,26.9165039 C3.65043,26.3619559 -0.519129599,15.2777972 9.05365581,16.6071429 C9.29585118,13.1312779 9.29585118,12.2968401 9.29585118,12.2968401 C9.29585118,12.2968401 7.41738597,8.79167832 1.6859564,8.06291853 C4.04248047,5.91064453 12.9905174,-2.22342408 24.0539393,10.9915597 C24.7736659,11.0260882 25.5023627,10.6243025 25.5023627,10.6243025 C25.5023627,10.6243025 24.5409677,6.12304568 30.1557853,2.11042132 C30.3568233,4.69953265 30.4634099,5.94621936 31.381009,7.00456892 C32.3302671,4.84863281 33.8377877,0.608432816 38.4442493,-0.0455147879 C38.1677561,2.621024 37.3261404,1.54645647 38.6331511,6.57453265 C41.2123472,4.93861607 41.4761761,3.82376616 44.6748441,3.82376535 C43.1667953,7.25359235 43.160463,6.79844448 43.1604634,10.6771415 C43.7629152,10.9718382 43.6981477,11.431536 44.9175671,11.0328892 C52.89524,-0.315987723 62.3909873,2.9359654 67.6433027,8.107387 C63.5692493,8.9831543 61.2443842,9.93582588 60.1194163,12.1602958 C59.9653399,14.9733189 60.1341907,14.2006138 59.9653399,16.6071429 C59.9057145,15.6769671 71.3580204,17.3128836 63.6067136,26.9165039 C63.634679,30.8579799 64.188193,33.3246722 64.188193,33.3246722 C64.188193,33.3246722 72.9256939,39.1510879 64.301112,45.2626256 C60.3832457,47.2160993 57.4800665,48.1598772 57.4800671,51.5771484 C57.4800676,54.9944196 57.2505349,58.6429269 58.0990108,63.0850656 C60.2196714,61.2780762 60.8512784,60.7366071 62.5761955,55.7299805 C64.9992046,56.6240583 71.562752,71.4524623 58.0172237,77.2589983 C54.6491778,82.1719796 54.0080724,84.4770159 46.1121866,86.1186872 C42.5235793,88.2620675 33.104342,93.3707103 23.6370889,86.2060547 C19.2284999,85.196882 16.1337811,86.0627094 11.5114904,77.7512905 C5.07721932,76.2309919 -1.39240486,66.265346 6.412196,55.7299805 Z M7.50761561,25.8895437 C7.50761561,25.8895437 2.51392281,18.9475514 8.51940136,18.7309046 C11.8766303,18.6097934 17.9855996,19.4280134 27.3299094,26.9452775 C24.5256668,22.9480852 25.4432641,22.6744735 17.7186043,17.9061454 C21.0673907,14.450422 37.3709914,7.85365513 51.4877108,17.9061453 C47.8737754,19.6799142 45.3032846,21.1227843 41.7154699,26.9452776 C46.7838962,23.4437779 51.686903,18.7309043 60.569773,18.7309047 C62.5814721,19.3050711 65.2548553,19.8308443 61.6583331,25.8895437 C61.3710229,24.1191754 61.6583336,23.2300676 61.6583336,23.2300676 C61.6583336,23.2300676 57.9573348,31.4776612 63.1824754,38.1183743 C63.0864415,37.4952916 63.1824754,35.9938267 63.1824754,35.9938267 C63.1824754,35.9938267 67.6586059,39.6601203 62.6424167,43.1145368 C58.0705173,45.7033866 55.412174,45.9793517 54.8895264,51.4714704 C54.9156455,57.0185198 54.5821657,57.7546039 55.3483262,64.8441861 C52.814245,65.6153217 51.9256692,65.9412485 48.5032728,65.9412494 C46.2652082,60.8268521 45.678451,59.0135847 42.9177404,53.2067871 C43.1353996,55.9136091 44.5872545,62.6678457 46.9907384,68.5298375 C40.9121094,68.5219901 22.1213891,68.4712437 22.1213891,68.4712437 C22.1213891,68.4712437 25.4131874,60.2333277 26.0141917,53.1597028 C24.5860832,55.819179 22.9806817,59.6230633 20.6381403,65.9412493 C16.8820013,65.9394182 15.9939516,65.6561279 13.630568,64.844186 C14.3914519,57.779977 14.2782691,55.5060686 14.2922516,51.9873056 C13.5453506,46.8705541 12.4106209,46.0321917 6.71533606,43.1145378 C1.51605028,40.0603376 5.65949077,35.9938277 5.65949077,35.9938277 L5.65949077,38.1183743 C5.65949077,38.1183743 10.2073817,33.5216413 7.50761561,23.2300677 C7.28309681,24.4474574 7.50761561,25.8895437 7.50761561,25.8895437 Z M10.5646067,30.1674107 C10.5646067,30.1674107 18.8554451,28.0350167 26.4318336,37.5792585 C28.1126906,37.8625488 29.2273697,38.2638114 31.1868306,37.5635638 C30.5597081,39.1921561 31.0997669,39.9319022 27.5987509,40.8680943 C27.4681554,42.2923933 27.4072108,43.6298479 25.1952652,46.3131278 C25.4999882,44.369594 26.301502,43.557466 24.9863124,40.8523996 C24.3069517,41.8989781 14.4315542,45.1012311 13.081539,33.5742188 C12.5240675,35.1635742 12.2802892,36.2493896 12.2802892,36.2493896 C12.2802892,36.2493896 10.259884,32.9922051 12.3673529,31.0722133 C11.6792858,30.7415771 10.5646067,30.1674107 10.5646067,30.1674107 Z M16.3036873,33.2043457 C17.5924939,33.4402902 21.0238587,35.3050886 24.1415306,39.2708915 C19.1514617,41.5291051 15.3718419,38.964059 16.3036873,33.2043457 Z M58.4353933,30.1674107 C58.4353933,30.1674107 50.1445549,28.0350167 42.5681664,37.5792585 C40.8873094,37.8625488 39.7726303,38.2638114 37.8131694,37.5635638 C38.4402919,39.1921561 37.9002331,39.9319022 41.4012491,40.8680943 C41.5318446,42.2923933 41.5927892,43.6298479 43.8047348,46.3131278 C43.5000118,44.369594 42.698498,43.557466 44.0136876,40.8523996 C44.6930483,41.8989781 54.5684458,45.1012311 55.918461,33.5742188 C56.4759325,35.1635742 56.7197108,36.2493896 56.7197108,36.2493896 C56.7197108,36.2493896 58.740116,32.9922051 56.6326471,31.0722133 C57.3207142,30.7415771 58.4353933,30.1674107 58.4353933,30.1674107 Z M52.6963127,33.2043457 C51.4075061,33.4402902 47.9761413,35.3050886 44.8584694,39.2708915 C49.8485383,41.5291051 53.6281581,38.964059 52.6963127,33.2043457 Z M23.041626,73.2887486 L29.4254103,73.3122907 C29.4254103,73.3122907 30.8971458,73.225708 30.4963891,74.7758266 C30.0956322,76.3259452 28.0145461,79.2608644 26.2901572,79.2608643 C24.5657683,79.2608641 22.4060608,76.8689837 21.7963513,74.8310198 C21.3175009,73.3517892 23.041626,73.2887486 23.041626,73.2887486 Z M45.958374,73.2887486 L39.5745897,73.3122907 C39.5745897,73.3122907 38.1028542,73.225708 38.5036109,74.7758266 C38.9043678,76.3259452 40.9854539,79.2608644 42.7098428,79.2608643 C44.4342317,79.2608641 46.5939392,76.8689837 47.2036487,74.8310198 C47.6824991,73.3517892 45.958374,73.2887486 45.958374,73.2887486 Z M22.1971081,70.7629395 C32.9956448,70.6371198 46.2504543,70.7629395 46.2504543,70.7629395 C46.2504543,70.7629395 50.6046776,70.959647 49.8991935,74.1069685 C49.1937138,77.2542899 46.7292835,86.9795445 34.798391,87.1840995 C23.9995905,87.1840995 20.3856556,79.9925014 19.1575298,74.0284947 C19.1488234,71.6285052 20.1590261,71.2272426 22.1971081,70.7629395 Z M14.841281,78.505685 C14.841281,78.505685 17.2091499,81.891828 20.057188,82.9138184 C18.1483824,79.0121024 17.9800592,78.5619245 17.9800592,78.5619245 L14.841281,78.505685 Z M54.158719,78.505685 C54.158719,78.505685 51.7908501,81.891828 48.942812,82.9138184 C50.8516176,79.0121024 51.0199408,78.5619245 51.0199408,78.5619245 L54.158719,78.505685 Z M6.99367597,7.0477295 C7.58254316,7.74876186 8.47877158,7.92637416 8.47877158,7.92637416 C8.47877158,7.92637416 14.8114688,6.34355809 18.9997598,13.1365095 C19.9455881,12.8265381 20.9196462,12.1380615 20.9196462,12.1380615 C20.9196462,12.1380615 15.6121905,3.07747977 6.99367597,7.0477295 Z M62.006324,7.0477295 C61.4174568,7.74876186 60.5212284,7.92637416 60.5212284,7.92637416 C60.5212284,7.92637416 54.1885312,6.34355809 50.0002402,13.1365095 C49.0544119,12.8265381 48.0803538,12.1380615 48.0803538,12.1380615 C48.0803538,12.1380615 53.3878095,3.07747977 62.006324,7.0477295 Z M10.8155084,9.80660575 C12.2330132,9.80180762 15.2269996,10.1722935 16.5875677,14.9717494 C14.8436555,16.6071429 14.5639963,17.0243617 14.5639963,17.0243617 L12.7322289,16.6071429 L12.0283321,14.9871826 C12.0283321,14.9871826 12.1760766,11.4592634 10.8155084,9.80660575 Z M58.1844916,9.80660575 C56.7669868,9.80180762 53.7730004,10.1722935 52.4124323,14.9717494 C54.1563445,16.6071429 54.4360037,17.0243617 54.4360037,17.0243617 L56.2677711,16.6071429 L56.9716679,14.9871826 C56.9716679,14.9871826 56.8239234,11.4592634 58.1844916,9.80660575 Z M5.8346735,60.3628104 C7.00660361,62.4530901 8.21467836,67.666626 19.1522532,68.5450091 C17.4289196,70.868879 15.5499266,72.2879465 17.004682,75.9327916 C13.7463891,76.2194824 2.54498489,74.1917201 5.8346735,60.3628104 Z M63.1653265,60.3628104 C61.9933964,62.4530901 60.7853216,67.666626 49.8477468,68.5450091 C51.5710804,70.868879 53.4500734,72.2879465 51.995318,75.9327916 C55.2536109,76.2194824 66.4550151,74.1917201 63.1653265,60.3628104 Z" id="Path-14" fill="#DDF0F2"></path>
    </g>
</svg>
