<svg xmlns="http://www.w3.org/2000/svg" viewBox="1 1 40 89"><path d="M1 25c1 10.2 1.6 16.3 2.3 22.8v-.2c1.8-5.4 5.9-10.7 9.3-10.6 1.4.3 2.7 1.2 3.3 2.3.2.9.4 1.9-.9 1.7-1.4-.9-.9-2.4-3.7-2-3.7 2.9-7.5 11.2-5 12.5 1.2.3 2.2-.9 3.2-1.7 1.3-1.3 1.6-1.6 2.3-2.9.7-1.3.8-3 1.2-3 .6-.2 1.7-.4 1.2 1.6-.5 2.1-2.8 8.9-3.2 9.7-.4.6-2 1.8-1.3-1.1.2-1 .3-1.3.9-3.3-1 .9-1.6 1.5-3 2.4-1 .5-1.9.8-3.2 0-.2-.2-.5-.4-.6-.6.4 4.1.9 8.6 1.5 14.6 4.9 2.7 21.1 4.8 31.1 0 2.1-21.1 4.6-42.2 4.6-42.2-6.4 3.1-34.1 3.1-40 0zm33.9 27.9c-1.4.6-4.3 1.5-3.2-1.8l2.8-3.4s.8-1.5-1.2-.7c-3.8 3-4.4 7.8-6.1 11.1-.7.9-2.4 1.7-1.9-.7.9-2.1 2.8-5.9 2.8-5.9s-4.7 4-5.1.7c-1.3 1.2-4.2 2.5-3.7-.9-1.8 2.4-6.1 3.6-5.2-.5 1.2-3.3 1.3-3.7 2.1-5.4.3-.8 1.9-.9 1.6.5-1.2 2.6-1.6 3.8-1.6 3.8s-.9 2.7 1.7 1c2.1-2.2 1.7-2.1 2.7-4.2.4-1.4 2.1-2.9 1.9-.2-1.3 2.4-1.4 3.5-1.4 3.5s-1 3.4 2.1.7c1.7-4.8 2.6-6.6 4.5-11.7.4-.8 2.2-1.6 1.7.7-1.4 3.2-4.4 10.8-4.4 10.8s-.8 2.4 2.2 0c1.4-1.3 1.3-1.1 2.3-2.2.4-2.2 2.1-4 2.3-1.3 1.1-1.8 5.4-3.3 5 .2-1.4 2.1-2.8 3.6-2.8 3.6s-1.2 1.8.8.8c2-1.7 3.4-2.9 3.4-2.9l-.1 2c-.2 0-1.6 1.4-3.2 2.4z"/><path d="M7 69c8.2 2.4 17.2 3 28 0-1.6 3-2.1 3.9-2.1 3.9s-.7 8.3-.9 14.6c-1.9 3.2-19 3.5-21.8 0-.5-6.1-1-14.6-1-14.6s-.6-.7-2.2-3.9z"/><path d="M29.2 20.9l2.1-7.4s7.9-8.4 9.7-10.4c-.8-2.1-2.3-2.1-2.3-2.1l-10.9 11.3s-.8 2.6-2 8.2c-25.2.5-24.3 2.1-24.8 2.5-.2 2.2 9.7 2.9 19.7 3 16.4-.3 19.8-1.4 20.3-3-1-1.7-11.8-2.1-11.8-2.1zm-.3 3.6c-.1.2-2.6 1-4.9 0 0-.4.2-.3.4-.4 1.8.4 2.1.8 4.2-.1.4.2.5.3.3.5z"/></svg>
