<?xml version="1.0" encoding="UTF-8" standalone="no"?>
<svg width="43px" height="91px" viewBox="0 0 43 91" version="1.1" xmlns="http://www.w3.org/2000/svg" xmlns:xlink="http://www.w3.org/1999/xlink">
    <title>gulp</title>
    <g id="Page-1" stroke="none" stroke-width="1" fill="none" fill-rule="evenodd">
        <g id="Path-1-+-Path-2-+-Path-3" transform="translate(1.000000, 1.000000)" fill="#DDF0F2">
            <path d="M2.28312177,46.7959855 C1.6187147,40.326577 0.986354828,34.1698756 0,24 C5.93170799,27.085007 33.5527628,27.136287 40,24 C40,24 37.5493283,45.1321613 35.3161779,66.1515064 C25.3421105,70.9229429 9.0921864,68.8351617 4.23698384,66.1515064 C3.65170006,60.2177943 3.19104659,55.664322 2.77441417,51.5878044 C2.94787753,51.7614766 3.15664951,51.9559379 3.40657057,52.1849624 C4.70074012,52.9419439 5.61008496,52.6712839 6.57205843,52.1849623 C8.02358402,51.282651 8.60656078,50.6759993 9.60915364,49.7936876 C9.00286488,51.7288069 8.89213285,52.0596322 8.66484079,53.0722739 C7.965304,56.0502013 9.51007762,54.8520639 9.93569834,54.2204127 C10.3711645,53.4028169 12.5879688,46.5351006 13.1301496,44.4846507 C13.6723304,42.4342008 12.4890694,42.6498622 11.9352327,42.8403575 C11.5680686,42.8403576 11.4105359,44.5148166 10.7343111,45.848284 C9.98232235,47.1667518 9.73736968,47.4424117 8.39657612,48.7860455 C7.45226326,49.5680264 6.4729824,50.7461643 5.23709287,50.4605046 C2.73617379,49.1318704 6.51377841,40.845073 10.2620664,37.9774764 C13.0893536,37.5313207 12.5764894,39.0804495 13.975563,39.9577613 C15.3105286,40.2184216 15.0131239,39.125615 14.8615959,38.2733025 C14.3194151,37.2406611 12.9611375,36.2680182 11.57372,36.002358 C8.24504808,35.8720279 4.07388429,41.1656399 2.29889707,46.5752662 C2.29372308,46.6502909 2.28845913,46.723851 2.28312177,46.7959855 L2.28312177,46.7959855 Z M15.2532433,44.4759028 C15.5251485,43.6335828 17.1910833,43.5509487 16.8057125,44.9668983 C15.6157836,47.5558767 15.1796022,48.7649828 15.1796022,48.7649829 C15.1796022,48.764983 14.3068962,51.4884782 16.8453653,49.7521276 C18.9419884,47.5507228 18.5736117,47.6745883 19.4971283,45.5817592 C19.8598403,44.1555018 21.6107455,42.7292444 21.3726567,45.3647796 C20.1090868,47.7936434 19.9618047,48.8529429 19.9618048,48.8529429 C19.961805,48.8529428 18.9588108,52.2582999 22.080915,49.5246685 C23.8261554,44.6980362 24.7100192,42.9256082 26.6025417,37.7837287 C26.9992418,37.0137352 28.8181233,36.2282801 28.2628117,38.4917035 C26.9029421,41.6957146 23.8658083,49.3179969 23.8658083,49.3179969 C23.8658083,49.3179969 23.1063962,51.6693803 26.0868829,49.312843 C27.5205653,48.0363925 27.3617822,48.1810454 28.3421174,47.0751891 C28.7897998,44.842861 30.4895511,43.0805687 30.6141743,45.7987384 C31.6851446,44.0108488 35.9858483,42.5225728 35.5778187,46.0107357 C34.200955,48.1552759 32.8184266,49.6021489 32.8184266,49.6021489 C32.8184266,49.6021489 31.622833,51.4419213 33.6003259,50.434161 C35.5834834,48.7649829 37,47.5144737 37,47.5144737 L36.8583827,49.5401302 C36.8583827,49.5401302 35.5438306,50.9148486 33.9005546,51.927591 C32.5350202,52.5477776 29.5662061,53.4521162 30.6993164,50.150009 L33.4700379,46.7496341 C33.4700379,46.7496341 34.274596,45.2768198 32.2744444,46.0107359 C28.5063935,48.9718263 27.8264587,53.7776712 26.2230072,57.0797783 C25.531743,58.020366 23.8318201,58.8212829 24.3304848,56.3924191 C25.2766602,54.2789744 27.1182004,50.4547766 27.1182004,50.4547766 C27.1182004,50.4547766 22.4153035,54.485646 22.0186034,51.1886928 C20.7437041,52.4340481 17.8426946,53.7208064 18.3017064,50.294662 C16.4601662,52.7183719 12.2274389,53.9120163 13.1228037,49.8296079 C14.3014032,46.4860978 14.3918666,46.0830622 15.2532433,44.4759028 Z" id="Path-1"></path>
            <path d="M6,68 C14.1680244,70.4100026 23.2325187,71.0360899 34,68 C32.3866259,70.9632487 31.871351,71.8709886 31.871351,71.8709886 C31.871351,71.8709886 31.1989138,80.2178945 31.0196877,86.467668 C29.081127,89.7018166 12.0278344,89.9834692 9.24915139,86.467668 C8.72267481,80.3327061 8.2742702,71.8709886 8.2742702,71.8709886 C8.2742702,71.8709886 7.57976918,71.1613074 6,68 Z" id="Path-2"></path>
            <path d="M0.00412108668,21.9961689 C0.453054774,21.5777248 -0.402649468,19.9942942 24.7590642,19.4522188 C26.0063326,13.8847381 26.766997,11.268783 26.766997,11.268783 L37.6841381,1.05325022e-06 C37.6841381,1.05325022e-06 39.2472846,-0.0105280036 40,2.07388081 C38.2315676,4.03567732 30.3031706,12.4847164 30.3031706,12.4847164 L28.2423602,19.9226291 C28.2423602,19.9226291 39.0226435,20.3108447 39.9999987,21.9961692 C39.513396,23.5904682 36.1707581,24.7041682 19.7395778,25 C9.68194252,24.9184849 -0.231577739,24.1522431 0.00412108668,21.9961689 Z M23.4317926,23.0997546 C25.2801822,23.4672668 25.5070584,23.8899364 27.6062058,23 C28.0183461,23.1600611 28.0600486,23.2729068 27.9436253,23.5197186 C27.827202,23.7665305 25.366753,24.491082 23.0018315,23.469885 C22.9749646,23.0393607 23.2496946,23.1338788 23.4317926,23.0997546 Z" id="Path-3"></path>
        </g>
    </g>
</svg>
