<svg xmlns="http://www.w3.org/2000/svg" viewBox="24.4 1 378.4 842"><path d="M24.4 228c9.5 96.5 15.1 154.2 21.8 215.7v-1.9c17-51.1 55.8-101.2 88-100.3 13.2 2.8 25.5 11.4 31.2 21.8 1.9 8.5 3.8 18-8.5 16.1-13.2-8.5-8.5-22.7-35-18.9-35 27.4-70.9 105.9-47.3 118.2 11.4 2.8 20.8-8.5 30.3-16.1 12.3-12.3 15.1-15.1 21.8-27.4 6.6-12.3 7.6-28.4 11.4-28.4 5.7-1.9 16.1-3.8 11.4 15.1-4.7 19.9-26.5 84.2-30.3 91.8-3.8 5.7-18.9 17-12.3-10.4 1.9-9.5 2.8-12.3 8.5-31.2-9.5 8.5-15.1 14.2-28.4 22.7-9.5 4.7-18 7.6-30.3 0-1.9-1.9-4.7-3.8-5.7-5.7 3.8 38.8 8.5 81.4 14.2 138.1 46.4 25.5 199.6 45.4 294.2 0 19.7-199.6 43.4-399.2 43.4-399.2-60.6 29.4-322.6 29.4-378.4 0zm320.7 263.9c-13.2 5.7-40.7 14.2-30.3-17l26.5-32.2s7.6-14.2-11.4-6.6c-35.9 28.4-41.6 73.8-57.7 105-6.6 8.5-22.7 16.1-18-6.6 8.5-19.9 26.5-55.8 26.5-55.8s-44.5 37.8-48.2 6.6c-12.3 11.4-39.7 23.6-35-8.5-17 22.7-57.7 34.1-49.2-4.7 11.4-31.2 12.3-35 19.9-51.1 2.8-7.6 18-8.5 15.1 4.7-11.4 24.6-15.1 35.9-15.1 35.9s-8.5 25.5 16.1 9.5c19.9-20.8 16.1-19.9 25.5-39.7 3.8-13.2 19.9-27.4 18-1.9-12.3 22.7-13.2 33.1-13.2 33.1s-9.5 32.2 19.9 6.6c16.1-45.4 24.6-62.4 42.6-110.7 3.8-7.6 20.8-15.1 16.1 6.6-13.2 30.3-41.6 102.2-41.6 102.2s-7.6 22.7 20.8 0c13.2-12.3 12.3-10.4 21.8-20.8 3.8-20.8 19.9-37.8 21.8-12.3 10.4-17 51.1-31.2 47.3 1.9-13.2 19.9-26.5 34.1-26.5 34.1s-11.4 17 7.6 7.6c18.9-16.1 32.2-27.4 32.2-27.4l-.9 18.9c-2.2-.1-15.5 13.2-30.6 22.6zm-263.9 152.3c77.6 22.7 162.7 28.4 264.9 0-15.1 28.4-19.9 36.9-19.9 36.9s-6.6 78.5-8.5 138.1c-18 30.3-179.7 33.1-206.2 0-4.7-57.7-9.5-138.1-9.5-138.1s-5.7-6.6-20.8-36.9zm210-455l19.9-70s74.7-79.5 91.8-98.4c-7.7-19.8-21.9-19.8-21.9-19.8l-103.1 106.9s-7.6 24.6-18.9 77.6c-238.4 4.7-229.9 19.9-234.6 23.6-1.9 20.8 91.8 27.4 186.4 28.4 155.1-2.8 187.3-13.2 192-28.4-9.5-16.1-111.6-19.9-111.6-19.9zm-2.9 34.1c-.9 1.9-24.6 9.5-46.4 0 0-3.8 1.9-2.8 3.8-3.8 17 3.8 19.9 7.6 39.7-.9 3.9 1.9 4.8 2.8 2.9 4.7z"/></svg>
