<?xml version="1.0" encoding="utf-8"?>

<!-- License Agreement at http://iconmonstr.com/license/ -->

<!DOCTYPE svg PUBLIC "-//W3C//DTD SVG 1.1//EN" "http://www.w3.org/Graphics/SVG/1.1/DTD/svg11.dtd">
<svg version="1.1" xmlns="http://www.w3.org/2000/svg" xmlns:xlink="http://www.w3.org/1999/xlink" x="0px" y="0px"
	 width="512px" height="512px" viewBox="0 0 512 512" enable-background="new 0 0 512 512" xml:space="preserve">
<path id="internet-explorer-icon" d="M277.563,367.813c-45.341,0-77.633-39.52-78.758-79.697h262.84
	c4.013-86.523-25.749-147.885-101.991-190.688c11.139-12.252,102.394-44.494,79.04,43.136l8.968,13.037
	c39.586-120.579-79.313-114.023-157.988-75.755C176.275,77.47,112.068,148.813,94.421,222.032
	c30.654-44.014,70.28-70.097,96.123-77.35C42.647,263.624-26.077,525.958,174.774,442.817l-13.94-8.403
	c-120.871,38.121-74.169-69.615-50.908-85.153c27.844,56.955,87.172,102.474,159.751,102.474c92.37,0,160.988-47.701,188.213-126.82
	H351.254C335.857,352.34,314.455,367.813,277.563,367.813z M277.563,163.55c45.34,0,75.567,35.577,76.693,70.873H199.932
	C201.434,204.384,229.125,163.55,277.563,163.55z"/>
</svg>
