<svg xmlns="http://www.w3.org/2000/svg" width="512" height="512" viewBox="0 0 512 512"><path d="M277.563 367.813c-45.341 0-77.633-39.52-78.758-79.697h262.84c4.013-86.523-25.749-147.885-101.991-190.688 11.139-12.252 102.394-44.494 79.04 43.136l8.968 13.037c39.586-120.579-79.313-114.023-157.988-75.755-113.399-.376-177.606 70.967-195.253 144.186 30.654-44.014 70.28-70.097 96.123-77.35-147.897 118.942-216.621 381.276-15.77 298.135l-13.94-8.403c-120.871 38.121-74.169-69.615-50.908-85.153 27.844 56.955 87.172 102.474 159.751 102.474 92.37 0 160.988-47.701 188.213-126.82h-106.636c-15.397 27.425-36.799 42.898-73.691 42.898zm0-204.263c45.34 0 75.567 35.577 76.693 70.873h-154.324c1.502-30.039 29.193-70.873 77.631-70.873z"/></svg>