<svg xmlns="http://www.w3.org/2000/svg" viewBox="41.5 252.5 342.2 336.9"><path d="M230.5 513.8c-37.7 0-64.5-32.8-65.4-66.2h218.3c3.3-71.9-21.4-122.8-84.7-158.4 9.3-10.2 85-37 65.6 35.8l7.4 10.8c32.9-100.1-65.9-94.7-131.2-62.9-94.2-.3-147.5 58.9-162.2 119.7 25.5-36.6 58.4-58.2 79.8-64.2-122.7 98.9-179.8 316.7-13 247.7l-11.6-7c-100.3 31.7-61.5-57.8-42.2-70.7 23.1 47.3 72.4 85.1 132.7 85.1 76.7 0 133.7-39.6 156.3-105.3h-88.6c-12.8 22.8-30.6 35.6-61.2 35.6zm0-169.6c37.7 0 62.8 29.5 63.7 58.9h-128.2c1.3-25 24.3-58.9 64.5-58.9z"/></svg>
