<svg xmlns="http://www.w3.org/2000/svg" viewBox="66.1 289.1 293 263.8"><path d="M108.2 420.9c14.7 6.4 25.1 20.3 25.1 44.8v28.6c0 20.7 18.6 27.3 34.5 27.8v30.6c-43.4 0-69-14.9-69-55v-31.7c0-20.4-16.2-29.5-32.7-29.5v-31c16.5 0 32.7-9.1 32.7-29.5v-31.9c0-40.1 25.6-55 69-55v30.6c-15.9.5-34.5 7.1-34.5 27.8v28.6c0 24.5-10.4 38.4-25.1 44.8zm183.7-44.8v-28.6c0-20.7-18.6-27.3-34.5-27.8v-30.6c43.4 0 69 14.9 69 55v31.9c0 20.4 16.2 29.5 32.7 29.5v31c-16.5 0-32.7 9.1-32.7 29.5v31.9c0 40.1-25.6 55-69 55v-30.6c15.9-.5 34.5-7.1 34.5-27.8v-28.6c0-24.5 10.4-38.4 25.1-44.8-14.7-6.6-25.1-20.5-25.1-45zm-56.4 58.4v25.9c0 23.1-14.6 41.8-35.9 46.1l-4-8.7c9.9-3.7 16.1-15.7 16.1-24.6h-16.7v-38.6l40.5-.1zm0-83.3h-40.5v40.5h40.5v-40.5z"/></svg>
