<svg xmlns="http://www.w3.org/2000/svg" viewBox="0 0 147.7 200.2"><path d="M47.6 154.8s-7.7 4.4 5.4 6c15.9 1.8 24 1.6 41.5-1.8 0 0 4.6 2.9 11 5.4-39.2 16.8-88.7-1-57.9-9.6M42.8 132.9s-8.6 6.4 4.5 7.7c16.9 1.7 30.3 1.9 53.5-2.6 0 0 3.2 3.2 8.2 5-47.4 13.9-100.1 1.2-66.2-10.1M83.1 95.7c9.7 11.1-2.5 21.1-2.5 21.1s24.5-12.7 13.3-28.5c-10.5-14.7-18.6-22.1 25.1-47.4 0 0-68.6 17.1-35.9 54.8M135 171.1s5.7 4.7-6.2 8.3c-22.6 6.9-94.2 8.9-114 .3-7.1-3.1 6.3-7.4 10.5-8.3 4.4-1 6.9-.8 6.9-.8-7.9-5.6-51.4 11-22 15.7 79.8 12.9 145.5-5.9 124.8-15.2M51.2 110.2s-36.4 8.6-12.9 11.8c9.9 1.3 29.7 1 48.1-.5 15.1-1.3 30.2-4 30.2-4s-5.3 2.3-9.2 4.9c-37 9.7-108.3 5.2-87.8-4.7 17.5-8.4 31.6-7.5 31.6-7.5M116.5 146.7c37.6-19.5 20.2-38.3 8.1-35.8-3 .6-4.3 1.2-4.3 1.2s1.1-1.7 3.2-2.5c24-8.4 42.4 24.9-7.7 38.1 0 0 .5-.5.7-1M93.9 0s20.8 20.8-19.7 52.8c-32.5 25.7-7.4 40.3 0 57-19-17.1-32.9-32.2-23.6-46.2 13.7-20.6 51.7-30.5 43.3-63.6M54.9 199.6c36.1 2.3 91.4-1.3 92.7-18.3 0 0-2.5 6.5-29.8 11.6-30.8 5.8-68.7 5.1-91.2 1.4 0 0 4.6 3.8 28.3 5.3"/></svg>
