<svg xmlns="http://www.w3.org/2000/svg" viewBox="0 0 512 512"><path d="M130.269 256c17.686 7.75 30.25 24.5 30.25 54v34.457c0 24.955 22.379 32.912 41.547 33.494v36.861c-52.264 0-83.111-17.9-83.111-66.234v-38.383c0-24.547-19.5-35.537-39.354-35.537v-37.316c19.854 0 39.354-10.989 39.354-35.536v-38.384c0-48.333 30.848-66.234 83.111-66.234v36.861c-19.168.582-41.547 8.539-41.547 33.495v34.456c0 29.5-12.565 46.25-30.25 54zm221.212-54v-34.456c0-24.956-22.379-32.913-41.547-33.495v-36.861c52.264 0 83.111 17.901 83.111 66.234v38.384c0 24.547 19.5 35.536 39.354 35.536v37.316c-19.854 0-39.354 10.99-39.354 35.537v38.383c0 48.334-30.848 66.234-83.111 66.234v-36.861c19.168-.582 41.547-8.539 41.547-33.494v-34.457c0-29.5 12.564-46.25 30.25-54-17.685-7.75-30.25-24.5-30.25-54zm-67.935 70.288v31.154c0 27.851-17.6 50.385-43.244 55.457l-4.86-10.504c11.876-4.475 19.408-18.845 19.408-29.64h-20.046v-46.468h48.742zm0-100.237h-48.742v48.821h48.742v-48.821z"/></svg>
