<svg xmlns="http://www.w3.org/2000/svg" viewBox="64 250.3 297.2 341.4"><path d="M354.2 472.2c12.5-19.5 6.1-46.1-2.7-54.6 3.5-10.8 6.7-31.3-2.3-46.2h-68.2c10.9-46.8 15.7-121.2-31.9-121.2-26.3 0-32.8 23.7-40.1 47.1-30.1 96.6-101.8 97.6-145 102.4v148.9c66.1 0 99.3 5.5 156.2 29.6 59.7 25.4 133.7 17.8 125.5-50.8 15.9-15.6 15.4-40.5 8.5-55.2zm-22.3-78.1c1.9 14.4-4.9 30.6-20.5 30.6h-28.2c-10.8 0-14.5-8.8-14.5-15.9 0-6.1 5.3-14.6 15-14.6h48.2v-.1zm-242.6 130.3v-101.6c83.5-7.1 124.8-57.8 142.1-111.5 5.3-16.6 6.9-39.5 21.1-35.2 15.4 4.7 14.9 49.3 3.2 92.3-5 18.4-18.4 33.8-7 55.8-20.2 6.9-26.8 41.5-9.8 55.9-13.5 13.2-13.1 39.5 3.3 52.1-6.1 7.3-8.7 15.6-7.8 24.5-27.6-9.6-75.5-32.3-145.1-32.3zm205.6 42.7h-21.1c-10.4 0-15-6.8-15-13.8 0-8.2 5.3-15.4 15-15.4h47.1c-.9 11.2-5.9 29.2-26 29.2zm15.7-47h-42.6c-10.4 0-15-9-15-15.4s4.6-15.4 15-15.4h65.2c1.8 15.4-5.5 30.8-22.6 30.8zm5.5-48.3h-48.1c-10.3 0-15-9.2-15-15.4 0-6.3 4.6-15.2 15-15.2h68.2c2 14.2-4.6 30.6-20.1 30.6z"/></svg>
