<svg xmlns="http://www.w3.org/2000/svg" viewBox="80.6 249.9 263.9 342.2"><path d="M338.4 521.4c-8.1-6.4-4.9-20.4-13.3-27.3 8.1-48-14.6-90.3-41.7-117.4-22.7-22.7-15.4-44.9-15.4-64 0-30.6-12.9-62.9-52-62.9-41.8 0-53.3 33.9-53.7 53.3-1 46.5 9.7 58.6-18.3 92.4-32.9 39.8-37.8 79.5-30.4 100.6-3.5 3.9-8.2 8.3-16.9 11.9-24.2 10.3-6.5 27.4-13.2 39.6-7.7 14.1.8 30.9 21.8 29.1 13.5-1.2 27.6 4.3 39.9 9.8 17.3 7.7 32.9.2 38.9-11.7 20.2-4.8 45.1-4.2 65.3.8 6.2 16.9 30.5 23.6 47.4 5.6 7.4-7.9 19.1-20.1 32.9-24.6 16.2-5.1 19.2-26.9 8.7-35.2zm-134.1-149.1c-4.7 0-8.5-3.7-14.7-8.1-7.7-5.6-15.6-8.8-15.5-14.7 0-4 5.6-5.3 12.7-9.7 7.7-4.8 10.7-9.6 18.3-9.6 7.8 0 10.1 3.8 20.7 8.3 10.4 4.4 17.6 6.1 17.6 11 0 5.1-10.9 8.7-17 12.4-8.9 5.3-13.5 10.4-22.1 10.4zm24.4-74.4c12.9 2 14.4 24.1 8.2 35-1.6-.6-2.8-1.1-5.2-2.1 2.7-7.7 2.7-20.5-6.4-21.3-5.7-.5-9.4 6.8-10.2 13.1-2.3-.9-4.7-1.6-7.7-1.8 1-13.1 9.7-24.7 21.3-22.9zm-49.9 4.7c9.9-2.4 15.8 8.8 15.8 20.5-1.6.8-3.1 1.7-4.5 2.7-.6-4.9-2.9-12.8-8.5-11.1-6 1.8-5.1 15.4-1.7 18.2-1.5.8-2.9 1.6-4.5 2.4-6.1-10-6.1-30.4 3.4-32.7zm-31 274.4c-28.8-12.7-38.6-9.8-44.1-9.8-11.4 0-15.1-8.3-10.8-16.1 3.6-6.6 2.5-13.6 1.6-19.2-1.4-8.5-1.6-11.3 7-15 12-4.9 17.3-11.3 21.2-16 11.1-13.4 22.3 7.6 31.5 26.4 6 12.1 17.7 18.3 21.3 31.7 3.4 12.4-10.3 25.7-27.7 18zm102.5-26.8c-20.3 9.6-46.1 14-65.5 4.3-2.9-8-7.4-13.2-12.4-18.4 7.9-2 13.8-11.6 6.7-21.2-7.5-10.3-22.8-17.4-38.3-29.1-14.5-10.9-19-37.7.7-67.7-9.6 26.5-4 51 .8 58 1-14.1 2.2-37.6 21.9-65.8 10-14.2 10.1-33 10.4-44.8 3 2.1 6.1 3.9 9.1 6.1 6.7 4.8 12.3 10.1 20.3 10.1 11.9 0 18.4-6.6 27.6-12.2 3.6-2.1 9-4.3 13.5-7.3 7.6 35.3 39.2 77.8 41 101.9 7.4-14.7-2.1-50.1-2.1-50.1 12.4 18.3 13.3 33.6 13.9 52.3 8.6 3.4 17.9 12.4 18.7 24.2-1.1-.2-2.3-.3-3.6-.4-1.9-13.1-38.2-32.3-41.5-7.7-17.4 2.6-11.1 29.5-14.6 46.9-1.5 8-4.5 14.3-6.6 20.9zm71-.5c-14.4 5.4-24.2 16.9-30.9 24.1-12.9 13.8-30 7.2-31.8-5.7-1.9-13.8 5.3-21.3 8.4-36.7 2.8-14.1-.3-35.7 6.3-38 4.3 25 30.3 14.5 36.2 7.7 9.6 0 10.4 3.2 12.6 11.9 1.3 5.5 3.2 10.1 8.5 15.5 6.1 6.3 4.3 16.1-9.3 21.2zm-117.3-185.5c-9.5 0-16.7-6.2-22.5-11-3-2.5.7-7 3.7-4.5 5.7 4.7 11.4 9.6 18.8 9.6 8.9 0 16.7-7.4 27.4-11.5 3.6-1.4 5.7 4.1 2.1 5.4-10.3 4.1-18.6 12-29.5 12z"/></svg>
