<svg xmlns="http://www.w3.org/2000/svg" viewBox="0 0 512 512"><path d="M407.489 377.012c-9.705-7.656-5.932-24.57-16.021-32.908l.003.002c9.768-57.771-17.591-108.688-50.218-141.315-27.386-27.387-18.551-54.021-18.551-77.083.001-36.852-15.542-75.708-62.671-75.708-50.387 0-64.175 40.861-64.676 64.175-1.205 55.996 11.647 70.54-22.061 111.304-39.643 47.944-45.489 95.769-36.549 121.14l.001-.002c-4.182 4.742-9.833 9.993-20.397 14.344-29.16 12.367-7.791 33.039-15.845 47.723-9.321 16.993.939 37.251 26.246 35.044 16.21-1.409 33.262 5.228 48.067 11.776 20.834 9.218 39.64.285 46.847-14.104 24.309-5.825 54.323-5.085 78.613 1.001 7.476 20.296 36.73 28.439 57.081 6.732 8.931-9.525 23.026-24.205 39.652-29.611 19.497-6.339 23.136-32.524 10.479-42.51zm-161.477-179.647c-5.629 0-10.289-4.435-17.661-9.75-9.33-6.73-18.801-10.606-18.701-17.687 0-4.847 6.687-6.354 15.349-11.692 9.285-5.725 12.899-11.517 22.033-11.517 9.356 0 12.199 4.601 24.887 9.938 12.517 5.265 21.199 7.323 21.199 13.271 0 6.096-13.077 10.467-20.442 14.899-10.787 6.488-16.354 12.538-26.646 12.538h-.018zm29.394-89.541c15.568 2.419 17.328 29.028 9.858 42.131-1.887-.75-3.423-1.336-6.263-2.486 3.239-9.331 3.193-24.669-7.689-25.649-6.895-.621-11.347 8.247-12.302 15.829-2.712-1.095-5.66-1.891-9.25-2.175 1.123-15.849 11.648-29.825 25.646-27.65zm-60.081 5.683c11.929-2.89 18.976 10.61 19.031 24.638-1.964.948-3.753 2.074-5.46 3.268-.746-5.895-3.455-15.406-10.227-13.366-7.272 2.19-6.09 18.582-2.042 21.947-1.779 1.022-3.538 1.936-5.398 2.916-7.405-12.139-7.4-36.618 4.096-39.403zm-37.349 330.353c-34.658-15.328-46.437-11.844-53.052-11.844-13.726 0-18.203-9.938-13.046-19.343 4.379-7.98 3.027-16.344 1.941-23.061-1.664-10.281-1.969-13.641 8.438-18.069 14.39-5.936 20.785-13.568 25.549-19.291 13.386-16.081 26.896 9.207 37.969 31.753 7.176 14.608 21.334 22.012 25.672 38.192 4.008 14.953-12.528 30.929-33.471 21.663zm123.36-32.17c-24.422 11.557-55.56 16.856-78.833 5.125-3.447-9.666-8.956-15.917-14.881-22.197 9.511-2.437 16.586-13.98 8.122-25.581-9.025-12.366-27.445-21.005-46.085-35.012-17.429-13.098-22.938-45.374.794-81.473-11.571 31.964-4.805 61.418 1.003 69.858 1.211-16.964 2.59-45.291 26.405-79.217 12.027-17.132 12.202-39.767 12.473-53.913 3.638 2.5 7.368 4.708 10.939 7.286 8.04 5.794 14.784 12.157 24.456 12.158h.027c14.3 0 22.179-8 33.207-14.633 4.301-2.588 10.816-5.187 16.285-8.808 9.174 42.502 47.213 93.623 49.348 122.754 8.858-17.715-2.506-60.332-2.506-60.332 14.873 22.062 16.043 40.444 16.712 63.006 10.403 4.137 21.559 14.916 22.569 29.11-1.331-.229-2.765-.395-4.32-.481-2.229-15.773-46.04-38.942-49.974-9.24-21 3.097-13.367 35.462-17.587 56.438-1.928 9.581-5.545 17.17-8.154 25.152zm85.542-.704c-17.381 6.518-29.127 20.372-37.199 28.981-15.542 16.58-36.097 8.633-38.269-6.875-2.325-16.588 6.349-25.627 10.086-44.195 3.408-16.948-.411-43.025 7.604-45.798 5.215 30.1 36.472 17.454 43.613 9.226 11.604 0 12.572 3.806 15.167 14.373 1.623 6.609 3.862 12.175 10.194 18.718 7.411 7.656 5.141 19.443-11.196 25.57zm-141.22-223.277c-11.496 0-20.096-7.438-27.078-13.193-3.586-2.952.876-8.37 4.461-5.419 6.838 5.638 13.724 11.593 22.616 11.593 10.717 0 20.146-8.909 32.961-13.812 4.351-1.656 6.838 4.899 2.509 6.556-12.41 4.749-22.393 14.275-35.469 14.275z"/></svg>
