<?xml version="1.0" encoding="utf-8"?>

<!-- License Agreement at http://iconmonstr.com/license/ -->

<!DOCTYPE svg PUBLIC "-//W3C//DTD SVG 1.1//EN" "http://www.w3.org/Graphics/SVG/1.1/DTD/svg11.dtd">
<svg version="1.1" xmlns="http://www.w3.org/2000/svg" xmlns:xlink="http://www.w3.org/1999/xlink" x="0px" y="0px"
	 width="512px" height="512px" viewBox="0 0 512 512" enable-background="new 0 0 512 512" xml:space="preserve">
<path id="linux-os-icon" d="M407.489,377.012c-9.705-7.656-5.932-24.57-16.021-32.908c0.001,0,0.002,0.001,0.003,0.002
	c9.768-57.771-17.591-108.688-50.218-141.315c-27.386-27.387-18.551-54.021-18.551-77.083C322.703,88.856,307.16,50,260.031,50
	c-50.387,0-64.175,40.861-64.676,64.175c-1.205,55.996,11.647,70.54-22.061,111.304c-39.643,47.944-45.489,95.769-36.549,121.14
	c0-0.001,0-0.001,0.001-0.002c-4.182,4.742-9.833,9.993-20.397,14.344c-29.16,12.367-7.791,33.039-15.845,47.723
	c-9.321,16.993,0.939,37.251,26.246,35.044c16.21-1.409,33.262,5.228,48.067,11.776c20.834,9.218,39.64,0.285,46.847-14.104
	c24.309-5.825,54.323-5.085,78.613,1.001c7.476,20.296,36.73,28.439,57.081,6.732c8.931-9.525,23.026-24.205,39.652-29.611
	C416.507,413.183,420.146,386.998,407.489,377.012z M246.012,197.365c-5.629,0-10.289-4.435-17.661-9.75
	c-9.33-6.73-18.801-10.606-18.701-17.687c0-4.847,6.687-6.354,15.349-11.692c9.285-5.725,12.899-11.517,22.033-11.517
	c9.356,0,12.199,4.601,24.887,9.938c12.517,5.265,21.199,7.323,21.199,13.271c0,6.096-13.077,10.467-20.442,14.899
	c-10.787,6.488-16.354,12.538-26.646,12.538C235.739,197.365,251.642,197.365,246.012,197.365z M275.406,107.824
	c15.568,2.419,17.328,29.028,9.858,42.131c-1.887-0.75-3.423-1.336-6.263-2.486c3.239-9.331,3.193-24.669-7.689-25.649
	c-6.895-0.621-11.347,8.247-12.302,15.829c-2.712-1.095-5.66-1.891-9.25-2.175C250.883,119.625,261.408,105.649,275.406,107.824z
	 M215.325,113.507c11.929-2.89,18.976,10.61,19.031,24.638c-1.964,0.948-3.753,2.074-5.46,3.268
	c-0.746-5.895-3.455-15.406-10.227-13.366c-7.272,2.19-6.09,18.582-2.042,21.947c-1.779,1.022-3.538,1.936-5.398,2.916
	C203.824,140.771,203.829,116.292,215.325,113.507z M177.976,443.86c-34.658-15.328-46.437-11.844-53.052-11.844
	c-13.726,0-18.203-9.938-13.046-19.343c4.379-7.98,3.027-16.344,1.941-23.061c-1.664-10.281-1.969-13.641,8.438-18.069
	c14.39-5.936,20.785-13.568,25.549-19.291c13.386-16.081,26.896,9.207,37.969,31.753c7.176,14.608,21.334,22.012,25.672,38.192
	C215.455,437.15,198.919,453.126,177.976,443.86z M301.336,411.69c-24.422,11.557-55.56,16.856-78.833,5.125
	c-3.447-9.666-8.956-15.917-14.881-22.197l0,0c9.511-2.437,16.586-13.98,8.122-25.581c-9.025-12.366-27.445-21.005-46.085-35.012
	c-17.429-13.098-22.938-45.374,0.794-81.473c-11.571,31.964-4.805,61.418,1.003,69.858c1.211-16.964,2.59-45.291,26.405-79.217
	c12.027-17.132,12.202-39.767,12.473-53.913c3.638,2.5,7.368,4.708,10.939,7.286c8.04,5.794,14.784,12.157,24.456,12.158h0.027
	c14.3,0,22.179-8,33.207-14.633c4.301-2.588,10.816-5.187,16.285-8.808c9.174,42.502,47.213,93.623,49.348,122.754
	c8.858-17.715-2.506-60.332-2.506-60.332c14.873,22.062,16.043,40.444,16.712,63.006c10.403,4.137,21.559,14.916,22.569,29.11
	c-1.331-0.229-2.765-0.395-4.32-0.481c-2.229-15.773-46.04-38.942-49.974-9.24c-21,3.097-13.367,35.462-17.587,56.438
	C307.562,396.119,303.945,403.708,301.336,411.69z M386.878,410.986c-17.381,6.518-29.127,20.372-37.199,28.981
	c-15.542,16.58-36.097,8.633-38.269-6.875c-2.325-16.588,6.349-25.627,10.086-44.195c3.408-16.948-0.411-43.025,7.604-45.798
	c5.215,30.1,36.472,17.454,43.613,9.226c11.604,0,12.572,3.806,15.167,14.373c1.623,6.609,3.862,12.175,10.194,18.718
	C405.485,393.072,403.215,404.859,386.878,410.986z M245.658,187.709c-11.496,0-20.096-7.438-27.078-13.193
	c-3.586-2.952,0.876-8.37,4.461-5.419c6.838,5.638,13.724,11.593,22.616,11.593c10.717,0,20.146-8.909,32.961-13.812
	c4.351-1.656,6.838,4.899,2.509,6.556C268.717,178.183,258.734,187.709,245.658,187.709z"/>
</svg>
