<?xml version="1.0" encoding="utf-8"?>
<!-- Generator: Adobe Illustrator 16.0.4, SVG Export Plug-In . SVG Version: 6.00 Build 0)  -->
<!DOCTYPE svg PUBLIC "-//W3C//DTD SVG 1.1//EN" "http://www.w3.org/Graphics/SVG/1.1/DTD/svg11.dtd">
<svg version="1.1"
	 id="svg2" sodipodi:docname="nginx_logo_release.svg" inkscape:version="0.48.3.1 r9886" xmlns:dc="http://purl.org/dc/elements/1.1/" xmlns:cc="http://creativecommons.org/ns#" xmlns:rdf="http://www.w3.org/1999/02/22-rdf-syntax-ns#" xmlns:svg="http://www.w3.org/2000/svg" xmlns:sodipodi="http://sodipodi.sourceforge.net/DTD/sodipodi-0.dtd" xmlns:inkscape="http://www.inkscape.org/namespaces/inkscape"
	 xmlns="http://www.w3.org/2000/svg" xmlns:xlink="http://www.w3.org/1999/xlink" x="0px" y="0px" width="27.062px" height="24px"
	 viewBox="29.437 -2.937 27.062 24" enable-background="new 29.437 -2.937 27.062 24" xml:space="preserve">
<sodipodi:namedview  fit-margin-bottom="0" fit-margin-right="0" inkscape:window-maximized="1" inkscape:window-y="24" inkscape:current-layer="layer1" inkscape:window-x="0" inkscape:pageshadow="2" inkscape:document-units="px" inkscape:pageopacity="0.0" inkscape:window-height="1003" inkscape:window-width="1920" fit-margin-left="0" fit-margin-top="0" showgrid="false" inkscape:cy="48.217226" inkscape:cx="23.971822" inkscape:zoom="2.8284271" borderopacity="1.0" bordercolor="#666666" pagecolor="#ffffff" id="base">
	</sodipodi:namedview>
<g id="layer2" transform="translate(-11.56225,-11.12422)" inkscape:groupmode="layer" inkscape:label="Typography" display="none">
	<g id="g3910" display="inline">
		<path id="path3872" inkscape:connector-curvature="0" fill="none" stroke="#000000" d="M3.794,10.71h156.786"/>
		<path id="path3872-6" inkscape:connector-curvature="0" fill="none" stroke="#000000" d="M3.656,35.735h156.785"/>
		<path id="path3872-6-8" inkscape:connector-curvature="0" fill="none" stroke="#000000" d="M-10.357,23.222h156.785"/>
	</g>
</g>
<path id="path2996-0" sodipodi:nodetypes="cccccccccccccccscccccccccccccc" inkscape:connector-curvature="0" d="M36.125-2.937
	l-0.688,1.281l-5.312,9.656L29.437,9.22l0.688,1.219l5.312,9.344l0.719,1.281h1.469H48.5h1.562l0.688-1.406l3.969-8L56.5,8.032
	h-4.031L42.312,8.063c-1.32-0.019-2.535,1.179-2.535,2.5s1.215,2.519,2.535,2.5l6.125-0.031l-1.5,3.031h-7.875l-3.906-6.875
	l3.938-7.125h8.378l1.953,4.008h5.031L51.284-1.53l-0.688-1.406h-1.562H37.625H36.125z"/>
</svg>
