<svg xmlns="http://www.w3.org/2000/svg" viewBox="0 219.3 425.2 403.3"><path d="M425.2 347.6l-.1-.8-.1-.8-.2-.8-.2-.8-.3-.7-.3-.8-.4-.7-.4-.8-.5-.7-.4-.7-.6-.7-.5-.6-.6-.5-.6-.5-1.4-.9-200.2-115.8c-3.9-2.3-8.7-2.2-12.6 0l-199.1 115.7-.6.4-.8.5-.6.6-.6.5-.6.7-.5.5-.5.7-.4.6-.4.8-.3.7-.3.8-.3.8-.2.8-.2.8-.1.9-.1.8-.2 146.7c0 4.5 2.4 8.7 6.3 10.9l200.5 115.7c1.9 1.1 4.1 1.7 6.3 1.7l1.6-.1.3-.1 1.3-.3.3-.1 1.3-.4.4-.2 1.1-.5 199.1-115.7c3.9-2.2 6.3-6.4 6.3-10.9l.4-146.7zm-213-101.2l75.5 43.6-174.7 100.8-74.9-43.2 174.1-101.2zm-11.7 341.8l-175.3-101.2.3-117.7 175.3 101.2-.3 117.7zm13-139.4l-75.2-43.4 174.6-100.8 74.6 43.1-174 101.1zm186.1 38.2l-173.9 101.1.3-117.5 173.9-101.1-.3 117.5zm-213.3 76l-75.3-43.4.1-50.5 75.3 43.5-.1 50.4z"/></svg>
