<?xml version="1.0" encoding="utf-8"?>
<!-- Generator: Adobe Illustrator 16.0.4, SVG Export Plug-In . SVG Version: 6.00 Build 0)  -->
<!DOCTYPE svg PUBLIC "-//W3C//DTD SVG 1.1//EN" "http://www.w3.org/Graphics/SVG/1.1/DTD/svg11.dtd">
<svg version="1.1" id="Layer_1" xmlns="http://www.w3.org/2000/svg" xmlns:xlink="http://www.w3.org/1999/xlink" x="0px" y="0px"
	 width="846.725px" height="800px" viewBox="456.628 22.067 846.725 800" enable-background="new 456.628 22.067 846.725 800"
	 xml:space="preserve">
<path d="M1017.514,396.855c64.289-29.142,73.871-250.951,35.942-316.282
	c-49.545-85.289-285.055-68.161-359.421-7.198c-8.539,30.283-7.646,85.239-7.249,128.925h233.425v20.454H686.836
	c0,0.298-103.903,0.646-103.903,0.646c-179.165,0-175.442,389.108,60.962,389.108c0,0,8.688-86.182,23.88-129.371
	C714.687,349.842,911.772,444.811,1017.514,396.855z M773.117,170.727c-26.906,0-48.7-21.794-48.7-48.75
	c0-26.907,21.794-48.75,48.7-48.75c26.958,0,48.751,21.843,48.751,48.75C821.917,148.884,800.074,170.727,773.117,170.727z"/>
<path d="M1107.966,231.59c0,0-6.206,86.232-21.397,129.371c-46.914,133.245-243.949,38.325-349.74,86.282
	c-64.238,29.141-73.92,250.95-35.941,316.28c49.495,85.338,285.004,68.211,359.421,7.199c8.538-30.232,7.646-85.189,7.249-128.876
	H834.079v-20.452h233.376c0-0.299,115.025-0.646,115.025-0.646C1347.596,620.748,1362.391,231.59,1107.966,231.59z M972.834,664.932
	c26.907,0,48.752,21.794,48.752,48.75c0,26.908-21.845,48.701-48.752,48.701c-26.906,0-48.7-21.793-48.7-48.701
	C924.134,686.726,945.928,664.932,972.834,664.932z"/>
</svg>
