<svg xmlns="http://www.w3.org/2000/svg" viewBox="456.628 22.067 846.725 800"><path d="M1017.514 396.855c64.289-29.142 73.871-250.951 35.942-316.282-49.545-85.289-285.055-68.161-359.421-7.198-8.539 30.283-7.646 85.239-7.249 128.925h233.425v20.454h-233.375c0 .298-103.903.646-103.903.646-179.165 0-175.442 389.108 60.962 389.108 0 0 8.688-86.182 23.88-129.371 46.912-133.295 243.997-38.326 349.739-86.282zm-244.397-226.128c-26.906 0-48.7-21.794-48.7-48.75 0-26.907 21.794-48.75 48.7-48.75 26.958 0 48.751 21.843 48.751 48.75.049 26.907-21.794 48.75-48.751 48.75zM1107.966 231.59s-6.206 86.232-21.397 129.371c-46.914 133.245-243.949 38.325-349.74 86.282-64.238 29.141-73.92 250.95-35.941 316.28 49.495 85.338 285.004 68.211 359.421 7.199 8.538-30.232 7.646-85.189 7.249-128.876h-233.479v-20.452h233.376c0-.299 115.025-.646 115.025-.646 165.116 0 179.911-389.158-74.514-389.158zm-135.132 433.342c26.907 0 48.752 21.794 48.752 48.75 0 26.908-21.845 48.701-48.752 48.701-26.906 0-48.7-21.793-48.7-48.701 0-26.956 21.794-48.75 48.7-48.75z"/></svg>
