<svg xmlns="http://www.w3.org/2000/svg" viewBox="456.6 242.1 425.2 401.7"><path d="M738.3 430.4c32.3-14.6 37.1-126 18-158.8-24.9-42.8-143.1-34.2-180.5-3.6-4.3 15.2-3.8 42.8-3.6 64.7h117.2v10.3h-117.2c0 .1-52.2.3-52.2.3-90 0-88.1 195.4 30.6 195.4 0 0 4.4-43.3 12-65 23.6-67 122.6-19.3 175.7-43.3zm-122.7-113.6c-13.5 0-24.5-10.9-24.5-24.5 0-13.5 10.9-24.5 24.5-24.5 13.5 0 24.5 11 24.5 24.5s-11 24.5-24.5 24.5zm168.1 30.6s-3.1 43.3-10.7 65c-23.6 66.9-122.5 19.2-175.6 43.3-32.3 14.6-37.1 126-18 158.8 24.9 42.9 143.1 34.3 180.5 3.6 4.3-15.2 3.8-42.8 3.6-64.7h-117.3v-10.3h117.2c0-.2 57.8-.3 57.8-.3 82.8 0 90.3-195.4-37.5-195.4zm-67.8 217.6c13.5 0 24.5 10.9 24.5 24.5 0 13.5-11 24.5-24.5 24.5s-24.5-10.9-24.5-24.5 10.9-24.5 24.5-24.5z"/></svg>
