<svg xmlns="http://www.w3.org/2000/svg" viewBox="0 210.1 425.4 421.9"><path d="M420.1 257.3c-14.1-42.9-60-47.1-60-47.1l-55.5 30.9 115.5 16.2zM413.8 347.9l-144 9.3 107.4 65.4c31.5-48.6 36.6-74.7 36.6-74.7zM294.7 250.1c-9 31.8-29.4 97.8-29.4 97.8l139.5-9.3-110.1-88.5zM343.9 210.1h-91.2l40.8 27.7zM3.9 443.6l-2.4 88.5 21.6-39.3zM416.8 337.4c15.3-38.7 5.4-73.8 5.4-73.5l-116.1-16.2 110.7 89.7zM204.6 594.5s70.8-41.4 90-69.3l-151.8-49.5 61.8 118.8zM370.9 430.7l-102.6-63.3 36.6 148.2s54.9-63.3 66-84.9zM256.3 364.4l-112.9 103.5 151.3 47.7zM217 595.4l175.8 12.9-90.9-78.9c-32.1 32.7-84.9 66-84.9 66zM146.4 627.2l202.2-13.8-144.3-10.8c-19.2 11.7-57.9 24.6-57.9 24.6zM310 524.6l89.1 78-23.7-161.7c-19.5 31.2-65.4 83.7-65.4 83.7zM137.4 479.3l-46.2 152.7c81.6-14.4 105.9-36.3 105.9-36.3l-59.7-116.4zM31.2 496.7l54.3 126.9 43.8-147.9zM0 549.5c4.2 40.5 13.2 47.7 13.2 47.7l6.6-82.8-19.8 35.1zM382 430.7l21.3 144.9c5.1-54.3 16.8-215.5 16.5-215.5-8.7 25.6-37.8 70.6-37.8 70.6zM19.8 607.1c26.7 29.4 58.2 20.4 58.2 20.4l-49.5-119.1-8.7 98.7z"/><ellipse transform="matrix(.703 .711 -.711 .703 292.436 -.133)" cx="146.4" cy="350.1" rx="76.8" ry="168"/></svg>
