<svg xmlns="http://www.w3.org/2000/svg" viewBox="56.3 249.9 312.5 342.2"><path d="M192.9 419.3l-42.3 105.7 81.6-75.9 41.6-104.1-80.9 74.3zm22 28.8c-7.6 1.1-14.7-4.1-15.8-11.7-1.1-7.6 4.1-14.7 11.7-15.8 7.6-1.1 14.7 4.1 15.8 11.7 1.1 7.6-4.1 14.7-11.7 15.8zm-57.7-181.4c0-9.3 9.7-16.9 21.7-16.9s21.7 7.6 21.7 16.9c0 3.6-1.5 7-4 9.8-1-2-2.2-3.9-3.7-5.5.9-1.3 1.4-2.8 1.4-4.3 0-5.7-7-10.5-15.4-10.5-8.3 0-15.4 4.8-15.4 10.5 0 3.5 2.7 6.7 6.7 8.6-.7 1.9-1.2 4-1.4 6.3-6.9-2.8-11.6-8.4-11.6-14.9zm14.3 188.3l-54.6-.7 50.2-23.8c.4-6.1 2-11.8 4.6-17l-23.2-24.1 31.3 12.6c3.5-3.6 7.5-6.6 12-8.9l2.9-54.5 22.5 49.5-7.7 7.1c-24.3 2-40.8 26-33.8 49.5l-4.2 10.3zm41.1-175.5c-6.3 0-12.5.4-18.6 1.1-2.3-6.1-7-11.6-13.4-10.2-6.4 1.4-8.1 8.4-8 14.2-67 17.6-116.4 78.6-116.4 151.1 0 86.3 70 156.3 156.3 156.3 86.3 0 156.3-70 156.3-156.3.1-86.2-69.9-156.2-156.2-156.2zm33.1 276.4l-10.1-15-2.5 17.8c-66.9 11-127.9-32.7-141.9-95.3l13.5-8.7-15.7-4.1c-7.7-65.3 35.6-121.9 94.6-136l8.3 13 3.1-15.2c64.3-9.1 121.9 31.9 137.8 90.3l-13.1 10.3 15.7 1.4c11.1 65.4-30 125.1-89.7 141.5zm60.1-140l-47.8 22.9c-.5 4.5-1.7 8.8-3.4 12.9l24.2 24.9-31.9-12.9c-3.7 4.2-8.1 7.7-13 10.3l-1.3 55.4-23.7-49.5 8.5-8c23.2-2.9 38.7-25.9 32.3-48.7l3.8-9.6 52.3 2.3z"/></svg>
