<?xml version="1.0" encoding="utf-8"?>

<!-- License Agreement at http://iconmonstr.com/license/ -->

<!DOCTYPE svg PUBLIC "-//W3C//DTD SVG 1.1//EN" "http://www.w3.org/Graphics/SVG/1.1/DTD/svg11.dtd">
<svg version="1.1" xmlns="http://www.w3.org/2000/svg" xmlns:xlink="http://www.w3.org/1999/xlink" x="0px" y="0px"
	 width="512px" height="512px" viewBox="0 0 512 512" enable-background="new 0 0 512 512" xml:space="preserve">
<path id="safari-icon" d="M232.301,254.026L181.353,381.24l98.312-91.443l50.065-125.385L232.301,254.026z M258.714,288.704
	c-9.152,1.346-17.663-4.984-19.005-14.14c-1.345-9.155,4.987-17.663,14.142-19.006c9.15-1.344,17.662,4.988,19.003,14.141
	C274.199,278.854,267.869,287.362,258.714,288.704z M189.263,70.294C189.263,59.104,200.988,50,215.4,50
	c14.411,0,26.137,9.104,26.137,20.294c0,4.378-1.802,8.433-4.85,11.753c-1.197-2.397-2.682-4.676-4.47-6.605
	c1.066-1.583,1.679-3.326,1.679-5.148c0-6.859-8.471-12.653-18.496-12.653c-10.026,0-18.496,5.794-18.496,12.653
	c0,4.239,3.241,8.068,8.081,10.377c-0.867,2.259-1.433,4.81-1.666,7.61C194.974,84.888,189.263,78.101,189.263,70.294z
	 M206.463,297.021l-65.758-0.835l60.421-28.704c0.491-7.299,2.407-14.211,5.483-20.459L178.667,218l37.686,15.144
	c4.164-4.332,9.024-7.981,14.404-10.771l3.512-65.619l27.153,59.617l-9.292,8.546c-29.238,2.414-49.178,31.316-40.669,59.626
	L206.463,297.021z M256,85.696c-7.56,0-15.011,0.459-22.338,1.326c-2.772-7.341-8.463-13.987-16.084-12.278
	c-7.711,1.729-9.708,10.093-9.603,17.146C127.327,113.12,67.848,186.533,67.848,273.848C67.848,377.762,152.086,462,256,462
	c103.913,0,188.152-84.238,188.152-188.152C444.152,169.935,359.913,85.696,256,85.696z M295.865,418.465l-12.168-18.068
	l-3.066,21.39c-80.517,13.228-153.993-39.432-170.92-114.771l16.286-10.427l-18.894-4.888
	c-9.267-78.613,42.849-146.804,113.909-163.71l10.006,15.658l3.697-18.252c77.444-10.937,146.725,38.42,165.926,108.679
	l-15.817,12.434l18.951,1.691C417.257,326.881,367.704,398.783,295.865,418.465z M368.221,249.911l-57.607,27.62
	c-0.625,5.447-2.045,10.652-4.145,15.501L335.667,323l-38.382-15.51c-4.406,5.009-9.702,9.216-15.646,12.363l-1.523,66.694
	l-28.59-59.652l10.294-9.575c27.924-3.516,46.66-31.236,38.902-58.687l4.626-11.585L368.221,249.911z"/>
</svg>
