<svg width="190" height="163" viewBox="-10 -10 200 173" xmlns="http://www.w3.org/2000/svg" xmlns:sketch="http://www.bohemiancoding.com/sketch/ns"><title>Untitled 5</title><g sketch:type="MSPage" fill="#DDF0F2"><path d="M7.997 0c-4.417 0-7.997 3.575-7.997 8v147c0 4.418 3.584 8 7.997 8h174.005c4.417 0 7.997-3.575 7.997-8v-147c0-4.418-3.584-8-7.997-8h-174.005zm14.009 12c-4.422 0-8.006 3.576-8.006 7.998v123.004c0 4.417 3.572 7.998 8.006 7.998h145.988c4.422 0 8.006-3.576 8.006-7.998v-123.004c0-4.417-3.572-7.998-8.006-7.998h-145.988z" sketch:type="MSShapeGroup"/><path d="M75 51.896l-54 28.929v7.101l54 32.074v-16.582l-32.943-19.659 32.943-16.934v-14.929zM115 51l54 28.885v7.09l-54 32.025v-16.557l32.943-19.629-32.943-16.908v-14.906z" sketch:type="MSShapeGroup"/><path d="M78.085 120.074l20.36-69.148h13.854l-19.86 69.148h-14.353z" sketch:type="MSShapeGroup"/></g></svg>