<svg xmlns="http://www.w3.org/2000/svg" viewBox="0.7 208.3 424.5 425.1"><path d="M422 384c-6.5-37.1-22.4-70.2-44.6-97.4l-.6-.8v.1c-45.8-55.5-118.5-86.3-194.3-75.3v-.1l-13.4 2.4.1.4c-75 15.9-133 69.7-156.7 137.8l-.5-.8c-1.7 4.7-3.1 9.4-4.5 14.2l.5.5c-7.9 29.4-9.6 60.9-3.8 92.9h-.7c.3 1.6.4 3.1.9 4.6 22.1 110.7 126.8 184.7 238.3 168.7v.2l6.4-1.1h.4l6.6-1.2v-.2c112-23.4 185.9-131.5 165.9-244.9zm-42.1-60.1l1.1 1.6c12 18.5 19.6 39 23.1 60.9h.6s-.7 14.8-6.5 23c-6.3 9-16.5 18.2-29.9 26.8-5.6 3.6-11.5 7-17.9 10.3 0-16-1.3-32.7-4.3-49.7-2.3-13.3-5.5-26-9.4-38.2 19.5-10.5 34.4-22.4 43.2-34.7zm-231.3 167c-8.2 0-16-.3-23.6-.9-6.2-16-10.9-33-14.1-50.8-2.1-12.1-3.4-24.1-4-35.9 25.5 2.7 55.4 1.8 86.9-3.3l15.1 85.8c-20.5 3.3-40.8 5.1-60.3 5.1zm78.2-96.4c31.3-6 59.7-15.3 82.7-26.6 3.6 11.3 6.4 23 8.6 35.1 3.1 17.8 4.5 35.4 4.2 52.6-6.9 3.2-14.2 6.1-21.8 9-18.3 6.7-37.9 11.9-58.5 15.9l-15.2-86zm40-160c20.3 4.7 39.4 13.1 56.5 25.2 13.8 9.6 25.3 21.2 35.1 34.4-.5.9-1.1 1.8-1.7 2.7-5.7 8.1-15.2 16.6-27.4 24.4-3.3 2.1-6.8 4.2-10.4 6.2-16.6-45.7-43.6-80.7-73.6-96.2 7.3.6 14.4 1.7 21.5 3.3zm-38.9 9.8c12 5.7 23.7 14.9 34.6 27.5 11.2 12.9 20.9 28.5 29 46.5 2.6 5.7 4.9 11.6 7.1 17.7-8 4-16.7 7.7-26.1 11.1-16.4 6-34 10.7-52.4 14.3l-21.7-123.2c9.6-.7 19.5 1.4 29.5 6.1zm-59.6-3.5l21.8 123.9c-18.7 3-37 4.6-54.6 4.6-10 0-19.5-.5-28.5-1.5 0-6.4.1-12.8.6-19.1 1.4-19.8 5.3-37.9 11.4-53.9 6-15.6 13.8-28.4 23.2-37.9 7.9-8.1 16.7-13.4 26.1-16.1zm-114.2 61.7c12.2-17.5 27.5-32.2 45.3-43.7 6.1-3.9 12.4-7.4 18.9-10.5-23.1 25.2-36.8 68-36.7 117.4-4.2-.7-8.2-1.4-12.1-2.3-14.4-3.3-26.3-8-34.7-13.8-1-.7-1.9-1.4-2.8-2.2 5.1-16 12.4-31.1 22.1-44.9zm-34.9 149.6c-4.3-24.1-3.7-48.3 1.8-72l.7-2.6c13.6 9.5 33.8 16.4 58.2 20 .5 14 2 28.4 4.6 43 3.3 18.7 8.1 36.5 14.2 53.1-7.9-1-15.4-2.3-22.5-3.9-17.1-3.9-31.3-9.5-41.2-16.4-7.9-5.5-13-11.7-15-18.2l-.8-3zm131.2 148.5c-19.5-4.5-37.8-12.6-54.3-24.2s-30.4-25.9-41.3-42.8c-6.5-10-11.7-20.7-15.7-31.9 14.4 10.7 37.2 17.7 65.1 20.4 16.1 38.6 40.1 68 66.4 81.7-6.8-.7-13.5-1.7-20.2-3.2zm46.3-6.9c-11.2-5.3-22.1-13.9-32.2-25.7-10.4-12-19.5-26.6-27-43.4l-.6-1.4c22.2 1.3 47.3-.1 73.5-4.4l14.2 80.5c-9.2.7-18.5-1.1-27.9-5.6zm66.4-2.7l-14.3-81.1c26.2-5 50.3-12.3 70.8-21.1l-.1 1.5c-1.4 18.5-4.9 35.4-10.6 50.4-5.6 14.6-12.8 26.5-21.6 35.4-7.3 7.4-15.4 12.4-24.2 14.9zm65.4-24.7c-5.6 3.6-11.4 6.8-17.4 9.6 19.2-20.9 31.2-55.2 33-95.1 24.4-11.7 42.7-25.5 52-39.9.1 11.4-1.1 22.8-3.7 34.1-4.3 18.7-12.1 36.1-23.1 51.9-11 15.7-24.7 29-40.8 39.4z"/></svg>
