<svg width="100" height="100" viewBox="0 0 100 100" xmlns="http://www.w3.org/2000/svg" xmlns:sketch="http://www.bohemiancoding.com/sketch/ns"><title>Untitled 4</title><path d="M99.239 41.312c-1.539-8.726-5.263-16.514-10.497-22.918l-.138-.18-.003.012c-10.771-13.063-27.878-20.288-45.705-17.718l-.005-.028-3.15.555.015.083c-17.635 3.73-31.277 16.401-36.843 32.403l-.119-.177c-.389 1.1-.74 2.216-1.051 3.346l.141.142c-1.869 6.905-2.269 14.325-.884 21.844v.003l-.153.007c.065.37.094.733.201 1.09 5.188 26.042 29.825 43.445 56.049 39.687l.01.054 1.511-.267.051-.007.04-.009 1.549-.273-.01-.054c26.319-5.496 43.693-30.928 38.991-57.595zm-9.901-14.131l.256.376c2.817 4.351 4.618 9.17 5.439 14.321v.002l.151.004s-.165 3.477-1.532 5.415c-1.486 2.105-3.886 4.288-7.028 6.312-1.31.842-2.705 1.651-4.214 2.423.003-3.764-.316-7.688-1.021-11.689-.551-3.123-1.3-6.125-2.215-8.973 4.59-2.494 8.109-5.31 10.163-8.192zm-54.386 39.268c-1.919-.003-3.767-.08-5.541-.222-1.457-3.764-2.571-7.767-3.307-11.944-.5-2.838-.806-5.659-.929-8.442 6.007.634 13.034.414 20.44-.785l3.56 20.189c-4.86.791-9.642 1.208-14.222 1.203zm18.396-22.67c7.36-1.408 14.031-3.603 19.453-6.252.836 2.661 1.516 5.419 2.016 8.261.737 4.184 1.06 8.329.978 12.371-1.62.741-3.332 1.445-5.136 2.105-4.295 1.568-8.92 2.81-13.747 3.73l-3.565-20.215zm9.399-37.621c4.782 1.097 9.255 3.088 13.294 5.916 3.234 2.265 5.941 4.981 8.265 8.084-.126.208-.254.415-.403.626-1.351 1.916-3.579 3.905-6.444 5.75-.775.5-1.593.986-2.445 1.459-3.9-10.75-10.263-18.984-17.302-22.628 1.686.153 3.37.411 5.035.792zm-9.139 2.292c2.832 1.337 5.565 3.515 8.126 6.474 2.625 3.032 4.919 6.714 6.818 10.943.606 1.349 1.157 2.739 1.664 4.158-1.891.937-3.938 1.813-6.139 2.618-3.85 1.407-7.997 2.523-12.323 3.352l-5.108-28.971c2.274-.157 4.609.315 6.962 1.427zm-14.029-.808l5.137 29.133c-4.388.71-8.704 1.084-12.841 1.079-2.354-.003-4.59-.127-6.699-.362-.009-1.515.033-3.017.142-4.501.34-4.649 1.242-8.916 2.678-12.683 1.402-3.676 3.235-6.674 5.451-8.912 1.854-1.87 3.912-3.124 6.131-3.754zm-26.844 14.491c2.876-4.106 6.456-7.563 10.644-10.275 1.432-.927 2.918-1.743 4.447-2.466-5.439 5.931-8.643 15.996-8.633 27.602-.978-.155-1.925-.336-2.838-.543-3.378-.768-6.197-1.893-8.155-3.254-.238-.165-.454-.336-.665-.506 1.181-3.754 2.917-7.297 5.2-10.559zm-8.223 35.201c-1-5.671-.859-11.366.417-16.928l.153-.601c3.21 2.238 7.943 3.846 13.678 4.705.126 3.294.479 6.682 1.085 10.122.776 4.403 1.911 8.588 3.331 12.479-1.851-.232-3.62-.534-5.29-.913-4.012-.91-7.364-2.246-9.692-3.865-1.86-1.294-3.05-2.759-3.538-4.287l-.143-.713zm30.859 34.908c-4.596-1.055-8.893-2.968-12.775-5.685-3.881-2.717-7.147-6.102-9.711-10.061-1.53-2.361-2.758-4.873-3.697-7.501 3.379 2.511 8.746 4.156 15.314 4.794 3.779 9.074 9.421 15.984 15.606 19.206-1.588-.149-3.17-.393-4.737-.753zm10.887-1.602c-2.642-1.247-5.193-3.279-7.583-6.04-2.448-2.83-4.589-6.265-6.361-10.211l-.139-.322c5.223.297 11.113-.032 17.28-1.039l3.339 18.937c-2.135.156-4.327-.281-6.537-1.324zm15.623-.645l-3.359-19.068c6.161-1.169 11.829-2.884 16.654-4.959l-.02.352c-.318 4.344-1.159 8.331-2.501 11.852-1.309 3.435-3.021 6.237-5.09 8.326-1.72 1.737-3.626 2.904-5.684 3.496zm15.377-5.804c-1.313.85-2.679 1.599-4.083 2.26 4.516-4.912 7.33-12.976 7.759-22.376 5.735-2.741 10.039-6.001 12.24-9.389.021 2.691-.262 5.371-.868 8.013-1.008 4.393-2.836 8.501-5.434 12.21-2.597 3.708-5.832 6.832-9.615 9.282z" sketch:type="MSShapeGroup" fill="#DDF0F2"/></svg>
