<svg xmlns="http://www.w3.org/2000/svg" viewBox="50 50 412 412"><path d="M462 256c0-115.6-93.8-206-206-206-111.5 0-206 89.4-206 206 0 117.2 95.1 206 206 206 111.6 0 206-89.6 206-206zm-303.5-75.6c-3.9 18.9-6.4 39-7.1 59.8h-59.1c2.6-27.6 12.1-53.3 26.7-75.2 12.7 6.4 26.1 11.4 39.5 15.4zm-7 91.4c.9 20.9 3.5 41.2 7.6 60.2-13.8 4-27 9-39.8 15.5-14.8-22-24.4-47.8-27-75.7h59.2zm15.9 90.7c4.9 14.8 11.2 29.4 19.3 42.7-17.4-8.1-33.2-19.2-46.7-32.6 8.5-3.9 17.6-7.3 27.4-10.1zm104.4-43.3v-47.4h57.7c-.9 18.5-3.1 36.3-6.7 53-16.3-3.1-33.4-4.9-51-5.6zm42.5 36.1c-7.7 22.1-21.9 50.9-42.5 62.1v-66.6c14.6.6 28.9 2.1 42.5 4.5zm-42.5-115.1v-46.8c17.8-.7 35.1-2.6 51.5-5.7 3.4 16.5 5.5 34.2 6.2 52.5h-57.7zm0-78.4v-69.3c21.2 11.5 35.6 41.7 43.4 64.6-13.9 2.5-28.4 4.1-43.4 4.7zm-31.6-69v69c-14.8-.7-29.2-2.2-42.8-4.6 7.6-22.9 21.9-52.6 42.8-64.4zm0 100.6v46.8h-57.2c.7-18.3 2.9-35.9 6.2-52.5 16.3 3.1 33.4 5 51 5.7zm-50.4 131.3c-3.6-16.6-5.8-34.5-6.7-53h57.1v47.4c-17.4.8-34.3 2.7-50.4 5.6zm50.4 26.1v66.3c-20.3-11.4-34.3-39.8-42-61.8 13.5-2.4 27.5-3.9 42-4.5zm105 11.7c9.6 2.8 18.6 6.2 27 10-13.3 13.3-28.9 24.3-46.1 32.4 8-13.4 14.2-27.8 19.1-42.4zm8.3-30.5c4.1-19 6.7-39.3 7.6-60.2h58.7c-2.6 27.7-12.2 53.5-26.9 75.5-12.9-6.4-25.9-11.3-39.4-15.3zm39.6-166.8c14.5 21.9 24 47.5 26.6 75h-58.6c-.8-20.8-3.2-40.9-7.1-59.8 13.4-3.9 26.6-8.9 39.1-15.2zm-20.5-25.2c-8.3 3.7-17.2 7.1-26.6 9.9-4.7-14.6-10.6-28.8-18.2-41.9 16.7 8.1 31.8 19 44.8 32zm-187.7-32.4c-7.7 13.3-13.7 27.6-18.4 42.3-9.6-2.9-18.6-6.2-27-10.1 13.2-13.1 28.5-24 45.4-32.2z"/></svg>
