<svg xmlns="http://www.w3.org/2000/svg" viewBox="0 0 512 512"><path d="M256 50c-113.771 0-206 92.229-206 206s92.229 206 206 206 206-92.229 206-206-92.229-206-206-206zm103.599 170.506c3.021 67.199-47.096 142.124-135.802 142.124-26.981 0-52.096-7.911-73.238-21.466 25.347 2.987 50.646-4.044 70.734-19.786-20.907-.386-38.554-14.198-44.632-33.181 7.486 1.432 14.851 1.013 21.575-.816-22.976-4.617-38.839-25.317-38.321-47.453 6.44 3.58 13.81 5.729 21.642 5.977-21.278-14.221-27.303-42.318-14.785-63.789 23.563 28.906 58.77 47.928 98.478 49.92-6.969-29.886 15.702-58.667 46.542-58.667 13.742 0 26.16 5.802 34.874 15.088 10.884-2.143 21.108-6.119 30.341-11.594-3.567 11.157-11.144 20.521-21.008 26.433 9.665-1.153 18.874-3.722 27.441-7.523-6.405 9.582-14.505 17.998-23.841 24.733z"/></svg>
