<svg xmlns="http://www.w3.org/2000/svg" viewBox="41.5 249.9 342.2 342.2"><path d="M212.6 249.9c-94.5 0-171.1 76.6-171.1 171.1s76.6 171 171.1 171 171.1-76.6 171.1-171.1-76.6-171-171.1-171zm86 141.6c2.5 55.8-39.1 118-112.8 118-22.4 0-43.3-6.6-60.8-17.8 21 2.5 42.1-3.4 58.7-16.4-17.4-.3-32-11.8-37.1-27.6 6.2 1.2 12.3.8 17.9-.7-19.1-3.8-32.3-21-31.8-39.4 5.3 3 11.5 4.8 18 5-17.7-11.8-22.7-35.1-12.3-53 19.6 24 48.8 39.8 81.8 41.5-5.8-24.8 13-48.7 38.7-48.7 11.4 0 21.7 4.8 29 12.5 9-1.8 17.5-5.1 25.2-9.6-3 9.3-9.3 17-17.4 22 8-1 15.7-3.1 22.8-6.2-5.4 7.8-12.1 14.8-19.9 20.4z"/></svg>
