<svg xmlns="http://www.w3.org/2000/svg" viewBox="41.5 321.2 342.2 199.5"><path d="M213 520.7c-69.2 0-132-47.6-171.5-105.4 39.8-55.8 102.7-94.1 171.5-94.1 69 0 132 37.6 170.7 93.8-36.7 61-99.4 105.7-170.7 105.7zm-135.3-104.9c33 40.8 81.8 75.9 135.3 75.9 72.8 0 119.9-54.6 135.4-75.6-32.8-38.6-81.2-65.8-135.4-65.8-70.4-.1-118.4 46.3-135.3 65.5zm136.8-52.5c-31.8 0-57.6 25.8-57.6 57.6s25.8 57.6 57.6 57.6 57.6-25.8 57.6-57.6-25.8-57.6-57.6-57.6zm0 57.6c-8.1 8.1-21.3 8.1-29.4 0-8.1-8.1-8.1-21.3 0-29.4 8.1-8.1 21.3-8.1 29.4 0 8.1 8.1 8.1 21.3 0 29.4z"/></svg>
