<svg xmlns="http://www.w3.org/2000/svg" width="512" height="512" viewBox="0 0 512 512"><path d="M256.494 376.142c-83.277 0-158.968-57.287-206.494-126.949 47.956-67.222 123.636-113.334 206.494-113.334 83.032 0 158.965 45.31 205.506 112.907-44.129 73.545-119.672 127.376-205.506 127.376zm-162.891-126.369c39.783 49.138 98.528 91.363 162.892 91.363 87.675 0 144.426-65.7 163.013-90.981-39.54-46.52-97.718-79.292-163.013-79.292-84.815 0-142.618 55.824-162.892 78.91zm164.707-63.141c-38.312 0-69.368 31.057-69.368 69.368s31.057 69.368 69.368 69.368 69.369-31.057 69.369-69.368-31.058-69.368-69.369-69.368zm-.064 69.345c-9.792 9.791-25.666 9.791-35.458 0-9.792-9.792-9.792-25.667 0-35.458 9.792-9.792 25.666-9.792 35.458 0 9.792 9.791 9.792 25.666 0 35.458z"/></svg>