<?xml version="1.0" encoding="utf-8"?>


<!-- The icon can be used freely in both personal and commercial projects with no attribution required, but always appreciated. 
You may NOT sub-license, resell, rent, redistribute or otherwise transfer the icon without express written permission from iconmonstr.com -->


<!DOCTYPE svg PUBLIC "-//W3C//DTD SVG 1.1//EN" "http://www.w3.org/Graphics/SVG/1.1/DTD/svg11.dtd">

<svg version="1.1" xmlns="http://www.w3.org/2000/svg" xmlns:xlink="http://www.w3.org/1999/xlink" x="0px" y="0px"

	 width="512px" height="512px" viewBox="0 0 512 512" enable-background="new 0 0 512 512" xml:space="preserve">

<path id="wordpress-icon" d="M402.623,77.721c-12.777,4.159-40.046,30.771-5.469,78.243c34.581,47.47,14.114,101.545,14.114,101.545

	l-30.141,100.027l-75.887-225.723c0,0,21.428-1.603,24.492-2.064c3.065-0.461,8.163-3.473,7.313-9.883

	c-0.85-6.411-5.561-7.337-10.04-7.105c-2.25,0.116-28.707,2.114-54.99,2.112c-26.119-0.002-52.064-2.011-53.911-2.112

	c-3.708-0.208-9.063,0.208-10.35,6.024c-0.927,4.866,1.39,10.272,6.642,10.89s1.733,0.159,22.956,2.139

	c0,0,14.428,39.51,32.683,89.499l-46.216,137.206l-76.138-226.705c0,0,21.428-1.603,24.493-2.064

	c3.065-0.461,8.163-3.473,7.313-9.883c-0.85-6.411-5.561-7.337-10.041-7.105c-2.247,0.116-28.707,2.114-54.991,2.112

	c-26.117-0.002-52.062-2.011-53.909-2.112c-3.708-0.208-9.063,0.208-10.35,6.024c-0.927,4.866,1.39,10.272,6.642,10.89

	s1.733,0.159,22.956,2.139c0,0,101.309,277.413,106.679,292.298s27.614,18.746,33.947-0.717

	c4.682-14.387,41.1-120.094,59.775-174.251c28.354,77.664,60.855,166.711,63.833,174.968c5.373,14.885,27.616,18.746,33.949-0.717

	s42.17-119.915,72.909-209.868C478.075,131.553,452.85,61.383,402.623,77.721z"/>

</svg>

