<svg xmlns="http://www.w3.org/2000/svg" viewBox="0 0 512 512"><path d="M402.623 77.721c-12.777 4.159-40.046 30.771-5.469 78.243 34.581 47.47 14.114 101.545 14.114 101.545l-30.141 100.027-75.887-225.723s21.428-1.603 24.492-2.064c3.065-.461 8.163-3.473 7.313-9.883-.85-6.411-5.561-7.337-10.04-7.105-2.25.116-28.707 2.114-54.99 2.112-26.119-.002-52.064-2.011-53.911-2.112-3.708-.208-9.063.208-10.35 6.024-.927 4.866 1.39 10.272 6.642 10.89s1.733.159 22.956 2.139c0 0 14.428 39.51 32.683 89.499l-46.216 137.206-76.138-226.705s21.428-1.603 24.493-2.064c3.065-.461 8.163-3.473 7.313-9.883-.85-6.411-5.561-7.337-10.041-7.105-2.247.116-28.707 2.114-54.991 2.112-26.117-.002-52.062-2.011-53.909-2.112-3.708-.208-9.063.208-10.35 6.024-.927 4.866 1.39 10.272 6.642 10.89s1.733.159 22.956 2.139c0 0 101.309 277.413 106.679 292.298s27.614 18.746 33.947-.717c4.682-14.387 41.1-120.094 59.775-174.251 28.354 77.664 60.855 166.711 63.833 174.968 5.373 14.885 27.616 18.746 33.949-.717s42.17-119.915 72.909-209.868c27.189-81.975 1.964-152.145-48.263-135.807z"/></svg>
