<svg xmlns="http://www.w3.org/2000/svg" viewBox="41.5 270.9 342.2 300.1"><path d="M334.4 272.9c-10.6 3.5-33.3 25.6-4.5 65 28.7 39.4 11.7 84.3 11.7 84.3l-25 83.1-63-187.5s17.8-1.3 20.3-1.7c2.5-.4 6.8-2.9 6.1-8.2-.7-5.3-4.6-6.1-8.3-5.9-1.9.1-23.8 1.8-45.7 1.8-21.7 0-43.2-1.7-44.8-1.8-3.1-.2-7.5.2-8.6 5-.8 4 1.2 8.5 5.5 9 4.4.5 1.4.1 19.1 1.8 0 0 12 32.8 27.1 74.3l-38.4 113.9-63.2-188.3s17.8-1.3 20.3-1.7c2.5-.4 6.8-2.9 6.1-8.2-.7-5.3-4.6-6.1-8.3-5.9-1.9.1-23.8 1.8-45.7 1.8-21.7 0-43.2-1.7-44.8-1.8-3.1-.2-7.5.2-8.6 5-.8 4 1.2 8.5 5.5 9 4.4.5 1.4.1 19.1 1.8 0 0 84.1 230.4 88.6 242.7 4.5 12.4 22.9 15.6 28.2-.6 3.9-11.9 34.1-99.7 49.6-144.7 23.5 64.5 50.5 138.4 53 145.3 4.5 12.4 22.9 15.6 28.2-.6 5.3-16.2 35-99.6 60.5-174.3 22.6-67.9 1.7-126.2-40-112.6z"/></svg>
