<svg xmlns="http://www.w3.org/2000/svg" viewBox="13.9 342.8 401.5 155.5"><path fill="#999" d="M287.2 358.8v104.8h31.4v-16h-10.4v-104.7h-21.1l.1 15.9zm-273.3 88.8h10.7v-50.6h-10.7v-13.9l10.7-1.8v-14.1c0-17 3.7-24.4 25.5-24.4 4.7 0 10.3.7 15.1 1.6l-2.9 17.1c-3.3-.5-4.9-.6-7-.6-7.7 0-9.6.8-9.6 8.2v12.2h15.9v15.7h-15.9v50.5h10.6v16h-42.4v-15.9zm262.5-5.1c-3.3.7-6.2.6-8.3.7-8.7.2-7.9-2.6-7.9-10.8v-35.4h16.5v-15.6h-16.5v-38.5h-21.1v93.9c0 18.4 4.6 26.8 24.4 26.8 4.7 0 11.1-1.2 16-2.2l-3.1-18.9zm130.9 5.2c4.4 0 8 3.5 8 8 0 4.4-3.6 7.9-8 7.9s-8-3.5-8-7.9 3.6-8 8-8m0 14.6c3.7 0 6.7-3 6.7-6.7s-3-6.6-6.7-6.6-6.6 2.9-6.6 6.6 3 6.7 6.6 6.7m1.5-2.8l-1.6-2.4h-1.1v2.4h-1.8v-7.8h3.3c1.9 0 3.1 1 3.1 2.7 0 1.3-.6 2.1-1.6 2.4l1.9 2.7h-2.2zm-2.7-3.9h1.4c.8 0 1.4-.3 1.4-1.2 0-.8-.5-1.1-1.3-1.1h-1.5v2.3zm-193.2-58.6v-2.8c-6.4-1.2-12.7-1.2-16.1-1.2-9.8 0-11 5.2-11 8 0 4 1.4 6.1 12 8.5 15.5 3.5 31.1 7.1 31.1 26.4 0 18.3-9.4 27.7-29.2 27.7-13.2 0-26.1-2.8-35.9-5.3v-15.7h15.9v2.8c6.9 1.3 14.1 1.2 17.8 1.2 10.4 0 12.1-5.6 12.1-8.6 0-4.2-3-6.1-12.8-8.1-18.5-3.2-33.1-9.5-33.1-28.2 0-17.8 11.9-24.7 31.7-24.7 13.4 0 23.6 2.1 33.4 4.6v15.4h-15.9zm-97 13.8l-1.6-1.6-8.1 7.1c-.4-.1-.8-.2-1.3-.2-2.2 0-4 1.8-4 4.1s1.8 4.1 4 4.1 4-1.8 4-4.1c0-.4-.1-.8-.2-1.2l7.2-8.2zm32.3 31.7v-65.6h-21.1v6.1c-4.3-2.6-9.2-4.5-14.3-5.4h.1v-7.3h2.6v-5.3h-21.3v5.3h2.6v7.3h.1c-20.2 3.7-35.4 21.3-35.4 42.6 0 23.9 19.4 43.3 43.3 43.3 8.2 0 15.8-2.3 22.3-6.2l3.8 6.2h22.3v-21.1l-5 .1zm-42.1 0v-2.5h-2.5v2.5c-11.3-.6-20.4-9.8-20.9-21.1h2.5v-2.5h-2.5c.7-11.2 9.7-20.3 20.9-20.9v2.5h2.5v-2.5c11.1.6 20 9.3 21 20.3v.7h-2.5v2.5h2.5v.7c-.9 11-9.9 19.7-21 20.3zm265.9-61.1h43.5v15.6h-10.5l-26.6 65.6c-7.6 18.4-20.2 35.8-39.3 35.8-4.7 0-10.9-.5-15.3-1.6l1.9-19.1c2.8.5 6.4.9 8.3.9 8.9 0 18.9-5.5 22-15.1l-27-66.5h-10.4v-15.6h43.5v15.6h-10.4l15.3 37.6 15.3-37.6h-10.3v-15.6z"/></svg>
