<svg xmlns="http://www.w3.org/2000/svg"><symbol id="icon-angular" viewBox="0.6 196.6 425.2 450.4"><path d="M212.5 196.6l-211.9 74.6 33.4 277.6 178.7 98.2 179.6-99.5 33.5-277.6-213.3-73.3zm160.9 337.6l-161.4 89.4-159-88.2-28.7-248.3 187.7-66.9 192.6 65.7-31.2 248.3zm-161.4-299.3l-131 291.5 48.9-.9 26.3-65.7h117.4l28.8 66.6 46.8.9-137.2-292.4zm44.6 186h-83.3l39-92.5 44.3 92.5z"/></symbol><symbol id="icon-apache" viewBox="0 554.6 425.2 183.3"><path d="M140.1 728.5c35.9-11.6 61.1-16.7 61.1-16.7s18.6-23.8 22.3-32c-1.3 8.3-6.6 27.6-6.6 27.6s62.2-24.1 84.9-43.6c22.6-19.6 32-56.4 32-56.4s78.4-35.4 81.6-38.6c3.2-3.2 20.7-24.6-.6-7.8s-80 32.1-81.9 31.5c-4.3-4.3-37.9-9.1-41.8-12.9-3.9-3.9-40.1 5.6-40.1 5.6s41.4-1.7 49.1 12.9c-37.1-6.9-70.3-6.9-70.3-6.9s-67.7 33.2-79.3 35.3c-11.6 2.2-47.4 15.5-47.4 15.5s18.1-2.6 26.3 5.6c-34.5-2.6-49.6-.4-49.6-.4s-42.7 27.6-59.5 44.4c-10.4 2.5-16.8 9.5-16.8 9.5s-5.1 8.9-3.1 16c6.9-1.3 11.2 1.5 11.2 1.5s-6 7.8-.8 15.7c6.1 0 9.5 1 9.5 1s11.8 2.4 25.1 2.4c13.2 0 58.8 2.4 94.7-9.2zm-112.8-17.6s225.9-72.4 238-78.9c11.6-6.2 42.3-20.9 46.9-24.2.6-.5.8-.7.5-.4-.1.1-.3.2-.5.4-3.8 3.3-24.2 21.5-43.9 31.5-22.9 11.7-200.9 67.3-241 71.6z"/></symbol><symbol id="icon-arrow" viewBox="16 306.5 414.6 261.8"><path d="M375.4 306.5l55.2 55.5-207.3 206.3-207.3-206.3 55.2-55.5 152.1 151.4 152.1-151.4z"/></symbol><symbol id="icon-bookmarklet" viewBox="127.7 249.9 169.9 342.2"><path d="M127.7 249.9v342.1l84.9-75.1 84.9 75.1v-342.1h-169.8zm119.2 195.3l-34.3-18.4-34.3 18.4 6.9-38.3-28.1-27 38.6-5.3 17-35 17 35 38.6 5.3-28.1 27 6.7 38.3z"/></symbol><symbol id="icon-broccoli" viewBox="0.1 -0.1 480 498.3"><path d="M479.9 132.7c-.8-8.4-8-23.8-12.5-29.3-5.9-7.2-11.7-14.8-19-20.7-7.2-5.8-15.2-10.5-23.7-14-8.8-3.7-19.3-5.8-27.6-7.3-1.3-6.7-3-11.3-7.6-19.4-5.7-10.3-12-15-21.9-22.2-12.3-9-29.4-18.3-46-19.5-7.2-.5-17.7-.8-30.9 2.1-11.5 2.5-22.8 7.1-31.4 11.5-17.3-6.6-33.4-5.6-46.1-2.2-10.7 2.9-13 4.7-22.9 10.4-9.6 4.2-20.1 13.9-28.2 25.1-30.2.9-55.4 11.5-73.3 21.7-20.3 11.5-38.6 33.6-45.8 47.7-8 15.7-16 37.9-9.2 72.2-44.5 27.4-39.9 71.1-14.9 95.6 21.9 21.4 58.3 28.1 92.7 24.6 10.3 10.4 49.2 57.6 49.2 57.6s39.2 44.2 25.5 103.2c2.3 4.7 6.2 9.9 10.4 13.5 5.1 4.4 11.4 7.4 18.1 9.9 4.7 1.7 10.8 3.2 15.8 4.1 5.2.9 11.5.9 17.5.8 10.6-.1 19-1.1 28.5-3.4 6-1.5 11.6-3.1 16.2-4.9 8.7-3.4 14.2-7.2 15.4-9.7-.9-4.1-2.2-10.5-3.2-16.2-1.1-6.1-1.8-11.5-2.3-15.6-1.3-11.3-.6-19.2.8-32.4 2.1-19.3 6.3-28.2 12.3-39.6 5.8-11 15.3-26.3 22.6-36.2 7.6-10.3 26.8-30.4 33.7-37.9 2.4.7 7.1 2.3 14.4 3.7 5.5 1.1 12 2.4 20.1 2.1 19.3-.7 26.4-4.3 37.6-11.7 10.2-6.6 20-19.9 25.1-32.7 3.9-9.8 5.1-19.8 3.4-31.5-1.1-7.9-3.7-17.2-5.7-23.4-2.2-6.7-5.7-13.9-8.6-19.4 0 0 11.7-14 16.4-25.7 4.1-9.9 6-22.8 5.1-30.9zm-276.6 203.7c-1.7.8-3.4 1.2-5.5.4-7.5-2.7-19.9-12-28.8-20.3-13.8-12.9-24.9-29.6-24.9-29.6 5.3-5.3 9.9-12.9 13.4-18.8 4 .2 12.3.8 20.4.4 8.2-.4 16.8-1.6 20.3-3.6 1 2.9 7.7 27 8.2 41.8.6 19.5 0 22.9-3.1 29.7zm123.4-30.8c-6 4.5-13 10.9-22.9 12.7-2.8-2.7-4-9.7-5.1-17.2-1.1-7.4-1-15.9-.7-18.2 4.1-.2 14.3-1 23-2.9 6.9-1.4 20.6-5.5 20.6-5.5 1.4 3.7 5.5 9.8 8.3 12.4-3.6 3.4-23.2 18.7-23.2 18.7z"/></symbol><symbol id="icon-chrome" viewBox="41.5 250 342.2 342"><path d="M82.8 309.5c79.5-92.5 227-74.2 282.1 33.8h-132.5c-23.9 0-39.3-.5-56 8.2-19.6 10.3-34.4 29.5-39.6 51.9l-54-93.9zm72.9 111.4c0 31.4 25.5 56.9 56.9 56.9s56.9-25.5 56.9-56.9-25.5-56.9-56.9-56.9c-31.4.1-56.9 25.6-56.9 56.9zm78.9 74.5c-31.9 9.5-69.3-1-89.7-36.3-15.6-26.9-56.9-98.8-75.6-131.4-65.7 100.5-9.1 237.6 110.1 261l55.2-93.3zm30.8-131.3c26.6 24.7 32.4 64.7 14.4 95.7-13.6 23.4-56.9 96.4-77.8 131.8 122.8 7.6 212.4-112.8 172-227.5h-108.6z"/></symbol><symbol id="icon-cli" viewBox="41.5 269.4 342.2 303.1"><path d="M41.5 269.4v303.1h342.2v-303.1h-342.2zm300.7 261.6h-259.2v-181h259.1v181zm-141.7-89.8l-63.1 63.4-22.8-22.6 40.5-40.7-40.6-40.8 22.8-22.7 63.2 63.4zm111.8 30.8h-94.3v31.6h94.3v-31.6z"/></symbol><symbol id="icon-close" viewBox="0 0 512 512"><path d="M438.393 374.595l-118.636-118.618 118.621-118.629-63.783-63.741-118.6 118.618-118.62-118.603-63.768 63.73 118.639 118.631-118.624 118.642 63.73 63.768 118.65-118.659 118.65 118.644z"/></symbol><symbol id="icon-dislike" viewBox="57 249.9 311.2 342.2"><path d="M225.3 530.5c-14.4-44.7-52.9-105.6-142.7-111.9v-103c94.5-1.1 138.3-35.3 171.4-39.1 29.2-3.4 60.3.5 64.5 29.6l-13.4-4.5c-11.4-3.4-16.4 13.7-5.2 17.1l12.6 4.3c12.3 3.7 12.8 8.6 15 25.5l-15.9-5.2c-11.2-3.4-16.6 13.6-5.2 17.1l12.9 4c12.7 3.8 12.9 7.1 15.8 25.8l-16.8-5c-11.4-3.4-16.4 13.7-5.2 17.1l16.3 4.3c10.9 3.1 11.6 10.1 12.6 24.8-43.5-5.4-81.8 10.1-98.1 21.9 16.3 48.6 20.5 107.3 2.6 112.7-14.2 4.3-15.8-18.8-21.2-35.5zm49.2-64.1c30.3-12.8 69.8-12.9 93.7-7-6.1-57.4-18.3-125.8-26.6-157-11.9-44.8-44-56.6-90.5-51.4-50 5.6-65.4 40.4-194.1 40.4v150c43.4 3.4 117.3 8.1 145.8 103.1 7.1 23.6 13.8 47.5 40.4 47.5 49.2 0 42.9-78.8 31.3-125.6z"/></symbol><symbol id="icon-email" viewBox="41.5 249.9 342.2 342.2"><path d="M212.6 249.9c-94.5 0-171.1 76.6-171.1 171.1s76.6 171 171.1 171 171.1-76.6 171.1-171.1-76.6-171-171.1-171zm102.9 95l-102.1 78.3-101.9-78.3h204zm-204.7 21.5l60.1 46.1-60.1 60.1v-106.2zm.2 130.6l73.8-73.8 28.6 22 28.6-21.9 73.7 73.7h-204.7zm205.1-24.3l-60.1-60.1 60.1-46.1v106.2z"/></symbol><symbol id="icon-firefox" viewBox="41.5 266.3 342.2 309.2"><path d="M160.5 321.9c1.3-11.4 9-26.2 23.3-33-21.5-3.3-39 6.8-47.7 19.8-13.8-3-22.3-3.1-36.2-.5-8.8-6.7-19.2-21.9-18.4-37.9-16.7 19.7-20.1 34.5-18.1 52.2-64.3 114.8 22.1 253.1 145.3 253.1 110.7 0 174.9-84.7 174.9-171.4 0-58.5-26.5-109.3-53.5-120.3 10.1 11.1 21.5 40.1 19.4 60.1-21.8-56.8-76.3-78.8-94.7-77.6 60.4 23.5 74.8 103.7 69.5 127.3-5.2-27.7-22-51.6-32-57.9 58.5 137-82.7 179-125.8 131.5 11.1 2.9 33 1.5 49.5-9.5 15.4-10.3 16.8-10.9 26.7-11.7 11.7-.9-.7-24.1-26.3-20.2-10.5 1.6-27.9 14-49.3 5.8-25.8-9.9-25-45.1 1.7-34.5 5.8-7.5 1.5-21.6 1.5-21.6 7.7-7.1 17.5-12.1 23.4-15.6 3.9-2.3 14.2-8.7 13.6-21.1-2.1-1.6-5.5-3.7-13.1-3.3-29.8 2-31.8-8.7-33.7-13.7z"/></symbol><symbol id="icon-github" viewBox="41.5 254.1 342.2 333.7"><path d="M212.6 254.1c-94.5 0-171.1 76.6-171.1 171.1 0 75.6 49 139.7 117 162.3 8.5 1.6 11.3-3.7 11.3-8.2v-31.9c-47.6 10.4-57.5-20.2-57.5-20.2-7.8-19.8-19-25-19-25-15.5-10.6 1.2-10.4 1.2-10.4 17.2 1.2 26.2 17.6 26.2 17.6 15.3 26.1 40 18.6 49.8 14.2 1.5-11.1 6-18.6 10.9-22.9-38-4.3-77.9-19-77.9-84.6 0-18.7 6.7-33.9 17.6-45.9-1.8-4.3-7.6-21.7 1.6-45.3 0 0 14.4-4.6 47.1 17.5 13.7-3.8 28.3-5.7 42.8-5.8 14.5.1 29.2 2 42.9 5.8 32.7-22.1 47-17.5 47-17.5 9.3 23.6 3.5 41 1.7 45.3 11 12 17.6 27.2 17.6 45.9 0 65.7-40 80.2-78.1 84.4 6.1 5.3 11.7 15.7 11.7 31.7v46.9c0 4.6 2.7 9.9 11.4 8.2 67.9-22.7 116.9-86.7 116.9-162.3 0-94.3-76.6-170.9-171.1-170.9z"/></symbol><symbol id="icon-googleAppsScript" viewBox="0 0 62.5 50.9"><path d="M62.5 25.5l-25.4-25.5v15.4h-37.1v20h37.1v15.5z"/></symbol><symbol id="icon-grunt" viewBox="0.9 135.5 425.3 569.8"><path d="M257 395.3c.6 8.9 1.3 17.7 15.2 34.2-1.9-12-7-17.7 1.3-34.9 4.4 6.3 67.2 26.6 75.4-46.3 3.8 10.1 5.1 17.1 5.1 17.1s12.7-20.9-.6-33c4.4-1.9 11.4-5.7 11.4-5.7s-52.6-13.3-100.8 46.9c-10.8 1.9-17.7 4.4-30.4 0 4.4 10.9 1.2 15.3 23.4 21.7zm71.6-48.8c5.7 36.8-17.7 52.6-49.4 38.7 19.6-25.4 41.2-37.4 49.4-38.7zm-256 19s1.3-7 5.1-17.1c8.9 72.9 71 52.6 75.4 46.3 8.2 17.1 3.2 22.2 1.3 34.9 13.9-17.1 14.6-25.3 15.2-34.2 22.2-5.7 19-10.8 22.8-20.9-12.7 4.4-19.6 1.9-30.4 0-48.2-60.2-100.8-46.9-100.8-46.9s7 3.8 11.4 5.7c-12.7 11.9 0 32.2 0 32.2zm25.4-19c8.2 1.3 29.8 13.3 49.4 38.7-31.1 13.9-55.1-2-49.4-38.7zm293.3 142.6c-10.8 31.7-15.2 34.9-28.5 46.9-5.1-27.9-3.8-51.3-3.8-72.9 0-21.5 18.4-27.9 43.1-39.9 54.5-38.7-.6-75.4-.6-75.4s-3.8-15.8-3.8-40.6c49.4-60.8-23.4-71-22.8-65.3l1.3-27.9c7-13.9 21.5-20.3 47.5-26-33.6-33.6-93.8-53.9-144.5 17.7-7.6 2.5-7.6-.6-11.4-2.5 0-24.7 0-21.5 9.5-43.7-20.3 0-22.2 7-38 17.7-8.2-31.7-3.2-25.3-1.3-41.8-29.1 4.4-38.7 31.1-45 45-5.7-7-6.3-14.6-7.6-31.1-35.5 25.3-29.8 53.9-29.8 53.9s-3.8 2.5-8.2 2.5c-70.4-83.5-127.4-32.2-142-18.3 36.1 4.4 48.2 26.6 48.2 26.6s0 5.1-1.3 27.2c-60.8-8.2-34.2 62.1-23.4 65.3-.6 39.9-2.5 38.7-2.5 38.7s-3.8 6.3-21.5 19.6c-15.2 37.4 19 54.5 19 54.5s7.6 3.8 25.3 13.9l19.6 27.9s0 22.2-3.8 76.7c-22.2-15.8-25.3-39.3-30.4-49.4-49.4 66.5-8.2 129.9 32.3 139.4 29.1 52.6 48.8 46.9 76.7 53.9 60.2 45.6 119.8 13.3 142.6-.6 50.1-10.1 53.9-24.7 75.4-56.4 86.8-35.5 45-129.9 29.7-135.6zm-3.8-308.6c-3.8 4.4-9.5 5.7-9.5 5.7s-39.9-10.1-66.5 33c-5.7-1.9-12-6.3-12-6.3s33.5-57.2 88-32.4zm-31.6 50.7l-4.4 10.1-12 2.5s-1.9-2.5-12.7-13.3c8.9-30.4 27.9-33 36.8-33-9 11.5-7.7 33.7-7.7 33.7zm-307.4-45s-5.7-1.3-9.5-5.7c54.5-25.3 88.1 32.3 88.1 32.3s-6.3 4.4-12 6.3c-26.7-43.1-66.6-32.9-66.6-32.9zm14.6 12c8.9 0 27.9 2.5 36.8 33-10.8 10.1-12.7 13.3-12.7 13.3l-11.4-2.5-5.1-10.8s1.3-22.2-7.6-33zm-26 211c-33-19-6.3-45-6.3-45v13.3s28.5-29.1 11.4-94.4c-1.3 7.6 0 17.1 0 17.1s-31.7-43.7 6.3-45.6c21.5-.6 60.2 4.4 119.1 52-17.7-25.3-12-27.2-60.8-57 20.9-22.2 124.8-64 214.2 0-22.8 11.4-39.3 20.3-62.1 57 32.3-22.2 63.4-52 119.8-52 12.7 3.8 29.8 7 7 45.6-1.9-11.4 0-17.1 0-17.1s-23.4 52 9.5 94.4c-.6-3.8 0-13.3 0-13.3s28.5 23.4-3.2 45c-29.1 16.5-45.6 18.4-49.4 53.2 0 34.9-1.9 39.9 3.2 84.9-15.8 5.1-21.5 7-43.1 7-13.9-32.3-17.7-43.7-35.5-80.5 1.3 17.1 10.8 60.2 26 97-38.7 0-157.8-.6-157.8-.6s20.9-52 24.7-97c-8.9 17.1-19 41.2-34.2 81.1-24.1 0-29.1-1.9-44.4-7 5.1-45 3.8-58.9 4.4-81.7-5.7-32.3-12.7-38-48.8-56.4zm-5.7 109.6c7.6 13.3 15.2 46.3 84.3 52-10.8 14.6-22.8 23.4-13.3 46.9-20.9 1.3-91.9-11.4-71-98.9zm57 114.7l19.6.6s1.3 3.2 13.3 27.9c-17.6-6.9-32.9-28.5-32.9-28.5zm126.8 55.2c-68.4 0-91.3-45.6-98.9-83.6 0-15.2 6.3-17.7 19-20.9 68.4-.6 152.7 0 152.7 0s27.9 1.3 22.8 20.9c-4.4 20.8-20.2 82.3-95.6 83.6zm89.3-27.3c12-24.7 13.3-27.9 13.3-27.9l19.6-.6c.7.6-14.5 22.2-32.9 28.5zm19.7-44.3c9.5-22.8-2.5-32.3-13.3-46.9 69.1-5.7 76.7-38.7 84.3-52 20.9 88.1-50.1 100.8-71 98.9zm-143.2-16.5h-40.6s-10.8.6-7.6 9.5c3.8 12.7 17.7 27.9 28.5 27.9s24.1-18.4 26.6-28.5l-6.9-8.9zm105.2 0h-40.6s-9.5-.6-7 9.5 15.8 28.5 26.6 28.5 24.7-15.2 28.5-27.9c3.2-9.5-7.5-10.1-7.5-10.1z"/></symbol><symbol id="icon-gulp" viewBox="24.4 1 378.4 842"><path d="M24.4 228c9.5 96.5 15.1 154.2 21.8 215.7v-1.9c17-51.1 55.8-101.2 88-100.3 13.2 2.8 25.5 11.4 31.2 21.8 1.9 8.5 3.8 18-8.5 16.1-13.2-8.5-8.5-22.7-35-18.9-35 27.4-70.9 105.9-47.3 118.2 11.4 2.8 20.8-8.5 30.3-16.1 12.3-12.3 15.1-15.1 21.8-27.4 6.6-12.3 7.6-28.4 11.4-28.4 5.7-1.9 16.1-3.8 11.4 15.1-4.7 19.9-26.5 84.2-30.3 91.8-3.8 5.7-18.9 17-12.3-10.4 1.9-9.5 2.8-12.3 8.5-31.2-9.5 8.5-15.1 14.2-28.4 22.7-9.5 4.7-18 7.6-30.3 0-1.9-1.9-4.7-3.8-5.7-5.7 3.8 38.8 8.5 81.4 14.2 138.1 46.4 25.5 199.6 45.4 294.2 0 19.7-199.6 43.4-399.2 43.4-399.2-60.6 29.4-322.6 29.4-378.4 0zm320.7 263.9c-13.2 5.7-40.7 14.2-30.3-17l26.5-32.2s7.6-14.2-11.4-6.6c-35.9 28.4-41.6 73.8-57.7 105-6.6 8.5-22.7 16.1-18-6.6 8.5-19.9 26.5-55.8 26.5-55.8s-44.5 37.8-48.2 6.6c-12.3 11.4-39.7 23.6-35-8.5-17 22.7-57.7 34.1-49.2-4.7 11.4-31.2 12.3-35 19.9-51.1 2.8-7.6 18-8.5 15.1 4.7-11.4 24.6-15.1 35.9-15.1 35.9s-8.5 25.5 16.1 9.5c19.9-20.8 16.1-19.9 25.5-39.7 3.8-13.2 19.9-27.4 18-1.9-12.3 22.7-13.2 33.1-13.2 33.1s-9.5 32.2 19.9 6.6c16.1-45.4 24.6-62.4 42.6-110.7 3.8-7.6 20.8-15.1 16.1 6.6-13.2 30.3-41.6 102.2-41.6 102.2s-7.6 22.7 20.8 0c13.2-12.3 12.3-10.4 21.8-20.8 3.8-20.8 19.9-37.8 21.8-12.3 10.4-17 51.1-31.2 47.3 1.9-13.2 19.9-26.5 34.1-26.5 34.1s-11.4 17 7.6 7.6c18.9-16.1 32.2-27.4 32.2-27.4l-.9 18.9c-2.2-.1-15.5 13.2-30.6 22.6zm-263.9 152.3c77.6 22.7 162.7 28.4 264.9 0-15.1 28.4-19.9 36.9-19.9 36.9s-6.6 78.5-8.5 138.1c-18 30.3-179.7 33.1-206.2 0-4.7-57.7-9.5-138.1-9.5-138.1s-5.7-6.6-20.8-36.9zm210-455l19.9-70s74.7-79.5 91.8-98.4c-7.7-19.8-21.9-19.8-21.9-19.8l-103.1 106.9s-7.6 24.6-18.9 77.6c-238.4 4.7-229.9 19.9-234.6 23.6-1.9 20.8 91.8 27.4 186.4 28.4 155.1-2.8 187.3-13.2 192-28.4-9.5-16.1-111.6-19.9-111.6-19.9zm-2.9 34.1c-.9 1.9-24.6 9.5-46.4 0 0-3.8 1.9-2.8 3.8-3.8 17 3.8 19.9 7.6 39.7-.9 3.9 1.9 4.8 2.8 2.9 4.7z"/></symbol><symbol id="icon-heart" viewBox="41.5 262.1 342.2 317.7"><path d="M380.3 330c-17.8-76.5-129.7-95.9-167.7-18.5-38-77.5-149.9-58-167.7 18.5-28.9 124.5 135.2 181.1 167.7 249.8 32.5-68.7 196.6-125.3 167.7-249.8z"/></symbol><symbol id="icon-illustrator" viewBox="425.5 402.1 342.2 325.7"><path d="M516.6 595.5h62.2l-31.1-120.6-31.1 120.6zm96.3 132.3l-22.8-78.4h-84.2l-22.8 78.4h-57.7l81.2-277.2v-30.3h77.4l92.6 307.5h-63.7zm153.3 0h-62.2v-233.9h62.2v233.9zm-30.8-262c-17.8 0-32.2-14.3-32.2-31.9 0-17.6 14.4-31.9 32.2-31.9 17.8 0 32.2 14.3 32.2 31.9.1 17.6-14.4 31.9-32.2 31.9z"/></symbol><symbol id="icon-javascript" viewBox="66.1 289.1 293 263.8"><path d="M108.2 420.9c14.7 6.4 25.1 20.3 25.1 44.8v28.6c0 20.7 18.6 27.3 34.5 27.8v30.6c-43.4 0-69-14.9-69-55v-31.7c0-20.4-16.2-29.5-32.7-29.5v-31c16.5 0 32.7-9.1 32.7-29.5v-31.9c0-40.1 25.6-55 69-55v30.6c-15.9.5-34.5 7.1-34.5 27.8v28.6c0 24.5-10.4 38.4-25.1 44.8zm183.7-44.8v-28.6c0-20.7-18.6-27.3-34.5-27.8v-30.6c43.4 0 69 14.9 69 55v31.9c0 20.4 16.2 29.5 32.7 29.5v31c-16.5 0-32.7 9.1-32.7 29.5v31.9c0 40.1-25.6 55-69 55v-30.6c15.9-.5 34.5-7.1 34.5-27.8v-28.6c0-24.5 10.4-38.4 25.1-44.8-14.7-6.6-25.1-20.5-25.1-45zm-56.4 58.4v25.9c0 23.1-14.6 41.8-35.9 46.1l-4-8.7c9.9-3.7 16.1-15.7 16.1-24.6h-16.7v-38.6l40.5-.1zm0-83.3h-40.5v40.5h40.5v-40.5z"/></symbol><symbol id="icon-like" viewBox="64 250.3 297.2 341.4"><path d="M354.2 472.2c12.5-19.5 6.1-46.1-2.7-54.6 3.5-10.8 6.7-31.3-2.3-46.2h-68.2c10.9-46.8 15.7-121.2-31.9-121.2-26.3 0-32.8 23.7-40.1 47.1-30.1 96.6-101.8 97.6-145 102.4v148.9c66.1 0 99.3 5.5 156.2 29.6 59.7 25.4 133.7 17.8 125.5-50.8 15.9-15.6 15.4-40.5 8.5-55.2zm-22.3-78.1c1.9 14.4-4.9 30.6-20.5 30.6h-28.2c-10.8 0-14.5-8.8-14.5-15.9 0-6.1 5.3-14.6 15-14.6h48.2v-.1zm-242.6 130.3v-101.6c83.5-7.1 124.8-57.8 142.1-111.5 5.3-16.6 6.9-39.5 21.1-35.2 15.4 4.7 14.9 49.3 3.2 92.3-5 18.4-18.4 33.8-7 55.8-20.2 6.9-26.8 41.5-9.8 55.9-13.5 13.2-13.1 39.5 3.3 52.1-6.1 7.3-8.7 15.6-7.8 24.5-27.6-9.6-75.5-32.3-145.1-32.3zm205.6 42.7h-21.1c-10.4 0-15-6.8-15-13.8 0-8.2 5.3-15.4 15-15.4h47.1c-.9 11.2-5.9 29.2-26 29.2zm15.7-47h-42.6c-10.4 0-15-9-15-15.4s4.6-15.4 15-15.4h65.2c1.8 15.4-5.5 30.8-22.6 30.8zm5.5-48.3h-48.1c-10.3 0-15-9.2-15-15.4 0-6.3 4.6-15.2 15-15.2h68.2c2 14.2-4.6 30.6-20.1 30.6z"/></symbol><symbol id="icon-linux" viewBox="80.6 249.9 263.9 342.2"><path d="M338.4 521.4c-8.1-6.4-4.9-20.4-13.3-27.3 8.1-48-14.6-90.3-41.7-117.4-22.7-22.7-15.4-44.9-15.4-64 0-30.6-12.9-62.9-52-62.9-41.8 0-53.3 33.9-53.7 53.3-1 46.5 9.7 58.6-18.3 92.4-32.9 39.8-37.8 79.5-30.4 100.6-3.5 3.9-8.2 8.3-16.9 11.9-24.2 10.3-6.5 27.4-13.2 39.6-7.7 14.1.8 30.9 21.8 29.1 13.5-1.2 27.6 4.3 39.9 9.8 17.3 7.7 32.9.2 38.9-11.7 20.2-4.8 45.1-4.2 65.3.8 6.2 16.9 30.5 23.6 47.4 5.6 7.4-7.9 19.1-20.1 32.9-24.6 16.2-5.1 19.2-26.9 8.7-35.2zm-134.1-149.1c-4.7 0-8.5-3.7-14.7-8.1-7.7-5.6-15.6-8.8-15.5-14.7 0-4 5.6-5.3 12.7-9.7 7.7-4.8 10.7-9.6 18.3-9.6 7.8 0 10.1 3.8 20.7 8.3 10.4 4.4 17.6 6.1 17.6 11 0 5.1-10.9 8.7-17 12.4-8.9 5.3-13.5 10.4-22.1 10.4zm24.4-74.4c12.9 2 14.4 24.1 8.2 35-1.6-.6-2.8-1.1-5.2-2.1 2.7-7.7 2.7-20.5-6.4-21.3-5.7-.5-9.4 6.8-10.2 13.1-2.3-.9-4.7-1.6-7.7-1.8 1-13.1 9.7-24.7 21.3-22.9zm-49.9 4.7c9.9-2.4 15.8 8.8 15.8 20.5-1.6.8-3.1 1.7-4.5 2.7-.6-4.9-2.9-12.8-8.5-11.1-6 1.8-5.1 15.4-1.7 18.2-1.5.8-2.9 1.6-4.5 2.4-6.1-10-6.1-30.4 3.4-32.7zm-31 274.4c-28.8-12.7-38.6-9.8-44.1-9.8-11.4 0-15.1-8.3-10.8-16.1 3.6-6.6 2.5-13.6 1.6-19.2-1.4-8.5-1.6-11.3 7-15 12-4.9 17.3-11.3 21.2-16 11.1-13.4 22.3 7.6 31.5 26.4 6 12.1 17.7 18.3 21.3 31.7 3.4 12.4-10.3 25.7-27.7 18zm102.5-26.8c-20.3 9.6-46.1 14-65.5 4.3-2.9-8-7.4-13.2-12.4-18.4 7.9-2 13.8-11.6 6.7-21.2-7.5-10.3-22.8-17.4-38.3-29.1-14.5-10.9-19-37.7.7-67.7-9.6 26.5-4 51 .8 58 1-14.1 2.2-37.6 21.9-65.8 10-14.2 10.1-33 10.4-44.8 3 2.1 6.1 3.9 9.1 6.1 6.7 4.8 12.3 10.1 20.3 10.1 11.9 0 18.4-6.6 27.6-12.2 3.6-2.1 9-4.3 13.5-7.3 7.6 35.3 39.2 77.8 41 101.9 7.4-14.7-2.1-50.1-2.1-50.1 12.4 18.3 13.3 33.6 13.9 52.3 8.6 3.4 17.9 12.4 18.7 24.2-1.1-.2-2.3-.3-3.6-.4-1.9-13.1-38.2-32.3-41.5-7.7-17.4 2.6-11.1 29.5-14.6 46.9-1.5 8-4.5 14.3-6.6 20.9zm71-.5c-14.4 5.4-24.2 16.9-30.9 24.1-12.9 13.8-30 7.2-31.8-5.7-1.9-13.8 5.3-21.3 8.4-36.7 2.8-14.1-.3-35.7 6.3-38 4.3 25 30.3 14.5 36.2 7.7 9.6 0 10.4 3.2 12.6 11.9 1.3 5.5 3.2 10.1 8.5 15.5 6.1 6.3 4.3 16.1-9.3 21.2zm-117.3-185.5c-9.5 0-16.7-6.2-22.5-11-3-2.5.7-7 3.7-4.5 5.7 4.7 11.4 9.6 18.8 9.6 8.9 0 16.7-7.4 27.4-11.5 3.6-1.4 5.7 4.1 2.1 5.4-10.3 4.1-18.6 12-29.5 12z"/></symbol><symbol id="icon-mac" viewBox="73.3 249.9 278.6 342.2"><path d="M351.9 500.9c-11.2 32.5-41.5 90.1-76.1 90.7-22.9.4-30.3-13.6-56.5-13.6s-34.4 13.2-56.1 14c-36.7 1.4-90-83.1-90-156.8 0-67.7 43.9-101.2 85.1-101.8 22.1-.4 43 14.9 56.5 14.9s38.9-18.4 65.5-15.7c11.1.5 42.5 4.5 62.6 33.9-53.3 34.8-48.2 107.6 9 134.4zm-71.2-251c-40.3 1.6-73.2 43.9-68.6 78.9 37.3 2.8 73-38.9 68.6-78.9z"/></symbol><symbol id="icon-magnifier" viewBox="16.8 224.5 425.2 425.8"><path d="M433 609.8l-125-125c20.6-27.1 32.9-61.2 32.9-97.9 0-89.5-72.8-162.3-162.3-162.3s-161.8 72.7-161.8 162.2 72.8 162.3 162.3 162.3c36.7 0 70.2-12.2 97.3-32.9l125 125c10.3 10.3 26.4 12.2 34.8 3.2 9-8.2 7.1-24.3-3.2-34.6zm-254.5-101.2c-67 0-121.8-54.1-121.8-121.8 0-67 54.8-121.8 121.8-121.8s121.8 54.8 121.8 121.8c.6 67.7-54.1 121.8-121.8 121.8z"/></symbol><symbol id="icon-menu" viewBox="41.5 290.1 342.2 261.6"><path d="M383.7 344.1h-342.2v-54h342.2v54zm0 49.9h-342.2v54h342.2v-54zm0 103.8h-342.2v54h342.2v-54z"/></symbol><symbol id="icon-module" viewBox="0 219.3 425.2 403.3"><path d="M425.2 347.6l-.1-.8-.1-.8-.2-.8-.2-.8-.3-.7-.3-.8-.4-.7-.4-.8-.5-.7-.4-.7-.6-.7-.5-.6-.6-.5-.6-.5-1.4-.9-200.2-115.8c-3.9-2.3-8.7-2.2-12.6 0l-199.1 115.7-.6.4-.8.5-.6.6-.6.5-.6.7-.5.5-.5.7-.4.6-.4.8-.3.7-.3.8-.3.8-.2.8-.2.8-.1.9-.1.8-.2 146.7c0 4.5 2.4 8.7 6.3 10.9l200.5 115.7c1.9 1.1 4.1 1.7 6.3 1.7l1.6-.1.3-.1 1.3-.3.3-.1 1.3-.4.4-.2 1.1-.5 199.1-115.7c3.9-2.2 6.3-6.4 6.3-10.9l.4-146.7zm-213-101.2l75.5 43.6-174.7 100.8-74.9-43.2 174.1-101.2zm-11.7 341.8l-175.3-101.2.3-117.7 175.3 101.2-.3 117.7zm13-139.4l-75.2-43.4 174.6-100.8 74.6 43.1-174 101.1zm186.1 38.2l-173.9 101.1.3-117.5 173.9-101.1-.3 117.5zm-213.3 76l-75.3-43.4.1-50.5 75.3 43.5-.1 50.4z"/></symbol><symbol id="icon-nginx" viewBox="29.4 229.5 425.2 377.1"><path d="M134.5 229.5l-10.8 20.1-83.5 151.7-10.8 19.2 10.8 19.2 83.5 146.8 11.3 20.1h218.5l10.8-22.1 62.4-125.7 28-57h-63.3l-159.6.5c-20.7-.3-39.8 18.5-39.8 39.3s19.1 39.6 39.8 39.3l96.2-.5-23.6 47.6h-123.7l-61.4-108 61.9-112h131.6l30.7 63h79l-49.8-119.4-10.8-22.1h-227.4z"/></symbol><symbol id="icon-php" viewBox="41.5 333 342.2 176"><path d="M383.7 447.4l-97.2 54.6v-33.9l56.6-31.9-56.6-31.6v-33.9l97.1 54.6v22.1zm-342.2-22.1l97.1-54.6v33.9l-56.6 31.6 56.6 31.9v33.9l-97.1-54.6v-22.1zm172.4 83.6c-9.6 0-17.3-7.7-17.3-17.3 0-9.6 7.7-17.3 17.3-17.3 9.6 0 17.3 7.7 17.3 17.3 0 9.6-7.7 17.3-17.3 17.3zm13.6-48h-28.5c0-47.3 34.5-55.9 34.5-80.4 0-24.9-38.9-32.5-42.9 4.3h-27.7c2.5-73.4 99.3-62.7 99.3-6.7.1 39.1-34.7 42.4-34.7 82.8z"/></symbol><symbol id="icon-python" viewBox="456.6 242.1 425.2 401.7"><path d="M738.3 430.4c32.3-14.6 37.1-126 18-158.8-24.9-42.8-143.1-34.2-180.5-3.6-4.3 15.2-3.8 42.8-3.6 64.7h117.2v10.3h-117.2c0 .1-52.2.3-52.2.3-90 0-88.1 195.4 30.6 195.4 0 0 4.4-43.3 12-65 23.6-67 122.6-19.3 175.7-43.3zm-122.7-113.6c-13.5 0-24.5-10.9-24.5-24.5 0-13.5 10.9-24.5 24.5-24.5 13.5 0 24.5 11 24.5 24.5s-11 24.5-24.5 24.5zm168.1 30.6s-3.1 43.3-10.7 65c-23.6 66.9-122.5 19.2-175.6 43.3-32.3 14.6-37.1 126-18 158.8 24.9 42.9 143.1 34.3 180.5 3.6 4.3-15.2 3.8-42.8 3.6-64.7h-117.3v-10.3h117.2c0-.2 57.8-.3 57.8-.3 82.8 0 90.3-195.4-37.5-195.4zm-67.8 217.6c13.5 0 24.5 10.9 24.5 24.5 0 13.5-11 24.5-24.5 24.5s-24.5-10.9-24.5-24.5 10.9-24.5 24.5-24.5z"/></symbol><symbol id="icon-ruby" viewBox="0 210.1 425.4 421.9"><path d="M420.1 257.3c-14.1-42.9-60-47.1-60-47.1l-55.5 30.9 115.5 16.2zM413.8 347.9l-144 9.3 107.4 65.4c31.5-48.6 36.6-74.7 36.6-74.7zM294.7 250.1c-9 31.8-29.4 97.8-29.4 97.8l139.5-9.3-110.1-88.5zM343.9 210.1h-91.2l40.8 27.7zM3.9 443.6l-2.4 88.5 21.6-39.3zM416.8 337.4c15.3-38.7 5.4-73.8 5.4-73.5l-116.1-16.2 110.7 89.7zM204.6 594.5s70.8-41.4 90-69.3l-151.8-49.5 61.8 118.8zM370.9 430.7l-102.6-63.3 36.6 148.2s54.9-63.3 66-84.9zM256.3 364.4l-112.9 103.5 151.3 47.7zM217 595.4l175.8 12.9-90.9-78.9c-32.1 32.7-84.9 66-84.9 66zM146.4 627.2l202.2-13.8-144.3-10.8c-19.2 11.7-57.9 24.6-57.9 24.6zM310 524.6l89.1 78-23.7-161.7c-19.5 31.2-65.4 83.7-65.4 83.7zM137.4 479.3l-46.2 152.7c81.6-14.4 105.9-36.3 105.9-36.3l-59.7-116.4zM31.2 496.7l54.3 126.9 43.8-147.9zM0 549.5c4.2 40.5 13.2 47.7 13.2 47.7l6.6-82.8-19.8 35.1zM382 430.7l21.3 144.9c5.1-54.3 16.8-215.5 16.5-215.5-8.7 25.6-37.8 70.6-37.8 70.6zM19.8 607.1c26.7 29.4 58.2 20.4 58.2 20.4l-49.5-119.1-8.7 98.7z"/><ellipse transform="matrix(.703 .711 -.711 .703 292.436 -.133)" cx="146.4" cy="350.1" rx="76.8" ry="168"/></symbol><symbol id="icon-safari" viewBox="56.3 249.9 312.5 342.2"><path d="M192.9 419.3l-42.3 105.7 81.6-75.9 41.6-104.1-80.9 74.3zm22 28.8c-7.6 1.1-14.7-4.1-15.8-11.7-1.1-7.6 4.1-14.7 11.7-15.8 7.6-1.1 14.7 4.1 15.8 11.7 1.1 7.6-4.1 14.7-11.7 15.8zm-57.7-181.4c0-9.3 9.7-16.9 21.7-16.9s21.7 7.6 21.7 16.9c0 3.6-1.5 7-4 9.8-1-2-2.2-3.9-3.7-5.5.9-1.3 1.4-2.8 1.4-4.3 0-5.7-7-10.5-15.4-10.5-8.3 0-15.4 4.8-15.4 10.5 0 3.5 2.7 6.7 6.7 8.6-.7 1.9-1.2 4-1.4 6.3-6.9-2.8-11.6-8.4-11.6-14.9zm14.3 188.3l-54.6-.7 50.2-23.8c.4-6.1 2-11.8 4.6-17l-23.2-24.1 31.3 12.6c3.5-3.6 7.5-6.6 12-8.9l2.9-54.5 22.5 49.5-7.7 7.1c-24.3 2-40.8 26-33.8 49.5l-4.2 10.3zm41.1-175.5c-6.3 0-12.5.4-18.6 1.1-2.3-6.1-7-11.6-13.4-10.2-6.4 1.4-8.1 8.4-8 14.2-67 17.6-116.4 78.6-116.4 151.1 0 86.3 70 156.3 156.3 156.3 86.3 0 156.3-70 156.3-156.3.1-86.2-69.9-156.2-156.2-156.2zm33.1 276.4l-10.1-15-2.5 17.8c-66.9 11-127.9-32.7-141.9-95.3l13.5-8.7-15.7-4.1c-7.7-65.3 35.6-121.9 94.6-136l8.3 13 3.1-15.2c64.3-9.1 121.9 31.9 137.8 90.3l-13.1 10.3 15.7 1.4c11.1 65.4-30 125.1-89.7 141.5zm60.1-140l-47.8 22.9c-.5 4.5-1.7 8.8-3.4 12.9l24.2 24.9-31.9-12.9c-3.7 4.2-8.1 7.7-13 10.3l-1.3 55.4-23.7-49.5 8.5-8c23.2-2.9 38.7-25.9 32.3-48.7l3.8-9.6 52.3 2.3z"/></symbol><symbol id="icon-service" viewBox="50 50 412 412"><path d="M462 256c0-115.6-93.8-206-206-206-111.5 0-206 89.4-206 206 0 117.2 95.1 206 206 206 111.6 0 206-89.6 206-206zm-303.5-75.6c-3.9 18.9-6.4 39-7.1 59.8h-59.1c2.6-27.6 12.1-53.3 26.7-75.2 12.7 6.4 26.1 11.4 39.5 15.4zm-7 91.4c.9 20.9 3.5 41.2 7.6 60.2-13.8 4-27 9-39.8 15.5-14.8-22-24.4-47.8-27-75.7h59.2zm15.9 90.7c4.9 14.8 11.2 29.4 19.3 42.7-17.4-8.1-33.2-19.2-46.7-32.6 8.5-3.9 17.6-7.3 27.4-10.1zm104.4-43.3v-47.4h57.7c-.9 18.5-3.1 36.3-6.7 53-16.3-3.1-33.4-4.9-51-5.6zm42.5 36.1c-7.7 22.1-21.9 50.9-42.5 62.1v-66.6c14.6.6 28.9 2.1 42.5 4.5zm-42.5-115.1v-46.8c17.8-.7 35.1-2.6 51.5-5.7 3.4 16.5 5.5 34.2 6.2 52.5h-57.7zm0-78.4v-69.3c21.2 11.5 35.6 41.7 43.4 64.6-13.9 2.5-28.4 4.1-43.4 4.7zm-31.6-69v69c-14.8-.7-29.2-2.2-42.8-4.6 7.6-22.9 21.9-52.6 42.8-64.4zm0 100.6v46.8h-57.2c.7-18.3 2.9-35.9 6.2-52.5 16.3 3.1 33.4 5 51 5.7zm-50.4 131.3c-3.6-16.6-5.8-34.5-6.7-53h57.1v47.4c-17.4.8-34.3 2.7-50.4 5.6zm50.4 26.1v66.3c-20.3-11.4-34.3-39.8-42-61.8 13.5-2.4 27.5-3.9 42-4.5zm105 11.7c9.6 2.8 18.6 6.2 27 10-13.3 13.3-28.9 24.3-46.1 32.4 8-13.4 14.2-27.8 19.1-42.4zm8.3-30.5c4.1-19 6.7-39.3 7.6-60.2h58.7c-2.6 27.7-12.2 53.5-26.9 75.5-12.9-6.4-25.9-11.3-39.4-15.3zm39.6-166.8c14.5 21.9 24 47.5 26.6 75h-58.6c-.8-20.8-3.2-40.9-7.1-59.8 13.4-3.9 26.6-8.9 39.1-15.2zm-20.5-25.2c-8.3 3.7-17.2 7.1-26.6 9.9-4.7-14.6-10.6-28.8-18.2-41.9 16.7 8.1 31.8 19 44.8 32zm-187.7-32.4c-7.7 13.3-13.7 27.6-18.4 42.3-9.6-2.9-18.6-6.2-27-10.1 13.2-13.1 28.5-24 45.4-32.2z"/></symbol><symbol id="icon-twitter" viewBox="41.5 249.9 342.2 342.2"><path d="M212.6 249.9c-94.5 0-171.1 76.6-171.1 171.1s76.6 171 171.1 171 171.1-76.6 171.1-171.1-76.6-171-171.1-171zm86 141.6c2.5 55.8-39.1 118-112.8 118-22.4 0-43.3-6.6-60.8-17.8 21 2.5 42.1-3.4 58.7-16.4-17.4-.3-32-11.8-37.1-27.6 6.2 1.2 12.3.8 17.9-.7-19.1-3.8-32.3-21-31.8-39.4 5.3 3 11.5 4.8 18 5-17.7-11.8-22.7-35.1-12.3-53 19.6 24 48.8 39.8 81.8 41.5-5.8-24.8 13-48.7 38.7-48.7 11.4 0 21.7 4.8 29 12.5 9-1.8 17.5-5.1 25.2-9.6-3 9.3-9.3 17-17.4 22 8-1 15.7-3.1 22.8-6.2-5.4 7.8-12.1 14.8-19.9 20.4z"/></symbol><symbol id="icon-view" viewBox="41.5 321.2 342.2 199.5"><path d="M213 520.7c-69.2 0-132-47.6-171.5-105.4 39.8-55.8 102.7-94.1 171.5-94.1 69 0 132 37.6 170.7 93.8-36.7 61-99.4 105.7-170.7 105.7zm-135.3-104.9c33 40.8 81.8 75.9 135.3 75.9 72.8 0 119.9-54.6 135.4-75.6-32.8-38.6-81.2-65.8-135.4-65.8-70.4-.1-118.4 46.3-135.3 65.5zm136.8-52.5c-31.8 0-57.6 25.8-57.6 57.6s25.8 57.6 57.6 57.6 57.6-25.8 57.6-57.6-25.8-57.6-57.6-57.6zm0 57.6c-8.1 8.1-21.3 8.1-29.4 0-8.1-8.1-8.1-21.3 0-29.4 8.1-8.1 21.3-8.1 29.4 0 8.1 8.1 8.1 21.3 0 29.4z"/></symbol><symbol id="icon-windows" viewBox="42.2 249.9 340.9 342.2"><path d="M42.2 411.2v-113.5l137.7-19.3v132.8h-137.7zm157.2 0h183.6v-161.3l-183.6 25.8v135.5zm-19.5 19.5h-137.7v113.5l137.7 19.3v-132.8zm19.5 0v135.6l183.6 25.7v-161.3h-183.6z"/></symbol><symbol id="icon-wordpress" viewBox="41.5 270.9 342.2 300.1"><path d="M334.4 272.9c-10.6 3.5-33.3 25.6-4.5 65 28.7 39.4 11.7 84.3 11.7 84.3l-25 83.1-63-187.5s17.8-1.3 20.3-1.7c2.5-.4 6.8-2.9 6.1-8.2-.7-5.3-4.6-6.1-8.3-5.9-1.9.1-23.8 1.8-45.7 1.8-21.7 0-43.2-1.7-44.8-1.8-3.1-.2-7.5.2-8.6 5-.8 4 1.2 8.5 5.5 9 4.4.5 1.4.1 19.1 1.8 0 0 12 32.8 27.1 74.3l-38.4 113.9-63.2-188.3s17.8-1.3 20.3-1.7c2.5-.4 6.8-2.9 6.1-8.2-.7-5.3-4.6-6.1-8.3-5.9-1.9.1-23.8 1.8-45.7 1.8-21.7 0-43.2-1.7-44.8-1.8-3.1-.2-7.5.2-8.6 5-.8 4 1.2 8.5 5.5 9 4.4.5 1.4.1 19.1 1.8 0 0 84.1 230.4 88.6 242.7 4.5 12.4 22.9 15.6 28.2-.6 3.9-11.9 34.1-99.7 49.6-144.7 23.5 64.5 50.5 138.4 53 145.3 4.5 12.4 22.9 15.6 28.2-.6 5.3-16.2 35-99.6 60.5-174.3 22.6-67.9 1.7-126.2-40-112.6z"/></symbol></svg>