<svg xmlns="http://www.w3.org/2000/svg"><symbol id="icon-angular" viewBox="0.554 0.875 165.908 175.75"><path d="M83.243.875l-82.689 29.1 13.067 108.335 69.71 38.314 70.069-38.833 13.062-108.331-83.219-28.585zm62.798 131.734l-62.992 34.861-62.02-34.398-11.196-96.889 73.216-26.096 75.165 25.634-12.173 96.888zM83.05 15.804l-.001.002-51.124 113.733 19.067-.354 10.251-25.64h45.819l11.223 25.997 18.244.338-53.478-114.071-.001-.005zm17.404 72.578h-32.485l15.218-36.11 17.267 36.11z"/></symbol><symbol id="icon-apache" viewBox="0 225.305 791.996 341.388"><path d="M260.974 549.142c66.846-21.68 113.819-31.013 113.819-31.013s34.63-44.265 41.552-59.621c-2.369 15.433-12.344 51.489-12.344 51.489s115.924-44.866 158.078-81.298c42.156-36.431 59.621-105.086 59.621-105.086s146.035-65.941 152.061-71.962c6.023-6.025 38.537-45.769-1.207-14.453-39.746 31.312-149.039 59.81-152.459 58.714-8.031-8.033-70.664-16.862-77.885-24.09-7.229-7.226-74.676 10.439-74.676 10.439s77.084-3.21 91.535 24.087c-69.053-12.848-130.877-12.848-130.877-12.848s-126.066 61.828-147.743 65.843c-21.676 4.016-88.322 28.905-88.322 28.905s33.72-4.817 48.98 10.438c-64.237-4.814-92.34-.803-92.34-.803s-79.49 51.391-110.806 82.705c-19.375 4.719-31.314 17.665-31.314 17.665s-9.438 16.561-5.822 29.81c12.945-2.409 20.771 2.711 20.771 2.711s-11.139 14.451-1.504 29.207c11.441 0 17.768 1.806 17.768 1.806s21.977 4.515 46.668 4.515c24.69 0 109.604 4.519 176.446-17.16zm-210.169-32.727s420.739-134.895 443.222-146.939c21.539-11.539 78.785-38.906 87.438-45.067 1.143-1.003 1.504-1.315.891-.7-.186.185-.508.429-.891.7-7.057 6.215-45.166 40.043-81.814 58.714-42.554 21.678-374.175 125.261-448.846 133.292z"/></symbol><symbol id="icon-apple" viewBox="0 0 512 512"><path d="M423.754 352.263c-13.494 39.14-49.969 108.441-91.588 109.193-27.609.523-36.465-16.355-68.025-16.355-31.543 0-41.397 15.849-67.502 16.879-44.153 1.677-108.393-100.042-108.393-188.75 0-81.495 52.872-121.895 102.488-122.639 26.604-.475 51.734 17.942 67.977 17.942 16.283 0 46.811-22.146 78.895-18.891 13.42.556 51.137 5.413 75.344 40.809-64.231 41.912-58.138 129.582 10.804 161.812zm-85.733-302.263c-48.52 1.955-88.103 52.847-82.565 94.948 44.823 3.484 87.856-46.779 82.565-94.948z"/></symbol><symbol id="icon-arrow" viewBox="0 0 26 26"><path d="M22.954 6l3.378 3.394-12.677 12.617-12.677-12.617 3.378-3.394 9.299 9.255 9.299-9.255z"/></symbol><symbol id="icon-bookmarklet" viewBox="0 0 512 512"><path d="M153.725 50v412l102.275-90.443 102.275 90.443v-412h-204.55zm143.631 235.243l-41.356-22.118-41.354 22.118 8.255-46.166-33.815-32.497 46.458-6.415 20.456-42.202 20.458 42.202 46.458 6.415-33.814 32.497 8.254 46.166z"/></symbol><symbol id="icon-chrome" viewBox="0 0 512 512"><path d="M99.744 121.842c95.763-111.391 273.325-89.403 339.705 40.713-46.727.017-119.898-.014-159.528 0-28.743.01-47.301-.643-67.398 9.931-23.627 12.43-41.454 35.471-47.677 62.534l-65.102-113.178zm87.722 134.15c0 37.752 30.713 68.465 68.465 68.465 37.751 0 68.464-30.713 68.464-68.465 0-37.751-30.713-68.465-68.464-68.465-37.752 0-68.465 30.714-68.465 68.465zm95.036 89.616c-38.428 11.414-83.398-1.244-108.031-43.74-18.803-32.438-68.483-118.938-91.064-158.27-79.086 121.147-10.925 286.239 132.65 314.417l66.445-112.407zm37.027-158.081c32.006 29.752 38.979 77.928 17.299 115.283-16.334 28.144-68.466 116.083-93.732 158.666 147.927 9.114 255.764-135.786 207.055-273.949h-130.622z"/></symbol><symbol id="icon-dislike" viewBox="0 0 512 512"><path d="M271.28 387.914c-17.307-53.859-63.697-127.136-171.845-134.803v-124.057c113.814-1.277 166.521-42.479 206.369-47.118 35.122-4.089 72.641.592 77.63 35.666l-16.098-5.4c-13.68-4.152-19.787 16.469-6.223 20.566l15.225 5.191c14.772 4.469 15.36 10.34 18.069 30.715l-19.089-6.25c-13.544-4.111-19.944 16.422-6.231 20.57l15.543 4.777c15.264 4.625 15.555 8.529 18.992 31.1l-20.255-5.973c-13.687-4.143-19.794 16.469-6.229 20.572l19.582 5.205c13.113 3.718 13.939 12.192 15.138 29.868-52.403-6.541-98.463 12.154-118.087 26.352 19.603 58.491 24.727 129.205 3.165 135.719-17.245 5.212-19.178-22.542-25.656-42.7zm59.293-77.223c36.52-15.377 84.09-15.548 112.785-8.374-7.346-69.176-22.035-151.506-32.01-189.047-14.318-53.89-53.036-68.187-108.984-61.886-60.227 6.781-78.781 48.671-233.723 48.671v180.666c52.274 4.058 141.274 9.724 175.604 124.14 8.531 28.435 16.667 57.14 48.62 57.14 59.205-.001 51.597-94.948 37.708-151.31z"/></symbol><symbol id="icon-email" viewBox="0 0 512 512"><path d="M256 50c-113.771 0-206 92.229-206 206s92.229 206 206 206 206-92.229 206-206-92.229-206-206-206zm123.956 114.444l-122.951 94.297-122.755-94.297h245.706zm-246.557 25.828l72.327 55.559-72.327 72.327v-127.886zm.301 157.283l88.821-88.821 34.474 26.48 34.418-26.396 88.738 88.736h-246.451zm246.9-29.248l-72.38-72.38 72.38-55.511v127.891z"/></symbol><symbol id="icon-firefox" viewBox="0 0 512 512"><path d="M193.236 136.759c1.611-13.756 10.781-31.599 28.046-39.777-25.94-3.966-47.005 8.179-57.497 23.792-16.648-3.592-26.877-3.789-43.619-.661-10.624-8.052-23.118-26.401-22.14-45.601-20.101 23.677-24.243 41.531-21.765 62.845-77.367 138.394 26.723 304.812 175.09 304.812 133.296-.001 210.649-101.942 210.649-206.4 0-70.445-31.887-131.594-64.444-144.815 12.147 13.387 25.947 48.257 23.303 72.387-26.277-68.42-91.888-94.863-113.998-93.455 72.682 28.34 90.076 124.814 83.628 153.287-6.319-33.388-26.483-62.146-38.546-69.748 70.391 164.908-99.609 215.575-151.479 158.343 13.376 3.469 39.78 1.764 59.561-11.483 18.506-12.393 20.247-13.12 32.137-14.043 14.123-1.098-.851-28.986-31.702-24.268-12.694 1.942-33.612 16.869-59.341 7.031-31.045-11.872-30.068-54.25 1.99-41.5 6.939-9.003 1.817-26.021 1.817-26.021 9.314-8.529 21.072-14.539 28.234-18.763 4.697-2.77 17.077-10.439 16.376-25.351-2.522-1.972-6.598-4.492-15.779-3.965-35.775 2.268-38.167-10.658-40.521-16.646z"/></symbol><symbol id="icon-github" viewBox="0 0 512 512"><path d="M256 55.083c-113.764 0-206 92.237-206 206 0 91.013 59.025 168.246 140.887 195.472 10.293 1.911 13.613-4.459 13.613-9.908v-38.356c-57.301 12.473-69.238-24.291-69.238-24.291-9.354-23.822-22.865-30.159-22.865-30.159-18.693-12.774 1.408-12.523 1.408-12.523 20.688 1.459 31.584 21.24 31.584 21.24 18.373 31.483 48.18 22.381 59.949 17.117 1.844-13.312 7.174-22.397 13.076-27.544-45.768-5.197-93.848-22.867-93.848-101.81 0-22.498 8.047-40.872 21.225-55.289-2.146-5.197-9.188-26.152 1.979-54.518 0 0 17.301-5.532 56.662 21.123 16.445-4.56 34.066-6.856 51.568-6.94 17.502.084 35.154 2.381 51.6 6.94 39.33-26.655 56.596-21.123 56.596-21.123 11.217 28.365 4.158 49.32 2.029 54.518 13.211 14.417 21.207 32.791 21.207 55.289 0 79.127-48.197 96.545-94.064 101.642 7.375 6.388 14.133 18.943 14.133 38.155v56.529c0 5.482 3.301 11.903 13.746 9.892 81.81-27.275 140.753-104.459 140.753-195.455 0-113.763-92.238-206.001-206-206.001z"/></symbol><symbol id="icon-globe" viewBox="0 0 512 512"><path d="M462 256c0-115.604-93.762-206-206-206-111.458 0-206 89.449-206 206 0 117.234 95.125 206 206 206 111.564 0 206-89.594 206-206zm-303.473-75.583c-3.932 18.902-6.367 39.029-7.146 59.793h-59.098c2.635-27.648 12.112-53.299 26.723-75.242 12.689 6.423 26.057 11.47 39.521 15.449zm-7.056 91.372c.898 20.948 3.489 41.223 7.6 60.219-13.784 4.044-26.991 9.04-39.779 15.46-14.774-22.038-24.356-47.847-27.009-75.679h59.188zm15.888 90.67c4.935 14.79 11.216 29.376 19.297 42.713-17.433-8.118-33.21-19.194-46.675-32.595 8.49-3.848 17.654-7.232 27.378-10.118zm104.43-43.301v-47.369h57.664c-.857 18.496-3.139 36.317-6.701 52.957-16.283-2.998-33.397-4.887-50.963-5.588zm42.49 36.118c-7.732 22.147-21.896 50.895-42.49 62.079v-66.595c14.66.633 28.914 2.153 42.49 4.516zm-42.49-115.066v-46.786c17.764-.71 35.062-2.634 51.508-5.689 3.383 16.53 5.504 34.188 6.242 52.476h-57.75zm0-78.39v-69.28c21.248 11.54 35.648 41.664 43.357 64.609-13.837 2.452-28.384 4.026-43.357 4.671zm-31.579-68.997v68.975c-14.788-.659-29.156-2.227-42.831-4.649 7.67-22.832 21.909-52.582 42.831-64.326zm0 100.577v46.81h-57.225c.738-18.289 2.86-35.946 6.242-52.477 16.284 3.027 33.403 4.941 50.983 5.667zm-50.436 131.347c-3.563-16.641-5.845-34.46-6.701-52.958h57.138v47.392c-17.383.718-34.316 2.598-50.437 5.566zm50.436 26.036v66.289c-20.311-11.4-34.28-39.795-41.965-61.795 13.416-2.335 27.49-3.848 41.965-4.494zm104.956 11.675c9.588 2.844 18.629 6.176 27.02 9.956-13.314 13.288-28.898 24.299-46.115 32.418 8.025-13.32 14.208-27.733 19.095-42.374zm8.289-30.452c4.109-18.995 6.701-39.27 7.6-60.217h58.662c-2.645 27.748-12.178 53.483-26.877 75.478-12.813-6.387-25.836-11.286-39.385-15.261zm39.672-166.837c14.533 21.899 23.963 47.477 26.59 75.041h-58.572c-.779-20.763-3.215-40.89-7.146-59.792 13.407-3.963 26.636-8.96 39.128-15.249zm-20.545-25.18c-8.266 3.748-17.174 7.057-26.615 9.893-4.709-14.58-10.629-28.794-18.174-41.894 16.707 8.118 31.832 18.98 44.789 32.001zm-187.64-32.36c-7.712 13.324-13.653 27.607-18.385 42.252-9.578-2.878-18.609-6.241-26.979-10.058 13.112-13.139 28.435-24.072 45.364-32.194z"/></symbol><symbol id="icon-grunt" viewBox="1 0 67.1 89.9"><path d="M41.4 40.9c.1 1.4.2 2.8 2.4 5.4-.3-1.9-1.1-2.8.2-5.5.7 1 10.6 4.2 11.9-7.3.6 1.6.8 2.7.8 2.7s2-3.3-.1-5.2c.7-.3 1.8-.9 1.8-.9s-8.3-2.1-15.9 7.4c-1.7.3-2.8.7-4.8 0 .7 1.7.2 2.4 3.7 3.4zm11.3-7.7c.9 5.8-2.8 8.3-7.8 6.1 3.1-4 6.5-5.9 7.8-6.1zM12.3 36.2s.2-1.1.8-2.7c1.4 11.5 11.2 8.3 11.9 7.3 1.3 2.7.5 3.5.2 5.5 2.2-2.7 2.3-4 2.4-5.4 3.5-.9 3-1.7 3.6-3.3-2 .7-3.1.3-4.8 0-7.6-9.5-15.9-7.4-15.9-7.4s1.1.6 1.8.9c-2 1.9 0 5.1 0 5.1zm4-3c1.3.2 4.7 2.1 7.8 6.1-4.9 2.2-8.7-.3-7.8-6.1zM62.6 55.7c-1.7 5-2.4 5.5-4.5 7.4-.8-4.4-.6-8.1-.6-11.5s2.9-4.4 6.8-6.3c8.6-6.1-.1-11.9-.1-11.9s-.6-2.5-.6-6.4c7.8-9.6-3.7-11.2-3.6-10.3l.2-4.4c1.1-2.2 3.4-3.2 7.5-4.1-5.3-5.3-14.8-8.5-22.8 2.8-1.2.4-1.2-.1-1.8-.4 0-3.9 0-3.4 1.5-6.9-3.2 0-3.5 1.1-6 2.8-1.3-5-.5-4-.2-6.6-4.6.7-6.1 4.9-7.1 7.1-.9-1.1-1-2.3-1.2-4.9-5.6 4-4.7 8.5-4.7 8.5s-.6.4-1.3.4c-11.1-13.2-20.1-5.1-22.4-2.9 5.7.7 7.6 4.2 7.6 4.2s0 .8-.2 4.3c-9.6-1.3-5.4 9.8-3.7 10.3-.1 6.3-.4 6.1-.4 6.1s-.6 1-3.4 3.1c-2.4 5.9 3 8.6 3 8.6s1.2.6 4 2.2l3.1 4.4s0 3.5-.6 12.1c-3.5-2.5-4-6.2-4.8-7.8-7.8 10.5-1.3 20.5 5.1 22 4.6 8.3 7.7 7.4 12.1 8.5 9.5 7.2 18.9 2.1 22.5-.1 7.9-1.6 8.5-3.9 11.9-8.9 13.7-5.6 7.1-20.5 4.7-21.4zm-.6-48.7c-.6.7-1.5.9-1.5.9s-6.3-1.6-10.5 5.2c-.9-.3-1.9-1-1.9-1s5.3-9 13.9-5.1zm-5 8l-.7 1.6-1.9.4s-.3-.4-2-2.1c1.4-4.8 4.4-5.2 5.8-5.2-1.4 1.8-1.2 5.3-1.2 5.3zm-48.5-7.1s-.9-.2-1.5-.9c8.6-4 13.9 5.1 13.9 5.1s-1 .7-1.9 1c-4.2-6.8-10.5-5.2-10.5-5.2zm2.3 1.9c1.4 0 4.4.4 5.8 5.2-1.7 1.6-2 2.1-2 2.1l-1.8-.4-.8-1.7s.2-3.5-1.2-5.2zm-4.1 33.3c-5.2-3-1-7.1-1-7.1v2.1s4.5-4.6 1.8-14.9c-.2 1.2 0 2.7 0 2.7s-5-6.9 1-7.2c3.4-.1 9.5.7 18.8 8.2-2.8-4-1.9-4.3-9.6-9 3.3-3.5 19.7-10.1 33.8 0-3.6 1.8-6.2 3.2-9.8 9 5.1-3.5 10-8.2 18.9-8.2 2 .6 4.7 1.1 1.1 7.2-.3-1.8 0-2.7 0-2.7s-3.7 8.2 1.5 14.9c-.1-.6 0-2.1 0-2.1s4.5 3.7-.5 7.1c-4.6 2.6-7.2 2.9-7.8 8.4 0 5.5-.3 6.3.5 13.4-2.5.8-3.4 1.1-6.8 1.1-2.2-5.1-2.8-6.9-5.6-12.7.2 2.7 1.7 9.5 4.1 15.3-6.1 0-24.9-.1-24.9-.1s3.3-8.2 3.9-15.3c-1.4 2.7-3 6.5-5.4 12.8-3.8 0-4.6-.3-7-1.1.8-7.1.6-9.3.7-12.9-.9-5.1-2-6-7.7-8.9zm-.9 17.3c1.2 2.1 2.4 7.3 13.3 8.2-1.7 2.3-3.6 3.7-2.1 7.4-3.3.2-14.5-1.8-11.2-15.6zm9 18.1l3.1.1s.2.5 2.1 4.4c-2.8-1.1-5.2-4.5-5.2-4.5zm20 8.7c-10.8 0-14.4-7.2-15.6-13.2 0-2.4 1-2.8 3-3.3 10.8-.1 24.1 0 24.1 0s4.4.2 3.6 3.3c-.7 3.3-3.2 13-15.1 13.2zm14.1-4.3c1.9-3.9 2.1-4.4 2.1-4.4l3.1-.1c.1.1-2.3 3.5-5.2 4.5zm3.1-7c1.5-3.6-.4-5.1-2.1-7.4 10.9-.9 12.1-6.1 13.3-8.2 3.3 13.9-7.9 15.9-11.2 15.6zM29.4 73.3h-6.4s-1.7.1-1.2 1.5c.6 2 2.8 4.4 4.5 4.4s3.8-2.9 4.2-4.5l-1.1-1.4zM46 73.3h-6.4s-1.5-.1-1.1 1.5 2.5 4.5 4.2 4.5 3.9-2.4 4.5-4.4c.5-1.5-1.2-1.6-1.2-1.6z"/></symbol><symbol id="icon-gulp" viewBox="1 1 40 89"><path d="M1 25c1 10.2 1.6 16.3 2.3 22.8v-.2c1.8-5.4 5.9-10.7 9.3-10.6 1.4.3 2.7 1.2 3.3 2.3.2.9.4 1.9-.9 1.7-1.4-.9-.9-2.4-3.7-2-3.7 2.9-7.5 11.2-5 12.5 1.2.3 2.2-.9 3.2-1.7 1.3-1.3 1.6-1.6 2.3-2.9.7-1.3.8-3 1.2-3 .6-.2 1.7-.4 1.2 1.6-.5 2.1-2.8 8.9-3.2 9.7-.4.6-2 1.8-1.3-1.1.2-1 .3-1.3.9-3.3-1 .9-1.6 1.5-3 2.4-1 .5-1.9.8-3.2 0-.2-.2-.5-.4-.6-.6.4 4.1.9 8.6 1.5 14.6 4.9 2.7 21.1 4.8 31.1 0 2.1-21.1 4.6-42.2 4.6-42.2-6.4 3.1-34.1 3.1-40 0zm33.9 27.9c-1.4.6-4.3 1.5-3.2-1.8l2.8-3.4s.8-1.5-1.2-.7c-3.8 3-4.4 7.8-6.1 11.1-.7.9-2.4 1.7-1.9-.7.9-2.1 2.8-5.9 2.8-5.9s-4.7 4-5.1.7c-1.3 1.2-4.2 2.5-3.7-.9-1.8 2.4-6.1 3.6-5.2-.5 1.2-3.3 1.3-3.7 2.1-5.4.3-.8 1.9-.9 1.6.5-1.2 2.6-1.6 3.8-1.6 3.8s-.9 2.7 1.7 1c2.1-2.2 1.7-2.1 2.7-4.2.4-1.4 2.1-2.9 1.9-.2-1.3 2.4-1.4 3.5-1.4 3.5s-1 3.4 2.1.7c1.7-4.8 2.6-6.6 4.5-11.7.4-.8 2.2-1.6 1.7.7-1.4 3.2-4.4 10.8-4.4 10.8s-.8 2.4 2.2 0c1.4-1.3 1.3-1.1 2.3-2.2.4-2.2 2.1-4 2.3-1.3 1.1-1.8 5.4-3.3 5 .2-1.4 2.1-2.8 3.6-2.8 3.6s-1.2 1.8.8.8c2-1.7 3.4-2.9 3.4-2.9l-.1 2c-.2 0-1.6 1.4-3.2 2.4z"/><path d="M7 69c8.2 2.4 17.2 3 28 0-1.6 3-2.1 3.9-2.1 3.9s-.7 8.3-.9 14.6c-1.9 3.2-19 3.5-21.8 0-.5-6.1-1-14.6-1-14.6s-.6-.7-2.2-3.9z"/><path d="M29.2 20.9l2.1-7.4s7.9-8.4 9.7-10.4c-.8-2.1-2.3-2.1-2.3-2.1l-10.9 11.3s-.8 2.6-2 8.2c-25.2.5-24.3 2.1-24.8 2.5-.2 2.2 9.7 2.9 19.7 3 16.4-.3 19.8-1.4 20.3-3-1-1.7-11.8-2.1-11.8-2.1zm-.3 3.6c-.1.2-2.6 1-4.9 0 0-.4.2-.3.4-.4 1.8.4 2.1.8 4.2-.1.4.2.5.3.3.5z"/></symbol><symbol id="icon-heart" viewBox="0 0 512 512"><path d="M457.901 146.444c-21.406-92.128-156.198-115.523-201.901-22.252-45.703-93.271-180.494-69.878-201.901 22.252-34.843 149.958 162.787 218.142 201.901 300.806 39.114-82.664 236.744-150.846 201.901-300.806z"/></symbol><symbol id="icon-illustrator" viewBox="384 144 512 512"><path d="M543.624 436.844h74.908l-37.453-145.25-37.455 145.25zm116.015 159.258l-27.406-94.396h-101.4l-27.406 94.396h-69.427l97.747-333.739v-36.541h93.18l111.447 370.28h-76.735zm184.534 0h-74.907v-281.667h74.907v281.667zm-37-315.468c-21.441 0-38.826-17.179-38.826-38.367 0-21.19 17.381-38.369 38.826-38.369s38.827 17.179 38.827 38.369c0 21.188-17.38 38.367-38.827 38.367z"/></symbol><symbol id="icon-internet-explorer" viewBox="0 0 512 512"><path d="M277.563 367.813c-45.341 0-77.633-39.52-78.758-79.697h262.84c4.013-86.523-25.749-147.885-101.991-190.688 11.139-12.252 102.394-44.494 79.04 43.136l8.968 13.037c39.586-120.579-79.313-114.023-157.988-75.755-113.399-.376-177.606 70.967-195.253 144.186 30.654-44.014 70.28-70.097 96.123-77.35-147.897 118.942-216.621 381.276-15.77 298.135l-13.94-8.403c-120.871 38.121-74.169-69.615-50.908-85.153 27.844 56.955 87.172 102.474 159.751 102.474 92.37 0 160.988-47.701 188.213-126.82h-106.636c-15.397 27.425-36.799 42.898-73.691 42.898zm0-204.263c45.34 0 75.567 35.577 76.693 70.873h-154.324c1.502-30.039 29.193-70.873 77.631-70.873z"/></symbol><symbol id="icon-javascript" viewBox="0 0 512 512"><path d="M130.269 256c17.686 7.75 30.25 24.5 30.25 54v34.457c0 24.955 22.379 32.912 41.547 33.494v36.861c-52.264 0-83.111-17.9-83.111-66.234v-38.383c0-24.547-19.5-35.537-39.354-35.537v-37.316c19.854 0 39.354-10.989 39.354-35.536v-38.384c0-48.333 30.848-66.234 83.111-66.234v36.861c-19.168.582-41.547 8.539-41.547 33.495v34.456c0 29.5-12.565 46.25-30.25 54zm221.212-54v-34.456c0-24.956-22.379-32.913-41.547-33.495v-36.861c52.264 0 83.111 17.901 83.111 66.234v38.384c0 24.547 19.5 35.536 39.354 35.536v37.316c-19.854 0-39.354 10.99-39.354 35.537v38.383c0 48.334-30.848 66.234-83.111 66.234v-36.861c19.168-.582 41.547-8.539 41.547-33.494v-34.457c0-29.5 12.564-46.25 30.25-54-17.685-7.75-30.25-24.5-30.25-54zm-67.935 70.288v31.154c0 27.851-17.6 50.385-43.244 55.457l-4.86-10.504c11.876-4.475 19.408-18.845 19.408-29.64h-20.046v-46.468h48.742zm0-100.237h-48.742v48.821h48.742v-48.821z"/></symbol><symbol id="icon-like" viewBox="0 0 512 512"><path d="M426.547 317.659c15.018-23.439 7.4-55.504-3.206-65.709 4.254-12.984 8.049-37.74-2.757-55.588 0 0-81.13-.059-82.181 0 13.101-56.312 18.861-145.896-38.427-145.896-31.705 0-39.472 28.578-48.243 56.697-36.27 116.279-122.634 117.437-174.694 123.257v179.348c79.606 0 119.613 6.578 188.043 35.68 71.917 30.586 161.004 21.398 151.177-61.133 19.13-18.9 18.572-48.898 10.288-66.656zm-26.931-93.961c2.308 17.379-5.953 36.823-24.673 36.823h-33.963c-12.972 0-17.506-10.606-17.506-19.198 0-7.316 6.367-17.625 18.107-17.625h58.035zm-292.109 156.922v-122.434c100.511-8.602 150.312-69.653 171.052-134.208 6.428-20.006 8.345-47.541 25.457-42.371 18.562 5.605 18.001 59.383 3.8 111.158-6.062 22.105-22.153 40.672-8.477 67.227-24.322 8.352-32.245 49.939-11.818 67.254-16.217 15.859-15.723 47.547 3.992 62.713-7.399 8.768-10.485 18.75-9.431 29.52-33.043-11.517-90.774-38.859-174.575-38.859zm247.593 51.404h-25.424c-12.493 0-18.085-8.201-18.085-16.58 0-9.816 6.344-18.57 18.085-18.57h56.687c-1.052 13.438-7.033 35.15-31.263 35.15zm18.852-56.582h-51.221c-12.494 0-18.086-10.801-18.086-18.561 0-7.766 5.592-18.572 18.086-18.572h78.477c2.21 18.522-6.668 37.133-27.256 37.133zm6.697-58.242h-57.918c-12.438 0-18.101-11.062-18.101-18.578 0-7.605 5.597-18.248 18.101-18.248h82.169c2.317 17.133-5.548 36.826-24.251 36.826z"/></symbol><symbol id="icon-linux" viewBox="0 0 512 512"><path d="M407.489 377.012c-9.705-7.656-5.932-24.57-16.021-32.908l.003.002c9.768-57.771-17.591-108.688-50.218-141.315-27.386-27.387-18.551-54.021-18.551-77.083.001-36.852-15.542-75.708-62.671-75.708-50.387 0-64.175 40.861-64.676 64.175-1.205 55.996 11.647 70.54-22.061 111.304-39.643 47.944-45.489 95.769-36.549 121.14l.001-.002c-4.182 4.742-9.833 9.993-20.397 14.344-29.16 12.367-7.791 33.039-15.845 47.723-9.321 16.993.939 37.251 26.246 35.044 16.21-1.409 33.262 5.228 48.067 11.776 20.834 9.218 39.64.285 46.847-14.104 24.309-5.825 54.323-5.085 78.613 1.001 7.476 20.296 36.73 28.439 57.081 6.732 8.931-9.525 23.026-24.205 39.652-29.611 19.497-6.339 23.136-32.524 10.479-42.51zm-161.477-179.647c-5.629 0-10.289-4.435-17.661-9.75-9.33-6.73-18.801-10.606-18.701-17.687 0-4.847 6.687-6.354 15.349-11.692 9.285-5.725 12.899-11.517 22.033-11.517 9.356 0 12.199 4.601 24.887 9.938 12.517 5.265 21.199 7.323 21.199 13.271 0 6.096-13.077 10.467-20.442 14.899-10.787 6.488-16.354 12.538-26.646 12.538h-.018zm29.394-89.541c15.568 2.419 17.328 29.028 9.858 42.131-1.887-.75-3.423-1.336-6.263-2.486 3.239-9.331 3.193-24.669-7.689-25.649-6.895-.621-11.347 8.247-12.302 15.829-2.712-1.095-5.66-1.891-9.25-2.175 1.123-15.849 11.648-29.825 25.646-27.65zm-60.081 5.683c11.929-2.89 18.976 10.61 19.031 24.638-1.964.948-3.753 2.074-5.46 3.268-.746-5.895-3.455-15.406-10.227-13.366-7.272 2.19-6.09 18.582-2.042 21.947-1.779 1.022-3.538 1.936-5.398 2.916-7.405-12.139-7.4-36.618 4.096-39.403zm-37.349 330.353c-34.658-15.328-46.437-11.844-53.052-11.844-13.726 0-18.203-9.938-13.046-19.343 4.379-7.98 3.027-16.344 1.941-23.061-1.664-10.281-1.969-13.641 8.438-18.069 14.39-5.936 20.785-13.568 25.549-19.291 13.386-16.081 26.896 9.207 37.969 31.753 7.176 14.608 21.334 22.012 25.672 38.192 4.008 14.953-12.528 30.929-33.471 21.663zm123.36-32.17c-24.422 11.557-55.56 16.856-78.833 5.125-3.447-9.666-8.956-15.917-14.881-22.197 9.511-2.437 16.586-13.98 8.122-25.581-9.025-12.366-27.445-21.005-46.085-35.012-17.429-13.098-22.938-45.374.794-81.473-11.571 31.964-4.805 61.418 1.003 69.858 1.211-16.964 2.59-45.291 26.405-79.217 12.027-17.132 12.202-39.767 12.473-53.913 3.638 2.5 7.368 4.708 10.939 7.286 8.04 5.794 14.784 12.157 24.456 12.158h.027c14.3 0 22.179-8 33.207-14.633 4.301-2.588 10.816-5.187 16.285-8.808 9.174 42.502 47.213 93.623 49.348 122.754 8.858-17.715-2.506-60.332-2.506-60.332 14.873 22.062 16.043 40.444 16.712 63.006 10.403 4.137 21.559 14.916 22.569 29.11-1.331-.229-2.765-.395-4.32-.481-2.229-15.773-46.04-38.942-49.974-9.24-21 3.097-13.367 35.462-17.587 56.438-1.928 9.581-5.545 17.17-8.154 25.152zm85.542-.704c-17.381 6.518-29.127 20.372-37.199 28.981-15.542 16.58-36.097 8.633-38.269-6.875-2.325-16.588 6.349-25.627 10.086-44.195 3.408-16.948-.411-43.025 7.604-45.798 5.215 30.1 36.472 17.454 43.613 9.226 11.604 0 12.572 3.806 15.167 14.373 1.623 6.609 3.862 12.175 10.194 18.718 7.411 7.656 5.141 19.443-11.196 25.57zm-141.22-223.277c-11.496 0-20.096-7.438-27.078-13.193-3.586-2.952.876-8.37 4.461-5.419 6.838 5.638 13.724 11.593 22.616 11.593 10.717 0 20.146-8.909 32.961-13.812 4.351-1.656 6.838 4.899 2.509 6.556-12.41 4.749-22.393 14.275-35.469 14.275z"/></symbol><symbol id="icon-magnifier" viewBox="16.8 16.8 66 66"><path d="M81.4 76.5l-19.4-19.4c3.2-4.2 5.1-9.5 5.1-15.2 0-13.9-11.3-25.2-25.2-25.2s-25.1 11.3-25.1 25.2 11.3 25.2 25.2 25.2c5.7 0 10.9-1.9 15.1-5.1l19.4 19.4c1.6 1.6 4.1 1.9 5.4.5 1.4-1.3 1.1-3.8-.5-5.4zm-39.5-15.7c-10.4 0-18.9-8.4-18.9-18.9 0-10.4 8.5-18.9 18.9-18.9s18.9 8.5 18.9 18.9c.1 10.5-8.4 18.9-18.9 18.9z"/></symbol><symbol id="icon-menu" viewBox="0 0 512 512"><path d="M462 163.5h-412v-65h412v65zm0 60h-412v65h412v-65zm0 125h-412v65h412v-65z"/></symbol><symbol id="icon-module" viewBox="0 0 100 96"><path d="M100 30.746l-.014-.199-.013-.188-.037-.187-.039-.194-.059-.171-.065-.194-.083-.167-.087-.177-.109-.163-.104-.156-.132-.153-.121-.138-.146-.129-.146-.127-.326-.219-47.145-27.218c-.919-.531-2.052-.529-2.97.004l-46.82 27.209-.001.001-.001.001-.009.005-.144.097-.177.12-.149.13-.142.125-.135.154-.118.135-.115.172-.098.147-.089.18-.081.164-.064.186-.061.177-.04.197-.037.183-.014.201-.013.185-.096 34.502c-.003 1.061.562 2.043 1.481 2.573l47.145 27.219c.458.266.97.397 1.48.397l.385-.024.069-.015.31-.062.069-.022.3-.102.083-.041.263-.129.006-.004.005-.003 46.833-27.217c.909-.528 1.471-1.5 1.474-2.553l.097-34.499v-.013zm-50.103-23.79l17.747 10.246-41.06 23.706-17.613-10.169 40.926-23.783zm-2.738 80.389l-41.229-23.804.079-27.67 41.228 23.803-.078 27.671zm3.041-32.803l-17.691-10.213 41.061-23.706 17.556 10.136-40.926 23.783zm43.781 9.001l-40.897 23.768.078-27.637 40.898-23.767-.079 27.636zm-50.164 17.876l-17.703-10.221.033-11.882 17.704 10.221-.034 11.882z"/></symbol><symbol id="icon-nginx" viewBox="29.437 -2.937 27.062 24"><path d="M36.125-2.937l-.688 1.281-5.312 9.656-.688 1.22.688 1.219 5.312 9.344.719 1.281h13.905999999999999l.688-1.406 3.969-8 1.781-3.626h-4.031l-10.157.031c-1.32-.019-2.535 1.179-2.535 2.5s1.215 2.519 2.535 2.5l6.125-.031-1.5 3.031h-7.875l-3.906-6.875 3.938-7.125h8.378l1.953 4.008h5.031l-3.172-7.601-.688-1.406h-14.471z"/></symbol><symbol id="icon-php" viewBox="0 0 512 512"><path d="M462 287.861l-116.969 65.735v-40.762l68.109-38.409-68.109-38.013v-40.867l116.969 65.736v26.58zm-412-26.58l116.97-65.736v40.867l-68.11 38.014 68.109 38.409v40.762l-116.969-65.736v-26.58zm207.602 100.667c-11.506 0-20.836-9.331-20.836-20.841 0-11.503 9.33-20.831 20.836-20.831 11.508 0 20.837 9.328 20.837 20.831-.001 11.51-9.33 20.841-20.837 20.841zm16.382-57.84h-34.349c0-56.909 41.564-67.252 41.564-96.753 0-29.941-46.813-39.121-51.6 5.167h-33.408c3.056-88.397 119.614-75.471 119.614-8.045.002 47.002-41.821 50.939-41.821 99.631z"/></symbol><symbol id="icon-python" viewBox="456.628 22.067 846.725 800"><path d="M1017.514 396.855c64.289-29.142 73.871-250.951 35.942-316.282-49.545-85.289-285.055-68.161-359.421-7.198-8.539 30.283-7.646 85.239-7.249 128.925h233.425v20.454h-233.375c0 .298-103.903.646-103.903.646-179.165 0-175.442 389.108 60.962 389.108 0 0 8.688-86.182 23.88-129.371 46.912-133.295 243.997-38.326 349.739-86.282zm-244.397-226.128c-26.906 0-48.7-21.794-48.7-48.75 0-26.907 21.794-48.75 48.7-48.75 26.958 0 48.751 21.843 48.751 48.75.049 26.907-21.794 48.75-48.751 48.75zM1107.966 231.59s-6.206 86.232-21.397 129.371c-46.914 133.245-243.949 38.325-349.74 86.282-64.238 29.141-73.92 250.95-35.941 316.28 49.495 85.338 285.004 68.211 359.421 7.199 8.538-30.232 7.646-85.189 7.249-128.876h-233.479v-20.452h233.376c0-.299 115.025-.646 115.025-.646 165.116 0 179.911-389.158-74.514-389.158zm-135.132 433.342c26.907 0 48.752 21.794 48.752 48.75 0 26.908-21.845 48.701-48.752 48.701-26.906 0-48.7-21.793-48.7-48.701 0-26.956 21.794-48.75 48.7-48.75z"/></symbol><symbol id="icon-safari" viewBox="0 0 512 512"><path d="M232.301 254.026l-50.948 127.214 98.312-91.443 50.065-125.385-97.429 89.614zm26.413 34.678c-9.152 1.346-17.663-4.984-19.005-14.14-1.345-9.155 4.987-17.663 14.142-19.006 9.15-1.344 17.662 4.988 19.003 14.141 1.345 9.155-4.985 17.663-14.14 19.005zm-69.451-218.41c0-11.19 11.725-20.294 26.137-20.294 14.411 0 26.137 9.104 26.137 20.294 0 4.378-1.802 8.433-4.85 11.753-1.197-2.397-2.682-4.676-4.47-6.605 1.066-1.583 1.679-3.326 1.679-5.148 0-6.859-8.471-12.653-18.496-12.653-10.026 0-18.496 5.794-18.496 12.653 0 4.239 3.241 8.068 8.081 10.377-.867 2.259-1.433 4.81-1.666 7.61-8.345-3.393-14.056-10.18-14.056-17.987zm17.2 226.727l-65.758-.835 60.421-28.704c.491-7.299 2.407-14.211 5.483-20.459l-27.942-29.023 37.686 15.144c4.164-4.332 9.024-7.981 14.404-10.771l3.512-65.619 27.153 59.617-9.292 8.546c-29.238 2.414-49.178 31.316-40.669 59.626l-4.998 12.478zm49.537-211.325c-7.56 0-15.011.459-22.338 1.326-2.772-7.341-8.463-13.987-16.084-12.278-7.711 1.729-9.708 10.093-9.603 17.146-80.648 21.23-140.127 94.643-140.127 181.958 0 103.914 84.238 188.152 188.152 188.152 103.913 0 188.152-84.238 188.152-188.152 0-103.913-84.239-188.152-188.152-188.152zm39.865 332.769l-12.168-18.068-3.066 21.39c-80.517 13.228-153.993-39.432-170.92-114.771l16.286-10.427-18.894-4.888c-9.267-78.613 42.849-146.804 113.909-163.71l10.006 15.658 3.697-18.252c77.444-10.937 146.725 38.42 165.926 108.679l-15.817 12.434 18.951 1.691c13.482 78.68-36.071 150.582-107.91 170.264zm72.356-168.554l-57.607 27.62c-.625 5.447-2.045 10.652-4.145 15.501l29.198 29.968-38.382-15.51c-4.406 5.009-9.702 9.216-15.646 12.363l-1.523 66.694-28.59-59.652 10.294-9.575c27.924-3.516 46.66-31.236 38.902-58.687l4.626-11.585 62.873 2.863z"/></symbol><symbol id="icon-script" viewBox="-10 -10 200 173"><path d="M7.997 0c-4.417 0-7.997 3.575-7.997 8v147c0 4.418 3.584 8 7.997 8h174.005c4.417 0 7.997-3.575 7.997-8v-147c0-4.418-3.584-8-7.997-8h-174.005zm14.009 12c-4.422 0-8.006 3.576-8.006 7.998v123.004c0 4.417 3.572 7.998 8.006 7.998h145.988c4.422 0 8.006-3.576 8.006-7.998v-123.004c0-4.417-3.572-7.998-8.006-7.998h-145.988zM75 51.896l-54 28.929v7.101l54 32.074v-16.582l-32.943-19.659 32.943-16.934v-14.929zm40-.896l54 28.885v7.09l-54 32.025v-16.557l32.943-19.629-32.943-16.908v-14.906zM78.085 120.074l20.36-69.148h13.854l-19.86 69.148h-14.353z"/></symbol><symbol id="icon-service" viewBox="0 0 100 100"><path d="M99.239 41.312c-1.539-8.726-5.263-16.514-10.497-22.918l-.138-.18-.003.012c-10.771-13.063-27.878-20.288-45.705-17.718l-.005-.028-3.15.555.015.083c-17.635 3.73-31.277 16.401-36.843 32.403l-.119-.177c-.389 1.1-.74 2.216-1.051 3.346l.141.142c-1.869 6.905-2.269 14.325-.884 21.844v.003l-.153.007c.065.37.094.733.201 1.09 5.188 26.042 29.825 43.445 56.049 39.687l.01.054 1.511-.267.051-.007.04-.009 1.549-.273-.01-.054c26.319-5.496 43.693-30.928 38.991-57.595zm-9.901-14.131l.256.376c2.817 4.351 4.618 9.17 5.439 14.321v.002l.151.004s-.165 3.477-1.532 5.415c-1.486 2.105-3.886 4.288-7.028 6.312-1.31.842-2.705 1.651-4.214 2.423.003-3.764-.316-7.688-1.021-11.689-.551-3.123-1.3-6.125-2.215-8.973 4.59-2.494 8.109-5.31 10.163-8.192zm-54.386 39.268c-1.919-.003-3.767-.08-5.541-.222-1.457-3.764-2.571-7.767-3.307-11.944-.5-2.838-.806-5.659-.929-8.442 6.007.634 13.034.414 20.44-.785l3.56 20.189c-4.86.791-9.642 1.208-14.222 1.203zm18.396-22.67c7.36-1.408 14.031-3.603 19.453-6.252.836 2.661 1.516 5.419 2.016 8.261.737 4.184 1.06 8.329.978 12.371-1.62.741-3.332 1.445-5.136 2.105-4.295 1.568-8.92 2.81-13.747 3.73l-3.565-20.215zm9.399-37.621c4.782 1.097 9.255 3.088 13.294 5.916 3.234 2.265 5.941 4.981 8.265 8.084-.126.208-.254.415-.403.626-1.351 1.916-3.579 3.905-6.444 5.75-.775.5-1.593.986-2.445 1.459-3.9-10.75-10.263-18.984-17.302-22.628 1.686.153 3.37.411 5.035.792zm-9.139 2.292c2.832 1.337 5.565 3.515 8.126 6.474 2.625 3.032 4.919 6.714 6.818 10.943.606 1.349 1.157 2.739 1.664 4.158-1.891.937-3.938 1.813-6.139 2.618-3.85 1.407-7.997 2.523-12.323 3.352l-5.108-28.971c2.274-.157 4.609.315 6.962 1.427zm-14.029-.808l5.137 29.133c-4.388.71-8.704 1.084-12.841 1.079-2.354-.003-4.59-.127-6.699-.362-.009-1.515.033-3.017.142-4.501.34-4.649 1.242-8.916 2.678-12.683 1.402-3.676 3.235-6.674 5.451-8.912 1.854-1.87 3.912-3.124 6.131-3.754zm-26.844 14.491c2.876-4.106 6.456-7.563 10.644-10.275 1.432-.927 2.918-1.743 4.447-2.466-5.439 5.931-8.643 15.996-8.633 27.602-.978-.155-1.925-.336-2.838-.543-3.378-.768-6.197-1.893-8.155-3.254-.238-.165-.454-.336-.665-.506 1.181-3.754 2.917-7.297 5.2-10.559zm-8.223 35.201c-1-5.671-.859-11.366.417-16.928l.153-.601c3.21 2.238 7.943 3.846 13.678 4.705.126 3.294.479 6.682 1.085 10.122.776 4.403 1.911 8.588 3.331 12.479-1.851-.232-3.62-.534-5.29-.913-4.012-.91-7.364-2.246-9.692-3.865-1.86-1.294-3.05-2.759-3.538-4.287l-.143-.713zm30.859 34.908c-4.596-1.055-8.893-2.968-12.775-5.685-3.881-2.717-7.147-6.102-9.711-10.061-1.53-2.361-2.758-4.873-3.697-7.501 3.379 2.511 8.746 4.156 15.314 4.794 3.779 9.074 9.421 15.984 15.606 19.206-1.588-.149-3.17-.393-4.737-.753zm10.887-1.602c-2.642-1.247-5.193-3.279-7.583-6.04-2.448-2.83-4.589-6.265-6.361-10.211l-.139-.322c5.223.297 11.113-.032 17.28-1.039l3.339 18.937c-2.135.156-4.327-.281-6.537-1.324zm15.623-.645l-3.359-19.068c6.161-1.169 11.829-2.884 16.654-4.959l-.02.352c-.318 4.344-1.159 8.331-2.501 11.852-1.309 3.435-3.021 6.237-5.09 8.326-1.72 1.737-3.626 2.904-5.684 3.496zm15.377-5.804c-1.313.85-2.679 1.599-4.083 2.26 4.516-4.912 7.33-12.976 7.759-22.376 5.735-2.741 10.039-6.001 12.24-9.389.021 2.691-.262 5.371-.868 8.013-1.008 4.393-2.836 8.501-5.434 12.21-2.597 3.708-5.832 6.832-9.615 9.282z"/></symbol><symbol id="icon-terminal" viewBox="0 0 512 512"><path d="M50 73.5v365h412v-365h-412zm362 315h-312v-218h312v218zm-170.542-108.105l-75.999 76.397-27.461-27.332 48.801-49.065-48.869-49.134 27.461-27.33 76.067 76.464zm134.542 37.133h-113.5v38h113.5v-38z"/></symbol><symbol id="icon-twitter" viewBox="0 0 512 512"><path d="M256 50c-113.771 0-206 92.229-206 206s92.229 206 206 206 206-92.229 206-206-92.229-206-206-206zm103.599 170.506c3.021 67.199-47.096 142.124-135.802 142.124-26.981 0-52.096-7.911-73.238-21.466 25.347 2.987 50.646-4.044 70.734-19.786-20.907-.386-38.554-14.198-44.632-33.181 7.486 1.432 14.851 1.013 21.575-.816-22.976-4.617-38.839-25.317-38.321-47.453 6.44 3.58 13.81 5.729 21.642 5.977-21.278-14.221-27.303-42.318-14.785-63.789 23.563 28.906 58.77 47.928 98.478 49.92-6.969-29.886 15.702-58.667 46.542-58.667 13.742 0 26.16 5.802 34.874 15.088 10.884-2.143 21.108-6.119 30.341-11.594-3.567 11.157-11.144 20.521-21.008 26.433 9.665-1.153 18.874-3.722 27.441-7.523-6.405 9.582-14.505 17.998-23.841 24.733z"/></symbol><symbol id="icon-view" viewBox="0 0 512 512"><path d="M256.494 376.142c-83.277 0-158.968-57.287-206.494-126.949 47.956-67.222 123.636-113.334 206.494-113.334 83.032 0 158.965 45.31 205.506 112.907-44.129 73.545-119.672 127.376-205.506 127.376zm-162.891-126.369c39.783 49.138 98.528 91.363 162.892 91.363 87.675 0 144.426-65.7 163.013-90.981-39.54-46.52-97.718-79.292-163.013-79.292-84.815 0-142.618 55.824-162.892 78.91zm164.707-63.141c-38.312 0-69.368 31.057-69.368 69.368s31.057 69.368 69.368 69.368 69.369-31.057 69.369-69.368-31.058-69.368-69.369-69.368zm-.064 69.345c-9.792 9.791-25.666 9.791-35.458 0-9.792-9.792-9.792-25.667 0-35.458 9.792-9.792 25.666-9.792 35.458 0 9.792 9.791 9.792 25.666 0 35.458z"/></symbol><symbol id="icon-windows" viewBox="0 0 512 512"><path d="M50.783 244.251v-136.681l165.857-23.264v159.944h-165.857zm189.356 0h221.078v-194.251l-221.078 31.011v163.24zm-23.498 23.497h-165.858v136.682l165.857 23.264v-159.946zm23.498 0v163.242l221.078 31.01v-194.252h-221.078z"/></symbol><symbol id="icon-wordpress" viewBox="0 0 512 512"><path d="M402.623 77.721c-12.777 4.159-40.046 30.771-5.469 78.243 34.581 47.47 14.114 101.545 14.114 101.545l-30.141 100.027-75.887-225.723s21.428-1.603 24.492-2.064c3.065-.461 8.163-3.473 7.313-9.883-.85-6.411-5.561-7.337-10.04-7.105-2.25.116-28.707 2.114-54.99 2.112-26.119-.002-52.064-2.011-53.911-2.112-3.708-.208-9.063.208-10.35 6.024-.927 4.866 1.39 10.272 6.642 10.89s1.733.159 22.956 2.139c0 0 14.428 39.51 32.683 89.499l-46.216 137.206-76.138-226.705s21.428-1.603 24.493-2.064c3.065-.461 8.163-3.473 7.313-9.883-.85-6.411-5.561-7.337-10.041-7.105-2.247.116-28.707 2.114-54.991 2.112-26.117-.002-52.062-2.011-53.909-2.112-3.708-.208-9.063.208-10.35 6.024-.927 4.866 1.39 10.272 6.642 10.89s1.733.159 22.956 2.139c0 0 101.309 277.413 106.679 292.298s27.614 18.746 33.947-.717c4.682-14.387 41.1-120.094 59.775-174.251 28.354 77.664 60.855 166.711 63.833 174.968 5.373 14.885 27.616 18.746 33.949-.717s42.17-119.915 72.909-209.868c27.189-81.975 1.964-152.145-48.263-135.807z"/></symbol></svg>