<svg xmlns="http://www.w3.org/2000/svg"><symbol id="icon-apple" viewBox="0 0 512 512">
<path id="apple-os-icon" d="M423.754,352.263c-13.494,39.14-49.969,108.441-91.588,109.193  c-27.609,0.523-36.465-16.355-68.025-16.355c-31.543,0-41.397,15.849-67.502,16.879c-44.153,1.677-108.393-100.042-108.393-188.75  c0-81.495,52.872-121.895,102.488-122.639c26.604-0.475,51.734,17.942,67.977,17.942c16.283,0,46.811-22.146,78.895-18.891  c13.42,0.556,51.137,5.413,75.344,40.809C348.719,232.363,354.812,320.033,423.754,352.263z M338.021,50  c-48.52,1.955-88.103,52.847-82.565,94.948C300.279,148.432,343.312,98.169,338.021,50z"/>
</symbol><symbol id="icon-arrow" viewBox="0 0 26 26"><title>Slice 1</title><path xmlns:sketch="http://www.bohemiancoding.com/sketch/ns" d="M22.954 6l3.378 3.394-12.677 12.617-12.677-12.617 3.378-3.394 9.299 9.255 9.299-9.255z" fill="#333" sketch:type="MSShapeGroup"/></symbol><symbol id="icon-bookmarklet" viewBox="0 0 512 512">
<path id="bookmark-9-icon" d="M153.725,50v412L256,371.557L358.275,462V50H153.725z M297.356,285.243L256,263.125l-41.354,22.118  l8.255-46.166l-33.815-32.497l46.458-6.415L256,157.963l20.458,42.202l46.458,6.415l-33.814,32.497L297.356,285.243z"/>
</symbol><symbol id="icon-chrome" viewBox="0 0 512 512">
<path id="chrome-icon" d="M99.744,121.842c95.763-111.391,273.325-89.403,339.705,40.713c-46.727,0.017-119.898-0.014-159.528,0  c-28.743,0.01-47.301-0.643-67.398,9.931c-23.627,12.43-41.454,35.471-47.677,62.534L99.744,121.842z M187.466,255.992  c0,37.752,30.713,68.465,68.465,68.465c37.751,0,68.464-30.713,68.464-68.465c0-37.751-30.713-68.465-68.464-68.465  C218.179,187.527,187.466,218.241,187.466,255.992z M282.502,345.608c-38.428,11.414-83.398-1.244-108.031-43.74  c-18.803-32.438-68.483-118.938-91.064-158.27C4.321,264.745,72.482,429.837,216.057,458.015L282.502,345.608z M319.529,187.527  c32.006,29.752,38.979,77.928,17.299,115.283c-16.334,28.144-68.466,116.083-93.732,158.666  c147.927,9.114,255.764-135.786,207.055-273.949H319.529z"/>
</symbol><symbol id="icon-dislike" viewBox="0 0 512 512"><path d="M271.28 387.914c-17.307-53.859-63.697-127.136-171.845-134.803v-124.057c113.814-1.277 166.521-42.479 206.369-47.118 35.122-4.089 72.641.592 77.63 35.666l-16.098-5.4c-13.68-4.152-19.787 16.469-6.223 20.566l15.225 5.191c14.772 4.469 15.36 10.34 18.069 30.715l-19.089-6.25c-13.544-4.111-19.944 16.422-6.231 20.57l15.543 4.777c15.264 4.625 15.555 8.529 18.992 31.1l-20.255-5.973c-13.687-4.143-19.794 16.469-6.229 20.572l19.582 5.205c13.113 3.718 13.939 12.192 15.138 29.868-52.403-6.541-98.463 12.154-118.087 26.352 19.603 58.491 24.727 129.205 3.165 135.719-17.245 5.212-19.178-22.542-25.656-42.7zm59.293-77.223c36.52-15.377 84.09-15.548 112.785-8.374-7.346-69.176-22.035-151.506-32.01-189.047-14.318-53.89-53.036-68.187-108.984-61.886-60.227 6.781-78.781 48.671-233.723 48.671v180.666c52.274 4.058 141.274 9.724 175.604 124.14 8.531 28.435 16.667 57.14 48.62 57.14 59.205-.001 51.597-94.948 37.708-151.31z"/></symbol><symbol id="icon-email" viewBox="0 0 512 512"><path d="M256 50c-113.771 0-206 92.229-206 206s92.229 206 206 206 206-92.229 206-206-92.229-206-206-206zm123.956 114.444l-122.951 94.297-122.755-94.297h245.706zm-246.557 25.828l72.327 55.559-72.327 72.327v-127.886zm.301 157.283l88.821-88.821 34.474 26.48 34.418-26.396 88.738 88.736h-246.451zm246.9-29.248l-72.38-72.38 72.38-55.511v127.891z"/></symbol><symbol id="icon-firefox" viewBox="0 0 512 512">
<path id="firefox-icon" d="M193.236,136.759c1.611-13.756,10.781-31.599,28.046-39.777c-25.94-3.966-47.005,8.179-57.497,23.792  c-16.648-3.592-26.877-3.789-43.619-0.661c-10.624-8.052-23.118-26.401-22.14-45.601c-20.101,23.677-24.243,41.531-21.765,62.845  c-77.367,138.394,26.723,304.812,175.09,304.812C384.647,442.168,462,340.227,462,235.769c0-70.445-31.887-131.594-64.444-144.815  c12.147,13.387,25.947,48.257,23.303,72.387c-26.277-68.42-91.888-94.863-113.998-93.455  c72.682,28.34,90.076,124.814,83.628,153.287c-6.319-33.388-26.483-62.146-38.546-69.748  C422.334,318.333,252.334,369,200.464,311.768c13.376,3.469,39.78,1.764,59.561-11.483c18.506-12.393,20.247-13.12,32.137-14.043  c14.123-1.098-0.851-28.986-31.702-24.268c-12.694,1.942-33.612,16.869-59.341,7.031c-31.045-11.872-30.068-54.25,1.99-41.5  c6.939-9.003,1.817-26.021,1.817-26.021c9.314-8.529,21.072-14.539,28.234-18.763c4.697-2.77,17.077-10.439,16.376-25.351  c-2.522-1.972-6.598-4.492-15.779-3.965C197.982,155.673,195.59,142.747,193.236,136.759z"/>
</symbol><symbol id="icon-github" viewBox="0 0 512 512"><path d="M256 55.083c-113.764 0-206 92.237-206 206 0 91.013 59.025 168.246 140.887 195.472 10.293 1.911 13.613-4.459 13.613-9.908v-38.356c-57.301 12.473-69.238-24.291-69.238-24.291-9.354-23.822-22.865-30.159-22.865-30.159-18.693-12.774 1.408-12.523 1.408-12.523 20.688 1.459 31.584 21.24 31.584 21.24 18.373 31.483 48.18 22.381 59.949 17.117 1.844-13.312 7.174-22.397 13.076-27.544-45.768-5.197-93.848-22.867-93.848-101.81 0-22.498 8.047-40.872 21.225-55.289-2.146-5.197-9.188-26.152 1.979-54.518 0 0 17.301-5.532 56.662 21.123 16.445-4.56 34.066-6.856 51.568-6.94 17.502.084 35.154 2.381 51.6 6.94 39.33-26.655 56.596-21.123 56.596-21.123 11.217 28.365 4.158 49.32 2.029 54.518 13.211 14.417 21.207 32.791 21.207 55.289 0 79.127-48.197 96.545-94.064 101.642 7.375 6.388 14.133 18.943 14.133 38.155v56.529c0 5.482 3.301 11.903 13.746 9.892 81.81-27.275 140.753-104.459 140.753-195.455 0-113.763-92.238-206.001-206-206.001z"/></symbol><symbol id="icon-globe" viewBox="0 0 512 512">

<path id="globe-3-icon" d="M462,256c0-115.604-93.762-206-206-206C144.542,50,50,139.449,50,256C50,373.234,145.125,462,256,462   C367.564,462,462,372.406,462,256z M158.527,180.417c-3.932,18.902-6.367,39.029-7.146,59.793H92.283   c2.635-27.648,12.112-53.299,26.723-75.242C131.695,171.391,145.063,176.438,158.527,180.417z M151.471,271.789   c0.898,20.948,3.489,41.223,7.6,60.219c-13.784,4.044-26.991,9.04-39.779,15.46c-14.774-22.038-24.356-47.847-27.009-75.679H151.471   z M167.359,362.459c4.935,14.79,11.216,29.376,19.297,42.713c-17.433-8.118-33.21-19.194-46.675-32.595   C148.471,368.729,157.635,365.345,167.359,362.459z M271.789,319.158v-47.369h57.664c-0.857,18.496-3.139,36.317-6.701,52.957   C306.469,321.748,289.355,319.859,271.789,319.158z M314.279,355.276c-7.732,22.147-21.896,50.895-42.49,62.079v-66.595   C286.449,351.393,300.703,352.913,314.279,355.276z M271.789,240.21v-46.786c17.764-0.71,35.062-2.634,51.508-5.689   c3.383,16.53,5.504,34.188,6.242,52.476H271.789z M271.789,161.82V92.54c21.248,11.54,35.648,41.664,43.357,64.609   C301.309,159.601,286.762,161.175,271.789,161.82z M240.21,92.823v68.975c-14.788-0.659-29.156-2.227-42.831-4.649   C205.049,134.317,219.288,104.567,240.21,92.823z M240.21,193.4v46.81h-57.225c0.738-18.289,2.86-35.946,6.242-52.477   C205.511,190.76,222.63,192.674,240.21,193.4z M189.774,324.747c-3.563-16.641-5.845-34.46-6.701-52.958h57.138v47.392   C222.828,319.899,205.895,321.779,189.774,324.747z M240.21,350.783v66.289c-20.311-11.4-34.28-39.795-41.965-61.795   C211.661,352.942,225.735,351.429,240.21,350.783z M345.166,362.458c9.588,2.844,18.629,6.176,27.02,9.956   c-13.314,13.288-28.898,24.299-46.115,32.418C334.096,391.512,340.279,377.099,345.166,362.458z M353.455,332.006   c4.109-18.995,6.701-39.27,7.6-60.217h58.662c-2.645,27.748-12.178,53.483-26.877,75.478   C380.027,340.88,367.004,335.981,353.455,332.006z M393.127,165.169c14.533,21.899,23.963,47.477,26.59,75.041h-58.572   c-0.779-20.763-3.215-40.89-7.146-59.792C367.406,176.455,380.635,171.458,393.127,165.169z M372.582,139.989   c-8.266,3.748-17.174,7.057-26.615,9.893c-4.709-14.58-10.629-28.794-18.174-41.894C344.5,116.106,359.625,126.968,372.582,139.989z    M184.942,107.629c-7.712,13.324-13.653,27.607-18.385,42.252c-9.578-2.878-18.609-6.241-26.979-10.058   C152.69,126.684,168.013,115.751,184.942,107.629z"/>

</symbol><symbol id="icon-grunt" viewBox="0 0 69 90">
    <defs/>
    <g xmlns="http://www.w3.org/2000/svg" id="Page-1" stroke="none" stroke-width="1" fill="none" fill-rule="evenodd">
        <path d="M6.412196,55.7299805 C7.13192257,57.2471401 7.63055982,60.9976636 11.1653462,63.495745 C11.7309964,54.8662458 11.7309964,51.3741629 11.7309964,51.3741629 C11.7309964,51.3741629 11.4138735,48.5888671 8.62677986,46.9471959 C5.83968624,45.3055246 4.6550923,44.7321429 4.6550923,44.7321429 C4.6550923,44.7321429 -0.743384705,42.0247973 1.64479902,36.1277553 C4.39759482,34.0440151 5.04450447,33.0348424 5.04450447,33.0348424 C5.04450447,33.0348424 5.2808956,33.1530762 5.38378906,26.9165039 C3.65043,26.3619559 -0.519129599,15.2777972 9.05365581,16.6071429 C9.29585118,13.1312779 9.29585118,12.2968401 9.29585118,12.2968401 C9.29585118,12.2968401 7.41738597,8.79167832 1.6859564,8.06291853 C4.04248047,5.91064453 12.9905174,-2.22342408 24.0539393,10.9915597 C24.7736659,11.0260882 25.5023627,10.6243025 25.5023627,10.6243025 C25.5023627,10.6243025 24.5409677,6.12304568 30.1557853,2.11042132 C30.3568233,4.69953265 30.4634099,5.94621936 31.381009,7.00456892 C32.3302671,4.84863281 33.8377877,0.608432816 38.4442493,-0.0455147879 C38.1677561,2.621024 37.3261404,1.54645647 38.6331511,6.57453265 C41.2123472,4.93861607 41.4761761,3.82376616 44.6748441,3.82376535 C43.1667953,7.25359235 43.160463,6.79844448 43.1604634,10.6771415 C43.7629152,10.9718382 43.6981477,11.431536 44.9175671,11.0328892 C52.89524,-0.315987723 62.3909873,2.9359654 67.6433027,8.107387 C63.5692493,8.9831543 61.2443842,9.93582588 60.1194163,12.1602958 C59.9653399,14.9733189 60.1341907,14.2006138 59.9653399,16.6071429 C59.9057145,15.6769671 71.3580204,17.3128836 63.6067136,26.9165039 C63.634679,30.8579799 64.188193,33.3246722 64.188193,33.3246722 C64.188193,33.3246722 72.9256939,39.1510879 64.301112,45.2626256 C60.3832457,47.2160993 57.4800665,48.1598772 57.4800671,51.5771484 C57.4800676,54.9944196 57.2505349,58.6429269 58.0990108,63.0850656 C60.2196714,61.2780762 60.8512784,60.7366071 62.5761955,55.7299805 C64.9992046,56.6240583 71.562752,71.4524623 58.0172237,77.2589983 C54.6491778,82.1719796 54.0080724,84.4770159 46.1121866,86.1186872 C42.5235793,88.2620675 33.104342,93.3707103 23.6370889,86.2060547 C19.2284999,85.196882 16.1337811,86.0627094 11.5114904,77.7512905 C5.07721932,76.2309919 -1.39240486,66.265346 6.412196,55.7299805 Z M7.50761561,25.8895437 C7.50761561,25.8895437 2.51392281,18.9475514 8.51940136,18.7309046 C11.8766303,18.6097934 17.9855996,19.4280134 27.3299094,26.9452775 C24.5256668,22.9480852 25.4432641,22.6744735 17.7186043,17.9061454 C21.0673907,14.450422 37.3709914,7.85365513 51.4877108,17.9061453 C47.8737754,19.6799142 45.3032846,21.1227843 41.7154699,26.9452776 C46.7838962,23.4437779 51.686903,18.7309043 60.569773,18.7309047 C62.5814721,19.3050711 65.2548553,19.8308443 61.6583331,25.8895437 C61.3710229,24.1191754 61.6583336,23.2300676 61.6583336,23.2300676 C61.6583336,23.2300676 57.9573348,31.4776612 63.1824754,38.1183743 C63.0864415,37.4952916 63.1824754,35.9938267 63.1824754,35.9938267 C63.1824754,35.9938267 67.6586059,39.6601203 62.6424167,43.1145368 C58.0705173,45.7033866 55.412174,45.9793517 54.8895264,51.4714704 C54.9156455,57.0185198 54.5821657,57.7546039 55.3483262,64.8441861 C52.814245,65.6153217 51.9256692,65.9412485 48.5032728,65.9412494 C46.2652082,60.8268521 45.678451,59.0135847 42.9177404,53.2067871 C43.1353996,55.9136091 44.5872545,62.6678457 46.9907384,68.5298375 C40.9121094,68.5219901 22.1213891,68.4712437 22.1213891,68.4712437 C22.1213891,68.4712437 25.4131874,60.2333277 26.0141917,53.1597028 C24.5860832,55.819179 22.9806817,59.6230633 20.6381403,65.9412493 C16.8820013,65.9394182 15.9939516,65.6561279 13.630568,64.844186 C14.3914519,57.779977 14.2782691,55.5060686 14.2922516,51.9873056 C13.5453506,46.8705541 12.4106209,46.0321917 6.71533606,43.1145378 C1.51605028,40.0603376 5.65949077,35.9938277 5.65949077,35.9938277 L5.65949077,38.1183743 C5.65949077,38.1183743 10.2073817,33.5216413 7.50761561,23.2300677 C7.28309681,24.4474574 7.50761561,25.8895437 7.50761561,25.8895437 Z M10.5646067,30.1674107 C10.5646067,30.1674107 18.8554451,28.0350167 26.4318336,37.5792585 C28.1126906,37.8625488 29.2273697,38.2638114 31.1868306,37.5635638 C30.5597081,39.1921561 31.0997669,39.9319022 27.5987509,40.8680943 C27.4681554,42.2923933 27.4072108,43.6298479 25.1952652,46.3131278 C25.4999882,44.369594 26.301502,43.557466 24.9863124,40.8523996 C24.3069517,41.8989781 14.4315542,45.1012311 13.081539,33.5742188 C12.5240675,35.1635742 12.2802892,36.2493896 12.2802892,36.2493896 C12.2802892,36.2493896 10.259884,32.9922051 12.3673529,31.0722133 C11.6792858,30.7415771 10.5646067,30.1674107 10.5646067,30.1674107 Z M16.3036873,33.2043457 C17.5924939,33.4402902 21.0238587,35.3050886 24.1415306,39.2708915 C19.1514617,41.5291051 15.3718419,38.964059 16.3036873,33.2043457 Z M58.4353933,30.1674107 C58.4353933,30.1674107 50.1445549,28.0350167 42.5681664,37.5792585 C40.8873094,37.8625488 39.7726303,38.2638114 37.8131694,37.5635638 C38.4402919,39.1921561 37.9002331,39.9319022 41.4012491,40.8680943 C41.5318446,42.2923933 41.5927892,43.6298479 43.8047348,46.3131278 C43.5000118,44.369594 42.698498,43.557466 44.0136876,40.8523996 C44.6930483,41.8989781 54.5684458,45.1012311 55.918461,33.5742188 C56.4759325,35.1635742 56.7197108,36.2493896 56.7197108,36.2493896 C56.7197108,36.2493896 58.740116,32.9922051 56.6326471,31.0722133 C57.3207142,30.7415771 58.4353933,30.1674107 58.4353933,30.1674107 Z M52.6963127,33.2043457 C51.4075061,33.4402902 47.9761413,35.3050886 44.8584694,39.2708915 C49.8485383,41.5291051 53.6281581,38.964059 52.6963127,33.2043457 Z M23.041626,73.2887486 L29.4254103,73.3122907 C29.4254103,73.3122907 30.8971458,73.225708 30.4963891,74.7758266 C30.0956322,76.3259452 28.0145461,79.2608644 26.2901572,79.2608643 C24.5657683,79.2608641 22.4060608,76.8689837 21.7963513,74.8310198 C21.3175009,73.3517892 23.041626,73.2887486 23.041626,73.2887486 Z M45.958374,73.2887486 L39.5745897,73.3122907 C39.5745897,73.3122907 38.1028542,73.225708 38.5036109,74.7758266 C38.9043678,76.3259452 40.9854539,79.2608644 42.7098428,79.2608643 C44.4342317,79.2608641 46.5939392,76.8689837 47.2036487,74.8310198 C47.6824991,73.3517892 45.958374,73.2887486 45.958374,73.2887486 Z M22.1971081,70.7629395 C32.9956448,70.6371198 46.2504543,70.7629395 46.2504543,70.7629395 C46.2504543,70.7629395 50.6046776,70.959647 49.8991935,74.1069685 C49.1937138,77.2542899 46.7292835,86.9795445 34.798391,87.1840995 C23.9995905,87.1840995 20.3856556,79.9925014 19.1575298,74.0284947 C19.1488234,71.6285052 20.1590261,71.2272426 22.1971081,70.7629395 Z M14.841281,78.505685 C14.841281,78.505685 17.2091499,81.891828 20.057188,82.9138184 C18.1483824,79.0121024 17.9800592,78.5619245 17.9800592,78.5619245 L14.841281,78.505685 Z M54.158719,78.505685 C54.158719,78.505685 51.7908501,81.891828 48.942812,82.9138184 C50.8516176,79.0121024 51.0199408,78.5619245 51.0199408,78.5619245 L54.158719,78.505685 Z M6.99367597,7.0477295 C7.58254316,7.74876186 8.47877158,7.92637416 8.47877158,7.92637416 C8.47877158,7.92637416 14.8114688,6.34355809 18.9997598,13.1365095 C19.9455881,12.8265381 20.9196462,12.1380615 20.9196462,12.1380615 C20.9196462,12.1380615 15.6121905,3.07747977 6.99367597,7.0477295 Z M62.006324,7.0477295 C61.4174568,7.74876186 60.5212284,7.92637416 60.5212284,7.92637416 C60.5212284,7.92637416 54.1885312,6.34355809 50.0002402,13.1365095 C49.0544119,12.8265381 48.0803538,12.1380615 48.0803538,12.1380615 C48.0803538,12.1380615 53.3878095,3.07747977 62.006324,7.0477295 Z M10.8155084,9.80660575 C12.2330132,9.80180762 15.2269996,10.1722935 16.5875677,14.9717494 C14.8436555,16.6071429 14.5639963,17.0243617 14.5639963,17.0243617 L12.7322289,16.6071429 L12.0283321,14.9871826 C12.0283321,14.9871826 12.1760766,11.4592634 10.8155084,9.80660575 Z M58.1844916,9.80660575 C56.7669868,9.80180762 53.7730004,10.1722935 52.4124323,14.9717494 C54.1563445,16.6071429 54.4360037,17.0243617 54.4360037,17.0243617 L56.2677711,16.6071429 L56.9716679,14.9871826 C56.9716679,14.9871826 56.8239234,11.4592634 58.1844916,9.80660575 Z M5.8346735,60.3628104 C7.00660361,62.4530901 8.21467836,67.666626 19.1522532,68.5450091 C17.4289196,70.868879 15.5499266,72.2879465 17.004682,75.9327916 C13.7463891,76.2194824 2.54498489,74.1917201 5.8346735,60.3628104 Z M63.1653265,60.3628104 C61.9933964,62.4530901 60.7853216,67.666626 49.8477468,68.5450091 C51.5710804,70.868879 53.4500734,72.2879465 51.995318,75.9327916 C55.2536109,76.2194824 66.4550151,74.1917201 63.1653265,60.3628104 Z" id="Path-14" fill="#DDF0F2"/>
    </g>
</symbol><symbol id="icon-gulp" viewBox="0 0 43 91">
    <title>gulp</title>
    <g xmlns="http://www.w3.org/2000/svg" id="Page-1" stroke="none" stroke-width="1" fill="none" fill-rule="evenodd">
        <g id="Path-1-+-Path-2-+-Path-3" transform="translate(1.000000, 1.000000)" fill="#DDF0F2">
            <path d="M2.28312177,46.7959855 C1.6187147,40.326577 0.986354828,34.1698756 0,24 C5.93170799,27.085007 33.5527628,27.136287 40,24 C40,24 37.5493283,45.1321613 35.3161779,66.1515064 C25.3421105,70.9229429 9.0921864,68.8351617 4.23698384,66.1515064 C3.65170006,60.2177943 3.19104659,55.664322 2.77441417,51.5878044 C2.94787753,51.7614766 3.15664951,51.9559379 3.40657057,52.1849624 C4.70074012,52.9419439 5.61008496,52.6712839 6.57205843,52.1849623 C8.02358402,51.282651 8.60656078,50.6759993 9.60915364,49.7936876 C9.00286488,51.7288069 8.89213285,52.0596322 8.66484079,53.0722739 C7.965304,56.0502013 9.51007762,54.8520639 9.93569834,54.2204127 C10.3711645,53.4028169 12.5879688,46.5351006 13.1301496,44.4846507 C13.6723304,42.4342008 12.4890694,42.6498622 11.9352327,42.8403575 C11.5680686,42.8403576 11.4105359,44.5148166 10.7343111,45.848284 C9.98232235,47.1667518 9.73736968,47.4424117 8.39657612,48.7860455 C7.45226326,49.5680264 6.4729824,50.7461643 5.23709287,50.4605046 C2.73617379,49.1318704 6.51377841,40.845073 10.2620664,37.9774764 C13.0893536,37.5313207 12.5764894,39.0804495 13.975563,39.9577613 C15.3105286,40.2184216 15.0131239,39.125615 14.8615959,38.2733025 C14.3194151,37.2406611 12.9611375,36.2680182 11.57372,36.002358 C8.24504808,35.8720279 4.07388429,41.1656399 2.29889707,46.5752662 C2.29372308,46.6502909 2.28845913,46.723851 2.28312177,46.7959855 L2.28312177,46.7959855 Z M15.2532433,44.4759028 C15.5251485,43.6335828 17.1910833,43.5509487 16.8057125,44.9668983 C15.6157836,47.5558767 15.1796022,48.7649828 15.1796022,48.7649829 C15.1796022,48.764983 14.3068962,51.4884782 16.8453653,49.7521276 C18.9419884,47.5507228 18.5736117,47.6745883 19.4971283,45.5817592 C19.8598403,44.1555018 21.6107455,42.7292444 21.3726567,45.3647796 C20.1090868,47.7936434 19.9618047,48.8529429 19.9618048,48.8529429 C19.961805,48.8529428 18.9588108,52.2582999 22.080915,49.5246685 C23.8261554,44.6980362 24.7100192,42.9256082 26.6025417,37.7837287 C26.9992418,37.0137352 28.8181233,36.2282801 28.2628117,38.4917035 C26.9029421,41.6957146 23.8658083,49.3179969 23.8658083,49.3179969 C23.8658083,49.3179969 23.1063962,51.6693803 26.0868829,49.312843 C27.5205653,48.0363925 27.3617822,48.1810454 28.3421174,47.0751891 C28.7897998,44.842861 30.4895511,43.0805687 30.6141743,45.7987384 C31.6851446,44.0108488 35.9858483,42.5225728 35.5778187,46.0107357 C34.200955,48.1552759 32.8184266,49.6021489 32.8184266,49.6021489 C32.8184266,49.6021489 31.622833,51.4419213 33.6003259,50.434161 C35.5834834,48.7649829 37,47.5144737 37,47.5144737 L36.8583827,49.5401302 C36.8583827,49.5401302 35.5438306,50.9148486 33.9005546,51.927591 C32.5350202,52.5477776 29.5662061,53.4521162 30.6993164,50.150009 L33.4700379,46.7496341 C33.4700379,46.7496341 34.274596,45.2768198 32.2744444,46.0107359 C28.5063935,48.9718263 27.8264587,53.7776712 26.2230072,57.0797783 C25.531743,58.020366 23.8318201,58.8212829 24.3304848,56.3924191 C25.2766602,54.2789744 27.1182004,50.4547766 27.1182004,50.4547766 C27.1182004,50.4547766 22.4153035,54.485646 22.0186034,51.1886928 C20.7437041,52.4340481 17.8426946,53.7208064 18.3017064,50.294662 C16.4601662,52.7183719 12.2274389,53.9120163 13.1228037,49.8296079 C14.3014032,46.4860978 14.3918666,46.0830622 15.2532433,44.4759028 Z" id="Path-1"/>
            <path d="M6,68 C14.1680244,70.4100026 23.2325187,71.0360899 34,68 C32.3866259,70.9632487 31.871351,71.8709886 31.871351,71.8709886 C31.871351,71.8709886 31.1989138,80.2178945 31.0196877,86.467668 C29.081127,89.7018166 12.0278344,89.9834692 9.24915139,86.467668 C8.72267481,80.3327061 8.2742702,71.8709886 8.2742702,71.8709886 C8.2742702,71.8709886 7.57976918,71.1613074 6,68 Z" id="Path-2"/>
            <path d="M0.00412108668,21.9961689 C0.453054774,21.5777248 -0.402649468,19.9942942 24.7590642,19.4522188 C26.0063326,13.8847381 26.766997,11.268783 26.766997,11.268783 L37.6841381,1.05325022e-06 C37.6841381,1.05325022e-06 39.2472846,-0.0105280036 40,2.07388081 C38.2315676,4.03567732 30.3031706,12.4847164 30.3031706,12.4847164 L28.2423602,19.9226291 C28.2423602,19.9226291 39.0226435,20.3108447 39.9999987,21.9961692 C39.513396,23.5904682 36.1707581,24.7041682 19.7395778,25 C9.68194252,24.9184849 -0.231577739,24.1522431 0.00412108668,21.9961689 Z M23.4317926,23.0997546 C25.2801822,23.4672668 25.5070584,23.8899364 27.6062058,23 C28.0183461,23.1600611 28.0600486,23.2729068 27.9436253,23.5197186 C27.827202,23.7665305 25.366753,24.491082 23.0018315,23.469885 C22.9749646,23.0393607 23.2496946,23.1338788 23.4317926,23.0997546 Z" id="Path-3"/>
        </g>
    </g>
</symbol><symbol id="icon-heart" viewBox="0 0 512 512"><path d="M457.901 146.444c-21.406-92.128-156.198-115.523-201.901-22.252-45.703-93.271-180.494-69.878-201.901 22.252-34.843 149.958 162.787 218.142 201.901 300.806 39.114-82.664 236.744-150.846 201.901-300.806z"/></symbol><symbol id="icon-internet-explorer" viewBox="0 0 512 512">
<path id="internet-explorer-icon" d="M277.563,367.813c-45.341,0-77.633-39.52-78.758-79.697h262.84  c4.013-86.523-25.749-147.885-101.991-190.688c11.139-12.252,102.394-44.494,79.04,43.136l8.968,13.037  c39.586-120.579-79.313-114.023-157.988-75.755C176.275,77.47,112.068,148.813,94.421,222.032  c30.654-44.014,70.28-70.097,96.123-77.35C42.647,263.624-26.077,525.958,174.774,442.817l-13.94-8.403  c-120.871,38.121-74.169-69.615-50.908-85.153c27.844,56.955,87.172,102.474,159.751,102.474c92.37,0,160.988-47.701,188.213-126.82  H351.254C335.857,352.34,314.455,367.813,277.563,367.813z M277.563,163.55c45.34,0,75.567,35.577,76.693,70.873H199.932  C201.434,204.384,229.125,163.55,277.563,163.55z"/>
</symbol><symbol id="icon-javascript" viewBox="0 0 512 512">
<path id="javascript-code-icon" d="M130.269,256c17.686,7.75,30.25,24.5,30.25,54v34.457c0,24.955,22.379,32.912,41.547,33.494  v36.861c-52.264,0-83.111-17.9-83.111-66.234v-38.383c0-24.547-19.5-35.537-39.354-35.537v-37.316  c19.854,0,39.354-10.989,39.354-35.536v-38.384c0-48.333,30.848-66.234,83.111-66.234v36.861  c-19.168,0.582-41.547,8.539-41.547,33.495V202C160.519,231.5,147.954,248.25,130.269,256z M351.481,202v-34.456  c0-24.956-22.379-32.913-41.547-33.495V97.188c52.264,0,83.111,17.901,83.111,66.234v38.384c0,24.547,19.5,35.536,39.354,35.536  v37.316c-19.854,0-39.354,10.99-39.354,35.537v38.383c0,48.334-30.848,66.234-83.111,66.234v-36.861  c19.168-0.582,41.547-8.539,41.547-33.494V310c0-29.5,12.564-46.25,30.25-54C364.046,248.25,351.481,231.5,351.481,202z   M283.546,272.288c0,0,0,14.832,0,31.154c0,27.851-17.6,50.385-43.244,55.457l-4.86-10.504c11.876-4.475,19.408-18.845,19.408-29.64  h-20.046v-46.468H283.546z M283.546,172.051h-48.742v48.821h48.742V172.051z"/>
</symbol><symbol id="icon-like" viewBox="0 0 512 512"><path d="M426.547 317.659c15.018-23.439 7.4-55.504-3.206-65.709 4.254-12.984 8.049-37.74-2.757-55.588 0 0-81.13-.059-82.181 0 13.101-56.312 18.861-145.896-38.427-145.896-31.705 0-39.472 28.578-48.243 56.697-36.27 116.279-122.634 117.437-174.694 123.257v179.348c79.606 0 119.613 6.578 188.043 35.68 71.917 30.586 161.004 21.398 151.177-61.133 19.13-18.9 18.572-48.898 10.288-66.656zm-26.931-93.961c2.308 17.379-5.953 36.823-24.673 36.823h-33.963c-12.972 0-17.506-10.606-17.506-19.198 0-7.316 6.367-17.625 18.107-17.625h58.035zm-292.109 156.922v-122.434c100.511-8.602 150.312-69.653 171.052-134.208 6.428-20.006 8.345-47.541 25.457-42.371 18.562 5.605 18.001 59.383 3.8 111.158-6.062 22.105-22.153 40.672-8.477 67.227-24.322 8.352-32.245 49.939-11.818 67.254-16.217 15.859-15.723 47.547 3.992 62.713-7.399 8.768-10.485 18.75-9.431 29.52-33.043-11.517-90.774-38.859-174.575-38.859zm247.593 51.404h-25.424c-12.493 0-18.085-8.201-18.085-16.58 0-9.816 6.344-18.57 18.085-18.57h56.687c-1.052 13.438-7.033 35.15-31.263 35.15zm18.852-56.582h-51.221c-12.494 0-18.086-10.801-18.086-18.561 0-7.766 5.592-18.572 18.086-18.572h78.477c2.21 18.522-6.668 37.133-27.256 37.133zm6.697-58.242h-57.918c-12.438 0-18.101-11.062-18.101-18.578 0-7.605 5.597-18.248 18.101-18.248h82.169c2.317 17.133-5.548 36.826-24.251 36.826z"/></symbol><symbol id="icon-linux" viewBox="0 0 512 512">
<path id="linux-os-icon" d="M407.489,377.012c-9.705-7.656-5.932-24.57-16.021-32.908c0.001,0,0.002,0.001,0.003,0.002  c9.768-57.771-17.591-108.688-50.218-141.315c-27.386-27.387-18.551-54.021-18.551-77.083C322.703,88.856,307.16,50,260.031,50  c-50.387,0-64.175,40.861-64.676,64.175c-1.205,55.996,11.647,70.54-22.061,111.304c-39.643,47.944-45.489,95.769-36.549,121.14  c0-0.001,0-0.001,0.001-0.002c-4.182,4.742-9.833,9.993-20.397,14.344c-29.16,12.367-7.791,33.039-15.845,47.723  c-9.321,16.993,0.939,37.251,26.246,35.044c16.21-1.409,33.262,5.228,48.067,11.776c20.834,9.218,39.64,0.285,46.847-14.104  c24.309-5.825,54.323-5.085,78.613,1.001c7.476,20.296,36.73,28.439,57.081,6.732c8.931-9.525,23.026-24.205,39.652-29.611  C416.507,413.183,420.146,386.998,407.489,377.012z M246.012,197.365c-5.629,0-10.289-4.435-17.661-9.75  c-9.33-6.73-18.801-10.606-18.701-17.687c0-4.847,6.687-6.354,15.349-11.692c9.285-5.725,12.899-11.517,22.033-11.517  c9.356,0,12.199,4.601,24.887,9.938c12.517,5.265,21.199,7.323,21.199,13.271c0,6.096-13.077,10.467-20.442,14.899  c-10.787,6.488-16.354,12.538-26.646,12.538C235.739,197.365,251.642,197.365,246.012,197.365z M275.406,107.824  c15.568,2.419,17.328,29.028,9.858,42.131c-1.887-0.75-3.423-1.336-6.263-2.486c3.239-9.331,3.193-24.669-7.689-25.649  c-6.895-0.621-11.347,8.247-12.302,15.829c-2.712-1.095-5.66-1.891-9.25-2.175C250.883,119.625,261.408,105.649,275.406,107.824z   M215.325,113.507c11.929-2.89,18.976,10.61,19.031,24.638c-1.964,0.948-3.753,2.074-5.46,3.268  c-0.746-5.895-3.455-15.406-10.227-13.366c-7.272,2.19-6.09,18.582-2.042,21.947c-1.779,1.022-3.538,1.936-5.398,2.916  C203.824,140.771,203.829,116.292,215.325,113.507z M177.976,443.86c-34.658-15.328-46.437-11.844-53.052-11.844  c-13.726,0-18.203-9.938-13.046-19.343c4.379-7.98,3.027-16.344,1.941-23.061c-1.664-10.281-1.969-13.641,8.438-18.069  c14.39-5.936,20.785-13.568,25.549-19.291c13.386-16.081,26.896,9.207,37.969,31.753c7.176,14.608,21.334,22.012,25.672,38.192  C215.455,437.15,198.919,453.126,177.976,443.86z M301.336,411.69c-24.422,11.557-55.56,16.856-78.833,5.125  c-3.447-9.666-8.956-15.917-14.881-22.197l0,0c9.511-2.437,16.586-13.98,8.122-25.581c-9.025-12.366-27.445-21.005-46.085-35.012  c-17.429-13.098-22.938-45.374,0.794-81.473c-11.571,31.964-4.805,61.418,1.003,69.858c1.211-16.964,2.59-45.291,26.405-79.217  c12.027-17.132,12.202-39.767,12.473-53.913c3.638,2.5,7.368,4.708,10.939,7.286c8.04,5.794,14.784,12.157,24.456,12.158h0.027  c14.3,0,22.179-8,33.207-14.633c4.301-2.588,10.816-5.187,16.285-8.808c9.174,42.502,47.213,93.623,49.348,122.754  c8.858-17.715-2.506-60.332-2.506-60.332c14.873,22.062,16.043,40.444,16.712,63.006c10.403,4.137,21.559,14.916,22.569,29.11  c-1.331-0.229-2.765-0.395-4.32-0.481c-2.229-15.773-46.04-38.942-49.974-9.24c-21,3.097-13.367,35.462-17.587,56.438  C307.562,396.119,303.945,403.708,301.336,411.69z M386.878,410.986c-17.381,6.518-29.127,20.372-37.199,28.981  c-15.542,16.58-36.097,8.633-38.269-6.875c-2.325-16.588,6.349-25.627,10.086-44.195c3.408-16.948-0.411-43.025,7.604-45.798  c5.215,30.1,36.472,17.454,43.613,9.226c11.604,0,12.572,3.806,15.167,14.373c1.623,6.609,3.862,12.175,10.194,18.718  C405.485,393.072,403.215,404.859,386.878,410.986z M245.658,187.709c-11.496,0-20.096-7.438-27.078-13.193  c-3.586-2.952,0.876-8.37,4.461-5.419c6.838,5.638,13.724,11.593,22.616,11.593c10.717,0,20.146-8.909,32.961-13.812  c4.351-1.656,6.838,4.899,2.509,6.556C268.717,178.183,258.734,187.709,245.658,187.709z"/>
</symbol><symbol id="icon-magnifier" viewBox="0 0 100 100"><g xmlns="http://www.w3.org/2000/svg"><path d="M-192 0h185v99h-185zM0-36h100v30h-100z"/><text transform="translate(66 -19.5)" font-family="'Helvetica'" font-size="2.4">http://thenounproject.com</text><text transform="translate(7.166 -24.5)"><tspan x="0" y="0" font-family="'Helvetica-Bold'" font-size="6.158">The Noun Project</tspan><tspan x="1.12" y="4.8" font-family="'Helvetica-Bold'" font-size="4">Icon Template</tspan></text><text transform="translate(-178.5 10.5)" font-family="'Helvetica-Bold'" font-size="6.158">Reminders</text><path stroke="#fff" stroke-miterlimit="10" d="M8-14.5h10M-179 16.5h17"/><path d="M-170.802 31.318h8.721v8.642h-8.721zM-164.455 42.312h4.747v-4.703h-4.747v4.703zm5.189.437h-5.63v-5.579h5.63v5.579zm-6.955 1.313h8.279v-8.203h-8.279v8.203zm8.721.438h-9.163v-9.079h9.163v9.079zM-166.149 44.133l-.143-.142 8.279-8.204.142.142z"/><path fill="none" d="M-179 58h35v32.5h-35z"/><text transform="translate(-179 60.157)"><tspan x="0" y="0" font-family="'Helvetica-Bold'" font-size="3">Strokes</tspan><tspan x="0" y="5" font-family="'Helvetica'" font-size="2.4">Try to keep strokes at 4px</tspan><tspan x="0" y="10" font-family="'Helvetica'" font-size="2.4">Minimum stroke weight is 2px</tspan><tspan x="0" y="14.5" font-family="'Helvetica'" font-size="2.4">For thicker strokes use even</tspan><tspan x="0" y="17.5" font-family="'Helvetica'" font-size="2.4">numbers: 6px, 8px etc.</tspan><tspan x="0" y="22" font-family="'Helvetica-Bold'" font-size="2.4">Remember to expand strokes</tspan><tspan x="0" y="25" font-family="'Helvetica-Bold'" font-size="2.4">before saving as an SVG</tspan></text><path fill="none" d="M-136.5 58h35v32.5h-35z"/><text transform="translate(-136.5 60.157)"><tspan x="0" y="0" font-family="'Helvetica-Bold'" font-size="3">Size</tspan><tspan x="0" y="5" font-family="'Helvetica'" font-size="2.4">Cannot be wider or taller than</tspan><tspan x="0" y="8.5" font-family="'Helvetica'" font-size="2.4">100px (artboard size)</tspan><tspan x="0" y="13.5" font-family="'Helvetica'" font-size="2.4">Scale your icon to fill as much of</tspan><tspan x="0" y="16.5" font-family="'Helvetica'" font-size="2.4">the artboard as possible</tspan></text><path fill="none" d="M-94 58h35v32.5h-35z"/><text transform="translate(-94 60.157)"><tspan x="0" y="0" font-family="'Helvetica-Bold'" font-size="3">Ungroup</tspan><tspan x="0" y="5" font-family="'Helvetica'" font-size="2.4">If your design has more than one</tspan><tspan x="0" y="8" font-family="'Helvetica'" font-size="2.4">shape, make sure to ungroup</tspan></text><path fill="none" d="M-50 58h35v32.5h-35z"/><text transform="translate(-50 60.157)"><tspan x="0" y="0" font-family="'Helvetica-Bold'" font-size="3">Save as</tspan><tspan x="0" y="5" font-family="'Helvetica'" font-size="2.4">Save as .SVG and make sure</tspan><tspan x="0" y="8" font-family="'Helvetica'" font-size="2.4">“Use Artboards” is checked</tspan></text><text transform="matrix(1.007 0 0 1 -125.542 30.593)" font-family="'Helvetica'" font-size="2.573">100px</text><text transform="matrix(1.007 0 0 1 -41 39)" font-family="'Helvetica-Bold'" font-size="5.146">.SVG</text><path d="M-126.514 34.815h10.261v10.185h-10.261zM-126.477 31.766h.522v2.337h-.522zM-116.812 31.766h.523v2.337h-.523zM-127 32.337h11.233v.572h-11.233zM-83.805 33.844h10.305v10.156h-10.305zM-76.809 28.707h3.308v3.261h-3.308z"/><path stroke="#fff" stroke-miterlimit="10" d="M-178.5 22.5h30v30h-30zM-136.5 22.5h30v30h-30zM-93.5 22.5h30v30h-30zM-49.5 22.5h30v30h-30z"/></g><path d="M81.405 76.481l-19.392-19.392c3.19-4.216 5.085-9.467 5.085-15.162 0-13.891-11.26-25.151-25.151-25.151s-25.151 11.26-25.151 25.151 11.26 25.151 25.151 25.151c5.675 0 10.91-1.881 15.118-5.051l19.397 19.396c1.64 1.64 4.074 1.861 5.439.497 1.366-1.364 1.143-3.8-.496-5.439zm-39.458-15.636c-10.446 0-18.916-8.471-18.916-18.917 0-10.448 8.47-18.917 18.916-18.917s18.917 8.47 18.917 18.917c-.001 10.446-8.471 18.917-18.917 18.917z"/></symbol><symbol id="icon-menu" viewBox="0 0 512 512"><path d="M462 163.5h-412v-65h412v65zm0 60h-412v65h412v-65zm0 125h-412v65h412v-65z"/></symbol><symbol id="icon-module" viewBox="0 0 100 96"><title>Untitled 6</title><g xmlns:sketch="http://www.bohemiancoding.com/sketch/ns" xmlns="http://www.w3.org/2000/svg" sketch:type="MSPage" fill="#DDF0F2"><path d="M100 30.746l-.014-.199-.013-.188-.037-.187-.039-.194-.059-.171-.065-.194-.083-.167-.087-.177-.109-.163-.104-.156-.132-.153-.121-.138-.146-.129-.146-.127-.326-.219-47.145-27.218c-.919-.531-2.052-.529-2.97.004l-46.82 27.209-.001.001-.001.001-.009.005-.144.097-.177.12-.149.13-.142.125-.135.154-.118.135-.115.172-.098.147-.089.18-.081.164-.064.186-.061.177-.04.197-.037.183-.014.201-.013.185-.096 34.502c-.003 1.061.562 2.043 1.481 2.573l47.145 27.219c.458.266.97.397 1.48.397l.385-.024.069-.015.31-.062.069-.022.3-.102.083-.041.263-.129.006-.004.005-.003 46.833-27.217c.909-.528 1.471-1.5 1.474-2.553l.097-34.499v-.013000000000000001zm-50.103-23.79l17.747 10.246-41.06 23.706-17.613-10.169 40.926-23.783zm-2.738 80.389l-41.229-23.804.079-27.67 41.228 23.803-.078 27.671zm3.041-32.803l-17.691-10.213 41.061-23.706 17.556 10.136-40.926 23.783zm43.781 9.001l-40.897 23.768.078-27.637 40.898-23.767-.079 27.636zM43.817 81.419l-17.703-10.221.033-11.882 17.704 10.221-.034 11.882z" sketch:type="MSShapeGroup"/></g></symbol><symbol id="icon-safari" viewBox="0 0 512 512">
<path id="safari-icon" d="M232.301,254.026L181.353,381.24l98.312-91.443l50.065-125.385L232.301,254.026z M258.714,288.704  c-9.152,1.346-17.663-4.984-19.005-14.14c-1.345-9.155,4.987-17.663,14.142-19.006c9.15-1.344,17.662,4.988,19.003,14.141  C274.199,278.854,267.869,287.362,258.714,288.704z M189.263,70.294C189.263,59.104,200.988,50,215.4,50  c14.411,0,26.137,9.104,26.137,20.294c0,4.378-1.802,8.433-4.85,11.753c-1.197-2.397-2.682-4.676-4.47-6.605  c1.066-1.583,1.679-3.326,1.679-5.148c0-6.859-8.471-12.653-18.496-12.653c-10.026,0-18.496,5.794-18.496,12.653  c0,4.239,3.241,8.068,8.081,10.377c-0.867,2.259-1.433,4.81-1.666,7.61C194.974,84.888,189.263,78.101,189.263,70.294z   M206.463,297.021l-65.758-0.835l60.421-28.704c0.491-7.299,2.407-14.211,5.483-20.459L178.667,218l37.686,15.144  c4.164-4.332,9.024-7.981,14.404-10.771l3.512-65.619l27.153,59.617l-9.292,8.546c-29.238,2.414-49.178,31.316-40.669,59.626  L206.463,297.021z M256,85.696c-7.56,0-15.011,0.459-22.338,1.326c-2.772-7.341-8.463-13.987-16.084-12.278  c-7.711,1.729-9.708,10.093-9.603,17.146C127.327,113.12,67.848,186.533,67.848,273.848C67.848,377.762,152.086,462,256,462  c103.913,0,188.152-84.238,188.152-188.152C444.152,169.935,359.913,85.696,256,85.696z M295.865,418.465l-12.168-18.068  l-3.066,21.39c-80.517,13.228-153.993-39.432-170.92-114.771l16.286-10.427l-18.894-4.888  c-9.267-78.613,42.849-146.804,113.909-163.71l10.006,15.658l3.697-18.252c77.444-10.937,146.725,38.42,165.926,108.679  l-15.817,12.434l18.951,1.691C417.257,326.881,367.704,398.783,295.865,418.465z M368.221,249.911l-57.607,27.62  c-0.625,5.447-2.045,10.652-4.145,15.501L335.667,323l-38.382-15.51c-4.406,5.009-9.702,9.216-15.646,12.363l-1.523,66.694  l-28.59-59.652l10.294-9.575c27.924-3.516,46.66-31.236,38.902-58.687l4.626-11.585L368.221,249.911z"/>
</symbol><symbol id="icon-script" viewBox="-10 -10 200 173">
    <title>Untitled 5</title>
    <description>Created with Sketch (http://www.bohemiancoding.com/sketch)</description>
    <defs/>
    <g xmlns:sketch="http://www.bohemiancoding.com/sketch/ns" xmlns="http://www.w3.org/2000/svg" id="Page-1" stroke="none" stroke-width="1" fill="none" fill-rule="evenodd" sketch:type="MSPage">
        <path d="M7.99740716,0 C3.58056115,0 0,3.57524125 0,7.99986275 L0,155.000137 C0,159.418339 3.58403976,163 7.99740716,163 L182.002593,163 C186.419439,163 190,159.424759 190,155.000137 L190,7.99986275 C190,3.58166055 186.41596,0 182.002593,0 L7.99740716,0 Z M22.0059557,12 C17.5843885,12 14,15.5756579 14,19.9978228 L14,143.002177 C14,147.419253 17.5724026,151 22.0059557,151 L167.994044,151 C172.415612,151 176,147.424342 176,143.002177 L176,19.9978228 C176,15.5807473 172.427597,12 167.994044,12 L22.0059557,12 Z" id="Rectangle-1" fill="#DDF0F2" sketch:type="MSShapeGroup"/>
        <path d="M75,51.8961039 L21,80.8249845 L21,87.925603 L75,120 L75,103.418182 L42.0572086,83.7589981 L75,66.8246753 L75,51.8961039 Z" id="Path-1" fill="#DDF0F2" sketch:type="MSShapeGroup"/>
        <path d="M169,51 L115,79.8847481 L115,86.9745342 L169,119 L169,102.443478 L136.057209,82.8142857 L169,65.9057971 L169,51 Z" id="Path-1" fill="#DDF0F2" sketch:type="MSShapeGroup" transform="translate(142.000000, 85.000000) scale(-1, 1) translate(-142.000000, -85.000000) "/>
        <path d="M78.0853914,120.074219 L98.4451309,50.9257812 L112.298828,50.9257812 L92.4384766,120.074219 L78.0853914,120.074219 Z" id="Path-3" fill="#DDF0F2" sketch:type="MSShapeGroup"/>
    </g>
</symbol><symbol id="icon-service" viewBox="0 0 100 100"><title>Untitled 4</title><path xmlns:sketch="http://www.bohemiancoding.com/sketch/ns" d="M99.239 41.312c-1.539-8.726-5.263-16.514-10.497-22.918l-.138-.18-.003.012c-10.771-13.063-27.878-20.288-45.705-17.718l-.005-.028-3.15.555.015.083c-17.635 3.73-31.277 16.401-36.843 32.403l-.119-.177c-.389 1.1-.74 2.216-1.051 3.346l.141.142c-1.869 6.905-2.269 14.325-.884 21.844v.003l-.153.007c.065.37.094.733.201 1.09 5.188 26.042 29.825 43.445 56.049 39.687l.01.054 1.511-.267.051-.007.04-.009 1.549-.273-.01-.054c26.319-5.496 43.693-30.928 38.991-57.595zm-9.901-14.131l.256.376c2.817 4.351 4.618 9.17 5.439 14.321v.002l.151.004s-.165 3.477-1.532 5.415c-1.486 2.105-3.886 4.288-7.028 6.312-1.31.842-2.705 1.651-4.214 2.423.003-3.764-.316-7.688-1.021-11.689-.551-3.123-1.3-6.125-2.215-8.973 4.59-2.494 8.109-5.31 10.163-8.192zm-54.386 39.268c-1.919-.003-3.767-.08-5.541-.222-1.457-3.764-2.571-7.767-3.307-11.944-.5-2.838-.806-5.659-.929-8.442 6.007.634 13.034.414 20.44-.785l3.56 20.189c-4.86.791-9.642 1.208-14.222 1.203zm18.396-22.67c7.36-1.408 14.031-3.603 19.453-6.252.836 2.661 1.516 5.419 2.016 8.261.737 4.184 1.06 8.329.978 12.371-1.62.741-3.332 1.445-5.136 2.105-4.295 1.568-8.92 2.81-13.747 3.73l-3.565-20.215zm9.399-37.621c4.782 1.097 9.255 3.088 13.294 5.916 3.234 2.265 5.941 4.981 8.265 8.084-.126.208-.254.415-.403.626-1.351 1.916-3.579 3.905-6.444 5.75-.775.5-1.593.986-2.445 1.459-3.9-10.75-10.263-18.984-17.302-22.628 1.686.153 3.37.411 5.035.792zm-9.139 2.292c2.832 1.337 5.565 3.515 8.126 6.474 2.625 3.032 4.919 6.714 6.818 10.943.606 1.349 1.157 2.739 1.664 4.158-1.891.937-3.938 1.813-6.139 2.618-3.85 1.407-7.997 2.523-12.323 3.352l-5.108-28.971c2.274-.157 4.609.315 6.962 1.427zm-14.029-.808l5.137 29.133c-4.388.71-8.704 1.084-12.841 1.079-2.354-.003-4.59-.127-6.699-.362-.009-1.515.033-3.017.142-4.501.34-4.649 1.242-8.916 2.678-12.683 1.402-3.676 3.235-6.674 5.451-8.912 1.854-1.87 3.912-3.124 6.131-3.754zm-26.844 14.491c2.876-4.106 6.456-7.563 10.644-10.275 1.432-.927 2.918-1.743 4.447-2.466-5.439 5.931-8.643 15.996-8.633 27.602-.978-.155-1.925-.336-2.838-.543-3.378-.768-6.197-1.893-8.155-3.254-.238-.165-.454-.336-.665-.506 1.181-3.754 2.917-7.297 5.2-10.559zm-8.223 35.201c-1-5.671-.859-11.366.417-16.928l.153-.601c3.21 2.238 7.943 3.846 13.678 4.705.126 3.294.479 6.682 1.085 10.122.776 4.403 1.911 8.588 3.331 12.479-1.851-.232-3.62-.534-5.29-.913-4.012-.91-7.364-2.246-9.692-3.865-1.86-1.294-3.05-2.759-3.538-4.287l-.143-.713zm30.859 34.908c-4.596-1.055-8.893-2.968-12.775-5.685-3.881-2.717-7.147-6.102-9.711-10.061-1.53-2.361-2.758-4.873-3.697-7.501 3.379 2.511 8.746 4.156 15.314 4.794 3.779 9.074 9.421 15.984 15.606 19.206-1.588-.149-3.17-.393-4.737-.753zm10.887-1.602c-2.642-1.247-5.193-3.279-7.583-6.04-2.448-2.83-4.589-6.265-6.361-10.211l-.139-.322c5.223.297 11.113-.032 17.28-1.039l3.339 18.937c-2.135.156-4.327-.281-6.537-1.324zm15.623-.645l-3.359-19.068c6.161-1.169 11.829-2.884 16.654-4.959l-.02.352c-.318 4.344-1.159 8.331-2.501 11.852-1.309 3.435-3.021 6.237-5.09 8.326-1.72 1.737-3.626 2.904-5.684 3.496zm15.377-5.804c-1.313.85-2.679 1.599-4.083 2.26 4.516-4.912 7.33-12.976 7.759-22.376 5.735-2.741 10.039-6.001 12.24-9.389.021 2.691-.262 5.371-.868 8.013-1.008 4.393-2.836 8.501-5.434 12.21-2.597 3.708-5.832 6.832-9.615 9.282z" sketch:type="MSShapeGroup" fill="#DDF0F2"/></symbol><symbol id="icon-terminal" viewBox="0 0 512 512">

<path id="window-command-icon" d="M50,73.5v365h412v-365H50z M412,388.5H100v-218h312V388.5z M241.458,280.395l-75.999,76.397   l-27.461-27.332l48.801-49.065l-48.869-49.134l27.461-27.33L241.458,280.395z M376,317.528H262.5v38H376V317.528z"/>

</symbol><symbol id="icon-twitter" viewBox="0 0 512 512"><path d="M256 50c-113.771 0-206 92.229-206 206s92.229 206 206 206 206-92.229 206-206-92.229-206-206-206zm103.599 170.506c3.021 67.199-47.096 142.124-135.802 142.124-26.981 0-52.096-7.911-73.238-21.466 25.347 2.987 50.646-4.044 70.734-19.786-20.907-.386-38.554-14.198-44.632-33.181 7.486 1.432 14.851 1.013 21.575-.816-22.976-4.617-38.839-25.317-38.321-47.453 6.44 3.58 13.81 5.729 21.642 5.977-21.278-14.221-27.303-42.318-14.785-63.789 23.563 28.906 58.77 47.928 98.478 49.92-6.969-29.886 15.702-58.667 46.542-58.667 13.742 0 26.16 5.802 34.874 15.088 10.884-2.143 21.108-6.119 30.341-11.594-3.567 11.157-11.144 20.521-21.008 26.433 9.665-1.153 18.874-3.722 27.441-7.523-6.405 9.582-14.505 17.998-23.841 24.733z"/></symbol><symbol id="icon-view" viewBox="0 0 512 512"><path d="M256.494 376.142c-83.277 0-158.968-57.287-206.494-126.949 47.956-67.222 123.636-113.334 206.494-113.334 83.032 0 158.965 45.31 205.506 112.907-44.129 73.545-119.672 127.376-205.506 127.376zm-162.891-126.369c39.783 49.138 98.528 91.363 162.892 91.363 87.675 0 144.426-65.7 163.013-90.981-39.54-46.52-97.718-79.292-163.013-79.292-84.815 0-142.618 55.824-162.892 78.91zm164.707-63.141c-38.312 0-69.368 31.057-69.368 69.368s31.057 69.368 69.368 69.368 69.369-31.057 69.369-69.368-31.058-69.368-69.369-69.368zm-.064 69.345c-9.792 9.791-25.666 9.791-35.458 0-9.792-9.792-9.792-25.667 0-35.458 9.792-9.792 25.666-9.792 35.458 0 9.792 9.791 9.792 25.666 0 35.458z"/></symbol><symbol id="icon-windows" viewBox="0 0 512 512">
<path id="windows-os-icon" d="M50.783,244.251V107.57l165.857-23.264v159.944H50.783z M240.139,244.251h221.078V50L240.139,81.011  V244.251z M216.641,267.748H50.783V404.43l165.857,23.264V267.748z M240.139,267.748V430.99L461.217,462V267.748H240.139z"/>
</symbol></svg>