<svg xmlns="http://www.w3.org/2000/svg"><symbol id="icon-bookmarklet" viewBox="0 0 34 53">
    <defs/>
    <g xmlns="http://www.w3.org/2000/svg" id="Page-1" stroke="none" stroke-width="1" fill="none" fill-rule="evenodd">
        <path d="M2,24.8475751 L9.03429733,1 L34,7.16331244 L23.2009379,11.8073243 C23.2009379,11.8073243 41.5625449,38.8409765 7.41553853,52 C17.1911208,44.8241504 25.8431765,33.8386671 13.1292168,17.4341801 C8.20790996,20.1431871 2,24.8475751 2,24.8475751 Z" id="Path-1" fill="#DDF0F2"/>
    </g>
</symbol><symbol id="icon-chrome" viewBox="0 0 23.303 23.7"><g xmlns="http://www.w3.org/2000/svg" fill="#DDF0F2"><path d="M22.355 7.477h-7.326c1.315 1.009 2.184 2.583 2.184 4.372 0 1.42-.665 2.614-1.434 3.683-1.313 1.827-4.442 7.829-4.442 7.829l.354.018c6.367 0 11.529-5.162 11.529-11.529-.001-1.549-.311-3.024-.865-4.373zM11.666 6.329c2.522-.018 10.089-.095 10.089-.095-1.973-3.526-5.736-5.914-10.065-5.914-3.61 0-6.83 1.661-8.943 4.258l3.522 6.255c.476-2.555 2.705-4.485 5.397-4.504zM11.689 17.372c-2.409 0-4.245-1.628-5.191-3.702-.952-2.087-4.546-7.973-4.546-7.973-1.128 1.782-1.791 3.887-1.791 6.152 0 5.783 4.262 10.558 9.814 11.388l3.583-6.213c-.586.214-1.21.348-1.869.348z"/><circle cx="11.689" cy="11.85" r="3.728"/></g></symbol><symbol id="icon-cli" viewBox="-5 -5 100 80"><title>Untitled 5</title><path xmlns:sketch="http://www.bohemiancoding.com/sketch/ns" d="M-.261.331v70.338h90v-70.338h-90zm19.184 53.481l-6.394-6.396 12.788-12.788-12.788-12.788 6.394-6.395 19.183 19.183-19.183 19.184zm54.641-1.164h-29.064v-8.574h29.064v8.574z" sketch:type="MSShapeGroup" fill="#DDF0F2"/></symbol><symbol id="icon-fastly" viewBox="0 0 1709 768"><g xmlns="http://www.w3.org/2000/svg" fill="#ffffff"><path d="M1154.2 134.3v421.1h126.4v-64.3h-41.8v-420.9h-84.7zM55.9 491.1h43v-203.2h-43v-55.9l43-7.1v-56.6c0-68.5 14.9-98.2 102.3-98.2 18.9 0 41.2 2.8 60.8 6.3l-11.6 68.9c-13.3-2.1-19.8-2.5-28.2-2.5-30.8 0-38.6 3.1-38.6 33.1v49.1h63.9v62.9h-63.9v203.1h42.5v64.3h-170.2v-64.2zM1111.1 470.7c-13.2 2.8-24.8 2.5-33.2 2.7-34.8.9-31.8-10.6-31.8-43.5v-142h66.3v-62.9h-66.4v-154.8h-84.7v377.3c0 74.1 18.3 107.9 98 107.9 18.9 0 44.8-4.9 64.4-9l-12.6-75.7zM1637.2 491.4c17.8 0 32.2 14.1 32.2 32 0 17.8-14.4 31.9-32.2 31.9-17.8 0-32.1-14.1-32.1-31.9 0-17.8 14.3-32 32.1-32m0 58.9c14.8 0 26.8-12.1 26.8-26.9 0-14.8-12-26.6-26.8-26.6s-26.7 11.8-26.7 26.6 11.9 26.9 26.7 26.9m5.9-11.2l-6.5-9.5h-4.5v9.5h-7.2v-31.4h13.1c7.8 0 12.6 3.9 12.6 10.9 0 5.1-2.6 8.6-6.6 9.8l7.8 10.8h-8.7zm-10.9-15.8h5.7c3.3 0 5.5-1.3 5.5-4.7 0-3.3-2.2-4.6-5.3-4.6h-5.9v9.3zM855.6 287.8v-11.3c-25.6-4.7-51.1-4.7-64.9-4.7-39.4 0-44.2 20.9-44.2 32.2 0 16 5.5 24.7 48.2 34 62.4 14 125.1 28.6 125.1 106 0 73.4-37.8 111.3-117.3 111.3-53.2 0-104.8-11.4-144.2-21.4v-63.2h64.1v11.2c27.6 5.3 56.5 4.8 71.6 4.8 42 0 48.8-22.6 48.8-34.6 0-16.7-12.1-24.7-51.5-32.7-74.2-12.7-133.2-38-133.2-113.5 0-71.4 47.7-99.4 127.3-99.4 53.9 0 94.8 8.4 134.2 18.4v62.8h-64zM465.9 343.4l-6.4-6.4-32.7 28.5c-1.7-.6-3.4-.9-5.3-.9-8.8 0-16 7.4-16 16.4 0 9.1 7.2 16.4 16 16.4s16-7.4 16-16.4c0-1.7-.3-3.4-.7-4.9l29.1-32.7zM595.6 470.7l-.1-263.6h-84.7v24.7c-17.4-10.5-36.9-17.9-57.6-21.8h.5v-29.2h10.3v-21.5h-85.3v21.5h10.3v29.2h.6c-81 14.9-142.4 85.8-142.4 171.2 0 96.2 77.9 174.1 174.1 174.1 32.8 0 63.5-9.1 89.7-24.9l15.3 24.9h89.5v-84.7h-20.2zm-169.1-.1v-10h-10.1v9.9c-45.5-2.6-81.8-39.2-84.2-84.7h10.1v-10.1h-10c2.7-45.2 38.9-81.4 84.1-84v10h10.1v-10c44.6 2.4 80.5 37.4 84.4 81.5v2.9h-10.2v10.1h10.2v2.8c-3.8 44.2-39.8 79.2-84.4 81.6zM1495 225h174.7v62.9h-41.8l-107.1 263.6c-30.7 74-81.1 143.7-157.9 143.7-18.9 0-44-2.1-61.5-6.3l7.7-76.9c11.2 2.1 25.8 3.5 33.5 3.5 35.6 0 75.8-22.1 88.4-60.5l-108.6-267.1h-41.8v-62.9h174.8v62.9h-41.7l61.5 151.3 61.5-151.3h-41.7v-62.9z"/></g></symbol><symbol id="icon-grunt" viewBox="0 0 69 90">
    <defs/>
    <g xmlns="http://www.w3.org/2000/svg" id="Page-1" stroke="none" stroke-width="1" fill="none" fill-rule="evenodd">
        <path d="M6.412196,55.7299805 C7.13192257,57.2471401 7.63055982,60.9976636 11.1653462,63.495745 C11.7309964,54.8662458 11.7309964,51.3741629 11.7309964,51.3741629 C11.7309964,51.3741629 11.4138735,48.5888671 8.62677986,46.9471959 C5.83968624,45.3055246 4.6550923,44.7321429 4.6550923,44.7321429 C4.6550923,44.7321429 -0.743384705,42.0247973 1.64479902,36.1277553 C4.39759482,34.0440151 5.04450447,33.0348424 5.04450447,33.0348424 C5.04450447,33.0348424 5.2808956,33.1530762 5.38378906,26.9165039 C3.65043,26.3619559 -0.519129599,15.2777972 9.05365581,16.6071429 C9.29585118,13.1312779 9.29585118,12.2968401 9.29585118,12.2968401 C9.29585118,12.2968401 7.41738597,8.79167832 1.6859564,8.06291853 C4.04248047,5.91064453 12.9905174,-2.22342408 24.0539393,10.9915597 C24.7736659,11.0260882 25.5023627,10.6243025 25.5023627,10.6243025 C25.5023627,10.6243025 24.5409677,6.12304568 30.1557853,2.11042132 C30.3568233,4.69953265 30.4634099,5.94621936 31.381009,7.00456892 C32.3302671,4.84863281 33.8377877,0.608432816 38.4442493,-0.0455147879 C38.1677561,2.621024 37.3261404,1.54645647 38.6331511,6.57453265 C41.2123472,4.93861607 41.4761761,3.82376616 44.6748441,3.82376535 C43.1667953,7.25359235 43.160463,6.79844448 43.1604634,10.6771415 C43.7629152,10.9718382 43.6981477,11.431536 44.9175671,11.0328892 C52.89524,-0.315987723 62.3909873,2.9359654 67.6433027,8.107387 C63.5692493,8.9831543 61.2443842,9.93582588 60.1194163,12.1602958 C59.9653399,14.9733189 60.1341907,14.2006138 59.9653399,16.6071429 C59.9057145,15.6769671 71.3580204,17.3128836 63.6067136,26.9165039 C63.634679,30.8579799 64.188193,33.3246722 64.188193,33.3246722 C64.188193,33.3246722 72.9256939,39.1510879 64.301112,45.2626256 C60.3832457,47.2160993 57.4800665,48.1598772 57.4800671,51.5771484 C57.4800676,54.9944196 57.2505349,58.6429269 58.0990108,63.0850656 C60.2196714,61.2780762 60.8512784,60.7366071 62.5761955,55.7299805 C64.9992046,56.6240583 71.562752,71.4524623 58.0172237,77.2589983 C54.6491778,82.1719796 54.0080724,84.4770159 46.1121866,86.1186872 C42.5235793,88.2620675 33.104342,93.3707103 23.6370889,86.2060547 C19.2284999,85.196882 16.1337811,86.0627094 11.5114904,77.7512905 C5.07721932,76.2309919 -1.39240486,66.265346 6.412196,55.7299805 Z M7.50761561,25.8895437 C7.50761561,25.8895437 2.51392281,18.9475514 8.51940136,18.7309046 C11.8766303,18.6097934 17.9855996,19.4280134 27.3299094,26.9452775 C24.5256668,22.9480852 25.4432641,22.6744735 17.7186043,17.9061454 C21.0673907,14.450422 37.3709914,7.85365513 51.4877108,17.9061453 C47.8737754,19.6799142 45.3032846,21.1227843 41.7154699,26.9452776 C46.7838962,23.4437779 51.686903,18.7309043 60.569773,18.7309047 C62.5814721,19.3050711 65.2548553,19.8308443 61.6583331,25.8895437 C61.3710229,24.1191754 61.6583336,23.2300676 61.6583336,23.2300676 C61.6583336,23.2300676 57.9573348,31.4776612 63.1824754,38.1183743 C63.0864415,37.4952916 63.1824754,35.9938267 63.1824754,35.9938267 C63.1824754,35.9938267 67.6586059,39.6601203 62.6424167,43.1145368 C58.0705173,45.7033866 55.412174,45.9793517 54.8895264,51.4714704 C54.9156455,57.0185198 54.5821657,57.7546039 55.3483262,64.8441861 C52.814245,65.6153217 51.9256692,65.9412485 48.5032728,65.9412494 C46.2652082,60.8268521 45.678451,59.0135847 42.9177404,53.2067871 C43.1353996,55.9136091 44.5872545,62.6678457 46.9907384,68.5298375 C40.9121094,68.5219901 22.1213891,68.4712437 22.1213891,68.4712437 C22.1213891,68.4712437 25.4131874,60.2333277 26.0141917,53.1597028 C24.5860832,55.819179 22.9806817,59.6230633 20.6381403,65.9412493 C16.8820013,65.9394182 15.9939516,65.6561279 13.630568,64.844186 C14.3914519,57.779977 14.2782691,55.5060686 14.2922516,51.9873056 C13.5453506,46.8705541 12.4106209,46.0321917 6.71533606,43.1145378 C1.51605028,40.0603376 5.65949077,35.9938277 5.65949077,35.9938277 L5.65949077,38.1183743 C5.65949077,38.1183743 10.2073817,33.5216413 7.50761561,23.2300677 C7.28309681,24.4474574 7.50761561,25.8895437 7.50761561,25.8895437 Z M10.5646067,30.1674107 C10.5646067,30.1674107 18.8554451,28.0350167 26.4318336,37.5792585 C28.1126906,37.8625488 29.2273697,38.2638114 31.1868306,37.5635638 C30.5597081,39.1921561 31.0997669,39.9319022 27.5987509,40.8680943 C27.4681554,42.2923933 27.4072108,43.6298479 25.1952652,46.3131278 C25.4999882,44.369594 26.301502,43.557466 24.9863124,40.8523996 C24.3069517,41.8989781 14.4315542,45.1012311 13.081539,33.5742188 C12.5240675,35.1635742 12.2802892,36.2493896 12.2802892,36.2493896 C12.2802892,36.2493896 10.259884,32.9922051 12.3673529,31.0722133 C11.6792858,30.7415771 10.5646067,30.1674107 10.5646067,30.1674107 Z M16.3036873,33.2043457 C17.5924939,33.4402902 21.0238587,35.3050886 24.1415306,39.2708915 C19.1514617,41.5291051 15.3718419,38.964059 16.3036873,33.2043457 Z M58.4353933,30.1674107 C58.4353933,30.1674107 50.1445549,28.0350167 42.5681664,37.5792585 C40.8873094,37.8625488 39.7726303,38.2638114 37.8131694,37.5635638 C38.4402919,39.1921561 37.9002331,39.9319022 41.4012491,40.8680943 C41.5318446,42.2923933 41.5927892,43.6298479 43.8047348,46.3131278 C43.5000118,44.369594 42.698498,43.557466 44.0136876,40.8523996 C44.6930483,41.8989781 54.5684458,45.1012311 55.918461,33.5742188 C56.4759325,35.1635742 56.7197108,36.2493896 56.7197108,36.2493896 C56.7197108,36.2493896 58.740116,32.9922051 56.6326471,31.0722133 C57.3207142,30.7415771 58.4353933,30.1674107 58.4353933,30.1674107 Z M52.6963127,33.2043457 C51.4075061,33.4402902 47.9761413,35.3050886 44.8584694,39.2708915 C49.8485383,41.5291051 53.6281581,38.964059 52.6963127,33.2043457 Z M23.041626,73.2887486 L29.4254103,73.3122907 C29.4254103,73.3122907 30.8971458,73.225708 30.4963891,74.7758266 C30.0956322,76.3259452 28.0145461,79.2608644 26.2901572,79.2608643 C24.5657683,79.2608641 22.4060608,76.8689837 21.7963513,74.8310198 C21.3175009,73.3517892 23.041626,73.2887486 23.041626,73.2887486 Z M45.958374,73.2887486 L39.5745897,73.3122907 C39.5745897,73.3122907 38.1028542,73.225708 38.5036109,74.7758266 C38.9043678,76.3259452 40.9854539,79.2608644 42.7098428,79.2608643 C44.4342317,79.2608641 46.5939392,76.8689837 47.2036487,74.8310198 C47.6824991,73.3517892 45.958374,73.2887486 45.958374,73.2887486 Z M22.1971081,70.7629395 C32.9956448,70.6371198 46.2504543,70.7629395 46.2504543,70.7629395 C46.2504543,70.7629395 50.6046776,70.959647 49.8991935,74.1069685 C49.1937138,77.2542899 46.7292835,86.9795445 34.798391,87.1840995 C23.9995905,87.1840995 20.3856556,79.9925014 19.1575298,74.0284947 C19.1488234,71.6285052 20.1590261,71.2272426 22.1971081,70.7629395 Z M14.841281,78.505685 C14.841281,78.505685 17.2091499,81.891828 20.057188,82.9138184 C18.1483824,79.0121024 17.9800592,78.5619245 17.9800592,78.5619245 L14.841281,78.505685 Z M54.158719,78.505685 C54.158719,78.505685 51.7908501,81.891828 48.942812,82.9138184 C50.8516176,79.0121024 51.0199408,78.5619245 51.0199408,78.5619245 L54.158719,78.505685 Z M6.99367597,7.0477295 C7.58254316,7.74876186 8.47877158,7.92637416 8.47877158,7.92637416 C8.47877158,7.92637416 14.8114688,6.34355809 18.9997598,13.1365095 C19.9455881,12.8265381 20.9196462,12.1380615 20.9196462,12.1380615 C20.9196462,12.1380615 15.6121905,3.07747977 6.99367597,7.0477295 Z M62.006324,7.0477295 C61.4174568,7.74876186 60.5212284,7.92637416 60.5212284,7.92637416 C60.5212284,7.92637416 54.1885312,6.34355809 50.0002402,13.1365095 C49.0544119,12.8265381 48.0803538,12.1380615 48.0803538,12.1380615 C48.0803538,12.1380615 53.3878095,3.07747977 62.006324,7.0477295 Z M10.8155084,9.80660575 C12.2330132,9.80180762 15.2269996,10.1722935 16.5875677,14.9717494 C14.8436555,16.6071429 14.5639963,17.0243617 14.5639963,17.0243617 L12.7322289,16.6071429 L12.0283321,14.9871826 C12.0283321,14.9871826 12.1760766,11.4592634 10.8155084,9.80660575 Z M58.1844916,9.80660575 C56.7669868,9.80180762 53.7730004,10.1722935 52.4124323,14.9717494 C54.1563445,16.6071429 54.4360037,17.0243617 54.4360037,17.0243617 L56.2677711,16.6071429 L56.9716679,14.9871826 C56.9716679,14.9871826 56.8239234,11.4592634 58.1844916,9.80660575 Z M5.8346735,60.3628104 C7.00660361,62.4530901 8.21467836,67.666626 19.1522532,68.5450091 C17.4289196,70.868879 15.5499266,72.2879465 17.004682,75.9327916 C13.7463891,76.2194824 2.54498489,74.1917201 5.8346735,60.3628104 Z M63.1653265,60.3628104 C61.9933964,62.4530901 60.7853216,67.666626 49.8477468,68.5450091 C51.5710804,70.868879 53.4500734,72.2879465 51.995318,75.9327916 C55.2536109,76.2194824 66.4550151,74.1917201 63.1653265,60.3628104 Z" id="Path-14" fill="#DDF0F2"/>
    </g>
</symbol><symbol id="icon-gulp" viewBox="0 0 43 91">
    <title>gulp</title>
    <g xmlns="http://www.w3.org/2000/svg" id="Page-1" stroke="none" stroke-width="1" fill="none" fill-rule="evenodd">
        <g id="Path-1-+-Path-2-+-Path-3" transform="translate(1.000000, 1.000000)" fill="#DDF0F2">
            <path d="M2.28312177,46.7959855 C1.6187147,40.326577 0.986354828,34.1698756 0,24 C5.93170799,27.085007 33.5527628,27.136287 40,24 C40,24 37.5493283,45.1321613 35.3161779,66.1515064 C25.3421105,70.9229429 9.0921864,68.8351617 4.23698384,66.1515064 C3.65170006,60.2177943 3.19104659,55.664322 2.77441417,51.5878044 C2.94787753,51.7614766 3.15664951,51.9559379 3.40657057,52.1849624 C4.70074012,52.9419439 5.61008496,52.6712839 6.57205843,52.1849623 C8.02358402,51.282651 8.60656078,50.6759993 9.60915364,49.7936876 C9.00286488,51.7288069 8.89213285,52.0596322 8.66484079,53.0722739 C7.965304,56.0502013 9.51007762,54.8520639 9.93569834,54.2204127 C10.3711645,53.4028169 12.5879688,46.5351006 13.1301496,44.4846507 C13.6723304,42.4342008 12.4890694,42.6498622 11.9352327,42.8403575 C11.5680686,42.8403576 11.4105359,44.5148166 10.7343111,45.848284 C9.98232235,47.1667518 9.73736968,47.4424117 8.39657612,48.7860455 C7.45226326,49.5680264 6.4729824,50.7461643 5.23709287,50.4605046 C2.73617379,49.1318704 6.51377841,40.845073 10.2620664,37.9774764 C13.0893536,37.5313207 12.5764894,39.0804495 13.975563,39.9577613 C15.3105286,40.2184216 15.0131239,39.125615 14.8615959,38.2733025 C14.3194151,37.2406611 12.9611375,36.2680182 11.57372,36.002358 C8.24504808,35.8720279 4.07388429,41.1656399 2.29889707,46.5752662 C2.29372308,46.6502909 2.28845913,46.723851 2.28312177,46.7959855 L2.28312177,46.7959855 Z M15.2532433,44.4759028 C15.5251485,43.6335828 17.1910833,43.5509487 16.8057125,44.9668983 C15.6157836,47.5558767 15.1796022,48.7649828 15.1796022,48.7649829 C15.1796022,48.764983 14.3068962,51.4884782 16.8453653,49.7521276 C18.9419884,47.5507228 18.5736117,47.6745883 19.4971283,45.5817592 C19.8598403,44.1555018 21.6107455,42.7292444 21.3726567,45.3647796 C20.1090868,47.7936434 19.9618047,48.8529429 19.9618048,48.8529429 C19.961805,48.8529428 18.9588108,52.2582999 22.080915,49.5246685 C23.8261554,44.6980362 24.7100192,42.9256082 26.6025417,37.7837287 C26.9992418,37.0137352 28.8181233,36.2282801 28.2628117,38.4917035 C26.9029421,41.6957146 23.8658083,49.3179969 23.8658083,49.3179969 C23.8658083,49.3179969 23.1063962,51.6693803 26.0868829,49.312843 C27.5205653,48.0363925 27.3617822,48.1810454 28.3421174,47.0751891 C28.7897998,44.842861 30.4895511,43.0805687 30.6141743,45.7987384 C31.6851446,44.0108488 35.9858483,42.5225728 35.5778187,46.0107357 C34.200955,48.1552759 32.8184266,49.6021489 32.8184266,49.6021489 C32.8184266,49.6021489 31.622833,51.4419213 33.6003259,50.434161 C35.5834834,48.7649829 37,47.5144737 37,47.5144737 L36.8583827,49.5401302 C36.8583827,49.5401302 35.5438306,50.9148486 33.9005546,51.927591 C32.5350202,52.5477776 29.5662061,53.4521162 30.6993164,50.150009 L33.4700379,46.7496341 C33.4700379,46.7496341 34.274596,45.2768198 32.2744444,46.0107359 C28.5063935,48.9718263 27.8264587,53.7776712 26.2230072,57.0797783 C25.531743,58.020366 23.8318201,58.8212829 24.3304848,56.3924191 C25.2766602,54.2789744 27.1182004,50.4547766 27.1182004,50.4547766 C27.1182004,50.4547766 22.4153035,54.485646 22.0186034,51.1886928 C20.7437041,52.4340481 17.8426946,53.7208064 18.3017064,50.294662 C16.4601662,52.7183719 12.2274389,53.9120163 13.1228037,49.8296079 C14.3014032,46.4860978 14.3918666,46.0830622 15.2532433,44.4759028 Z" id="Path-1"/>
            <path d="M6,68 C14.1680244,70.4100026 23.2325187,71.0360899 34,68 C32.3866259,70.9632487 31.871351,71.8709886 31.871351,71.8709886 C31.871351,71.8709886 31.1989138,80.2178945 31.0196877,86.467668 C29.081127,89.7018166 12.0278344,89.9834692 9.24915139,86.467668 C8.72267481,80.3327061 8.2742702,71.8709886 8.2742702,71.8709886 C8.2742702,71.8709886 7.57976918,71.1613074 6,68 Z" id="Path-2"/>
            <path d="M0.00412108668,21.9961689 C0.453054774,21.5777248 -0.402649468,19.9942942 24.7590642,19.4522188 C26.0063326,13.8847381 26.766997,11.268783 26.766997,11.268783 L37.6841381,1.05325022e-06 C37.6841381,1.05325022e-06 39.2472846,-0.0105280036 40,2.07388081 C38.2315676,4.03567732 30.3031706,12.4847164 30.3031706,12.4847164 L28.2423602,19.9226291 C28.2423602,19.9226291 39.0226435,20.3108447 39.9999987,21.9961692 C39.513396,23.5904682 36.1707581,24.7041682 19.7395778,25 C9.68194252,24.9184849 -0.231577739,24.1522431 0.00412108668,21.9961689 Z M23.4317926,23.0997546 C25.2801822,23.4672668 25.5070584,23.8899364 27.6062058,23 C28.0183461,23.1600611 28.0600486,23.2729068 27.9436253,23.5197186 C27.827202,23.7665305 25.366753,24.491082 23.0018315,23.469885 C22.9749646,23.0393607 23.2496946,23.1338788 23.4317926,23.0997546 Z" id="Path-3"/>
        </g>
    </g>
</symbol><symbol id="icon-module" viewBox="0 0 100 96"><title>Untitled 6</title><g xmlns:sketch="http://www.bohemiancoding.com/sketch/ns" xmlns="http://www.w3.org/2000/svg" sketch:type="MSPage" fill="#DDF0F2"><path d="M100 30.746l-.014-.199-.013-.188-.037-.187-.039-.194-.059-.171-.065-.194-.083-.167-.087-.177-.109-.163-.104-.156-.132-.153-.121-.138-.146-.129-.146-.127-.326-.219-47.145-27.218c-.919-.531-2.052-.529-2.97.004l-46.82 27.209-.001.001-.001.001-.009.005-.144.097-.177.12-.149.13-.142.125-.135.154-.118.135-.115.172-.098.147-.089.18-.081.164-.064.186-.061.177-.04.197-.037.183-.014.201-.013.185-.096 34.502c-.003 1.061.562 2.043 1.481 2.573l47.145 27.219c.458.266.97.397 1.48.397l.385-.024.069-.015.31-.062.069-.022.3-.102.083-.041.263-.129.006-.004.005-.003 46.833-27.217c.909-.528 1.471-1.5 1.474-2.553l.097-34.499v-.013000000000000001zm-50.103-23.79l17.747 10.246-41.06 23.706-17.613-10.169 40.926-23.783zm-2.738 80.389l-41.229-23.804.079-27.67 41.228 23.803-.078 27.671zm3.041-32.803l-17.691-10.213 41.061-23.706 17.556 10.136-40.926 23.783zm43.781 9.001l-40.897 23.768.078-27.637 40.898-23.767-.079 27.636zM43.817 81.419l-17.703-10.221.033-11.882 17.704 10.221-.034 11.882z" sketch:type="MSShapeGroup"/></g></symbol><symbol id="icon-perf-tooling" viewBox="0 0 841.89 595.28">
<g xmlns="http://www.w3.org/2000/svg" id="schraubenzieher">
	<g id="schraubenzieher_1_">
		<g id="stiel">
			<linearGradient id="SVGID_1_" gradientUnits="userSpaceOnUse" x1="160.4438" y1="295.5566" x2="179.2427" y2="295.5566">
				<stop offset="0" style="stop-color:#E1F0EA"/>
				<stop offset="1" style="stop-color:#ADC5BF"/>
			</linearGradient>
			<path fill="url(#SVGID_1_)" d="M174.061,178.429h-8.436l-5.182,21.471l5.264,17.617v191.051c0,2.274,1.852,4.117,4.135,4.117     s4.135-1.843,4.135-4.117V217.517l5.264-17.617L174.061,178.429z"/>
			<path fill="#74968E" d="M174.061,178.429h-2l5.182,21.471l-5.264,17.617v191.051c0,1.929-1.337,3.535-3.135,3.982     c0.322,0.08,0.653,0.135,1,0.135c2.284,0,4.135-1.843,4.135-4.117V217.517l5.264-17.617L174.061,178.429z"/>
			<polygon fill="#E1F0EA" points="175.544,184.574 174.061,178.429 165.625,178.429 164.143,184.574    "/>
			<linearGradient id="SVGID_2_" gradientUnits="userSpaceOnUse" x1="163.4639" y1="185.9795" x2="176.2227" y2="185.9795">
				<stop offset="0" style="stop-color:#E1F0EA"/>
				<stop offset="1" style="stop-color:#74968E"/>
			</linearGradient>
			<polygon fill="url(#SVGID_2_)" points="175.544,184.574 164.143,184.574 163.464,187.385 176.223,187.385    "/>
			<linearGradient id="SVGID_3_" gradientUnits="userSpaceOnUse" x1="164.9673" y1="216.2778" x2="174.7192" y2="216.2778">
				<stop offset="0" style="stop-color:#E1F0EA"/>
				<stop offset="1" style="stop-color:#74968E"/>
			</linearGradient>
			<polygon fill="url(#SVGID_3_)" points="164.967,215.039 165.708,217.517 173.979,217.517 174.719,215.039    "/>
		</g>
		<g id="griff_1_">
			<linearGradient id="griff_4_" gradientUnits="userSpaceOnUse" x1="148.2466" y1="395.8701" x2="191.4399" y2="395.8701">
				<stop offset="0" style="stop-color:#EB6C60"/>
				<stop offset="1" style="stop-color:#C43934"/>
			</linearGradient>
			<path id="griff" fill="url(#griff_4_)" d="M191.44,345.16l-4.218-15.312h-34.757l-4.218,15.312     c4.716,1.558,8.123,5.994,8.123,11.231c0,5.238-3.407,9.674-8.123,11.232v83.72c0,3.962,3.212,9.704,7.174,9.704     c0,0,9.412,0.844,14.423,0.844s14.423-0.844,14.423-0.844c3.962,0,7.174-5.742,7.174-9.704v-83.72     c-4.716-1.559-8.123-5.994-8.123-11.232C183.317,351.154,186.724,346.719,191.44,345.16z"/>
			<g id="griff_scatten">
				<linearGradient id="SVGID_4_" gradientUnits="userSpaceOnUse" x1="151.7676" y1="337.5078" x2="191.4399" y2="337.5078">
					<stop offset="0" style="stop-color:#F3A79C"/>
					<stop offset="1" style="stop-color:#C43934"/>
				</linearGradient>
				<path fill="url(#SVGID_4_)" d="M184.691,332.379c0,0,5.731,13.117,6.749,12.781l-4.218-15.312h-34.757l-0.697,2.53H184.691z"/>
				<path fill="#96241E" d="M183.317,356.392c0-2.616,0.851-5.032,2.29-6.991c-2.922,2.154-4.82,5.614-4.82,9.522      c0,5.237,3.407,9.673,8.123,11.231v83.72c0,2.001-0.82,4.452-2.14,6.393c2.726-1.698,4.671-5.843,4.671-8.923v-83.72      C186.724,366.065,183.317,361.63,183.317,356.392z"/>
			</g>
			<g id="griff_rillen">
				<linearGradient id="rille_rechts_1_" gradientUnits="userSpaceOnUse" x1="174.061" y1="411.2021" x2="184.4243" y2="411.2021">
					<stop offset="0" style="stop-color:#EB6C60"/>
					<stop offset="1" style="stop-color:#96241E"/>
				</linearGradient>
				<path id="rille_rechts" fill="url(#rille_rechts_1_)" d="M179.243,369.711c-2.861,0-5.182,2.32-5.182,5.182v72.619      c0,2.861,2.32,5.182,5.182,5.182s5.182-2.32,5.182-5.182v-72.619C184.424,372.031,182.104,369.711,179.243,369.711z"/>
				<path id="rille_rechts_schatten" fill="#96241E" d="M180.93,451.006c-2.861,0-5.181-2.32-5.181-5.182v-72.619      c0-0.998,0.287-1.927,0.776-2.718c-1.476,0.913-2.463,2.542-2.463,4.405v72.619c0,2.861,2.32,5.182,5.182,5.182      c1.863,0,3.492-0.987,4.404-2.464C182.857,450.719,181.928,451.006,180.93,451.006z"/>
				<linearGradient id="rille_links_1_" gradientUnits="userSpaceOnUse" x1="155.2627" y1="411.2021" x2="165.6255" y2="411.2021">
					<stop offset="0" style="stop-color:#EB6C60"/>
					<stop offset="1" style="stop-color:#96241E"/>
				</linearGradient>
				<path id="rille_links" fill="url(#rille_links_1_)" d="M160.444,369.711c-2.862,0-5.182,2.32-5.182,5.182v72.619      c0,2.861,2.32,5.182,5.182,5.182c2.861,0,5.181-2.32,5.181-5.182v-72.619C165.625,372.031,163.305,369.711,160.444,369.711z"/>
				<path id="rille_links_schatten" fill="#96241E" d="M162.131,451.006c-2.861,0-5.181-2.32-5.181-5.182v-72.619      c0-0.998,0.287-1.927,0.776-2.718c-1.476,0.913-2.463,2.542-2.463,4.405v72.619c0,2.861,2.32,5.182,5.182,5.182      c1.863,0,3.492-0.987,4.404-2.464C164.059,450.719,163.129,451.006,162.131,451.006z"/>
			</g>
			<path id="griff_licht" fill="#F3A79C" d="M149.934,452.188v-83.721c4.716-1.558,8.123-5.994,8.123-11.231     c0-4.966-3.065-9.207-7.402-10.962c3.423,2.072,5.715,5.824,5.715,10.118c0,5.238-3.407,9.674-8.123,11.232v83.72     c0,3.552,2.585,8.524,5.976,9.516C151.698,459.028,149.934,455.122,149.934,452.188z"/>
		</g>
	</g>
</g>
<g xmlns="http://www.w3.org/2000/svg" id="maulschlüssel">
	<g id="maulschlüssel_2_">
		<g id="stiel_3_">
			<linearGradient id="stiel_1_" gradientUnits="userSpaceOnUse" x1="206.2954" y1="320.1611" x2="261.8096" y2="320.1611">
				<stop offset="0" style="stop-color:#E1F0EA"/>
				<stop offset="1" style="stop-color:#ADC5BF"/>
			</linearGradient>
			<path id="stiel_4_" fill="url(#stiel_1_)" d="M208.708,422.818l53.101,8.602c-10.885-16.488-14.024-20.012-14.024-23.395V232.296     c0-2.492,1.129-4.149,11.611-14.792l-53.101-8.602c10.885,16.488,14.024,20.011,14.024,23.394v175.729     C220.319,410.518,219.19,412.175,208.708,422.818z"/>
			<path id="stiel_schatten_1_" fill="#4C6966" d="M257.166,217.504c-10.482,10.643-11.61,12.3-11.61,14.792v175.729     c0,3.354,3.09,6.855,13.756,22.989l2.498,0.405c-10.885-16.488-14.024-20.012-14.024-23.395V232.296     c0-2.492,1.129-4.149,11.611-14.792l-53.101-8.602c0.091,0.139,0.178,0.269,0.268,0.405L257.166,217.504z"/>
			<g id="rille_2_">
				<linearGradient id="rille_1_" gradientUnits="userSpaceOnUse" x1="227.9692" y1="320.0908" x2="240.1348" y2="320.0908">
					<stop offset="0" style="stop-color:#E1F0EA"/>
					<stop offset="1" style="stop-color:#74968E"/>
				</linearGradient>
				<path id="rille_3_" fill="url(#rille_1_)" d="M234.052,237.367c-3.358,0-6.083,2.724-6.083,6.083l0.007,153.422      c0.075,3.294,2.764,5.943,6.076,5.943c3.311,0,6-2.649,6.076-5.943l0.007-153.422      C240.135,240.09,237.41,237.367,234.052,237.367z"/>
				<path id="rille_schatten_1_" fill="#4C6966" d="M236.282,401.7c-3.312,0-6-2.649-6.076-5.943L230.2,242.334      c0-1.93,0.902-3.646,2.304-4.761c-2.607,0.686-4.534,3.053-4.534,5.876l0.007,153.422c0.075,3.294,2.764,5.943,6.076,5.943      c1.425,0,2.715-0.511,3.751-1.331C237.314,401.611,236.812,401.7,236.282,401.7z"/>
			</g>
		</g>
		<g id="kopf_oben_2_">
			<linearGradient id="kopf_oben_1_" gradientUnits="userSpaceOnUse" x1="203.9736" y1="201.5913" x2="263.3022" y2="201.5913">
				<stop offset="0" style="stop-color:#E1F0EA"/>
				<stop offset="1" style="stop-color:#ADC5BF"/>
			</linearGradient>
			<path id="kopf_oben_3_" fill="url(#kopf_oben_1_)" d="M250.371,183.633l-4.703,20.798c-3.079,0.261-7.143,0.073-11.871-0.997     c-4.729-1.068-8.477-2.646-11.145-4.207l4.702-20.799c-37.332,13.167-24.855,39.112,1.888,45.158     C255.986,229.633,278.409,211.578,250.371,183.633z"/>
			<g id="kopf_oben_schatten_1_">
				<path fill="#4C6966" d="M250.371,183.633l-0.017,0.073c24.57,26.625,2.658,43.529-23.343,37.65      c-7.341-1.66-13.604-4.821-18.06-8.804c4.461,5.025,11.625,9.075,20.29,11.034C255.986,229.633,278.409,211.578,250.371,183.633      z"/>
				<path fill="#4C6966" d="M224.918,179.339l-4.496,19.889c2.668,1.561,6.417,3.139,11.145,4.207      c3.988,0.902,7.496,1.173,10.346,1.08c-2.385-0.079-5.114-0.401-8.116-1.08c-4.729-1.068-8.477-2.646-11.145-4.207l4.702-20.799      C226.514,178.725,225.708,179.03,224.918,179.339z"/>
			</g>
		</g>
		<g id="kopf_unten_2_">
			<linearGradient id="kopf_unten_1_" gradientUnits="userSpaceOnUse" x1="204.8027" y1="438.7305" x2="264.1313" y2="438.7305">
				<stop offset="0" style="stop-color:#E1F0EA"/>
				<stop offset="1" style="stop-color:#ADC5BF"/>
			</linearGradient>
			<path id="kopf_unten_3_" fill="url(#kopf_unten_1_)" d="M217.734,456.689l4.703-20.798c3.079-0.262,7.142-0.074,11.871,0.995     c4.728,1.07,8.477,2.646,11.145,4.209l-4.702,20.797c37.332-13.165,24.855-39.111-1.888-45.156     C212.12,410.689,189.696,428.745,217.734,456.689z"/>
			<g id="kopf_unten_schattten_1_">
				<path fill="#4C6966" d="M238.863,416.736c-8.508-1.923-16.577-1.405-22.726,1.094c5.601-1.49,12.339-1.57,19.38,0.021      c25.9,5.854,38.419,30.375,5.271,43.874l-0.038,0.167C278.083,448.728,265.606,422.781,238.863,416.736z"/>
				<path fill="#4C6966" d="M232.078,435.771c-4.729-1.069-8.792-1.257-11.871-0.995l-4.482,19.826      c0.64,0.69,1.305,1.384,2.009,2.087l4.703-20.798c3.079-0.262,7.142-0.074,11.871,0.995c3.235,0.732,6,1.704,8.286,2.743      C239.976,438.186,236.452,436.761,232.078,435.771z"/>
			</g>
		</g>
	</g>
</g>
<g xmlns="http://www.w3.org/2000/svg" id="hammer">
	<g id="kopf_1_">
		<g id="kopf">
			<linearGradient id="SVGID_5_" gradientUnits="userSpaceOnUse" x1="606.5293" y1="255.251" x2="633.5469" y2="255.251">
				<stop offset="0" style="stop-color:#ADC5BF"/>
				<stop offset="1" style="stop-color:#74968E"/>
			</linearGradient>
			<rect x="606.529" y="235.126" fill="url(#SVGID_5_)" width="27.018" height="40.25"/>
			<linearGradient id="SVGID_6_" gradientUnits="userSpaceOnUse" x1="594.3984" y1="207.2505" x2="645.6777" y2="207.2505">
				<stop offset="0" style="stop-color:#ADC5BF"/>
				<stop offset="1" style="stop-color:#74968E"/>
			</linearGradient>
			<path fill="url(#SVGID_6_)" d="M620.037,179.375c12.961,0,25.641,2.269,25.641,2.269v35.067l-12.131,18.415h-27.018     l-12.131-18.415v-35.067C594.398,181.644,607.078,179.375,620.037,179.375z"/>
			<linearGradient id="SVGID_7_" gradientUnits="userSpaceOnUse" x1="581.9932" y1="216.7109" x2="581.9932" y2="181.6436">
				<stop offset="0" style="stop-color:#74968E"/>
				<stop offset="1" style="stop-color:#E1F0EA"/>
			</linearGradient>
			<path fill="url(#SVGID_7_)" d="M569.588,216.711c0,0,5.777-3.402,12.406-3.402c6.631,0,12.404,3.402,12.404,3.402v-35.067     c0,0-4.961,3.402-12.404,3.402s-12.406-3.402-12.406-3.402V216.711z"/>
			<linearGradient id="SVGID_8_" gradientUnits="userSpaceOnUse" x1="559.3877" y1="219.9258" x2="559.3877" y2="178.4287">
				<stop offset="0" style="stop-color:#74968E"/>
				<stop offset="1" style="stop-color:#E1F0EA"/>
			</linearGradient>
			<path fill="url(#SVGID_8_)" d="M569.588,216.711c0,1.775-1.439,3.215-3.215,3.215h-13.971c-1.775,0-3.215-1.439-3.215-3.215     v-35.067c0-1.776,1.439-3.215,3.215-3.215h13.971c1.775,0,3.215,1.439,3.215,3.215V216.711z"/>
			<linearGradient id="SVGID_9_" gradientUnits="userSpaceOnUse" x1="645.6777" y1="208.3848" x2="693.6465" y2="208.3848">
				<stop offset="0" style="stop-color:#ADC5BF"/>
				<stop offset="1" style="stop-color:#74968E"/>
			</linearGradient>
			<path fill="url(#SVGID_9_)" d="M645.678,216.711c0,0,26.07-3.088,42.061,18.415h5.908c-7.168-45.212-47.969-53.482-47.969-53.482     V216.711z"/>
		</g>
		<g id="kopf_licht">
			<path fill="#E1F0EA" d="M593.266,182.304v33.814c0.719,0.352,1.133,0.593,1.133,0.593v-35.067     C594.398,181.644,593.994,181.917,593.266,182.304z"/>
			<path fill="#E1F0EA" d="M551.457,216.711v-35.067c0-1.776,1.439-3.215,3.215-3.215h-2.27c-1.775,0-3.215,1.439-3.215,3.215     v35.067c0,1.775,1.439,3.215,3.215,3.215h2.27C552.896,219.926,551.457,218.486,551.457,216.711z"/>
			<rect x="606.529" y="235.126" fill="#E1F0EA" width="1.135" height="40.25"/>
		</g>
		<g id="kopf_schatten">
			<path fill="#4C6966" d="M571.857,182.858c-1.451-0.66-2.27-1.215-2.27-1.215v35.067c0,0,0.852-0.5,2.27-1.115V182.858z"/>
			<linearGradient id="SVGID_10_" gradientUnits="userSpaceOnUse" x1="605.7832" y1="227.375" x2="645.6777" y2="227.375">
				<stop offset="0" style="stop-color:#E1F0EA"/>
				<stop offset="0.1621" style="stop-color:#B7CAC4"/>
				<stop offset="0.3366" style="stop-color:#90A7A3"/>
				<stop offset="0.5102" style="stop-color:#738C88"/>
				<stop offset="0.6804" style="stop-color:#5D7975"/>
				<stop offset="0.8455" style="stop-color:#506D6A"/>
				<stop offset="1" style="stop-color:#4C6966"/>
			</linearGradient>
			<path fill="url(#SVGID_10_)" d="M620.037,179.375c-0.379,0-0.756,0.002-1.133,0.006c12.555,0.125,24.504,2.262,24.504,2.262     v35.067l-11.383,17.281h-26.242l0.746,1.134h24.75v40.25h2.268v-40.25l12.131-18.415v-35.067     C645.678,181.644,632.998,179.375,620.037,179.375z"/>
			<path fill="#4C6966" d="M645.678,181.644v0.588c8.641,2.506,39.549,14.088,45.699,52.894h2.27     C686.479,189.914,645.678,181.644,645.678,181.644z"/>
		</g>
	</g>
	<g id="griff_2_">
		<linearGradient id="griff_5_" gradientUnits="userSpaceOnUse" x1="598.8125" y1="368.6338" x2="644.543" y2="368.6338">
			<stop offset="0" style="stop-color:#EB6C60"/>
			<stop offset="0.1097" style="stop-color:#DA5E53"/>
			<stop offset="0.3415" style="stop-color:#BD453C"/>
			<stop offset="0.5703" style="stop-color:#A7332B"/>
			<stop offset="0.7923" style="stop-color:#9A2821"/>
			<stop offset="1" style="stop-color:#96241E"/>
		</linearGradient>
		<path id="griff_3_" fill="url(#griff_5_)" d="M606.529,275.375c-3.307,0-5.512,5.514-5.512,38.595    c0,33.081,3.402,39.146,3.402,68.921c0,16.018-5.607,32.723-5.607,53.303c0,25.698,0,25.698,21.225,25.698    c24.506,0,24.506-0.972,24.506-22.296s-6.033-45.127-6.033-56.705c0-11.579,2.205-36.941,2.205-68.369    c0-31.428-1.656-39.147-7.168-39.147S606.529,275.375,606.529,275.375z"/>
		<path id="griff_licht_1_" fill="#F3A79C" d="M601.08,437.329c0-20.58,5.607-37.286,5.607-53.304    c0-29.774-3.402-35.839-3.402-68.921c0-33.081,2.205-38.595,5.512-38.595c0,0,21.506,0,27.018,0c0.252,0,0.492,0.022,0.729,0.056    c-0.842-0.84-1.832-1.19-2.996-1.19c-5.512,0-27.018,0-27.018,0c-3.307,0-5.512,5.514-5.512,38.595    c0,33.081,3.402,39.146,3.402,68.921c0,16.018-5.607,32.723-5.607,53.303c0,16.887,0,22.676,6.021,24.662    C601.082,458.079,601.08,451.753,601.08,437.329z"/>
		<g id="punkte">
			<linearGradient id="SVGID_11_" gradientUnits="userSpaceOnUse" x1="617.3125" y1="344.1387" x2="625.0312" y2="344.1387">
				<stop offset="0" style="stop-color:#C43934"/>
				<stop offset="1" style="stop-color:#96241E"/>
			</linearGradient>
			<circle fill="url(#SVGID_11_)" cx="621.172" cy="344.14" r="3.859"/>
			<linearGradient id="SVGID_12_" gradientUnits="userSpaceOnUse" x1="617.3125" y1="355.4814" x2="625.0312" y2="355.4814">
				<stop offset="0" style="stop-color:#C43934"/>
				<stop offset="1" style="stop-color:#96241E"/>
			</linearGradient>
			<circle fill="url(#SVGID_12_)" cx="621.172" cy="355.482" r="3.859"/>
			<linearGradient id="SVGID_13_" gradientUnits="userSpaceOnUse" x1="617.3125" y1="366.8242" x2="625.0312" y2="366.8242">
				<stop offset="0" style="stop-color:#C43934"/>
				<stop offset="1" style="stop-color:#96241E"/>
			</linearGradient>
			<circle fill="url(#SVGID_13_)" cx="621.172" cy="366.824" r="3.859"/>
			<linearGradient id="SVGID_14_" gradientUnits="userSpaceOnUse" x1="617.3125" y1="378.167" x2="625.0312" y2="378.167">
				<stop offset="0" style="stop-color:#C43934"/>
				<stop offset="1" style="stop-color:#96241E"/>
			</linearGradient>
			<circle fill="url(#SVGID_14_)" cx="621.172" cy="378.167" r="3.859"/>
			<linearGradient id="SVGID_15_" gradientUnits="userSpaceOnUse" x1="617.3125" y1="389.5098" x2="625.0312" y2="389.5098">
				<stop offset="0" style="stop-color:#C43934"/>
				<stop offset="1" style="stop-color:#96241E"/>
			</linearGradient>
			<circle fill="url(#SVGID_15_)" cx="621.172" cy="389.51" r="3.859"/>
			<linearGradient id="SVGID_16_" gradientUnits="userSpaceOnUse" x1="617.3125" y1="400.8525" x2="625.0312" y2="400.8525">
				<stop offset="0" style="stop-color:#C43934"/>
				<stop offset="1" style="stop-color:#96241E"/>
			</linearGradient>
			<circle fill="url(#SVGID_16_)" cx="621.172" cy="400.853" r="3.859"/>
			<linearGradient id="SVGID_17_" gradientUnits="userSpaceOnUse" x1="617.3125" y1="412.1953" x2="625.0312" y2="412.1953">
				<stop offset="0" style="stop-color:#C43934"/>
				<stop offset="1" style="stop-color:#96241E"/>
			</linearGradient>
			<circle fill="url(#SVGID_17_)" cx="621.172" cy="412.195" r="3.859"/>
			<linearGradient id="SVGID_18_" gradientUnits="userSpaceOnUse" x1="617.3125" y1="423.5381" x2="625.0312" y2="423.5381">
				<stop offset="0" style="stop-color:#C43934"/>
				<stop offset="1" style="stop-color:#96241E"/>
			</linearGradient>
			<circle fill="url(#SVGID_18_)" cx="621.172" cy="423.538" r="3.859"/>
			<linearGradient id="SVGID_19_" gradientUnits="userSpaceOnUse" x1="617.3125" y1="434.8809" x2="625.0312" y2="434.8809">
				<stop offset="0" style="stop-color:#C43934"/>
				<stop offset="1" style="stop-color:#96241E"/>
			</linearGradient>
			<circle fill="url(#SVGID_19_)" cx="621.172" cy="434.881" r="3.859"/>
			<circle fill="#96241E" cx="632.515" cy="344.14" r="3.858"/>
			<circle fill="#96241E" cx="632.515" cy="355.482" r="3.858"/>
			<circle fill="#96241E" cx="632.515" cy="366.824" r="3.858"/>
			<circle fill="#96241E" cx="632.515" cy="378.167" r="3.858"/>
			<circle fill="#96241E" cx="632.515" cy="389.51" r="3.858"/>
			<circle fill="#96241E" cx="632.515" cy="400.853" r="3.858"/>
			<circle fill="#96241E" cx="632.515" cy="412.195" r="3.858"/>
			<circle fill="#96241E" cx="632.515" cy="423.538" r="3.858"/>
			<circle fill="#96241E" cx="632.515" cy="434.881" r="3.858"/>
			<linearGradient id="SVGID_20_" gradientUnits="userSpaceOnUse" x1="605.9707" y1="344.1387" x2="613.6875" y2="344.1387">
				<stop offset="0" style="stop-color:#EB6C60"/>
				<stop offset="1" style="stop-color:#96241E"/>
			</linearGradient>
			<circle fill="url(#SVGID_20_)" cx="609.829" cy="344.14" r="3.858"/>
			<linearGradient id="SVGID_21_" gradientUnits="userSpaceOnUse" x1="605.9707" y1="355.4814" x2="613.6875" y2="355.4814">
				<stop offset="0" style="stop-color:#EB6C60"/>
				<stop offset="1" style="stop-color:#96241E"/>
			</linearGradient>
			<circle fill="url(#SVGID_21_)" cx="609.829" cy="355.482" r="3.858"/>
			<linearGradient id="SVGID_22_" gradientUnits="userSpaceOnUse" x1="605.9707" y1="366.8242" x2="613.6875" y2="366.8242">
				<stop offset="0" style="stop-color:#EB6C60"/>
				<stop offset="1" style="stop-color:#96241E"/>
			</linearGradient>
			<circle fill="url(#SVGID_22_)" cx="609.829" cy="366.824" r="3.858"/>
			<linearGradient id="SVGID_23_" gradientUnits="userSpaceOnUse" x1="605.9707" y1="378.167" x2="613.6875" y2="378.167">
				<stop offset="0" style="stop-color:#EB6C60"/>
				<stop offset="1" style="stop-color:#96241E"/>
			</linearGradient>
			<circle fill="url(#SVGID_23_)" cx="609.829" cy="378.167" r="3.858"/>
			<linearGradient id="SVGID_24_" gradientUnits="userSpaceOnUse" x1="605.9707" y1="389.5098" x2="613.6875" y2="389.5098">
				<stop offset="0" style="stop-color:#EB6C60"/>
				<stop offset="1" style="stop-color:#96241E"/>
			</linearGradient>
			<circle fill="url(#SVGID_24_)" cx="609.829" cy="389.51" r="3.858"/>
			<linearGradient id="SVGID_25_" gradientUnits="userSpaceOnUse" x1="605.9707" y1="400.8525" x2="613.6875" y2="400.8525">
				<stop offset="0" style="stop-color:#EB6C60"/>
				<stop offset="1" style="stop-color:#96241E"/>
			</linearGradient>
			<circle fill="url(#SVGID_25_)" cx="609.829" cy="400.853" r="3.858"/>
			<linearGradient id="SVGID_26_" gradientUnits="userSpaceOnUse" x1="605.9707" y1="412.1953" x2="613.6875" y2="412.1953">
				<stop offset="0" style="stop-color:#EB6C60"/>
				<stop offset="1" style="stop-color:#96241E"/>
			</linearGradient>
			<circle fill="url(#SVGID_26_)" cx="609.829" cy="412.195" r="3.858"/>
			<linearGradient id="SVGID_27_" gradientUnits="userSpaceOnUse" x1="605.9707" y1="423.5381" x2="613.6875" y2="423.5381">
				<stop offset="0" style="stop-color:#EB6C60"/>
				<stop offset="1" style="stop-color:#96241E"/>
			</linearGradient>
			<circle fill="url(#SVGID_27_)" cx="609.829" cy="423.538" r="3.858"/>
			<linearGradient id="SVGID_28_" gradientUnits="userSpaceOnUse" x1="605.9707" y1="434.8809" x2="613.6875" y2="434.8809">
				<stop offset="0" style="stop-color:#EB6C60"/>
				<stop offset="1" style="stop-color:#96241E"/>
			</linearGradient>
			<circle fill="url(#SVGID_28_)" cx="609.829" cy="434.881" r="3.858"/>
		</g>
		<g id="punkte_licht">
			<path fill="#F3A79C" d="M607.104,355.482c0-1.938,1.434-3.527,3.293-3.803c-0.186-0.027-0.373-0.058-0.568-0.058     c-2.131,0-3.857,1.728-3.857,3.86c0,2.131,1.727,3.858,3.857,3.858c0.195,0,0.383-0.03,0.568-0.058     C608.537,359.008,607.104,357.419,607.104,355.482z"/>
			<path fill="#F3A79C" d="M607.104,366.824c0-1.938,1.434-3.526,3.293-3.802c-0.186-0.027-0.373-0.058-0.568-0.058     c-2.131,0-3.857,1.728-3.857,3.859s1.727,3.859,3.857,3.859c0.195,0,0.383-0.03,0.568-0.058     C608.537,370.35,607.104,368.762,607.104,366.824z"/>
			<path fill="#F3A79C" d="M607.104,378.167c0-1.938,1.434-3.526,3.293-3.802c-0.186-0.027-0.373-0.058-0.568-0.058     c-2.131,0-3.857,1.728-3.857,3.859s1.727,3.859,3.857,3.859c0.195,0,0.383-0.03,0.568-0.058     C608.537,381.692,607.104,380.104,607.104,378.167z"/>
			<path fill="#F3A79C" d="M607.104,389.51c0-1.938,1.434-3.526,3.293-3.802c-0.186-0.028-0.373-0.058-0.568-0.058     c-2.131,0-3.857,1.728-3.857,3.859c0,2.131,1.727,3.859,3.857,3.859c0.195,0,0.383-0.03,0.568-0.058     C608.537,393.035,607.104,391.447,607.104,389.51z"/>
			<path fill="#F3A79C" d="M607.104,400.853c0-1.938,1.434-3.526,3.293-3.802c-0.186-0.028-0.373-0.058-0.568-0.058     c-2.131,0-3.857,1.728-3.857,3.859c0,2.131,1.727,3.859,3.857,3.859c0.195,0,0.383-0.03,0.568-0.058     C608.537,404.378,607.104,402.79,607.104,400.853z"/>
			<path fill="#F3A79C" d="M607.104,412.195c0-1.938,1.434-3.526,3.293-3.802c-0.186-0.028-0.373-0.058-0.568-0.058     c-2.131,0-3.857,1.728-3.857,3.859c0,2.131,1.727,3.859,3.857,3.859c0.195,0,0.383-0.03,0.568-0.058     C608.537,415.721,607.104,414.133,607.104,412.195z"/>
			<path fill="#F3A79C" d="M607.104,423.538c0-1.938,1.434-3.526,3.293-3.802c-0.186-0.028-0.373-0.058-0.568-0.058     c-2.131,0-3.857,1.728-3.857,3.859c0,2.131,1.727,3.859,3.857,3.859c0.195,0,0.383-0.03,0.568-0.058     C608.537,427.063,607.104,425.476,607.104,423.538z"/>
			<path fill="#F3A79C" d="M607.104,434.881c0-1.938,1.434-3.526,3.293-3.802c-0.186-0.028-0.373-0.058-0.568-0.058     c-2.131,0-3.857,1.728-3.857,3.859c0,2.131,1.727,3.859,3.857,3.859c0.195,0,0.383-0.03,0.568-0.058     C608.537,438.406,607.104,436.818,607.104,434.881z"/>
			<path fill="#F3A79C" d="M609.828,347.998c0.195,0,0.383-0.03,0.568-0.058c-1.859-0.275-3.293-1.864-3.293-3.801     c0-1.938,1.434-3.527,3.293-3.803c-0.186-0.027-0.373-0.058-0.568-0.058c-2.131,0-3.857,1.728-3.857,3.86     C605.971,346.271,607.697,347.998,609.828,347.998z"/>
		</g>
		<g id="punkte_licht_1_">
			<path fill="#EB6C60" d="M618.447,355.482c0-1.938,1.432-3.527,3.291-3.803c-0.186-0.027-0.373-0.058-0.566-0.058     c-2.131,0-3.859,1.728-3.859,3.86c0,2.131,1.729,3.858,3.859,3.858c0.193,0,0.381-0.03,0.566-0.058     C619.879,359.008,618.447,357.419,618.447,355.482z"/>
			<path fill="#EB6C60" d="M618.447,366.824c0-1.938,1.432-3.526,3.291-3.802c-0.186-0.027-0.373-0.058-0.566-0.058     c-2.131,0-3.859,1.728-3.859,3.859s1.729,3.859,3.859,3.859c0.193,0,0.381-0.03,0.566-0.058     C619.879,370.35,618.447,368.762,618.447,366.824z"/>
			<path fill="#EB6C60" d="M618.447,378.167c0-1.938,1.432-3.526,3.291-3.802c-0.186-0.027-0.373-0.058-0.566-0.058     c-2.131,0-3.859,1.728-3.859,3.859s1.729,3.859,3.859,3.859c0.193,0,0.381-0.03,0.566-0.058     C619.879,381.692,618.447,380.104,618.447,378.167z"/>
			<path fill="#EB6C60" d="M618.447,389.51c0-1.938,1.432-3.526,3.291-3.802c-0.186-0.028-0.373-0.058-0.566-0.058     c-2.131,0-3.859,1.728-3.859,3.859c0,2.131,1.729,3.859,3.859,3.859c0.193,0,0.381-0.03,0.566-0.058     C619.879,393.035,618.447,391.447,618.447,389.51z"/>
			<path fill="#EB6C60" d="M618.447,400.853c0-1.938,1.432-3.526,3.291-3.802c-0.186-0.028-0.373-0.058-0.566-0.058     c-2.131,0-3.859,1.728-3.859,3.859c0,2.131,1.729,3.859,3.859,3.859c0.193,0,0.381-0.03,0.566-0.058     C619.879,404.378,618.447,402.79,618.447,400.853z"/>
			<path fill="#EB6C60" d="M618.447,412.195c0-1.938,1.432-3.526,3.291-3.802c-0.186-0.028-0.373-0.058-0.566-0.058     c-2.131,0-3.859,1.728-3.859,3.859c0,2.131,1.729,3.859,3.859,3.859c0.193,0,0.381-0.03,0.566-0.058     C619.879,415.721,618.447,414.133,618.447,412.195z"/>
			<path fill="#EB6C60" d="M618.447,423.538c0-1.938,1.432-3.526,3.291-3.802c-0.186-0.028-0.373-0.058-0.566-0.058     c-2.131,0-3.859,1.728-3.859,3.859c0,2.131,1.729,3.859,3.859,3.859c0.193,0,0.381-0.03,0.566-0.058     C619.879,427.063,618.447,425.476,618.447,423.538z"/>
			<path fill="#EB6C60" d="M618.447,434.881c0-1.938,1.432-3.526,3.291-3.802c-0.186-0.028-0.373-0.058-0.566-0.058     c-2.131,0-3.859,1.728-3.859,3.859c0,2.131,1.729,3.859,3.859,3.859c0.193,0,0.381-0.03,0.566-0.058     C619.879,438.406,618.447,436.818,618.447,434.881z"/>
			<path fill="#EB6C60" d="M621.172,347.998c0.193,0,0.381-0.03,0.566-0.058c-1.859-0.275-3.291-1.864-3.291-3.801     c0-1.938,1.432-3.527,3.291-3.803c-0.186-0.027-0.373-0.058-0.566-0.058c-2.131,0-3.859,1.728-3.859,3.86     C617.312,346.271,619.041,347.998,621.172,347.998z"/>
		</g>
		<g id="punkte_licht_2_">
			<path fill="#C43934" d="M629.789,355.482c0-1.938,1.434-3.527,3.293-3.803c-0.188-0.027-0.373-0.058-0.568-0.058     c-2.131,0-3.857,1.728-3.857,3.86c0,2.131,1.727,3.858,3.857,3.858c0.195,0,0.381-0.03,0.568-0.058     C631.223,359.008,629.789,357.419,629.789,355.482z"/>
			<path fill="#C43934" d="M629.789,366.824c0-1.938,1.434-3.526,3.293-3.802c-0.188-0.027-0.373-0.058-0.568-0.058     c-2.131,0-3.857,1.728-3.857,3.859s1.727,3.859,3.857,3.859c0.195,0,0.381-0.03,0.568-0.058     C631.223,370.35,629.789,368.762,629.789,366.824z"/>
			<path fill="#C43934" d="M629.789,378.167c0-1.938,1.434-3.526,3.293-3.802c-0.188-0.027-0.373-0.058-0.568-0.058     c-2.131,0-3.857,1.728-3.857,3.859s1.727,3.859,3.857,3.859c0.195,0,0.381-0.03,0.568-0.058     C631.223,381.692,629.789,380.104,629.789,378.167z"/>
			<path fill="#C43934" d="M629.789,389.51c0-1.938,1.434-3.526,3.293-3.802c-0.188-0.028-0.373-0.058-0.568-0.058     c-2.131,0-3.857,1.728-3.857,3.859c0,2.131,1.727,3.859,3.857,3.859c0.195,0,0.381-0.03,0.568-0.058     C631.223,393.035,629.789,391.447,629.789,389.51z"/>
			<path fill="#C43934" d="M629.789,400.853c0-1.938,1.434-3.526,3.293-3.802c-0.188-0.028-0.373-0.058-0.568-0.058     c-2.131,0-3.857,1.728-3.857,3.859c0,2.131,1.727,3.859,3.857,3.859c0.195,0,0.381-0.03,0.568-0.058     C631.223,404.378,629.789,402.79,629.789,400.853z"/>
			<path fill="#C43934" d="M629.789,412.195c0-1.938,1.434-3.526,3.293-3.802c-0.188-0.028-0.373-0.058-0.568-0.058     c-2.131,0-3.857,1.728-3.857,3.859c0,2.131,1.727,3.859,3.857,3.859c0.195,0,0.381-0.03,0.568-0.058     C631.223,415.721,629.789,414.133,629.789,412.195z"/>
			<path fill="#C43934" d="M629.789,423.538c0-1.938,1.434-3.526,3.293-3.802c-0.188-0.028-0.373-0.058-0.568-0.058     c-2.131,0-3.857,1.728-3.857,3.859c0,2.131,1.727,3.859,3.857,3.859c0.195,0,0.381-0.03,0.568-0.058     C631.223,427.063,629.789,425.476,629.789,423.538z"/>
			<path fill="#C43934" d="M629.789,434.881c0-1.938,1.434-3.526,3.293-3.802c-0.188-0.028-0.373-0.058-0.568-0.058     c-2.131,0-3.857,1.728-3.857,3.859c0,2.131,1.727,3.859,3.857,3.859c0.195,0,0.381-0.03,0.568-0.058     C631.223,438.406,629.789,436.818,629.789,434.881z"/>
			<path fill="#C43934" d="M632.514,347.998c0.195,0,0.381-0.03,0.568-0.058c-1.859-0.275-3.293-1.864-3.293-3.801     c0-1.938,1.434-3.527,3.293-3.803c-0.188-0.027-0.373-0.058-0.568-0.058c-2.131,0-3.857,1.728-3.857,3.86     C628.656,346.271,630.383,347.998,632.514,347.998z"/>
		</g>
		<g id="punkte_licht_3_">
			<path fill="#C43934" d="M642.617,415.218c-0.9-0.701-1.484-1.788-1.484-3.022c0-0.844,0.283-1.612,0.742-2.244     c-0.047-0.326-0.094-0.65-0.143-0.975c-1.045,0.691-1.734,1.873-1.734,3.219c0,1.726,1.141,3.17,2.703,3.663     C642.674,415.646,642.646,415.432,642.617,415.218z"/>
			<path fill="#C43934" d="M643.98,427.385c-0.004-0.052-0.01-0.104-0.014-0.156c-1.629-0.448-2.834-1.917-2.834-3.69     c0-1.497,0.857-2.777,2.104-3.413c-0.016-0.127-0.029-0.253-0.043-0.379c-1.814,0.315-3.195,1.889-3.195,3.792     c0,2.131,1.729,3.859,3.859,3.859C643.898,427.397,643.939,427.387,643.98,427.385z"/>
			<path fill="#C43934" d="M644.424,438.683c-1.859-0.276-3.291-1.864-3.291-3.802c0-1.878,1.35-3.417,3.125-3.763     c-0.002-0.019-0.004-0.037-0.004-0.058c-0.131-0.018-0.262-0.039-0.396-0.039c-2.131,0-3.859,1.728-3.859,3.859     c0,2.131,1.729,3.859,3.859,3.859C644.051,438.74,644.238,438.71,644.424,438.683z"/>
		</g>
	</g>
</g>
<g xmlns="http://www.w3.org/2000/svg" id="stoppuhr">
	<g id="stoppuhr_1_">
		<g id="hänkel_1_">
			<linearGradient id="SVGID_29_" gradientUnits="userSpaceOnUse" x1="405.3213" y1="132.9551" x2="444.4502" y2="132.9551">
				<stop offset="0" style="stop-color:#4C6966"/>
				<stop offset="1" style="stop-color:#ADC5BF"/>
			</linearGradient>
			<path fill="url(#SVGID_29_)" d="M424.886,113.391c-10.805,0-19.564,8.76-19.564,19.565c0,10.805,8.76,19.564,19.564,19.564     s19.564-8.76,19.564-19.564C444.45,122.15,435.69,113.391,424.886,113.391z M424.886,148.822     c-8.762,0-15.866-7.104-15.866-15.866c0-8.762,7.104-15.865,15.866-15.865c8.763,0,15.866,7.103,15.866,15.865     C440.752,141.718,433.648,148.822,424.886,148.822z"/>
			<g>
				<path fill="#4C6966" d="M428.94,140.185c0-1.291-1.057-2.348-2.348-2.348h-3.239c-1.291,0-2.348,1.057-2.348,2.348v26.187      c0,1.291,1.057,2.348,2.348,2.348h3.239c1.291,0,2.348-1.057,2.348-2.348V140.185z"/>
			</g>
			<linearGradient id="hänkel_4_" gradientUnits="userSpaceOnUse" x1="402.6714" y1="167.9824" x2="447.1006" y2="167.9824">
				<stop offset="0" style="stop-color:#4C6966"/>
				<stop offset="1" style="stop-color:#ADC5BF"/>
			</linearGradient>
			<path id="hänkel" fill="url(#hänkel_4_)" d="M447.101,160.74c0-5.571-14.628-5.571-22.127-5.571     c-7.561,0-22.302,0-22.302,5.596v20.032h44.429V160.74z"/>
			<g id="rillen">
				<path fill="#4C6966" d="M423.42,155.17v25.626h3.107V155.17c-0.544-0.001-1.064-0.001-1.554-0.001      S423.963,155.169,423.42,155.17z"/>
				<path fill="#4C6966" d="M428.94,180.796h3.108v-25.523c-1.062-0.042-2.106-0.069-3.108-0.083V180.796z"/>
				<path fill="#4C6966" d="M434.464,180.796h3.105v-25.103c-1.013-0.123-2.057-0.218-3.105-0.291V180.796z"/>
				<path fill="#4C6966" d="M439.984,180.796h3.106v-23.951c-0.929-0.32-1.979-0.578-3.106-0.787V180.796z"/>
				<path fill="#4C6966" d="M445.506,158.02v22.777h1.595V160.74C447.101,159.623,446.506,158.733,445.506,158.02z"/>
				<path fill="#4C6966" d="M417.898,180.796h3.107v-25.607c-1.001,0.015-2.047,0.04-3.107,0.083V180.796z"/>
				<path fill="#4C6966" d="M412.376,180.796h3.107v-25.398c-1.049,0.07-2.092,0.165-3.107,0.285V180.796z"/>
				<path fill="#4C6966" d="M406.855,180.796h3.107V156.04c-1.124,0.203-2.172,0.454-3.107,0.763V180.796z"/>
				<path fill="#4C6966" d="M404.44,157.918c-1.106,0.736-1.769,1.665-1.769,2.846v20.032h1.769V157.918z"/>
			</g>
		</g>
		<g id="stopper_links">
			<polygon fill="#4C6966" points="338.297,180.103 346.285,176.189 357.709,192.981 349.723,196.894    "/>
			
				<linearGradient id="hänkel_5_" gradientUnits="userSpaceOnUse" x1="297.0098" y1="45.3916" x2="328.3457" y2="45.3916" gradientTransform="matrix(0.866 -0.5 -0.5 -0.866 93.5994 373.0059)">
				<stop offset="0" style="stop-color:#4C6966"/>
				<stop offset="1" style="stop-color:#ADC5BF"/>
			</linearGradient>
			<path id="hänkel_2_" fill="url(#hänkel_5_)" d="M328.711,185.686c2.034,2.988,11.309-1.556,16.066-3.887     c4.719-2.312,13.922-6.821,11.899-9.795l-2.036-2.99c-2.024-2.976-11.228,1.533-15.946,3.845     c-4.759,2.332-14.033,6.875-12.001,9.863L328.711,185.686z"/>
			<g id="rillen_1_">
				<path fill="#4C6966" d="M337.717,173.339l6.082,8.938c0.343-0.167,0.671-0.327,0.979-0.479c0.309-0.151,0.635-0.312,0.978-0.479      l-6.083-8.938c-0.032,0.016-0.064,0.032-0.099,0.048c-0.305,0.149-0.603,0.294-0.878,0.429c-0.283,0.139-0.585,0.287-0.894,0.44      C337.771,173.312,337.744,173.325,337.717,173.339z"/>
				<path fill="#4C6966" d="M350.664,178.748c0.634-0.361,1.255-0.733,1.85-1.112l-5.702-8.38c-0.683,0.247-1.374,0.519-2.06,0.802      L350.664,178.748z"/>
				<path fill="#4C6966" d="M354.318,168.658c-0.024-0.019-0.044-0.039-0.066-0.058c-0.128-0.1-0.264-0.188-0.417-0.259      c-0.01-0.004-0.021-0.009-0.031-0.012c-0.331-0.151-0.719-0.241-1.155-0.276l0,0l4.011,5.896      c0.371-0.69,0.422-1.348,0.016-1.944l-2.036-2.99C354.55,168.877,354.437,168.763,354.318,168.658z"/>
				<path fill="#4C6966" d="M336.664,185.407c0.683-0.248,1.373-0.52,2.059-0.806l-5.917-8.695      c-0.001,0.002-0.005,0.003-0.006,0.004c-0.632,0.36-1.251,0.73-1.844,1.105l0,0L336.664,185.407z"/>
				<path fill="#4C6966" d="M330.859,186.66l-4.084-6.004c0,0.001-0.002,0.001-0.002,0.002c-0.207,0.354-0.329,0.702-0.354,1.035      c-0.002,0.019-0.003,0.039-0.003,0.058c-0.008,0.156,0.008,0.307,0.046,0.457c0.006,0.023,0.016,0.047,0.022,0.07      c0.048,0.152,0.111,0.299,0.209,0.444l2.018,2.964C329.139,186.316,329.895,186.608,330.859,186.66z"/>
			</g>
		</g>
		<g id="stopper_rechts">
			<polygon fill="#4C6966" points="503.521,176.21 511.535,180.123 500.071,196.915 492.06,193.001    "/>
			
				<linearGradient id="hänkel_6_" gradientUnits="userSpaceOnUse" x1="428.502" y1="307.3193" x2="459.9219" y2="307.3193" gradientTransform="matrix(0.866 0.5 0.5 -0.866 -30.314 221.355)">
				<stop offset="0" style="stop-color:#4C6966"/>
				<stop offset="1" style="stop-color:#ADC5BF"/>
			</linearGradient>
			<path id="hänkel_3_" fill="url(#hänkel_6_)" d="M492.995,171.959c-2.04,2.987,7.267,7.531,12.039,9.862     c4.735,2.312,13.97,6.821,16.001,3.846l2.041-2.992c2.031-2.974-7.203-7.482-11.939-9.794     c-4.771-2.331-14.078-6.875-16.118-3.888L492.995,171.959z"/>
			<g id="rillen_2_">
				<path fill="#4C6966" d="M510.157,172.402l-6.104,8.939c0.343,0.168,0.673,0.329,0.98,0.479c0.31,0.151,0.639,0.311,0.982,0.478      l6.101-8.938c-0.031-0.017-0.064-0.033-0.098-0.049c-0.307-0.151-0.604-0.296-0.883-0.431c-0.281-0.139-0.584-0.286-0.897-0.438      C510.212,172.429,510.185,172.416,510.157,172.402z"/>
				<path fill="#4C6966" d="M511.111,184.621c0.689,0.285,1.383,0.556,2.068,0.802l5.719-8.379      c-0.596-0.379-1.219-0.751-1.855-1.114L511.111,184.621z"/>
				<path fill="#4C6966" d="M523.275,182.261c0.01-0.027,0.02-0.053,0.025-0.079c0.041-0.143,0.062-0.287,0.059-0.434      c0-0.011-0.004-0.02-0.004-0.03c-0.01-0.319-0.111-0.648-0.295-0.986c0,0,0.002,0-0.002,0l-4.023,5.895      c0.893-0.071,1.592-0.363,2-0.959l2.041-2.992C523.168,182.541,523.229,182.401,523.275,182.261z"/>
				<path fill="#4C6966" d="M497.27,177.663c0.599,0.377,1.222,0.749,1.858,1.11l5.937-8.695c-0.004-0.001-0.005-0.001-0.008-0.003      c-0.687-0.284-1.376-0.556-2.058-0.801l0,0L497.27,177.663z"/>
				<path fill="#4C6966" d="M493.075,174.024l4.098-6.004c0,0,0,0-0.002,0c-0.468,0.024-0.883,0.109-1.237,0.257      c-0.02,0.008-0.042,0.017-0.062,0.027c-0.162,0.071-0.311,0.159-0.443,0.262c-0.021,0.017-0.039,0.035-0.06,0.051      c-0.132,0.111-0.252,0.232-0.351,0.375l-2.023,2.966C492.564,172.59,492.645,173.289,493.075,174.024z"/>
			</g>
		</g>
		<g id="rahmen">
			<circle id="rahmen_außen" fill="#4C6966" cx="424.974" cy="325.379" r="156.516"/>
			<circle id="rahmen_innen" fill="#ADC5BF" cx="424.975" cy="325.379" r="149.447"/>
		</g>
		<g id="ziffernblatt">
			<circle id="ziffernblatt_hintergrund" fill="#E1F0EA" cx="424.974" cy="325.379" r="135.757"/>
			<g id="große_ziffern">
				<circle fill="#74968E" cx="424.885" cy="202.172" r="6.221"/>
				<circle fill="#74968E" cx="486.588" cy="218.659" r="6.221"/>
				<circle fill="#74968E" cx="531.689" cy="263.768" r="6.221"/>
				<circle fill="#74968E" cx="548.181" cy="325.379" r="6.222"/>
				<circle fill="#74968E" cx="531.674" cy="386.983" r="6.221"/>
				<circle fill="#74968E" cx="486.577" cy="432.078" r="6.221"/>
				<circle fill="#74968E" cx="424.973" cy="448.587" r="6.221"/>
				<circle fill="#74968E" cx="363.364" cy="432.091" r="6.221"/>
				<circle fill="#74968E" cx="318.255" cy="386.995" r="6.221"/>
				<circle fill="#74968E" cx="363.357" cy="218.654" r="6.221"/>
				<circle fill="#74968E" cx="318.234" cy="263.754" r="6.221"/>
				<circle fill="#74968E" cx="301.765" cy="325.379" r="6.221"/>
			</g>
			<g id="kleine_ziffern">
				<circle fill="#ADC5BF" cx="412.093" cy="202.826" r="2.935"/>
				<circle fill="#ADC5BF" cx="399.378" cy="204.846" r="2.935"/>
				<circle fill="#ADC5BF" cx="386.897" cy="208.195" r="2.935"/>
				<circle fill="#ADC5BF" cx="374.873" cy="212.812" r="2.935"/>
				<circle fill="#ADC5BF" cx="352.242" cy="225.837" r="2.935"/>
				<circle fill="#ADC5BF" cx="342.24" cy="233.945" r="2.935"/>
				<circle fill="#ADC5BF" cx="333.105" cy="243.085" r="2.934"/>
				<circle fill="#ADC5BF" cx="325.001" cy="253.096" r="2.935"/>
				<circle fill="#ADC5BF" cx="312.074" cy="275.802" r="2.935"/>
				<circle fill="#ADC5BF" cx="307.467" cy="287.824" r="2.935"/>
				<circle fill="#ADC5BF" cx="304.126" cy="300.308" r="2.934"/>
				<circle fill="#ADC5BF" cx="302.112" cy="313.03" r="2.935"/>
				<circle fill="#ADC5BF" cx="302.455" cy="338.894" r="2.936"/>
				<circle fill="#ADC5BF" cx="304.476" cy="351.609" r="2.935"/>
				<path fill="#ADC5BF" d="M307.517,361.172c1.612-0.171,3.056,1,3.226,2.609c0.168,1.615-1,3.057-2.612,3.228      c-1.612,0.169-3.056-1-3.225-2.612C304.736,362.786,305.906,361.341,307.517,361.172z"/>
				<circle fill="#ADC5BF" cx="312.441" cy="376.114" r="2.935"/>
				<path fill="#ADC5BF" d="M323.883,395.98c1.312-0.952,3.146-0.663,4.102,0.65c0.95,1.309,0.66,3.145-0.65,4.098      c-1.311,0.953-3.147,0.663-4.099-0.648C322.282,398.767,322.575,396.934,323.883,395.98z"/>
				<path fill="#ADC5BF" d="M331.991,405.98c1.312-0.951,3.148-0.66,4.1,0.648c0.953,1.314,0.663,3.147-0.648,4.101      c-1.312,0.954-3.145,0.662-4.098-0.648S330.682,406.934,331.991,405.98z"/>
				<path fill="#ADC5BF" d="M341.132,415.115c1.312-0.952,3.146-0.662,4.098,0.648c0.954,1.313,0.663,3.147-0.649,4.101      c-1.311,0.953-3.146,0.661-4.098-0.651C339.531,417.904,339.821,416.068,341.132,415.115z"/>
				<path fill="#ADC5BF" d="M351.142,423.221c1.31-0.954,3.146-0.662,4.1,0.65c0.951,1.309,0.661,3.146-0.65,4.098      c-1.311,0.955-3.147,0.663-4.099-0.65C349.542,426.01,349.831,424.174,351.142,423.221z"/>
				<path fill="#ADC5BF" d="M372.73,437.057c0.661-1.479,2.395-2.146,3.877-1.487c1.478,0.66,2.145,2.394,1.486,3.874      c-0.659,1.482-2.395,2.148-3.875,1.487C372.739,440.271,372.076,438.539,372.73,437.057z"/>
				<path fill="#ADC5BF" d="M384.752,441.664c0.662-1.479,2.396-2.146,3.875-1.487c1.483,0.661,2.149,2.395,1.489,3.875      c-0.659,1.481-2.393,2.146-3.873,1.487C384.762,444.882,384.096,443.145,384.752,441.664z"/>
				<path fill="#ADC5BF" d="M397.236,445.004c0.659-1.48,2.394-2.146,3.874-1.487c1.483,0.661,2.148,2.395,1.488,3.876      c-0.659,1.481-2.393,2.146-3.874,1.485C397.243,448.221,396.578,446.485,397.236,445.004z"/>
				<path fill="#ADC5BF" d="M409.958,447.02c0.659-1.48,2.394-2.146,3.875-1.488c1.479,0.659,2.145,2.395,1.485,3.875      c-0.658,1.481-2.394,2.147-3.874,1.486C409.967,450.233,409.299,448.501,409.958,447.02z"/>
				<path fill="#ADC5BF" d="M435.569,448.203c-0.169-1.612,1-3.055,2.613-3.226c1.608-0.168,3.054,1,3.225,2.612      c0.17,1.612-1,3.057-2.612,3.226C437.183,450.982,435.741,449.814,435.569,448.203z"/>
				<circle fill="#ADC5BF" cx="451.203" cy="445.875" r="2.936"/>
				<path fill="#ADC5BF" d="M460.764,442.835c-0.168-1.614,1.001-3.059,2.611-3.227c1.615-0.168,3.058,1,3.227,2.613      c0.17,1.612-0.999,3.055-2.613,3.223C462.378,445.613,460.935,444.445,460.764,442.835z"/>
				<circle fill="#ADC5BF" cx="475.708" cy="437.911" r="2.935"/>
				<circle fill="#ADC5BF" cx="497.936" cy="424.724" r="2.935"/>
				<circle fill="#ADC5BF" cx="507.937" cy="416.616" r="2.935"/>
				<path fill="#ADC5BF" d="M514.697,409.201c-0.953-1.312-0.662-3.147,0.648-4.099c1.314-0.954,3.146-0.663,4.1,0.649      c0.955,1.312,0.662,3.145-0.65,4.098C517.484,410.801,515.65,410.511,514.697,409.201z"/>
				<circle fill="#ADC5BF" cx="525.177" cy="397.467" r="2.934"/>
				<path fill="#ADC5BF" d="M536.641,377.615c-1.482-0.66-2.148-2.394-1.488-3.877c0.658-1.477,2.393-2.144,3.875-1.486      c1.48,0.657,2.146,2.396,1.486,3.876S538.119,378.272,536.641,377.615z"/>
				<path fill="#ADC5BF" d="M541.248,365.594c-1.482-0.662-2.146-2.396-1.49-3.874c0.664-1.483,2.395-2.146,3.877-1.489      c1.48,0.66,2.145,2.391,1.486,3.872S542.725,366.25,541.248,365.594z"/>
				<path fill="#ADC5BF" d="M544.588,353.11c-1.482-0.659-2.148-2.396-1.488-3.872c0.66-1.484,2.393-2.149,3.875-1.489      s2.146,2.393,1.486,3.874C547.801,353.102,546.068,353.769,544.588,353.11z"/>
				<path fill="#ADC5BF" d="M546.602,340.39c-1.48-0.66-2.146-2.396-1.486-3.877c0.656-1.479,2.395-2.145,3.873-1.485      c1.48,0.659,2.148,2.395,1.486,3.873C549.816,340.38,548.082,341.047,546.602,340.39z"/>
				<path fill="#ADC5BF" d="M547.799,314.785c-1.611,0.168-3.057-1-3.227-2.615c-0.17-1.607,0.998-3.053,2.611-3.225      c1.611-0.169,3.057,1.002,3.227,2.612C550.576,313.17,549.408,314.612,547.799,314.785z"/>
				<path fill="#ADC5BF" d="M545.777,302.069c-1.615,0.169-3.057-1.002-3.227-2.611c-0.166-1.615,0.998-3.056,2.611-3.228      c1.613-0.168,3.055,0.998,3.225,2.61C548.559,300.453,547.387,301.898,545.777,302.069z"/>
				<path fill="#ADC5BF" d="M542.428,289.588c-1.611,0.169-3.055-1-3.223-2.609c-0.172-1.615,0.998-3.058,2.609-3.228      c1.615-0.17,3.057,1,3.225,2.612C545.207,287.973,544.041,289.417,542.428,289.588z"/>
				<path fill="#ADC5BF" d="M537.811,277.563c-1.611,0.17-3.055-1-3.225-2.612c-0.17-1.609,1.002-3.054,2.613-3.223      c1.611-0.17,3.057,0.998,3.225,2.61C540.59,275.95,539.424,277.394,537.811,277.563z"/>
				<path fill="#ADC5BF" d="M526.062,254.784c-1.314,0.952-3.148,0.663-4.104-0.65c-0.949-1.309-0.66-3.144,0.65-4.099      c1.311-0.954,3.148-0.662,4.102,0.649C527.662,251.996,527.369,253.831,526.062,254.784z"/>
				<path fill="#ADC5BF" d="M517.955,244.783c-1.316,0.953-3.148,0.661-4.1-0.649c-0.953-1.314-0.664-3.146,0.646-4.101      c1.312-0.951,3.143-0.662,4.098,0.649C519.555,241.994,519.262,243.829,517.955,244.783z"/>
				<circle fill="#ADC5BF" cx="507.087" cy="233.274" r="2.935"/>
				<circle fill="#ADC5BF" cx="497.077" cy="225.169" r="2.934"/>
				<path fill="#ADC5BF" d="M477.224,213.692c-0.661,1.482-2.396,2.149-3.879,1.488c-1.477-0.658-2.144-2.392-1.486-3.875      c0.658-1.481,2.396-2.146,3.877-1.488C477.214,210.478,477.879,212.213,477.224,213.692z"/>
				<path fill="#ADC5BF" d="M465.2,209.085c-0.662,1.482-2.395,2.147-3.874,1.489c-1.482-0.662-2.147-2.393-1.49-3.876      c0.661-1.48,2.391-2.145,3.873-1.486C465.191,205.869,465.854,207.605,465.2,209.085z"/>
				<circle fill="#ADC5BF" cx="450.036" cy="204.552" r="2.935"/>
				<circle fill="#ADC5BF" cx="437.314" cy="202.538" r="2.934"/>
			</g>
			<g id="kleiner_kreis_links">
				<path fill="#74968E" d="M372.676,338.505c0,1.626-1.312,2.938-2.934,2.938c-1.62,0-2.935-1.312-2.935-2.938      c0-1.619,1.314-2.932,2.935-2.932C371.364,335.573,372.676,336.886,372.676,338.505z"/>
				<circle fill="#74968E" cx="379.069" cy="341" r="2.935"/>
				<path fill="#74968E" d="M388.822,347.816c0,1.626-1.314,2.937-2.935,2.937c-1.623,0-2.935-1.311-2.935-2.937      c0-1.621,1.312-2.932,2.935-2.932C387.507,344.885,388.822,346.195,388.822,347.816z"/>
				<circle fill="#74968E" cx="388.379" cy="357.132" r="2.935"/>
				<path fill="#74968E" d="M388.818,366.446c0,1.62-1.312,2.931-2.934,2.931c-1.621,0-2.935-1.311-2.935-2.931      s1.314-2.938,2.935-2.938C387.506,363.509,388.818,364.826,388.818,366.446z"/>
				<path fill="#74968E" d="M382.002,373.264c0,1.617-1.315,2.93-2.934,2.93c-1.622,0-2.936-1.312-2.936-2.93      c0-1.625,1.314-2.938,2.936-2.938C380.687,370.326,382.002,371.639,382.002,373.264z"/>
				<path fill="#74968E" d="M372.69,375.759c0,1.619-1.314,2.931-2.935,2.931c-1.623,0-2.935-1.312-2.935-2.931      c0-1.627,1.312-2.938,2.935-2.938C371.376,372.82,372.69,374.132,372.69,375.759z"/>
				<path fill="#74968E" d="M363.376,373.261c0,1.62-1.314,2.937-2.933,2.937c-1.622,0-2.936-1.316-2.936-2.937      c0-1.618,1.314-2.934,2.936-2.934C362.062,370.327,363.376,371.643,363.376,373.261z"/>
				<circle fill="#74968E" cx="353.624" cy="366.443" r="2.935"/>
				<path fill="#74968E" d="M363.377,340.999c0,1.625-1.312,2.936-2.934,2.936c-1.623,0-2.935-1.311-2.935-2.936      c0-1.622,1.312-2.933,2.935-2.933C362.065,338.066,363.377,339.377,363.377,340.999z"/>
				<path fill="#74968E" d="M356.556,347.818c0,1.618-1.315,2.932-2.937,2.932c-1.619,0-2.933-1.313-2.933-2.932      c0-1.624,1.314-2.937,2.933-2.937C355.241,344.882,356.556,346.194,356.556,347.818z"/>
				<circle fill="#74968E" cx="351.131" cy="357.132" r="2.935"/>
				<g id="zeiger_1_">
					<rect x="365.039" y="346.959" fill="#74968E" width="3.913" height="15.65"/>
					<rect x="366.418" y="345.579" fill="#4C6966" width="3.914" height="15.65"/>
				</g>
			</g>
			<g id="kleiner_kreis_rechts">
				<path fill="#74968E" d="M483.113,338.505c0,1.626-1.314,2.938-2.936,2.938c-1.619,0-2.936-1.312-2.936-2.938      c0-1.619,1.316-2.932,2.936-2.932C481.799,335.573,483.113,336.886,483.113,338.505z"/>
				<circle fill="#74968E" cx="489.504" cy="341" r="2.934"/>
				<path fill="#74968E" d="M499.258,347.816c0,1.626-1.315,2.937-2.936,2.937c-1.624,0-2.935-1.311-2.935-2.937      c0-1.621,1.311-2.932,2.935-2.932C497.942,344.885,499.258,346.195,499.258,347.816z"/>
				<circle fill="#74968E" cx="498.815" cy="357.132" r="2.935"/>
				<path fill="#74968E" d="M499.254,366.446c0,1.62-1.312,2.931-2.934,2.931c-1.622,0-2.936-1.311-2.936-2.931      s1.313-2.938,2.936-2.938C497.941,363.509,499.254,364.826,499.254,366.446z"/>
				<path fill="#74968E" d="M492.438,373.264c0,1.617-1.315,2.93-2.934,2.93c-1.621,0-2.935-1.312-2.935-2.93      c0-1.625,1.313-2.938,2.935-2.938C491.122,370.326,492.438,371.639,492.438,373.264z"/>
				<path fill="#74968E" d="M483.126,375.759c0,1.619-1.314,2.931-2.935,2.931c-1.623,0-2.935-1.312-2.935-2.931      c0-1.627,1.312-2.938,2.935-2.938C481.812,372.82,483.126,374.132,483.126,375.759z"/>
				<path fill="#74968E" d="M473.812,373.261c0,1.62-1.314,2.937-2.934,2.937c-1.622,0-2.936-1.316-2.936-2.937      c0-1.618,1.313-2.934,2.936-2.934C472.498,370.327,473.812,371.643,473.812,373.261z"/>
				<path fill="#74968E" d="M466.994,366.443c0,1.625-1.313,2.938-2.934,2.938c-1.624,0-2.936-1.313-2.936-2.938      c0-1.621,1.312-2.933,2.936-2.933C465.681,363.511,466.994,364.822,466.994,366.443z"/>
				<path fill="#74968E" d="M473.812,340.999c0,1.625-1.312,2.936-2.934,2.936c-1.623,0-2.936-1.311-2.936-2.936      c0-1.622,1.312-2.933,2.936-2.933C472.501,338.066,473.812,339.377,473.812,340.999z"/>
				<path fill="#74968E" d="M466.991,347.818c0,1.618-1.315,2.932-2.937,2.932c-1.618,0-2.934-1.313-2.934-2.932      c0-1.624,1.315-2.937,2.934-2.937C465.676,344.882,466.991,346.194,466.991,347.818z"/>
				<circle fill="#74968E" cx="461.567" cy="357.132" r="2.935"/>
				<g id="zeiger_2_">
					<rect x="476.853" y="345.579" fill="#74968E" width="3.913" height="15.65"/>
					<rect x="478.232" y="344.198" fill="#4C6966" width="3.913" height="15.65"/>
				</g>
			</g>
		</g>
		<g id="zeiger_3_">
			<path id="zeigerschatten" fill="#74968E" d="M434.762,328.141c0-4.701-2.59-8.792-6.416-10.942v-89.562l-6.133-9.618     l-6.134,9.618v89.562c-3.826,2.15-6.415,6.241-6.415,10.942c0,4.699,2.589,8.791,6.415,10.942v8.318h12.267v-8.318     C432.172,336.932,434.762,332.84,434.762,328.141z"/>
			<polygon id="zeiger" fill="#4C6966" points="431.106,224.875 424.974,215.257 418.84,224.875 418.84,344.643 431.106,344.643         "/>
			<g id="mittelpunkt_2_">
				<circle id="mittelpunkt" fill="#ADC5BF" cx="424.973" cy="325.379" r="12.548"/>
				<circle id="mittelpunkt_1_" fill="#E1F0EA" cx="424.973" cy="325.379" r="3.912"/>
			</g>
		</g>
		<g id="spiegelung">
			<linearGradient id="SVGID_30_" gradientUnits="userSpaceOnUse" x1="316.8755" y1="330.1396" x2="542.5938" y2="330.1396">
				<stop offset="0" style="stop-color:#FFFFFF;stop-opacity:0"/>
				<stop offset="1" style="stop-color:#FFFFFF"/>
			</linearGradient>
			<path opacity="0.7" fill="url(#SVGID_30_)" d="M507.098,217.281L316.875,407.502c10.909,14.338,24.598,26.44,40.271,35.496     l185.447-185.447C533.535,241.877,521.434,228.188,507.098,217.281z"/>
			<linearGradient id="SVGID_31_" gradientUnits="userSpaceOnUse" x1="300.0977" y1="294.8628" x2="488.8164" y2="294.8628">
				<stop offset="0" style="stop-color:#FFFFFF;stop-opacity:0"/>
				<stop offset="1" style="stop-color:#FFFFFF"/>
			</linearGradient>
			<path opacity="0.7" fill="url(#SVGID_31_)" d="M305.146,389.223l183.671-183.672c-3.422-1.827-6.929-3.514-10.517-5.048     L300.098,378.706C301.632,382.295,303.319,385.802,305.146,389.223z"/>
			<linearGradient id="SVGID_32_" gradientUnits="userSpaceOnUse" x1="362.2051" y1="358.5273" x2="554.041" y2="358.5273">
				<stop offset="0" style="stop-color:#FFFFFF;stop-opacity:0"/>
				<stop offset="1" style="stop-color:#FFFFFF"/>
			</linearGradient>
			<path opacity="0.7" fill="url(#SVGID_32_)" d="M382.799,454.446l171.242-171.243c-2.334-7.144-5.242-14.026-8.672-20.595     L362.205,445.775C368.772,449.205,375.656,452.112,382.799,454.446z"/>
		</g>
		<path id="ziffernblatt_schatten" fill="#74968E" d="M424.974,189.623c-37.839,0-72.057,15.487-96.676,40.46    c24.51-24.162,58.159-39.08,95.295-39.08c74.976,0,135.757,60.781,135.757,135.758c0,37.137-14.916,70.784-39.08,95.295    c24.973-24.621,40.461-58.837,40.461-96.677C560.73,250.403,499.95,189.623,424.974,189.623z"/>
	</g>
</g>
</symbol><symbol id="icon-script" viewBox="-10 -10 200 173">
    <title>Untitled 5</title>
    <description>Created with Sketch (http://www.bohemiancoding.com/sketch)</description>
    <defs/>
    <g xmlns:sketch="http://www.bohemiancoding.com/sketch/ns" xmlns="http://www.w3.org/2000/svg" id="Page-1" stroke="none" stroke-width="1" fill="none" fill-rule="evenodd" sketch:type="MSPage">
        <path d="M7.99740716,0 C3.58056115,0 0,3.57524125 0,7.99986275 L0,155.000137 C0,159.418339 3.58403976,163 7.99740716,163 L182.002593,163 C186.419439,163 190,159.424759 190,155.000137 L190,7.99986275 C190,3.58166055 186.41596,0 182.002593,0 L7.99740716,0 Z M22.0059557,12 C17.5843885,12 14,15.5756579 14,19.9978228 L14,143.002177 C14,147.419253 17.5724026,151 22.0059557,151 L167.994044,151 C172.415612,151 176,147.424342 176,143.002177 L176,19.9978228 C176,15.5807473 172.427597,12 167.994044,12 L22.0059557,12 Z" id="Rectangle-1" fill="#DDF0F2" sketch:type="MSShapeGroup"/>
        <path d="M75,51.8961039 L21,80.8249845 L21,87.925603 L75,120 L75,103.418182 L42.0572086,83.7589981 L75,66.8246753 L75,51.8961039 Z" id="Path-1" fill="#DDF0F2" sketch:type="MSShapeGroup"/>
        <path d="M169,51 L115,79.8847481 L115,86.9745342 L169,119 L169,102.443478 L136.057209,82.8142857 L169,65.9057971 L169,51 Z" id="Path-1" fill="#DDF0F2" sketch:type="MSShapeGroup" transform="translate(142.000000, 85.000000) scale(-1, 1) translate(-142.000000, -85.000000) "/>
        <path d="M78.0853914,120.074219 L98.4451309,50.9257812 L112.298828,50.9257812 L92.4384766,120.074219 L78.0853914,120.074219 Z" id="Path-3" fill="#DDF0F2" sketch:type="MSShapeGroup"/>
    </g>
</symbol><symbol id="icon-service" viewBox="0 0 100 100"><title>Untitled 4</title><path xmlns:sketch="http://www.bohemiancoding.com/sketch/ns" d="M99.239 41.312c-1.539-8.726-5.263-16.514-10.497-22.918l-.138-.18-.003.012c-10.771-13.063-27.878-20.288-45.705-17.718l-.005-.028-3.15.555.015.083c-17.635 3.73-31.277 16.401-36.843 32.403l-.119-.177c-.389 1.1-.74 2.216-1.051 3.346l.141.142c-1.869 6.905-2.269 14.325-.884 21.844v.003l-.153.007c.065.37.094.733.201 1.09 5.188 26.042 29.825 43.445 56.049 39.687l.01.054 1.511-.267.051-.007.04-.009 1.549-.273-.01-.054c26.319-5.496 43.693-30.928 38.991-57.595zm-9.901-14.131l.256.376c2.817 4.351 4.618 9.17 5.439 14.321v.002l.151.004s-.165 3.477-1.532 5.415c-1.486 2.105-3.886 4.288-7.028 6.312-1.31.842-2.705 1.651-4.214 2.423.003-3.764-.316-7.688-1.021-11.689-.551-3.123-1.3-6.125-2.215-8.973 4.59-2.494 8.109-5.31 10.163-8.192zm-54.386 39.268c-1.919-.003-3.767-.08-5.541-.222-1.457-3.764-2.571-7.767-3.307-11.944-.5-2.838-.806-5.659-.929-8.442 6.007.634 13.034.414 20.44-.785l3.56 20.189c-4.86.791-9.642 1.208-14.222 1.203zm18.396-22.67c7.36-1.408 14.031-3.603 19.453-6.252.836 2.661 1.516 5.419 2.016 8.261.737 4.184 1.06 8.329.978 12.371-1.62.741-3.332 1.445-5.136 2.105-4.295 1.568-8.92 2.81-13.747 3.73l-3.565-20.215zm9.399-37.621c4.782 1.097 9.255 3.088 13.294 5.916 3.234 2.265 5.941 4.981 8.265 8.084-.126.208-.254.415-.403.626-1.351 1.916-3.579 3.905-6.444 5.75-.775.5-1.593.986-2.445 1.459-3.9-10.75-10.263-18.984-17.302-22.628 1.686.153 3.37.411 5.035.792zm-9.139 2.292c2.832 1.337 5.565 3.515 8.126 6.474 2.625 3.032 4.919 6.714 6.818 10.943.606 1.349 1.157 2.739 1.664 4.158-1.891.937-3.938 1.813-6.139 2.618-3.85 1.407-7.997 2.523-12.323 3.352l-5.108-28.971c2.274-.157 4.609.315 6.962 1.427zm-14.029-.808l5.137 29.133c-4.388.71-8.704 1.084-12.841 1.079-2.354-.003-4.59-.127-6.699-.362-.009-1.515.033-3.017.142-4.501.34-4.649 1.242-8.916 2.678-12.683 1.402-3.676 3.235-6.674 5.451-8.912 1.854-1.87 3.912-3.124 6.131-3.754zm-26.844 14.491c2.876-4.106 6.456-7.563 10.644-10.275 1.432-.927 2.918-1.743 4.447-2.466-5.439 5.931-8.643 15.996-8.633 27.602-.978-.155-1.925-.336-2.838-.543-3.378-.768-6.197-1.893-8.155-3.254-.238-.165-.454-.336-.665-.506 1.181-3.754 2.917-7.297 5.2-10.559zm-8.223 35.201c-1-5.671-.859-11.366.417-16.928l.153-.601c3.21 2.238 7.943 3.846 13.678 4.705.126 3.294.479 6.682 1.085 10.122.776 4.403 1.911 8.588 3.331 12.479-1.851-.232-3.62-.534-5.29-.913-4.012-.91-7.364-2.246-9.692-3.865-1.86-1.294-3.05-2.759-3.538-4.287l-.143-.713zm30.859 34.908c-4.596-1.055-8.893-2.968-12.775-5.685-3.881-2.717-7.147-6.102-9.711-10.061-1.53-2.361-2.758-4.873-3.697-7.501 3.379 2.511 8.746 4.156 15.314 4.794 3.779 9.074 9.421 15.984 15.606 19.206-1.588-.149-3.17-.393-4.737-.753zm10.887-1.602c-2.642-1.247-5.193-3.279-7.583-6.04-2.448-2.83-4.589-6.265-6.361-10.211l-.139-.322c5.223.297 11.113-.032 17.28-1.039l3.339 18.937c-2.135.156-4.327-.281-6.537-1.324zm15.623-.645l-3.359-19.068c6.161-1.169 11.829-2.884 16.654-4.959l-.02.352c-.318 4.344-1.159 8.331-2.501 11.852-1.309 3.435-3.021 6.237-5.09 8.326-1.72 1.737-3.626 2.904-5.684 3.496zm15.377-5.804c-1.313.85-2.679 1.599-4.083 2.26 4.516-4.912 7.33-12.976 7.759-22.376 5.735-2.741 10.039-6.001 12.24-9.389.021 2.691-.262 5.371-.868 8.013-1.008 4.393-2.836 8.501-5.434 12.21-2.597 3.708-5.832 6.832-9.615 9.282z" sketch:type="MSShapeGroup" fill="#DDF0F2"/></symbol><symbol id="icon-settings" viewBox="14 14 100 100"><g xmlns="http://www.w3.org/2000/svg" fill="#DDF0F2"><path d="M32 72c-4.418 0-8 3.582-8 8s3.582 8 8 8 8-3.582 8-8-3.582-8-8-8zm0 12c-2.209 0-4-1.791-4-4s1.791-4 4-4 4 1.791 4 4-1.791 4-4 4zM96 56c-4.418 0-8 3.582-8 8s3.582 8 8 8 8-3.582 8-8-3.582-8-8-8zm0 12c-2.209 0-4-1.791-4-4s1.791-4 4-4 4 1.791 4 4-1.791 4-4 4zM64 40c-4.418 0-8 3.582-8 8s3.582 8 8 8 8-3.582 8-8-3.582-8-8-8zm0 12c-2.209 0-4-1.791-4-4s1.791-4 4-4 4 1.791 4 4-1.791 4-4 4zM64 36c.684 0 1.35.07 2 .18v-4.18h-4v4.18c.652-.11 1.317-.18 2-.18zM64 60c-.683 0-1.348-.07-2-.18v36.18h4v-36.18c-.65.11-1.316.18-2 .18zM96 52c.684 0 1.35.07 2 .18v-20.18h-4v20.18c.65-.11 1.316-.18 2-.18zM96 76c-.684 0-1.35-.07-2-.18v20.18h4v-20.18c-.65.11-1.316.18-2 .18zM32 68c.683 0 1.348.07 2 .18v-36.18h-4v36.18c.652-.11 1.317-.18 2-.18zM32 92c-.683 0-1.348-.07-2-.18v4.18h4v-4.18c-.652.11-1.317.18-2 .18z"/></g></symbol></svg>