<svg xmlns="http://www.w3.org/2000/svg"><symbol id="icon-angular" viewBox="0.554 0.875 165.908 175.75">
<g>
	<path d="M83.243,0.875l-82.689,29.1l13.067,108.335l69.71,38.314l70.069-38.833L166.462,29.46L83.243,0.875z M146.041,132.609
		l-62.992,34.861l-62.02-34.398L9.833,36.183l73.216-26.096l75.165,25.634L146.041,132.609z"/>
	<path d="M83.05,15.804L83.05,15.804L83.05,15.804l-0.001,0.002L31.925,129.539l19.067-0.354l10.251-25.64h45.819l11.223,25.997
		l18.244,0.338L83.051,15.809L83.05,15.804z M100.454,88.382H67.969l15.218-36.11L100.454,88.382z"/>
</g>
</symbol><symbol id="icon-apache" viewBox="0 225.305 791.996 341.388">
<g>
	<path d="M260.974,549.142c66.846-21.68,113.819-31.013,113.819-31.013s34.63-44.265,41.552-59.621
		c-2.369,15.433-12.344,51.489-12.344,51.489s115.924-44.866,158.078-81.298c42.156-36.431,59.621-105.086,59.621-105.086
		s146.035-65.941,152.061-71.962c6.023-6.025,38.537-45.769-1.207-14.453c-39.746,31.312-149.039,59.81-152.459,58.714
		c-8.031-8.033-70.664-16.862-77.885-24.09c-7.229-7.226-74.676,10.439-74.676,10.439s77.084-3.21,91.535,24.087
		c-69.053-12.848-130.877-12.848-130.877-12.848s-126.066,61.828-147.743,65.843c-21.676,4.016-88.322,28.905-88.322,28.905
		s33.72-4.817,48.98,10.438c-64.237-4.814-92.34-0.803-92.34-0.803s-79.49,51.391-110.806,82.705
		c-19.375,4.719-31.314,17.665-31.314,17.665s-9.438,16.561-5.822,29.81c12.945-2.409,20.771,2.711,20.771,2.711
		s-11.139,14.451-1.504,29.207c11.441,0,17.768,1.806,17.768,1.806s21.977,4.515,46.668,4.515
		C109.218,566.302,194.132,570.821,260.974,549.142z M50.805,516.415c0,0,420.739-134.895,443.222-146.939
		c21.539-11.539,78.785-38.906,87.438-45.067c1.143-1.003,1.504-1.315,0.891-0.7c-0.186,0.185-0.508,0.429-0.891,0.7
		c-7.057,6.215-45.166,40.043-81.814,58.714C457.097,404.801,125.476,508.384,50.805,516.415z"/>
</g>
</symbol><symbol id="icon-apple" viewBox="0 0 512 512"><path d="M423.754 352.263c-13.494 39.14-49.969 108.441-91.588 109.193-27.609.523-36.465-16.355-68.025-16.355-31.543 0-41.397 15.849-67.502 16.879-44.153 1.677-108.393-100.042-108.393-188.75 0-81.495 52.872-121.895 102.488-122.639 26.604-.475 51.734 17.942 67.977 17.942 16.283 0 46.811-22.146 78.895-18.891 13.42.556 51.137 5.413 75.344 40.809-64.231 41.912-58.138 129.582 10.804 161.812zm-85.733-302.263c-48.52 1.955-88.103 52.847-82.565 94.948 44.823 3.484 87.856-46.779 82.565-94.948z"/></symbol><symbol id="icon-arrow" viewBox="0 0 26 26"><title>Slice 1</title><path d="M22.954 6l3.378 3.394-12.677 12.617-12.677-12.617 3.378-3.394 9.299 9.255 9.299-9.255z" fill="#333" sketch:type="MSShapeGroup"/></symbol><symbol id="icon-bookmarklet" viewBox="0 0 512 512"><path d="M153.725 50v412l102.275-90.443 102.275 90.443v-412h-204.55zm143.631 235.243l-41.356-22.118-41.354 22.118 8.255-46.166-33.815-32.497 46.458-6.415 20.456-42.202 20.458 42.202 46.458 6.415-33.814 32.497 8.254 46.166z"/></symbol><symbol id="icon-chrome" viewBox="0 0 512 512"><path d="M99.744 121.842c95.763-111.391 273.325-89.403 339.705 40.713-46.727.017-119.898-.014-159.528 0-28.743.01-47.301-.643-67.398 9.931-23.627 12.43-41.454 35.471-47.677 62.534l-65.102-113.178zm87.722 134.15c0 37.752 30.713 68.465 68.465 68.465 37.751 0 68.464-30.713 68.464-68.465 0-37.751-30.713-68.465-68.464-68.465-37.752 0-68.465 30.714-68.465 68.465zm95.036 89.616c-38.428 11.414-83.398-1.244-108.031-43.74-18.803-32.438-68.483-118.938-91.064-158.27-79.086 121.147-10.925 286.239 132.65 314.417l66.445-112.407zm37.027-158.081c32.006 29.752 38.979 77.928 17.299 115.283-16.334 28.144-68.466 116.083-93.732 158.666 147.927 9.114 255.764-135.786 207.055-273.949h-130.622z"/></symbol><symbol id="icon-dislike" viewBox="0 0 512 512"><path d="M271.28 387.914c-17.307-53.859-63.697-127.136-171.845-134.803v-124.057c113.814-1.277 166.521-42.479 206.369-47.118 35.122-4.089 72.641.592 77.63 35.666l-16.098-5.4c-13.68-4.152-19.787 16.469-6.223 20.566l15.225 5.191c14.772 4.469 15.36 10.34 18.069 30.715l-19.089-6.25c-13.544-4.111-19.944 16.422-6.231 20.57l15.543 4.777c15.264 4.625 15.555 8.529 18.992 31.1l-20.255-5.973c-13.687-4.143-19.794 16.469-6.229 20.572l19.582 5.205c13.113 3.718 13.939 12.192 15.138 29.868-52.403-6.541-98.463 12.154-118.087 26.352 19.603 58.491 24.727 129.205 3.165 135.719-17.245 5.212-19.178-22.542-25.656-42.7zm59.293-77.223c36.52-15.377 84.09-15.548 112.785-8.374-7.346-69.176-22.035-151.506-32.01-189.047-14.318-53.89-53.036-68.187-108.984-61.886-60.227 6.781-78.781 48.671-233.723 48.671v180.666c52.274 4.058 141.274 9.724 175.604 124.14 8.531 28.435 16.667 57.14 48.62 57.14 59.205-.001 51.597-94.948 37.708-151.31z"/></symbol><symbol id="icon-email" viewBox="0 0 512 512"><path d="M256 50c-113.771 0-206 92.229-206 206s92.229 206 206 206 206-92.229 206-206-92.229-206-206-206zm123.956 114.444l-122.951 94.297-122.755-94.297h245.706zm-246.557 25.828l72.327 55.559-72.327 72.327v-127.886zm.301 157.283l88.821-88.821 34.474 26.48 34.418-26.396 88.738 88.736h-246.451zm246.9-29.248l-72.38-72.38 72.38-55.511v127.891z"/></symbol><symbol id="icon-firefox" viewBox="0 0 512 512"><path d="M193.236 136.759c1.611-13.756 10.781-31.599 28.046-39.777-25.94-3.966-47.005 8.179-57.497 23.792-16.648-3.592-26.877-3.789-43.619-.661-10.624-8.052-23.118-26.401-22.14-45.601-20.101 23.677-24.243 41.531-21.765 62.845-77.367 138.394 26.723 304.812 175.09 304.812 133.296-.001 210.649-101.942 210.649-206.4 0-70.445-31.887-131.594-64.444-144.815 12.147 13.387 25.947 48.257 23.303 72.387-26.277-68.42-91.888-94.863-113.998-93.455 72.682 28.34 90.076 124.814 83.628 153.287-6.319-33.388-26.483-62.146-38.546-69.748 70.391 164.908-99.609 215.575-151.479 158.343 13.376 3.469 39.78 1.764 59.561-11.483 18.506-12.393 20.247-13.12 32.137-14.043 14.123-1.098-.851-28.986-31.702-24.268-12.694 1.942-33.612 16.869-59.341 7.031-31.045-11.872-30.068-54.25 1.99-41.5 6.939-9.003 1.817-26.021 1.817-26.021 9.314-8.529 21.072-14.539 28.234-18.763 4.697-2.77 17.077-10.439 16.376-25.351-2.522-1.972-6.598-4.492-15.779-3.965-35.775 2.268-38.167-10.658-40.521-16.646z"/></symbol><symbol id="icon-github" viewBox="0 0 512 512"><path d="M256 55.083c-113.764 0-206 92.237-206 206 0 91.013 59.025 168.246 140.887 195.472 10.293 1.911 13.613-4.459 13.613-9.908v-38.356c-57.301 12.473-69.238-24.291-69.238-24.291-9.354-23.822-22.865-30.159-22.865-30.159-18.693-12.774 1.408-12.523 1.408-12.523 20.688 1.459 31.584 21.24 31.584 21.24 18.373 31.483 48.18 22.381 59.949 17.117 1.844-13.312 7.174-22.397 13.076-27.544-45.768-5.197-93.848-22.867-93.848-101.81 0-22.498 8.047-40.872 21.225-55.289-2.146-5.197-9.188-26.152 1.979-54.518 0 0 17.301-5.532 56.662 21.123 16.445-4.56 34.066-6.856 51.568-6.94 17.502.084 35.154 2.381 51.6 6.94 39.33-26.655 56.596-21.123 56.596-21.123 11.217 28.365 4.158 49.32 2.029 54.518 13.211 14.417 21.207 32.791 21.207 55.289 0 79.127-48.197 96.545-94.064 101.642 7.375 6.388 14.133 18.943 14.133 38.155v56.529c0 5.482 3.301 11.903 13.746 9.892 81.81-27.275 140.753-104.459 140.753-195.455 0-113.763-92.238-206.001-206-206.001z"/></symbol><symbol id="icon-globe" viewBox="0 0 512 512"><path d="M462 256c0-115.604-93.762-206-206-206-111.458 0-206 89.449-206 206 0 117.234 95.125 206 206 206 111.564 0 206-89.594 206-206zm-303.473-75.583c-3.932 18.902-6.367 39.029-7.146 59.793h-59.098c2.635-27.648 12.112-53.299 26.723-75.242 12.689 6.423 26.057 11.47 39.521 15.449zm-7.056 91.372c.898 20.948 3.489 41.223 7.6 60.219-13.784 4.044-26.991 9.04-39.779 15.46-14.774-22.038-24.356-47.847-27.009-75.679h59.188zm15.888 90.67c4.935 14.79 11.216 29.376 19.297 42.713-17.433-8.118-33.21-19.194-46.675-32.595 8.49-3.848 17.654-7.232 27.378-10.118zm104.43-43.301v-47.369h57.664c-.857 18.496-3.139 36.317-6.701 52.957-16.283-2.998-33.397-4.887-50.963-5.588zm42.49 36.118c-7.732 22.147-21.896 50.895-42.49 62.079v-66.595c14.66.633 28.914 2.153 42.49 4.516zm-42.49-115.066v-46.786c17.764-.71 35.062-2.634 51.508-5.689 3.383 16.53 5.504 34.188 6.242 52.476h-57.75zm0-78.39v-69.28c21.248 11.54 35.648 41.664 43.357 64.609-13.837 2.452-28.384 4.026-43.357 4.671zm-31.579-68.997v68.975c-14.788-.659-29.156-2.227-42.831-4.649 7.67-22.832 21.909-52.582 42.831-64.326zm0 100.577v46.81h-57.225c.738-18.289 2.86-35.946 6.242-52.477 16.284 3.027 33.403 4.941 50.983 5.667zm-50.436 131.347c-3.563-16.641-5.845-34.46-6.701-52.958h57.138v47.392c-17.383.718-34.316 2.598-50.437 5.566zm50.436 26.036v66.289c-20.311-11.4-34.28-39.795-41.965-61.795 13.416-2.335 27.49-3.848 41.965-4.494zm104.956 11.675c9.588 2.844 18.629 6.176 27.02 9.956-13.314 13.288-28.898 24.299-46.115 32.418 8.025-13.32 14.208-27.733 19.095-42.374zm8.289-30.452c4.109-18.995 6.701-39.27 7.6-60.217h58.662c-2.645 27.748-12.178 53.483-26.877 75.478-12.813-6.387-25.836-11.286-39.385-15.261zm39.672-166.837c14.533 21.899 23.963 47.477 26.59 75.041h-58.572c-.779-20.763-3.215-40.89-7.146-59.792 13.407-3.963 26.636-8.96 39.128-15.249zm-20.545-25.18c-8.266 3.748-17.174 7.057-26.615 9.893-4.709-14.58-10.629-28.794-18.174-41.894 16.707 8.118 31.832 18.98 44.789 32.001zm-187.64-32.36c-7.712 13.324-13.653 27.607-18.385 42.252-9.578-2.878-18.609-6.241-26.979-10.058 13.112-13.139 28.435-24.072 45.364-32.194z"/></symbol><symbol id="icon-grunt" viewBox="0 0 69 90">
    <defs/>
    <g id="Page-1" stroke="none" stroke-width="1" fill="none" fill-rule="evenodd">
        <path d="M6.412196,55.7299805 C7.13192257,57.2471401 7.63055982,60.9976636 11.1653462,63.495745 C11.7309964,54.8662458 11.7309964,51.3741629 11.7309964,51.3741629 C11.7309964,51.3741629 11.4138735,48.5888671 8.62677986,46.9471959 C5.83968624,45.3055246 4.6550923,44.7321429 4.6550923,44.7321429 C4.6550923,44.7321429 -0.743384705,42.0247973 1.64479902,36.1277553 C4.39759482,34.0440151 5.04450447,33.0348424 5.04450447,33.0348424 C5.04450447,33.0348424 5.2808956,33.1530762 5.38378906,26.9165039 C3.65043,26.3619559 -0.519129599,15.2777972 9.05365581,16.6071429 C9.29585118,13.1312779 9.29585118,12.2968401 9.29585118,12.2968401 C9.29585118,12.2968401 7.41738597,8.79167832 1.6859564,8.06291853 C4.04248047,5.91064453 12.9905174,-2.22342408 24.0539393,10.9915597 C24.7736659,11.0260882 25.5023627,10.6243025 25.5023627,10.6243025 C25.5023627,10.6243025 24.5409677,6.12304568 30.1557853,2.11042132 C30.3568233,4.69953265 30.4634099,5.94621936 31.381009,7.00456892 C32.3302671,4.84863281 33.8377877,0.608432816 38.4442493,-0.0455147879 C38.1677561,2.621024 37.3261404,1.54645647 38.6331511,6.57453265 C41.2123472,4.93861607 41.4761761,3.82376616 44.6748441,3.82376535 C43.1667953,7.25359235 43.160463,6.79844448 43.1604634,10.6771415 C43.7629152,10.9718382 43.6981477,11.431536 44.9175671,11.0328892 C52.89524,-0.315987723 62.3909873,2.9359654 67.6433027,8.107387 C63.5692493,8.9831543 61.2443842,9.93582588 60.1194163,12.1602958 C59.9653399,14.9733189 60.1341907,14.2006138 59.9653399,16.6071429 C59.9057145,15.6769671 71.3580204,17.3128836 63.6067136,26.9165039 C63.634679,30.8579799 64.188193,33.3246722 64.188193,33.3246722 C64.188193,33.3246722 72.9256939,39.1510879 64.301112,45.2626256 C60.3832457,47.2160993 57.4800665,48.1598772 57.4800671,51.5771484 C57.4800676,54.9944196 57.2505349,58.6429269 58.0990108,63.0850656 C60.2196714,61.2780762 60.8512784,60.7366071 62.5761955,55.7299805 C64.9992046,56.6240583 71.562752,71.4524623 58.0172237,77.2589983 C54.6491778,82.1719796 54.0080724,84.4770159 46.1121866,86.1186872 C42.5235793,88.2620675 33.104342,93.3707103 23.6370889,86.2060547 C19.2284999,85.196882 16.1337811,86.0627094 11.5114904,77.7512905 C5.07721932,76.2309919 -1.39240486,66.265346 6.412196,55.7299805 Z M7.50761561,25.8895437 C7.50761561,25.8895437 2.51392281,18.9475514 8.51940136,18.7309046 C11.8766303,18.6097934 17.9855996,19.4280134 27.3299094,26.9452775 C24.5256668,22.9480852 25.4432641,22.6744735 17.7186043,17.9061454 C21.0673907,14.450422 37.3709914,7.85365513 51.4877108,17.9061453 C47.8737754,19.6799142 45.3032846,21.1227843 41.7154699,26.9452776 C46.7838962,23.4437779 51.686903,18.7309043 60.569773,18.7309047 C62.5814721,19.3050711 65.2548553,19.8308443 61.6583331,25.8895437 C61.3710229,24.1191754 61.6583336,23.2300676 61.6583336,23.2300676 C61.6583336,23.2300676 57.9573348,31.4776612 63.1824754,38.1183743 C63.0864415,37.4952916 63.1824754,35.9938267 63.1824754,35.9938267 C63.1824754,35.9938267 67.6586059,39.6601203 62.6424167,43.1145368 C58.0705173,45.7033866 55.412174,45.9793517 54.8895264,51.4714704 C54.9156455,57.0185198 54.5821657,57.7546039 55.3483262,64.8441861 C52.814245,65.6153217 51.9256692,65.9412485 48.5032728,65.9412494 C46.2652082,60.8268521 45.678451,59.0135847 42.9177404,53.2067871 C43.1353996,55.9136091 44.5872545,62.6678457 46.9907384,68.5298375 C40.9121094,68.5219901 22.1213891,68.4712437 22.1213891,68.4712437 C22.1213891,68.4712437 25.4131874,60.2333277 26.0141917,53.1597028 C24.5860832,55.819179 22.9806817,59.6230633 20.6381403,65.9412493 C16.8820013,65.9394182 15.9939516,65.6561279 13.630568,64.844186 C14.3914519,57.779977 14.2782691,55.5060686 14.2922516,51.9873056 C13.5453506,46.8705541 12.4106209,46.0321917 6.71533606,43.1145378 C1.51605028,40.0603376 5.65949077,35.9938277 5.65949077,35.9938277 L5.65949077,38.1183743 C5.65949077,38.1183743 10.2073817,33.5216413 7.50761561,23.2300677 C7.28309681,24.4474574 7.50761561,25.8895437 7.50761561,25.8895437 Z M10.5646067,30.1674107 C10.5646067,30.1674107 18.8554451,28.0350167 26.4318336,37.5792585 C28.1126906,37.8625488 29.2273697,38.2638114 31.1868306,37.5635638 C30.5597081,39.1921561 31.0997669,39.9319022 27.5987509,40.8680943 C27.4681554,42.2923933 27.4072108,43.6298479 25.1952652,46.3131278 C25.4999882,44.369594 26.301502,43.557466 24.9863124,40.8523996 C24.3069517,41.8989781 14.4315542,45.1012311 13.081539,33.5742188 C12.5240675,35.1635742 12.2802892,36.2493896 12.2802892,36.2493896 C12.2802892,36.2493896 10.259884,32.9922051 12.3673529,31.0722133 C11.6792858,30.7415771 10.5646067,30.1674107 10.5646067,30.1674107 Z M16.3036873,33.2043457 C17.5924939,33.4402902 21.0238587,35.3050886 24.1415306,39.2708915 C19.1514617,41.5291051 15.3718419,38.964059 16.3036873,33.2043457 Z M58.4353933,30.1674107 C58.4353933,30.1674107 50.1445549,28.0350167 42.5681664,37.5792585 C40.8873094,37.8625488 39.7726303,38.2638114 37.8131694,37.5635638 C38.4402919,39.1921561 37.9002331,39.9319022 41.4012491,40.8680943 C41.5318446,42.2923933 41.5927892,43.6298479 43.8047348,46.3131278 C43.5000118,44.369594 42.698498,43.557466 44.0136876,40.8523996 C44.6930483,41.8989781 54.5684458,45.1012311 55.918461,33.5742188 C56.4759325,35.1635742 56.7197108,36.2493896 56.7197108,36.2493896 C56.7197108,36.2493896 58.740116,32.9922051 56.6326471,31.0722133 C57.3207142,30.7415771 58.4353933,30.1674107 58.4353933,30.1674107 Z M52.6963127,33.2043457 C51.4075061,33.4402902 47.9761413,35.3050886 44.8584694,39.2708915 C49.8485383,41.5291051 53.6281581,38.964059 52.6963127,33.2043457 Z M23.041626,73.2887486 L29.4254103,73.3122907 C29.4254103,73.3122907 30.8971458,73.225708 30.4963891,74.7758266 C30.0956322,76.3259452 28.0145461,79.2608644 26.2901572,79.2608643 C24.5657683,79.2608641 22.4060608,76.8689837 21.7963513,74.8310198 C21.3175009,73.3517892 23.041626,73.2887486 23.041626,73.2887486 Z M45.958374,73.2887486 L39.5745897,73.3122907 C39.5745897,73.3122907 38.1028542,73.225708 38.5036109,74.7758266 C38.9043678,76.3259452 40.9854539,79.2608644 42.7098428,79.2608643 C44.4342317,79.2608641 46.5939392,76.8689837 47.2036487,74.8310198 C47.6824991,73.3517892 45.958374,73.2887486 45.958374,73.2887486 Z M22.1971081,70.7629395 C32.9956448,70.6371198 46.2504543,70.7629395 46.2504543,70.7629395 C46.2504543,70.7629395 50.6046776,70.959647 49.8991935,74.1069685 C49.1937138,77.2542899 46.7292835,86.9795445 34.798391,87.1840995 C23.9995905,87.1840995 20.3856556,79.9925014 19.1575298,74.0284947 C19.1488234,71.6285052 20.1590261,71.2272426 22.1971081,70.7629395 Z M14.841281,78.505685 C14.841281,78.505685 17.2091499,81.891828 20.057188,82.9138184 C18.1483824,79.0121024 17.9800592,78.5619245 17.9800592,78.5619245 L14.841281,78.505685 Z M54.158719,78.505685 C54.158719,78.505685 51.7908501,81.891828 48.942812,82.9138184 C50.8516176,79.0121024 51.0199408,78.5619245 51.0199408,78.5619245 L54.158719,78.505685 Z M6.99367597,7.0477295 C7.58254316,7.74876186 8.47877158,7.92637416 8.47877158,7.92637416 C8.47877158,7.92637416 14.8114688,6.34355809 18.9997598,13.1365095 C19.9455881,12.8265381 20.9196462,12.1380615 20.9196462,12.1380615 C20.9196462,12.1380615 15.6121905,3.07747977 6.99367597,7.0477295 Z M62.006324,7.0477295 C61.4174568,7.74876186 60.5212284,7.92637416 60.5212284,7.92637416 C60.5212284,7.92637416 54.1885312,6.34355809 50.0002402,13.1365095 C49.0544119,12.8265381 48.0803538,12.1380615 48.0803538,12.1380615 C48.0803538,12.1380615 53.3878095,3.07747977 62.006324,7.0477295 Z M10.8155084,9.80660575 C12.2330132,9.80180762 15.2269996,10.1722935 16.5875677,14.9717494 C14.8436555,16.6071429 14.5639963,17.0243617 14.5639963,17.0243617 L12.7322289,16.6071429 L12.0283321,14.9871826 C12.0283321,14.9871826 12.1760766,11.4592634 10.8155084,9.80660575 Z M58.1844916,9.80660575 C56.7669868,9.80180762 53.7730004,10.1722935 52.4124323,14.9717494 C54.1563445,16.6071429 54.4360037,17.0243617 54.4360037,17.0243617 L56.2677711,16.6071429 L56.9716679,14.9871826 C56.9716679,14.9871826 56.8239234,11.4592634 58.1844916,9.80660575 Z M5.8346735,60.3628104 C7.00660361,62.4530901 8.21467836,67.666626 19.1522532,68.5450091 C17.4289196,70.868879 15.5499266,72.2879465 17.004682,75.9327916 C13.7463891,76.2194824 2.54498489,74.1917201 5.8346735,60.3628104 Z M63.1653265,60.3628104 C61.9933964,62.4530901 60.7853216,67.666626 49.8477468,68.5450091 C51.5710804,70.868879 53.4500734,72.2879465 51.995318,75.9327916 C55.2536109,76.2194824 66.4550151,74.1917201 63.1653265,60.3628104 Z" id="Path-14" fill="#DDF0F2"/>
    </g>
</symbol><symbol id="icon-gulp" viewBox="0 0 43 91">
    <title>gulp</title>
    <g id="Page-1" stroke="none" stroke-width="1" fill="none" fill-rule="evenodd">
        <g id="Path-1-+-Path-2-+-Path-3" transform="translate(1.000000, 1.000000)" fill="#DDF0F2">
            <path d="M2.28312177,46.7959855 C1.6187147,40.326577 0.986354828,34.1698756 0,24 C5.93170799,27.085007 33.5527628,27.136287 40,24 C40,24 37.5493283,45.1321613 35.3161779,66.1515064 C25.3421105,70.9229429 9.0921864,68.8351617 4.23698384,66.1515064 C3.65170006,60.2177943 3.19104659,55.664322 2.77441417,51.5878044 C2.94787753,51.7614766 3.15664951,51.9559379 3.40657057,52.1849624 C4.70074012,52.9419439 5.61008496,52.6712839 6.57205843,52.1849623 C8.02358402,51.282651 8.60656078,50.6759993 9.60915364,49.7936876 C9.00286488,51.7288069 8.89213285,52.0596322 8.66484079,53.0722739 C7.965304,56.0502013 9.51007762,54.8520639 9.93569834,54.2204127 C10.3711645,53.4028169 12.5879688,46.5351006 13.1301496,44.4846507 C13.6723304,42.4342008 12.4890694,42.6498622 11.9352327,42.8403575 C11.5680686,42.8403576 11.4105359,44.5148166 10.7343111,45.848284 C9.98232235,47.1667518 9.73736968,47.4424117 8.39657612,48.7860455 C7.45226326,49.5680264 6.4729824,50.7461643 5.23709287,50.4605046 C2.73617379,49.1318704 6.51377841,40.845073 10.2620664,37.9774764 C13.0893536,37.5313207 12.5764894,39.0804495 13.975563,39.9577613 C15.3105286,40.2184216 15.0131239,39.125615 14.8615959,38.2733025 C14.3194151,37.2406611 12.9611375,36.2680182 11.57372,36.002358 C8.24504808,35.8720279 4.07388429,41.1656399 2.29889707,46.5752662 C2.29372308,46.6502909 2.28845913,46.723851 2.28312177,46.7959855 L2.28312177,46.7959855 Z M15.2532433,44.4759028 C15.5251485,43.6335828 17.1910833,43.5509487 16.8057125,44.9668983 C15.6157836,47.5558767 15.1796022,48.7649828 15.1796022,48.7649829 C15.1796022,48.764983 14.3068962,51.4884782 16.8453653,49.7521276 C18.9419884,47.5507228 18.5736117,47.6745883 19.4971283,45.5817592 C19.8598403,44.1555018 21.6107455,42.7292444 21.3726567,45.3647796 C20.1090868,47.7936434 19.9618047,48.8529429 19.9618048,48.8529429 C19.961805,48.8529428 18.9588108,52.2582999 22.080915,49.5246685 C23.8261554,44.6980362 24.7100192,42.9256082 26.6025417,37.7837287 C26.9992418,37.0137352 28.8181233,36.2282801 28.2628117,38.4917035 C26.9029421,41.6957146 23.8658083,49.3179969 23.8658083,49.3179969 C23.8658083,49.3179969 23.1063962,51.6693803 26.0868829,49.312843 C27.5205653,48.0363925 27.3617822,48.1810454 28.3421174,47.0751891 C28.7897998,44.842861 30.4895511,43.0805687 30.6141743,45.7987384 C31.6851446,44.0108488 35.9858483,42.5225728 35.5778187,46.0107357 C34.200955,48.1552759 32.8184266,49.6021489 32.8184266,49.6021489 C32.8184266,49.6021489 31.622833,51.4419213 33.6003259,50.434161 C35.5834834,48.7649829 37,47.5144737 37,47.5144737 L36.8583827,49.5401302 C36.8583827,49.5401302 35.5438306,50.9148486 33.9005546,51.927591 C32.5350202,52.5477776 29.5662061,53.4521162 30.6993164,50.150009 L33.4700379,46.7496341 C33.4700379,46.7496341 34.274596,45.2768198 32.2744444,46.0107359 C28.5063935,48.9718263 27.8264587,53.7776712 26.2230072,57.0797783 C25.531743,58.020366 23.8318201,58.8212829 24.3304848,56.3924191 C25.2766602,54.2789744 27.1182004,50.4547766 27.1182004,50.4547766 C27.1182004,50.4547766 22.4153035,54.485646 22.0186034,51.1886928 C20.7437041,52.4340481 17.8426946,53.7208064 18.3017064,50.294662 C16.4601662,52.7183719 12.2274389,53.9120163 13.1228037,49.8296079 C14.3014032,46.4860978 14.3918666,46.0830622 15.2532433,44.4759028 Z" id="Path-1"/>
            <path d="M6,68 C14.1680244,70.4100026 23.2325187,71.0360899 34,68 C32.3866259,70.9632487 31.871351,71.8709886 31.871351,71.8709886 C31.871351,71.8709886 31.1989138,80.2178945 31.0196877,86.467668 C29.081127,89.7018166 12.0278344,89.9834692 9.24915139,86.467668 C8.72267481,80.3327061 8.2742702,71.8709886 8.2742702,71.8709886 C8.2742702,71.8709886 7.57976918,71.1613074 6,68 Z" id="Path-2"/>
            <path d="M0.00412108668,21.9961689 C0.453054774,21.5777248 -0.402649468,19.9942942 24.7590642,19.4522188 C26.0063326,13.8847381 26.766997,11.268783 26.766997,11.268783 L37.6841381,1.05325022e-06 C37.6841381,1.05325022e-06 39.2472846,-0.0105280036 40,2.07388081 C38.2315676,4.03567732 30.3031706,12.4847164 30.3031706,12.4847164 L28.2423602,19.9226291 C28.2423602,19.9226291 39.0226435,20.3108447 39.9999987,21.9961692 C39.513396,23.5904682 36.1707581,24.7041682 19.7395778,25 C9.68194252,24.9184849 -0.231577739,24.1522431 0.00412108668,21.9961689 Z M23.4317926,23.0997546 C25.2801822,23.4672668 25.5070584,23.8899364 27.6062058,23 C28.0183461,23.1600611 28.0600486,23.2729068 27.9436253,23.5197186 C27.827202,23.7665305 25.366753,24.491082 23.0018315,23.469885 C22.9749646,23.0393607 23.2496946,23.1338788 23.4317926,23.0997546 Z" id="Path-3"/>
        </g>
    </g>
</symbol><symbol id="icon-heart" viewBox="0 0 512 512"><path d="M457.901 146.444c-21.406-92.128-156.198-115.523-201.901-22.252-45.703-93.271-180.494-69.878-201.901 22.252-34.843 149.958 162.787 218.142 201.901 300.806 39.114-82.664 236.744-150.846 201.901-300.806z"/></symbol><symbol id="icon-illustrator" viewBox="384 144 512 512">
<path d="M543.624,436.844h74.908l-37.453-145.25L543.624,436.844z M659.639,596.102l-27.406-94.396H530.833l-27.406,94.396H434
	l97.747-333.739v-36.541h93.18l111.447,370.28H659.639z M844.173,596.102h-74.907V314.435h74.907V596.102z M807.173,280.634
	c-21.441,0-38.826-17.179-38.826-38.367c0-21.19,17.381-38.369,38.826-38.369S846,221.077,846,242.267
	C846,263.455,828.62,280.634,807.173,280.634z"/>
</symbol><symbol id="icon-internet-explorer" viewBox="0 0 512 512"><path d="M277.563 367.813c-45.341 0-77.633-39.52-78.758-79.697h262.84c4.013-86.523-25.749-147.885-101.991-190.688 11.139-12.252 102.394-44.494 79.04 43.136l8.968 13.037c39.586-120.579-79.313-114.023-157.988-75.755-113.399-.376-177.606 70.967-195.253 144.186 30.654-44.014 70.28-70.097 96.123-77.35-147.897 118.942-216.621 381.276-15.77 298.135l-13.94-8.403c-120.871 38.121-74.169-69.615-50.908-85.153 27.844 56.955 87.172 102.474 159.751 102.474 92.37 0 160.988-47.701 188.213-126.82h-106.636c-15.397 27.425-36.799 42.898-73.691 42.898zm0-204.263c45.34 0 75.567 35.577 76.693 70.873h-154.324c1.502-30.039 29.193-70.873 77.631-70.873z"/></symbol><symbol id="icon-javascript" viewBox="0 0 512 512"><path d="M130.269 256c17.686 7.75 30.25 24.5 30.25 54v34.457c0 24.955 22.379 32.912 41.547 33.494v36.861c-52.264 0-83.111-17.9-83.111-66.234v-38.383c0-24.547-19.5-35.537-39.354-35.537v-37.316c19.854 0 39.354-10.989 39.354-35.536v-38.384c0-48.333 30.848-66.234 83.111-66.234v36.861c-19.168.582-41.547 8.539-41.547 33.495v34.456c0 29.5-12.565 46.25-30.25 54zm221.212-54v-34.456c0-24.956-22.379-32.913-41.547-33.495v-36.861c52.264 0 83.111 17.901 83.111 66.234v38.384c0 24.547 19.5 35.536 39.354 35.536v37.316c-19.854 0-39.354 10.99-39.354 35.537v38.383c0 48.334-30.848 66.234-83.111 66.234v-36.861c19.168-.582 41.547-8.539 41.547-33.494v-34.457c0-29.5 12.564-46.25 30.25-54-17.685-7.75-30.25-24.5-30.25-54zm-67.935 70.288v31.154c0 27.851-17.6 50.385-43.244 55.457l-4.86-10.504c11.876-4.475 19.408-18.845 19.408-29.64h-20.046v-46.468h48.742zm0-100.237h-48.742v48.821h48.742v-48.821z"/></symbol><symbol id="icon-like" viewBox="0 0 512 512"><path d="M426.547 317.659c15.018-23.439 7.4-55.504-3.206-65.709 4.254-12.984 8.049-37.74-2.757-55.588 0 0-81.13-.059-82.181 0 13.101-56.312 18.861-145.896-38.427-145.896-31.705 0-39.472 28.578-48.243 56.697-36.27 116.279-122.634 117.437-174.694 123.257v179.348c79.606 0 119.613 6.578 188.043 35.68 71.917 30.586 161.004 21.398 151.177-61.133 19.13-18.9 18.572-48.898 10.288-66.656zm-26.931-93.961c2.308 17.379-5.953 36.823-24.673 36.823h-33.963c-12.972 0-17.506-10.606-17.506-19.198 0-7.316 6.367-17.625 18.107-17.625h58.035zm-292.109 156.922v-122.434c100.511-8.602 150.312-69.653 171.052-134.208 6.428-20.006 8.345-47.541 25.457-42.371 18.562 5.605 18.001 59.383 3.8 111.158-6.062 22.105-22.153 40.672-8.477 67.227-24.322 8.352-32.245 49.939-11.818 67.254-16.217 15.859-15.723 47.547 3.992 62.713-7.399 8.768-10.485 18.75-9.431 29.52-33.043-11.517-90.774-38.859-174.575-38.859zm247.593 51.404h-25.424c-12.493 0-18.085-8.201-18.085-16.58 0-9.816 6.344-18.57 18.085-18.57h56.687c-1.052 13.438-7.033 35.15-31.263 35.15zm18.852-56.582h-51.221c-12.494 0-18.086-10.801-18.086-18.561 0-7.766 5.592-18.572 18.086-18.572h78.477c2.21 18.522-6.668 37.133-27.256 37.133zm6.697-58.242h-57.918c-12.438 0-18.101-11.062-18.101-18.578 0-7.605 5.597-18.248 18.101-18.248h82.169c2.317 17.133-5.548 36.826-24.251 36.826z"/></symbol><symbol id="icon-linux" viewBox="0 0 512 512"><path d="M407.489 377.012c-9.705-7.656-5.932-24.57-16.021-32.908l.003.002c9.768-57.771-17.591-108.688-50.218-141.315-27.386-27.387-18.551-54.021-18.551-77.083.001-36.852-15.542-75.708-62.671-75.708-50.387 0-64.175 40.861-64.676 64.175-1.205 55.996 11.647 70.54-22.061 111.304-39.643 47.944-45.489 95.769-36.549 121.14l.001-.002c-4.182 4.742-9.833 9.993-20.397 14.344-29.16 12.367-7.791 33.039-15.845 47.723-9.321 16.993.939 37.251 26.246 35.044 16.21-1.409 33.262 5.228 48.067 11.776 20.834 9.218 39.64.285 46.847-14.104 24.309-5.825 54.323-5.085 78.613 1.001 7.476 20.296 36.73 28.439 57.081 6.732 8.931-9.525 23.026-24.205 39.652-29.611 19.497-6.339 23.136-32.524 10.479-42.51zm-161.477-179.647c-5.629 0-10.289-4.435-17.661-9.75-9.33-6.73-18.801-10.606-18.701-17.687 0-4.847 6.687-6.354 15.349-11.692 9.285-5.725 12.899-11.517 22.033-11.517 9.356 0 12.199 4.601 24.887 9.938 12.517 5.265 21.199 7.323 21.199 13.271 0 6.096-13.077 10.467-20.442 14.899-10.787 6.488-16.354 12.538-26.646 12.538h-.018zm29.394-89.541c15.568 2.419 17.328 29.028 9.858 42.131-1.887-.75-3.423-1.336-6.263-2.486 3.239-9.331 3.193-24.669-7.689-25.649-6.895-.621-11.347 8.247-12.302 15.829-2.712-1.095-5.66-1.891-9.25-2.175 1.123-15.849 11.648-29.825 25.646-27.65zm-60.081 5.683c11.929-2.89 18.976 10.61 19.031 24.638-1.964.948-3.753 2.074-5.46 3.268-.746-5.895-3.455-15.406-10.227-13.366-7.272 2.19-6.09 18.582-2.042 21.947-1.779 1.022-3.538 1.936-5.398 2.916-7.405-12.139-7.4-36.618 4.096-39.403zm-37.349 330.353c-34.658-15.328-46.437-11.844-53.052-11.844-13.726 0-18.203-9.938-13.046-19.343 4.379-7.98 3.027-16.344 1.941-23.061-1.664-10.281-1.969-13.641 8.438-18.069 14.39-5.936 20.785-13.568 25.549-19.291 13.386-16.081 26.896 9.207 37.969 31.753 7.176 14.608 21.334 22.012 25.672 38.192 4.008 14.953-12.528 30.929-33.471 21.663zm123.36-32.17c-24.422 11.557-55.56 16.856-78.833 5.125-3.447-9.666-8.956-15.917-14.881-22.197 9.511-2.437 16.586-13.98 8.122-25.581-9.025-12.366-27.445-21.005-46.085-35.012-17.429-13.098-22.938-45.374.794-81.473-11.571 31.964-4.805 61.418 1.003 69.858 1.211-16.964 2.59-45.291 26.405-79.217 12.027-17.132 12.202-39.767 12.473-53.913 3.638 2.5 7.368 4.708 10.939 7.286 8.04 5.794 14.784 12.157 24.456 12.158h.027c14.3 0 22.179-8 33.207-14.633 4.301-2.588 10.816-5.187 16.285-8.808 9.174 42.502 47.213 93.623 49.348 122.754 8.858-17.715-2.506-60.332-2.506-60.332 14.873 22.062 16.043 40.444 16.712 63.006 10.403 4.137 21.559 14.916 22.569 29.11-1.331-.229-2.765-.395-4.32-.481-2.229-15.773-46.04-38.942-49.974-9.24-21 3.097-13.367 35.462-17.587 56.438-1.928 9.581-5.545 17.17-8.154 25.152zm85.542-.704c-17.381 6.518-29.127 20.372-37.199 28.981-15.542 16.58-36.097 8.633-38.269-6.875-2.325-16.588 6.349-25.627 10.086-44.195 3.408-16.948-.411-43.025 7.604-45.798 5.215 30.1 36.472 17.454 43.613 9.226 11.604 0 12.572 3.806 15.167 14.373 1.623 6.609 3.862 12.175 10.194 18.718 7.411 7.656 5.141 19.443-11.196 25.57zm-141.22-223.277c-11.496 0-20.096-7.438-27.078-13.193-3.586-2.952.876-8.37 4.461-5.419 6.838 5.638 13.724 11.593 22.616 11.593 10.717 0 20.146-8.909 32.961-13.812 4.351-1.656 6.838 4.899 2.509 6.556-12.41 4.749-22.393 14.275-35.469 14.275z"/></symbol><symbol id="icon-magnifier" viewBox="0 0 100 100"><g><path d="M-192 0h185v99h-185zM0-36h100v30h-100z"/><text transform="translate(66 -19.5)" font-family="'Helvetica'" font-size="2.4">http://thenounproject.com</text><text transform="translate(7.166 -24.5)"><tspan x="0" y="0" font-family="'Helvetica-Bold'" font-size="6.158">The Noun Project</tspan><tspan x="1.12" y="4.8" font-family="'Helvetica-Bold'" font-size="4">Icon Template</tspan></text><text transform="translate(-178.5 10.5)" font-family="'Helvetica-Bold'" font-size="6.158">Reminders</text><path stroke="#fff" stroke-miterlimit="10" d="M8-14.5h10M-179 16.5h17"/><path d="M-170.802 31.318h8.721v8.642h-8.721zM-164.455 42.312h4.747v-4.703h-4.747v4.703zm5.189.437h-5.63v-5.579h5.63v5.579zm-6.955 1.313h8.279v-8.203h-8.279v8.203zm8.721.438h-9.163v-9.079h9.163v9.079zM-166.149 44.133l-.143-.142 8.279-8.204.142.142z"/><path fill="none" d="M-179 58h35v32.5h-35z"/><text transform="translate(-179 60.157)"><tspan x="0" y="0" font-family="'Helvetica-Bold'" font-size="3">Strokes</tspan><tspan x="0" y="5" font-family="'Helvetica'" font-size="2.4">Try to keep strokes at 4px</tspan><tspan x="0" y="10" font-family="'Helvetica'" font-size="2.4">Minimum stroke weight is 2px</tspan><tspan x="0" y="14.5" font-family="'Helvetica'" font-size="2.4">For thicker strokes use even</tspan><tspan x="0" y="17.5" font-family="'Helvetica'" font-size="2.4">numbers: 6px, 8px etc.</tspan><tspan x="0" y="22" font-family="'Helvetica-Bold'" font-size="2.4">Remember to expand strokes</tspan><tspan x="0" y="25" font-family="'Helvetica-Bold'" font-size="2.4">before saving as an SVG</tspan></text><path fill="none" d="M-136.5 58h35v32.5h-35z"/><text transform="translate(-136.5 60.157)"><tspan x="0" y="0" font-family="'Helvetica-Bold'" font-size="3">Size</tspan><tspan x="0" y="5" font-family="'Helvetica'" font-size="2.4">Cannot be wider or taller than</tspan><tspan x="0" y="8.5" font-family="'Helvetica'" font-size="2.4">100px (artboard size)</tspan><tspan x="0" y="13.5" font-family="'Helvetica'" font-size="2.4">Scale your icon to fill as much of</tspan><tspan x="0" y="16.5" font-family="'Helvetica'" font-size="2.4">the artboard as possible</tspan></text><path fill="none" d="M-94 58h35v32.5h-35z"/><text transform="translate(-94 60.157)"><tspan x="0" y="0" font-family="'Helvetica-Bold'" font-size="3">Ungroup</tspan><tspan x="0" y="5" font-family="'Helvetica'" font-size="2.4">If your design has more than one</tspan><tspan x="0" y="8" font-family="'Helvetica'" font-size="2.4">shape, make sure to ungroup</tspan></text><path fill="none" d="M-50 58h35v32.5h-35z"/><text transform="translate(-50 60.157)"><tspan x="0" y="0" font-family="'Helvetica-Bold'" font-size="3">Save as</tspan><tspan x="0" y="5" font-family="'Helvetica'" font-size="2.4">Save as .SVG and make sure</tspan><tspan x="0" y="8" font-family="'Helvetica'" font-size="2.4">“Use Artboards” is checked</tspan></text><text transform="matrix(1.007 0 0 1 -125.542 30.593)" font-family="'Helvetica'" font-size="2.573">100px</text><text transform="matrix(1.007 0 0 1 -41 39)" font-family="'Helvetica-Bold'" font-size="5.146">.SVG</text><path d="M-126.514 34.815h10.261v10.185h-10.261zM-126.477 31.766h.522v2.337h-.522zM-116.812 31.766h.523v2.337h-.523zM-127 32.337h11.233v.572h-11.233zM-83.805 33.844h10.305v10.156h-10.305zM-76.809 28.707h3.308v3.261h-3.308z"/><path stroke="#fff" stroke-miterlimit="10" d="M-178.5 22.5h30v30h-30zM-136.5 22.5h30v30h-30zM-93.5 22.5h30v30h-30zM-49.5 22.5h30v30h-30z"/></g><path d="M81.405 76.481l-19.392-19.392c3.19-4.216 5.085-9.467 5.085-15.162 0-13.891-11.26-25.151-25.151-25.151s-25.151 11.26-25.151 25.151 11.26 25.151 25.151 25.151c5.675 0 10.91-1.881 15.118-5.051l19.397 19.396c1.64 1.64 4.074 1.861 5.439.497 1.366-1.364 1.143-3.8-.496-5.439zm-39.458-15.636c-10.446 0-18.916-8.471-18.916-18.917 0-10.448 8.47-18.917 18.916-18.917s18.917 8.47 18.917 18.917c-.001 10.446-8.471 18.917-18.917 18.917z"/></symbol><symbol id="icon-menu" viewBox="0 0 512 512"><path d="M462 163.5h-412v-65h412v65zm0 60h-412v65h412v-65zm0 125h-412v65h412v-65z"/></symbol><symbol id="icon-module" viewBox="0 0 100 96"><title>Untitled 6</title><g sketch:type="MSPage" fill="#DDF0F2"><path d="M100 30.746l-.014-.199-.013-.188-.037-.187-.039-.194-.059-.171-.065-.194-.083-.167-.087-.177-.109-.163-.104-.156-.132-.153-.121-.138-.146-.129-.146-.127-.326-.219-47.145-27.218c-.919-.531-2.052-.529-2.97.004l-46.82 27.209-.001.001-.001.001-.009.005-.144.097-.177.12-.149.13-.142.125-.135.154-.118.135-.115.172-.098.147-.089.18-.081.164-.064.186-.061.177-.04.197-.037.183-.014.201-.013.185-.096 34.502c-.003 1.061.562 2.043 1.481 2.573l47.145 27.219c.458.266.97.397 1.48.397l.385-.024.069-.015.31-.062.069-.022.3-.102.083-.041.263-.129.006-.004.005-.003 46.833-27.217c.909-.528 1.471-1.5 1.474-2.553l.097-34.499v-.013000000000000001zm-50.103-23.79l17.747 10.246-41.06 23.706-17.613-10.169 40.926-23.783zm-2.738 80.389l-41.229-23.804.079-27.67 41.228 23.803-.078 27.671zm3.041-32.803l-17.691-10.213 41.061-23.706 17.556 10.136-40.926 23.783zm43.781 9.001l-40.897 23.768.078-27.637 40.898-23.767-.079 27.636zM43.817 81.419l-17.703-10.221.033-11.882 17.704 10.221-.034 11.882z" sketch:type="MSShapeGroup"/></g></symbol><symbol id="icon-nginx" viewBox="29.437 -2.937 27.062 24">
<sodipodi:namedview fit-margin-bottom="0" fit-margin-right="0" inkscape:window-maximized="1" inkscape:window-y="24" inkscape:current-layer="layer1" inkscape:window-x="0" inkscape:pageshadow="2" inkscape:document-units="px" inkscape:pageopacity="0.0" inkscape:window-height="1003" inkscape:window-width="1920" fit-margin-left="0" fit-margin-top="0" showgrid="false" inkscape:cy="48.217226" inkscape:cx="23.971822" inkscape:zoom="2.8284271" borderopacity="1.0" bordercolor="#666666" pagecolor="#ffffff" id="base">
	</sodipodi:namedview>
<g id="layer2" transform="translate(-11.56225,-11.12422)" inkscape:groupmode="layer" inkscape:label="Typography" display="none">
	<g id="g3910" display="inline">
		<path id="path3872" inkscape:connector-curvature="0" fill="none" stroke="#000000" d="M3.794,10.71h156.786"/>
		<path id="path3872-6" inkscape:connector-curvature="0" fill="none" stroke="#000000" d="M3.656,35.735h156.785"/>
		<path id="path3872-6-8" inkscape:connector-curvature="0" fill="none" stroke="#000000" d="M-10.357,23.222h156.785"/>
	</g>
</g>
<path id="path2996-0" sodipodi:nodetypes="cccccccccccccccscccccccccccccc" inkscape:connector-curvature="0" d="M36.125-2.937
	l-0.688,1.281l-5.312,9.656L29.437,9.22l0.688,1.219l5.312,9.344l0.719,1.281h1.469H48.5h1.562l0.688-1.406l3.969-8L56.5,8.032
	h-4.031L42.312,8.063c-1.32-0.019-2.535,1.179-2.535,2.5s1.215,2.519,2.535,2.5l6.125-0.031l-1.5,3.031h-7.875l-3.906-6.875
	l3.938-7.125h8.378l1.953,4.008h5.031L51.284-1.53l-0.688-1.406h-1.562H37.625H36.125z"/>
</symbol><symbol id="icon-php" viewBox="0 0 512 512">
<path id="php-code-icon" d="M462,287.861l-116.969,65.735v-40.762l68.109-38.409l-68.109-38.013v-40.867L462,261.281V287.861z
	 M50,261.281l116.97-65.736v40.867L98.86,274.426l68.109,38.409v40.762L50,287.861V261.281z M257.602,361.948
	c-11.506,0-20.836-9.331-20.836-20.841c0-11.503,9.33-20.831,20.836-20.831c11.508,0,20.837,9.328,20.837,20.831
	C278.438,352.617,269.109,361.948,257.602,361.948z M273.984,304.108c0,0-31.24,0-34.349,0c0-56.909,41.564-67.252,41.564-96.753
	c0-29.941-46.813-39.121-51.6,5.167h-33.408c3.056-88.397,119.614-75.471,119.614-8.045
	C315.807,251.479,273.984,255.416,273.984,304.108z"/>
</symbol><symbol id="icon-python" viewBox="456.628 22.067 846.725 800">
<path d="M1017.514,396.855c64.289-29.142,73.871-250.951,35.942-316.282
	c-49.545-85.289-285.055-68.161-359.421-7.198c-8.539,30.283-7.646,85.239-7.249,128.925h233.425v20.454H686.836
	c0,0.298-103.903,0.646-103.903,0.646c-179.165,0-175.442,389.108,60.962,389.108c0,0,8.688-86.182,23.88-129.371
	C714.687,349.842,911.772,444.811,1017.514,396.855z M773.117,170.727c-26.906,0-48.7-21.794-48.7-48.75
	c0-26.907,21.794-48.75,48.7-48.75c26.958,0,48.751,21.843,48.751,48.75C821.917,148.884,800.074,170.727,773.117,170.727z"/>
<path d="M1107.966,231.59c0,0-6.206,86.232-21.397,129.371c-46.914,133.245-243.949,38.325-349.74,86.282
	c-64.238,29.141-73.92,250.95-35.941,316.28c49.495,85.338,285.004,68.211,359.421,7.199c8.538-30.232,7.646-85.189,7.249-128.876
	H834.079v-20.452h233.376c0-0.299,115.025-0.646,115.025-0.646C1347.596,620.748,1362.391,231.59,1107.966,231.59z M972.834,664.932
	c26.907,0,48.752,21.794,48.752,48.75c0,26.908-21.845,48.701-48.752,48.701c-26.906,0-48.7-21.793-48.7-48.701
	C924.134,686.726,945.928,664.932,972.834,664.932z"/>
</symbol><symbol id="icon-safari" viewBox="0 0 512 512"><path d="M232.301 254.026l-50.948 127.214 98.312-91.443 50.065-125.385-97.429 89.614zm26.413 34.678c-9.152 1.346-17.663-4.984-19.005-14.14-1.345-9.155 4.987-17.663 14.142-19.006 9.15-1.344 17.662 4.988 19.003 14.141 1.345 9.155-4.985 17.663-14.14 19.005zm-69.451-218.41c0-11.19 11.725-20.294 26.137-20.294 14.411 0 26.137 9.104 26.137 20.294 0 4.378-1.802 8.433-4.85 11.753-1.197-2.397-2.682-4.676-4.47-6.605 1.066-1.583 1.679-3.326 1.679-5.148 0-6.859-8.471-12.653-18.496-12.653-10.026 0-18.496 5.794-18.496 12.653 0 4.239 3.241 8.068 8.081 10.377-.867 2.259-1.433 4.81-1.666 7.61-8.345-3.393-14.056-10.18-14.056-17.987zm17.2 226.727l-65.758-.835 60.421-28.704c.491-7.299 2.407-14.211 5.483-20.459l-27.942-29.023 37.686 15.144c4.164-4.332 9.024-7.981 14.404-10.771l3.512-65.619 27.153 59.617-9.292 8.546c-29.238 2.414-49.178 31.316-40.669 59.626l-4.998 12.478zm49.537-211.325c-7.56 0-15.011.459-22.338 1.326-2.772-7.341-8.463-13.987-16.084-12.278-7.711 1.729-9.708 10.093-9.603 17.146-80.648 21.23-140.127 94.643-140.127 181.958 0 103.914 84.238 188.152 188.152 188.152 103.913 0 188.152-84.238 188.152-188.152 0-103.913-84.239-188.152-188.152-188.152zm39.865 332.769l-12.168-18.068-3.066 21.39c-80.517 13.228-153.993-39.432-170.92-114.771l16.286-10.427-18.894-4.888c-9.267-78.613 42.849-146.804 113.909-163.71l10.006 15.658 3.697-18.252c77.444-10.937 146.725 38.42 165.926 108.679l-15.817 12.434 18.951 1.691c13.482 78.68-36.071 150.582-107.91 170.264zm72.356-168.554l-57.607 27.62c-.625 5.447-2.045 10.652-4.145 15.501l29.198 29.968-38.382-15.51c-4.406 5.009-9.702 9.216-15.646 12.363l-1.523 66.694-28.59-59.652 10.294-9.575c27.924-3.516 46.66-31.236 38.902-58.687l4.626-11.585 62.873 2.863z"/></symbol><symbol id="icon-script" viewBox="-10 -10 200 173"><title>Untitled 5</title><g sketch:type="MSPage" fill="#DDF0F2"><path d="M7.997 0c-4.417 0-7.997 3.575-7.997 8v147c0 4.418 3.584 8 7.997 8h174.005c4.417 0 7.997-3.575 7.997-8v-147c0-4.418-3.584-8-7.997-8h-174.005zm14.009 12c-4.422 0-8.006 3.576-8.006 7.998v123.004c0 4.417 3.572 7.998 8.006 7.998h145.988c4.422 0 8.006-3.576 8.006-7.998v-123.004c0-4.417-3.572-7.998-8.006-7.998h-145.988z" sketch:type="MSShapeGroup"/><path d="M75 51.896l-54 28.929v7.101l54 32.074v-16.582l-32.943-19.659 32.943-16.934v-14.929zM115 51l54 28.885v7.09l-54 32.025v-16.557l32.943-19.629-32.943-16.908v-14.906z" sketch:type="MSShapeGroup"/><path d="M78.085 120.074l20.36-69.148h13.854l-19.86 69.148h-14.353z" sketch:type="MSShapeGroup"/></g></symbol><symbol id="icon-service" viewBox="0 0 100 100"><title>Untitled 4</title><path d="M99.239 41.312c-1.539-8.726-5.263-16.514-10.497-22.918l-.138-.18-.003.012c-10.771-13.063-27.878-20.288-45.705-17.718l-.005-.028-3.15.555.015.083c-17.635 3.73-31.277 16.401-36.843 32.403l-.119-.177c-.389 1.1-.74 2.216-1.051 3.346l.141.142c-1.869 6.905-2.269 14.325-.884 21.844v.003l-.153.007c.065.37.094.733.201 1.09 5.188 26.042 29.825 43.445 56.049 39.687l.01.054 1.511-.267.051-.007.04-.009 1.549-.273-.01-.054c26.319-5.496 43.693-30.928 38.991-57.595zm-9.901-14.131l.256.376c2.817 4.351 4.618 9.17 5.439 14.321v.002l.151.004s-.165 3.477-1.532 5.415c-1.486 2.105-3.886 4.288-7.028 6.312-1.31.842-2.705 1.651-4.214 2.423.003-3.764-.316-7.688-1.021-11.689-.551-3.123-1.3-6.125-2.215-8.973 4.59-2.494 8.109-5.31 10.163-8.192zm-54.386 39.268c-1.919-.003-3.767-.08-5.541-.222-1.457-3.764-2.571-7.767-3.307-11.944-.5-2.838-.806-5.659-.929-8.442 6.007.634 13.034.414 20.44-.785l3.56 20.189c-4.86.791-9.642 1.208-14.222 1.203zm18.396-22.67c7.36-1.408 14.031-3.603 19.453-6.252.836 2.661 1.516 5.419 2.016 8.261.737 4.184 1.06 8.329.978 12.371-1.62.741-3.332 1.445-5.136 2.105-4.295 1.568-8.92 2.81-13.747 3.73l-3.565-20.215zm9.399-37.621c4.782 1.097 9.255 3.088 13.294 5.916 3.234 2.265 5.941 4.981 8.265 8.084-.126.208-.254.415-.403.626-1.351 1.916-3.579 3.905-6.444 5.75-.775.5-1.593.986-2.445 1.459-3.9-10.75-10.263-18.984-17.302-22.628 1.686.153 3.37.411 5.035.792zm-9.139 2.292c2.832 1.337 5.565 3.515 8.126 6.474 2.625 3.032 4.919 6.714 6.818 10.943.606 1.349 1.157 2.739 1.664 4.158-1.891.937-3.938 1.813-6.139 2.618-3.85 1.407-7.997 2.523-12.323 3.352l-5.108-28.971c2.274-.157 4.609.315 6.962 1.427zm-14.029-.808l5.137 29.133c-4.388.71-8.704 1.084-12.841 1.079-2.354-.003-4.59-.127-6.699-.362-.009-1.515.033-3.017.142-4.501.34-4.649 1.242-8.916 2.678-12.683 1.402-3.676 3.235-6.674 5.451-8.912 1.854-1.87 3.912-3.124 6.131-3.754zm-26.844 14.491c2.876-4.106 6.456-7.563 10.644-10.275 1.432-.927 2.918-1.743 4.447-2.466-5.439 5.931-8.643 15.996-8.633 27.602-.978-.155-1.925-.336-2.838-.543-3.378-.768-6.197-1.893-8.155-3.254-.238-.165-.454-.336-.665-.506 1.181-3.754 2.917-7.297 5.2-10.559zm-8.223 35.201c-1-5.671-.859-11.366.417-16.928l.153-.601c3.21 2.238 7.943 3.846 13.678 4.705.126 3.294.479 6.682 1.085 10.122.776 4.403 1.911 8.588 3.331 12.479-1.851-.232-3.62-.534-5.29-.913-4.012-.91-7.364-2.246-9.692-3.865-1.86-1.294-3.05-2.759-3.538-4.287l-.143-.713zm30.859 34.908c-4.596-1.055-8.893-2.968-12.775-5.685-3.881-2.717-7.147-6.102-9.711-10.061-1.53-2.361-2.758-4.873-3.697-7.501 3.379 2.511 8.746 4.156 15.314 4.794 3.779 9.074 9.421 15.984 15.606 19.206-1.588-.149-3.17-.393-4.737-.753zm10.887-1.602c-2.642-1.247-5.193-3.279-7.583-6.04-2.448-2.83-4.589-6.265-6.361-10.211l-.139-.322c5.223.297 11.113-.032 17.28-1.039l3.339 18.937c-2.135.156-4.327-.281-6.537-1.324zm15.623-.645l-3.359-19.068c6.161-1.169 11.829-2.884 16.654-4.959l-.02.352c-.318 4.344-1.159 8.331-2.501 11.852-1.309 3.435-3.021 6.237-5.09 8.326-1.72 1.737-3.626 2.904-5.684 3.496zm15.377-5.804c-1.313.85-2.679 1.599-4.083 2.26 4.516-4.912 7.33-12.976 7.759-22.376 5.735-2.741 10.039-6.001 12.24-9.389.021 2.691-.262 5.371-.868 8.013-1.008 4.393-2.836 8.501-5.434 12.21-2.597 3.708-5.832 6.832-9.615 9.282z" sketch:type="MSShapeGroup" fill="#DDF0F2"/></symbol><symbol id="icon-terminal" viewBox="0 0 512 512"><path d="M50 73.5v365h412v-365h-412zm362 315h-312v-218h312v218zm-170.542-108.105l-75.999 76.397-27.461-27.332 48.801-49.065-48.869-49.134 27.461-27.33 76.067 76.464zm134.542 37.133h-113.5v38h113.5v-38z"/></symbol><symbol id="icon-twitter" viewBox="0 0 512 512"><path d="M256 50c-113.771 0-206 92.229-206 206s92.229 206 206 206 206-92.229 206-206-92.229-206-206-206zm103.599 170.506c3.021 67.199-47.096 142.124-135.802 142.124-26.981 0-52.096-7.911-73.238-21.466 25.347 2.987 50.646-4.044 70.734-19.786-20.907-.386-38.554-14.198-44.632-33.181 7.486 1.432 14.851 1.013 21.575-.816-22.976-4.617-38.839-25.317-38.321-47.453 6.44 3.58 13.81 5.729 21.642 5.977-21.278-14.221-27.303-42.318-14.785-63.789 23.563 28.906 58.77 47.928 98.478 49.92-6.969-29.886 15.702-58.667 46.542-58.667 13.742 0 26.16 5.802 34.874 15.088 10.884-2.143 21.108-6.119 30.341-11.594-3.567 11.157-11.144 20.521-21.008 26.433 9.665-1.153 18.874-3.722 27.441-7.523-6.405 9.582-14.505 17.998-23.841 24.733z"/></symbol><symbol id="icon-view" viewBox="0 0 512 512"><path d="M256.494 376.142c-83.277 0-158.968-57.287-206.494-126.949 47.956-67.222 123.636-113.334 206.494-113.334 83.032 0 158.965 45.31 205.506 112.907-44.129 73.545-119.672 127.376-205.506 127.376zm-162.891-126.369c39.783 49.138 98.528 91.363 162.892 91.363 87.675 0 144.426-65.7 163.013-90.981-39.54-46.52-97.718-79.292-163.013-79.292-84.815 0-142.618 55.824-162.892 78.91zm164.707-63.141c-38.312 0-69.368 31.057-69.368 69.368s31.057 69.368 69.368 69.368 69.369-31.057 69.369-69.368-31.058-69.368-69.369-69.368zm-.064 69.345c-9.792 9.791-25.666 9.791-35.458 0-9.792-9.792-9.792-25.667 0-35.458 9.792-9.792 25.666-9.792 35.458 0 9.792 9.791 9.792 25.666 0 35.458z"/></symbol><symbol id="icon-windows" viewBox="0 0 512 512"><path d="M50.783 244.251v-136.681l165.857-23.264v159.944h-165.857zm189.356 0h221.078v-194.251l-221.078 31.011v163.24zm-23.498 23.497h-165.858v136.682l165.857 23.264v-159.946zm23.498 0v163.242l221.078 31.01v-194.252h-221.078z"/></symbol><symbol id="icon-wordpress" viewBox="0 0 512 512">

<path id="wordpress-icon" d="M402.623,77.721c-12.777,4.159-40.046,30.771-5.469,78.243c34.581,47.47,14.114,101.545,14.114,101.545

	l-30.141,100.027l-75.887-225.723c0,0,21.428-1.603,24.492-2.064c3.065-0.461,8.163-3.473,7.313-9.883

	c-0.85-6.411-5.561-7.337-10.04-7.105c-2.25,0.116-28.707,2.114-54.99,2.112c-26.119-0.002-52.064-2.011-53.911-2.112

	c-3.708-0.208-9.063,0.208-10.35,6.024c-0.927,4.866,1.39,10.272,6.642,10.89s1.733,0.159,22.956,2.139

	c0,0,14.428,39.51,32.683,89.499l-46.216,137.206l-76.138-226.705c0,0,21.428-1.603,24.493-2.064

	c3.065-0.461,8.163-3.473,7.313-9.883c-0.85-6.411-5.561-7.337-10.041-7.105c-2.247,0.116-28.707,2.114-54.991,2.112

	c-26.117-0.002-52.062-2.011-53.909-2.112c-3.708-0.208-9.063,0.208-10.35,6.024c-0.927,4.866,1.39,10.272,6.642,10.89

	s1.733,0.159,22.956,2.139c0,0,101.309,277.413,106.679,292.298s27.614,18.746,33.947-0.717

	c4.682-14.387,41.1-120.094,59.775-174.251c28.354,77.664,60.855,166.711,63.833,174.968c5.373,14.885,27.616,18.746,33.949-0.717

	s42.17-119.915,72.909-209.868C478.075,131.553,452.85,61.383,402.623,77.721z"/>

</symbol></svg>