<svg width="546" height="370" viewBox="0 0 546 370" xmlns="http://www.w3.org/2000/svg" xmlns:sketch="http://www.bohemiancoding.com/sketch/ns"><title>Slice 1</title><defs><linearGradient x1=".004%" y1="50%" x2="100.009%" y2="50%" id="a"><stop stop-color="#E1F0EA" offset="0%"/><stop stop-color="#ADC5BF" offset="100%"/></linearGradient><linearGradient x1="-.001%" y1="50%" x2="99.998%" y2="50%" id="b"><stop stop-color="#E1F0EA" offset="0%"/><stop stop-color="#74968E" offset="100%"/></linearGradient><linearGradient x1=".003%" y1="49.992%" x2="100.002%" y2="49.992%" id="c"><stop stop-color="#E1F0EA" offset="0%"/><stop stop-color="#74968E" offset="100%"/></linearGradient><linearGradient x1="-.001%" y1="50%" x2="99.997%" y2="50%" id="d"><stop stop-color="#EB6C60" offset="0%"/><stop stop-color="#C43934" offset="100%"/></linearGradient><linearGradient x1="-.001%" y1="50.004%" y2="50.004%" id="e"><stop stop-color="#F3A79C" offset="0%"/><stop stop-color="#C43934" offset="100%"/></linearGradient><linearGradient x1="0%" y1="50%" x2="99.993%" y2="50%" id="f"><stop stop-color="#EB6C60" offset="0%"/><stop stop-color="#96241E" offset="100%"/></linearGradient><linearGradient x1=".007%" y1="50%" x2="100.005%" y2="50%" id="g"><stop stop-color="#EB6C60" offset="0%"/><stop stop-color="#96241E" offset="100%"/></linearGradient><linearGradient x1=".001%" y1="50%" x2="100.001%" y2="50%" id="h"><stop stop-color="#E1F0EA" offset="0%"/><stop stop-color="#ADC5BF" offset="100%"/></linearGradient><linearGradient x1=".002%" y1="50%" x2="99.998%" y2="50%" id="i"><stop stop-color="#E1F0EA" offset="0%"/><stop stop-color="#74968E" offset="100%"/></linearGradient><linearGradient x1="-.001%" y1="50.001%" y2="50.001%" id="j"><stop stop-color="#E1F0EA" offset="0%"/><stop stop-color="#ADC5BF" offset="100%"/></linearGradient><linearGradient x1="0%" y1="50.001%" y2="50.001%" id="k"><stop stop-color="#E1F0EA" offset="0%"/><stop stop-color="#ADC5BF" offset="100%"/></linearGradient><linearGradient x1="-1.743%" y1="50.627%" x2="98.322%" y2="50.627%" id="l"><stop stop-color="#ADC5BF" offset="0%"/><stop stop-color="#74968E" offset="100%"/></linearGradient><linearGradient x1=".001%" y1="50%" x2="99.999%" y2="50%" id="m"><stop stop-color="#ADC5BF" offset="0%"/><stop stop-color="#74968E" offset="100%"/></linearGradient><linearGradient x1="50.001%" y1="100%" x2="50.001%" y2="-.001%" id="n"><stop stop-color="#74968E" offset="0%"/><stop stop-color="#E1F0EA" offset="100%"/></linearGradient><linearGradient x1="50.001%" y1="100%" x2="50.001%" y2="-.001%" id="o"><stop stop-color="#74968E" offset="0%"/><stop stop-color="#E1F0EA" offset="100%"/></linearGradient><linearGradient x1="-.001%" y1="50%" x2="99.999%" y2="50%" id="p"><stop stop-color="#ADC5BF" offset="0%"/><stop stop-color="#74968E" offset="100%"/></linearGradient><linearGradient x1=".001%" y1="50%" x2="99.999%" y2="50%" id="q"><stop stop-color="#E1F0EA" offset="0%"/><stop stop-color="#B7CAC4" offset="16.21%"/><stop stop-color="#90A7A3" offset="33.66%"/><stop stop-color="#738C88" offset="51.02%"/><stop stop-color="#5D7975" offset="68.04%"/><stop stop-color="#506D6A" offset="84.55%"/><stop stop-color="#4C6966" offset="100%"/></linearGradient><linearGradient x1=".001%" y1="50%" y2="50%" id="r"><stop stop-color="#EB6C60" offset="0%"/><stop stop-color="#DA5E53" offset="10.97%"/><stop stop-color="#BD453C" offset="34.15%"/><stop stop-color="#A7332B" offset="57.03%"/><stop stop-color="#9A2821" offset="79.23%"/><stop stop-color="#96241E" offset="100%"/></linearGradient><linearGradient x1="3.906%" y1="51.734%" x2="100.39%" y2="51.734%" id="s"><stop stop-color="#C43934" offset="0%"/><stop stop-color="#96241E" offset="100%"/></linearGradient><linearGradient x1="3.906%" y1="49.734%" x2="100.39%" y2="49.734%" id="t"><stop stop-color="#C43934" offset="0%"/><stop stop-color="#96241E" offset="100%"/></linearGradient><linearGradient x1="3.906%" y1="47.803%" x2="100.39%" y2="47.803%" id="u"><stop stop-color="#C43934" offset="0%"/><stop stop-color="#96241E" offset="100%"/></linearGradient><linearGradient x1="3.906%" y1="52.087%" x2="100.39%" y2="52.087%" id="v"><stop stop-color="#C43934" offset="0%"/><stop stop-color="#96241E" offset="100%"/></linearGradient><linearGradient x1="3.906%" y1="50.14%" x2="100.39%" y2="50.14%" id="w"><stop stop-color="#C43934" offset="0%"/><stop stop-color="#96241E" offset="100%"/></linearGradient><linearGradient x1="3.906%" y1="48.156%" x2="100.39%" y2="48.156%" id="x"><stop stop-color="#C43934" offset="0%"/><stop stop-color="#96241E" offset="100%"/></linearGradient><linearGradient x1="3.906%" y1="52.441%" x2="100.39%" y2="52.441%" id="y"><stop stop-color="#C43934" offset="0%"/><stop stop-color="#96241E" offset="100%"/></linearGradient><linearGradient x1="3.906%" y1="50.544%" x2="100.39%" y2="50.544%" id="z"><stop stop-color="#C43934" offset="0%"/><stop stop-color="#96241E" offset="100%"/></linearGradient><linearGradient x1="3.906%" y1="48.511%" x2="100.39%" y2="48.511%" id="A"><stop stop-color="#C43934" offset="0%"/><stop stop-color="#96241E" offset="100%"/></linearGradient><linearGradient x1="-.366%" y1="51.734%" x2="96.094%" y2="51.734%" id="B"><stop stop-color="#EB6C60" offset="0%"/><stop stop-color="#96241E" offset="100%"/></linearGradient><linearGradient x1="-.366%" y1="49.734%" x2="96.094%" y2="49.734%" id="C"><stop stop-color="#EB6C60" offset="0%"/><stop stop-color="#96241E" offset="100%"/></linearGradient><linearGradient x1="-.366%" y1="47.803%" x2="96.094%" y2="47.803%" id="D"><stop stop-color="#EB6C60" offset="0%"/><stop stop-color="#96241E" offset="100%"/></linearGradient><linearGradient x1="-.366%" y1="52.087%" x2="96.094%" y2="52.087%" id="E"><stop stop-color="#EB6C60" offset="0%"/><stop stop-color="#96241E" offset="100%"/></linearGradient><linearGradient x1="-.366%" y1="50.14%" x2="96.094%" y2="50.14%" id="F"><stop stop-color="#EB6C60" offset="0%"/><stop stop-color="#96241E" offset="100%"/></linearGradient><linearGradient x1="-.366%" y1="48.156%" x2="96.094%" y2="48.156%" id="G"><stop stop-color="#EB6C60" offset="0%"/><stop stop-color="#96241E" offset="100%"/></linearGradient><linearGradient x1="-.366%" y1="52.441%" x2="96.094%" y2="52.441%" id="H"><stop stop-color="#EB6C60" offset="0%"/><stop stop-color="#96241E" offset="100%"/></linearGradient><linearGradient x1="-.366%" y1="50.544%" x2="96.094%" y2="50.544%" id="I"><stop stop-color="#EB6C60" offset="0%"/><stop stop-color="#96241E" offset="100%"/></linearGradient><linearGradient x1="-.366%" y1="48.511%" x2="96.094%" y2="48.511%" id="J"><stop stop-color="#EB6C60" offset="0%"/><stop stop-color="#96241E" offset="100%"/></linearGradient><linearGradient x1="-.002%" y1="49.999%" x2="100.001%" y2="49.999%" id="K"><stop stop-color="#4C6966" offset="0%"/><stop stop-color="#ADC5BF" offset="100%"/></linearGradient><linearGradient x1="-.001%" y1="49.998%" x2="99.999%" y2="49.998%" id="L"><stop stop-color="#4C6966" offset="0%"/><stop stop-color="#ADC5BF" offset="100%"/></linearGradient><linearGradient x1="5.589%" y1="92.064%" x2="94.4%" y2="8.012%" id="M"><stop stop-color="#4C6966" offset="0%"/><stop stop-color="#ADC5BF" offset="100%"/></linearGradient><linearGradient x1="5.615%" y1="7.827%" x2="94.372%" y2="92.1%" id="N"><stop stop-color="#4C6966" offset="0%"/><stop stop-color="#ADC5BF" offset="100%"/></linearGradient><linearGradient x1="0%" y1="50%" y2="50%" id="O"><stop stop-color="#fff" stop-opacity="0" offset="0%"/><stop stop-color="#fff" offset="100%"/></linearGradient><linearGradient x1="0%" y1="50%" y2="50%" id="P"><stop stop-color="#fff" stop-opacity="0" offset="0%"/><stop stop-color="#fff" offset="100%"/></linearGradient><linearGradient x1="0%" y1="50%" y2="50%" id="Q"><stop stop-color="#fff" stop-opacity="0" offset="0%"/><stop stop-color="#fff" offset="100%"/></linearGradient></defs><g sketch:type="MSLayerGroup" fill="none"><g sketch:type="MSShapeGroup"><g><path d="M26.061 65.429h-8.436l-5.182 21.471 5.264 17.617v191.051c0 2.274 1.852 4.117 4.135 4.117 2.283 0 4.135-1.843 4.135-4.117v-191.051l5.264-17.617-5.18-21.471z" id="Shape" fill="url(#a)"/><path d="M26.061 65.429h-2l5.182 21.471-5.264 17.617v191.051c0 1.929-1.337 3.535-3.135 3.982.322.08.653.135 1 .135 2.284 0 4.135-1.843 4.135-4.117v-191.051l5.264-17.617-5.182-21.471z" id="Shape" fill="#74968E"/><path d="M27.544 71.574l-1.483-6.145h-8.436l-1.482 6.145h11.401z" id="Shape" fill="#E1F0EA"/><path d="M27.544 71.574h-11.401l-.679 2.811h12.759l-.679-2.811z" id="Shape" fill="url(#b)"/><path d="M16.967 102.039l.741 2.478h8.271l.74-2.478h-9.752z" id="Shape" fill="url(#c)"/></g><g><path d="M43.44 232.16l-4.218-15.312h-34.757l-4.218 15.312c4.716 1.558 8.123 5.994 8.123 11.231 0 5.238-3.407 9.674-8.123 11.232v83.72c0 3.962 3.212 9.704 7.174 9.704 0 0 9.412.844 14.423.844 5.011 0 14.423-.844 14.423-.844 3.962 0 7.174-5.742 7.174-9.704v-83.72c-4.716-1.559-8.123-5.994-8.123-11.232-.001-5.237 3.406-9.672 8.122-11.231z" fill="url(#d)"/><g><path d="M36.691 219.379s5.731 13.117 6.749 12.781l-4.218-15.312h-34.757l-.697 2.53h32.923v.001z" id="Shape" fill="url(#e)"/><path d="M35.317 243.392c0-2.616.851-5.032 2.29-6.991-2.922 2.154-4.82 5.614-4.82 9.522 0 5.237 3.407 9.673 8.123 11.231v83.72c0 2.001-.82 4.452-2.14 6.393 2.726-1.698 4.671-5.843 4.671-8.923v-83.72c-4.717-1.559-8.124-5.994-8.124-11.232z" id="Shape" fill="#96241E"/></g><g><path d="M31.243 256.711c-2.861 0-5.182 2.32-5.182 5.182v72.619c0 2.861 2.32 5.182 5.182 5.182 2.862 0 5.182-2.32 5.182-5.182v-72.619c-.001-2.862-2.321-5.182-5.182-5.182z" fill="url(#f)"/><path d="M32.93 338.006c-2.861 0-5.181-2.32-5.181-5.182v-72.619c0-.998.287-1.927.776-2.718-1.476.913-2.463 2.542-2.463 4.405v72.619c0 2.861 2.32 5.182 5.182 5.182 1.863 0 3.492-.987 4.404-2.464-.791.49-1.72.777-2.718.777z" fill="#96241E"/><path d="M12.444 256.711c-2.862 0-5.182 2.32-5.182 5.182v72.619c0 2.861 2.32 5.182 5.182 5.182 2.861 0 5.181-2.32 5.181-5.182v-72.619c0-2.862-2.32-5.182-5.181-5.182z" fill="url(#g)"/><path d="M14.131 338.006c-2.861 0-5.181-2.32-5.181-5.182v-72.619c0-.998.287-1.927.776-2.718-1.476.913-2.463 2.542-2.463 4.405v72.619c0 2.861 2.32 5.182 5.182 5.182 1.863 0 3.492-.987 4.404-2.464-.79.49-1.72.777-2.718.777z" fill="#96241E"/></g><path d="M1.934 339.188v-83.721c4.716-1.558 8.123-5.994 8.123-11.231 0-4.966-3.065-9.207-7.402-10.962 3.423 2.072 5.715 5.824 5.715 10.118 0 5.238-3.407 9.674-8.123 11.232v83.72c0 3.552 2.585 8.524 5.976 9.516-2.525-1.832-4.289-5.738-4.289-8.672z" fill="#F3A79C"/></g></g><g sketch:type="MSShapeGroup"><g><path d="M60.708 309.818l53.101 8.602c-10.885-16.488-14.024-20.012-14.024-23.395v-175.729c0-2.492 1.129-4.149 11.611-14.792l-53.101-8.602c10.885 16.488 14.024 20.011 14.024 23.394v175.729c0 2.493-1.129 4.15-11.611 14.793z" fill="url(#h)"/><path d="M109.166 104.504c-10.482 10.643-11.61 12.3-11.61 14.792v175.729c0 3.354 3.09 6.855 13.756 22.989l2.498.405c-10.885-16.488-14.024-20.012-14.024-23.395v-175.728c0-2.492 1.129-4.149 11.611-14.792l-53.101-8.602.268.405 50.602 8.197z" fill="#4C6966"/><g><path d="M86.052 124.367c-3.358 0-6.083 2.724-6.083 6.083l.007 153.422c.075 3.294 2.764 5.943 6.076 5.943 3.311 0 6-2.649 6.076-5.943l.007-153.422c0-3.36-2.725-6.083-6.083-6.083z" fill="url(#i)"/><path d="M88.282 288.7c-3.312 0-6-2.649-6.076-5.943l-.006-153.423c0-1.93.902-3.646 2.304-4.761-2.607.686-4.534 3.053-4.534 5.876l.007 153.422c.075 3.294 2.764 5.943 6.076 5.943 1.425 0 2.715-.511 3.751-1.331-.49.128-.992.217-1.522.217z" fill="#4C6966"/></g></g><g><path d="M102.371 70.633l-4.703 20.798c-3.079.261-7.143.073-11.871-.997-4.729-1.068-8.477-2.646-11.145-4.207l4.702-20.799c-37.332 13.167-24.855 39.112 1.888 45.158 26.744 6.047 49.167-12.008 21.129-39.953z" fill="url(#j)"/><g fill="#4C6966"><path d="M102.371 70.633l-.017.073c24.57 26.625 2.658 43.529-23.343 37.65-7.341-1.66-13.604-4.821-18.06-8.804 4.461 5.025 11.625 9.075 20.29 11.034 26.745 6.047 49.168-12.008 21.13-39.953zM76.918 66.339l-4.496 19.889c2.668 1.561 6.417 3.139 11.145 4.207 3.988.902 7.496 1.173 10.346 1.08-2.385-.079-5.114-.401-8.116-1.08-4.729-1.068-8.477-2.646-11.145-4.207l4.702-20.799c-.84.296-1.646.601-2.436.91z" id="Shape"/></g></g><g><path d="M69.734 343.689l4.703-20.798c3.079-.262 7.142-.074 11.871.995 4.728 1.07 8.477 2.646 11.145 4.209l-4.702 20.797c37.332-13.165 24.855-39.111-1.888-45.156-26.743-6.047-49.167 12.009-21.129 39.953z" fill="url(#k)"/><g fill="#4C6966"><path d="M90.863 303.736c-8.508-1.923-16.577-1.405-22.726 1.094 5.601-1.49 12.339-1.57 19.38.021 25.9 5.854 38.419 30.375 5.271 43.874l-.038.167c37.333-13.164 24.856-39.111-1.887-45.156zM84.078 322.771c-4.729-1.069-8.792-1.257-11.871-.995l-4.482 19.826c.64.69 1.305 1.384 2.009 2.087l4.703-20.798c3.079-.262 7.142-.074 11.871.995 3.235.732 6 1.704 8.286 2.743-2.618-1.443-6.142-2.868-10.516-3.858z" id="Shape"/></g></g></g><g sketch:type="MSShapeGroup"><g><g><path id="Rectangle" fill="url(#l)" d="M459 122h27.018v40.25h-27.018z"/><path d="M472.037 66.375c12.961 0 25.641 2.269 25.641 2.269v35.067l-12.131 18.415h-27.018l-12.131-18.415v-35.067s12.68-2.269 25.639-2.269z" id="Shape" fill="url(#m)"/><path d="M421.588 103.711s5.777-3.402 12.406-3.402c6.631 0 12.404 3.402 12.404 3.402v-35.067s-4.961 3.402-12.404 3.402-12.406-3.402-12.406-3.402v35.067z" id="Shape" fill="url(#n)"/><path d="M421.588 103.711c0 1.775-1.439 3.215-3.215 3.215h-13.971c-1.775 0-3.215-1.439-3.215-3.215v-35.067c0-1.776 1.439-3.215 3.215-3.215h13.971c1.775 0 3.215 1.439 3.215 3.215v35.067z" id="Shape" fill="url(#o)"/><path d="M497.678 103.711s26.07-3.088 42.061 18.415h5.908c-7.168-45.212-47.969-53.482-47.969-53.482v35.067z" id="Shape" fill="url(#p)"/></g><g fill="#E1F0EA"><path d="M445.266 69.304v33.814c.719.352 1.133.593 1.133.593v-35.067c-.001 0-.405.273-1.133.66zM403.457 103.711v-35.067c0-1.776 1.439-3.215 3.215-3.215h-2.27c-1.775 0-3.215 1.439-3.215 3.215v35.067c0 1.775 1.439 3.215 3.215 3.215h2.27c-1.776 0-3.215-1.44-3.215-3.215z" id="Shape"/><path id="Rectangle" d="M459 122h1.135v40.25h-1.135z"/></g><g><path d="M423.857 69.858c-1.451-.66-2.27-1.215-2.27-1.215v35.067s.852-.5 2.27-1.115v-32.737z" id="Shape" fill="#4C6966"/><path d="M472.037 66.375l-1.133.006c12.555.125 24.504 2.262 24.504 2.262v35.067l-11.383 17.281h-26.242l.746 1.134h24.75v40.25h2.268v-40.25l12.131-18.415v-35.067c0 .001-12.68-2.268-25.641-2.268z" id="Shape" fill="url(#q)"/><path d="M497.678 68.644v.588c8.641 2.506 39.549 14.088 45.699 52.894h2.27c-7.168-45.212-47.969-53.482-47.969-53.482z" id="Shape" fill="#4C6966"/></g></g><g><path d="M458.529 162.375c-3.307 0-5.512 5.514-5.512 38.595 0 33.081 3.402 39.146 3.402 68.921 0 16.018-5.607 32.723-5.607 53.303 0 25.698 0 25.698 21.225 25.698 24.506 0 24.506-.972 24.506-22.296 0-21.324-6.033-45.127-6.033-56.705 0-11.579 2.205-36.941 2.205-68.369 0-31.428-1.656-39.147-7.168-39.147h-27.018z" fill="url(#r)"/><path d="M453.08 324.329c0-20.58 5.607-37.286 5.607-53.304 0-29.774-3.402-35.839-3.402-68.921 0-33.081 2.205-38.595 5.512-38.595h27.018c.252 0 .492.022.729.056-.842-.84-1.832-1.19-2.996-1.19h-27.018c-3.307 0-5.512 5.514-5.512 38.595 0 33.081 3.402 39.146 3.402 68.921 0 16.018-5.607 32.723-5.607 53.303 0 16.887 0 22.676 6.021 24.662-3.752-2.777-3.754-9.103-3.754-23.527z" fill="#F3A79C"/><g transform="translate(458 227)"><circle id="Oval" fill="url(#s)" cx="14.859" cy="3.859" r="3.859"/><circle id="Oval" fill="url(#t)" cx="14.859" cy="15.859" r="3.859"/><circle id="Oval" fill="url(#u)" cx="14.859" cy="26.859" r="3.859"/><circle id="Oval" fill="url(#v)" cx="14.859" cy="37.859" r="3.859"/><circle id="Oval" fill="url(#w)" cx="14.859" cy="49.859" r="3.859"/><circle id="Oval" fill="url(#x)" cx="14.859" cy="60.859" r="3.859"/><circle id="Oval" fill="url(#y)" cx="14.859" cy="71.859" r="3.859"/><circle id="Oval" fill="url(#z)" cx="14.859" cy="83.859" r="3.859"/><circle id="Oval" fill="url(#A)" cx="14.859" cy="94.859" r="3.859"/><circle id="Oval" fill="#96241E" cx="26.858" cy="3.858" r="3.858"/><circle id="Oval" fill="#96241E" cx="26.858" cy="15.858" r="3.858"/><circle id="Oval" fill="#96241E" cx="26.858" cy="26.858" r="3.858"/><circle id="Oval" fill="#96241E" cx="26.858" cy="37.858" r="3.858"/><circle id="Oval" fill="#96241E" cx="26.858" cy="49.858" r="3.858"/><circle id="Oval" fill="#96241E" cx="26.858" cy="60.858" r="3.858"/><circle id="Oval" fill="#96241E" cx="26.858" cy="71.858" r="3.858"/><circle id="Oval" fill="#96241E" cx="26.858" cy="83.858" r="3.858"/><circle id="Oval" fill="#96241E" cx="26.858" cy="94.858" r="3.858"/><circle id="Oval" fill="url(#B)" cx="3.858" cy="3.858" r="3.858"/><circle id="Oval" fill="url(#C)" cx="3.858" cy="15.858" r="3.858"/><circle id="Oval" fill="url(#D)" cx="3.858" cy="26.858" r="3.858"/><circle id="Oval" fill="url(#E)" cx="3.858" cy="37.858" r="3.858"/><circle id="Oval" fill="url(#F)" cx="3.858" cy="49.858" r="3.858"/><circle id="Oval" fill="url(#G)" cx="3.858" cy="60.858" r="3.858"/><circle id="Oval" fill="url(#H)" cx="3.858" cy="71.858" r="3.858"/><circle id="Oval" fill="url(#I)" cx="3.858" cy="83.858" r="3.858"/><circle id="Oval" fill="url(#J)" cx="3.858" cy="94.858" r="3.858"/></g><g fill="#F3A79C"><path d="M459.104 242.482c0-1.938 1.434-3.527 3.293-3.803-.186-.027-.373-.058-.568-.058-2.131 0-3.857 1.728-3.857 3.86 0 2.131 1.727 3.858 3.857 3.858.195 0 .383-.03.568-.058-1.86-.273-3.293-1.862-3.293-3.799zM459.104 253.824c0-1.938 1.434-3.526 3.293-3.802-.186-.027-.373-.058-.568-.058-2.131 0-3.857 1.728-3.857 3.859 0 2.131 1.727 3.859 3.857 3.859.195 0 .383-.03.568-.058-1.86-.274-3.293-1.862-3.293-3.8zM459.104 265.167c0-1.938 1.434-3.526 3.293-3.802-.186-.027-.373-.058-.568-.058-2.131 0-3.857 1.728-3.857 3.859 0 2.131 1.727 3.859 3.857 3.859.195 0 .383-.03.568-.058-1.86-.275-3.293-1.863-3.293-3.8zM459.104 276.51c0-1.938 1.434-3.526 3.293-3.802-.186-.028-.373-.058-.568-.058-2.131 0-3.857 1.728-3.857 3.859 0 2.131 1.727 3.859 3.857 3.859.195 0 .383-.03.568-.058-1.86-.275-3.293-1.863-3.293-3.8zM459.104 287.853c0-1.938 1.434-3.526 3.293-3.802-.186-.028-.373-.058-.568-.058-2.131 0-3.857 1.728-3.857 3.859 0 2.131 1.727 3.859 3.857 3.859.195 0 .383-.03.568-.058-1.86-.275-3.293-1.863-3.293-3.8zM459.104 299.195c0-1.938 1.434-3.526 3.293-3.802-.186-.028-.373-.058-.568-.058-2.131 0-3.857 1.728-3.857 3.859 0 2.131 1.727 3.859 3.857 3.859.195 0 .383-.03.568-.058-1.86-.274-3.293-1.862-3.293-3.8zM459.104 310.538c0-1.938 1.434-3.526 3.293-3.802-.186-.028-.373-.058-.568-.058-2.131 0-3.857 1.728-3.857 3.859 0 2.131 1.727 3.859 3.857 3.859.195 0 .383-.03.568-.058-1.86-.275-3.293-1.862-3.293-3.8zM459.104 321.881c0-1.938 1.434-3.526 3.293-3.802-.186-.028-.373-.058-.568-.058-2.131 0-3.857 1.728-3.857 3.859 0 2.131 1.727 3.859 3.857 3.859.195 0 .383-.03.568-.058-1.86-.275-3.293-1.863-3.293-3.8zM461.828 234.998c.195 0 .383-.03.568-.058-1.859-.275-3.293-1.864-3.293-3.801 0-1.938 1.434-3.527 3.293-3.803-.186-.027-.373-.058-.568-.058-2.131 0-3.857 1.728-3.857 3.86 0 2.133 1.726 3.86 3.857 3.86z" id="Shape"/></g><g fill="#EB6C60"><path d="M470.447 242.482c0-1.938 1.432-3.527 3.291-3.803-.186-.027-.373-.058-.566-.058-2.131 0-3.859 1.728-3.859 3.86 0 2.131 1.729 3.858 3.859 3.858.193 0 .381-.03.566-.058-1.859-.273-3.291-1.862-3.291-3.799zM470.447 253.824c0-1.938 1.432-3.526 3.291-3.802-.186-.027-.373-.058-.566-.058-2.131 0-3.859 1.728-3.859 3.859 0 2.131 1.729 3.859 3.859 3.859.193 0 .381-.03.566-.058-1.859-.274-3.291-1.862-3.291-3.8zM470.447 265.167c0-1.938 1.432-3.526 3.291-3.802-.186-.027-.373-.058-.566-.058-2.131 0-3.859 1.728-3.859 3.859 0 2.131 1.729 3.859 3.859 3.859.193 0 .381-.03.566-.058-1.859-.275-3.291-1.863-3.291-3.8zM470.447 276.51c0-1.938 1.432-3.526 3.291-3.802-.186-.028-.373-.058-.566-.058-2.131 0-3.859 1.728-3.859 3.859 0 2.131 1.729 3.859 3.859 3.859.193 0 .381-.03.566-.058-1.859-.275-3.291-1.863-3.291-3.8zM470.447 287.853c0-1.938 1.432-3.526 3.291-3.802-.186-.028-.373-.058-.566-.058-2.131 0-3.859 1.728-3.859 3.859 0 2.131 1.729 3.859 3.859 3.859.193 0 .381-.03.566-.058-1.859-.275-3.291-1.863-3.291-3.8zM470.447 299.195c0-1.938 1.432-3.526 3.291-3.802-.186-.028-.373-.058-.566-.058-2.131 0-3.859 1.728-3.859 3.859 0 2.131 1.729 3.859 3.859 3.859.193 0 .381-.03.566-.058-1.859-.274-3.291-1.862-3.291-3.8zM470.447 310.538c0-1.938 1.432-3.526 3.291-3.802-.186-.028-.373-.058-.566-.058-2.131 0-3.859 1.728-3.859 3.859 0 2.131 1.729 3.859 3.859 3.859.193 0 .381-.03.566-.058-1.859-.275-3.291-1.862-3.291-3.8zM470.447 321.881c0-1.938 1.432-3.526 3.291-3.802-.186-.028-.373-.058-.566-.058-2.131 0-3.859 1.728-3.859 3.859 0 2.131 1.729 3.859 3.859 3.859.193 0 .381-.03.566-.058-1.859-.275-3.291-1.863-3.291-3.8zM473.172 234.998c.193 0 .381-.03.566-.058-1.859-.275-3.291-1.864-3.291-3.801 0-1.938 1.432-3.527 3.291-3.803-.186-.027-.373-.058-.566-.058-2.131 0-3.859 1.728-3.859 3.86-.001 2.133 1.728 3.86 3.859 3.86z" id="Shape"/></g><g fill="#C43934"><path d="M481.789 242.482c0-1.938 1.434-3.527 3.293-3.803-.188-.027-.373-.058-.568-.058-2.131 0-3.857 1.728-3.857 3.86 0 2.131 1.727 3.858 3.857 3.858.195 0 .381-.03.568-.058-1.859-.273-3.293-1.862-3.293-3.799zM481.789 253.824c0-1.938 1.434-3.526 3.293-3.802-.188-.027-.373-.058-.568-.058-2.131 0-3.857 1.728-3.857 3.859 0 2.131 1.727 3.859 3.857 3.859.195 0 .381-.03.568-.058-1.859-.274-3.293-1.862-3.293-3.8zM481.789 265.167c0-1.938 1.434-3.526 3.293-3.802-.188-.027-.373-.058-.568-.058-2.131 0-3.857 1.728-3.857 3.859 0 2.131 1.727 3.859 3.857 3.859.195 0 .381-.03.568-.058-1.859-.275-3.293-1.863-3.293-3.8zM481.789 276.51c0-1.938 1.434-3.526 3.293-3.802-.188-.028-.373-.058-.568-.058-2.131 0-3.857 1.728-3.857 3.859 0 2.131 1.727 3.859 3.857 3.859.195 0 .381-.03.568-.058-1.859-.275-3.293-1.863-3.293-3.8zM481.789 287.853c0-1.938 1.434-3.526 3.293-3.802-.188-.028-.373-.058-.568-.058-2.131 0-3.857 1.728-3.857 3.859 0 2.131 1.727 3.859 3.857 3.859.195 0 .381-.03.568-.058-1.859-.275-3.293-1.863-3.293-3.8zM481.789 299.195c0-1.938 1.434-3.526 3.293-3.802-.188-.028-.373-.058-.568-.058-2.131 0-3.857 1.728-3.857 3.859 0 2.131 1.727 3.859 3.857 3.859.195 0 .381-.03.568-.058-1.859-.274-3.293-1.862-3.293-3.8zM481.789 310.538c0-1.938 1.434-3.526 3.293-3.802-.188-.028-.373-.058-.568-.058-2.131 0-3.857 1.728-3.857 3.859 0 2.131 1.727 3.859 3.857 3.859.195 0 .381-.03.568-.058-1.859-.275-3.293-1.862-3.293-3.8zM481.789 321.881c0-1.938 1.434-3.526 3.293-3.802-.188-.028-.373-.058-.568-.058-2.131 0-3.857 1.728-3.857 3.859 0 2.131 1.727 3.859 3.857 3.859.195 0 .381-.03.568-.058-1.859-.275-3.293-1.863-3.293-3.8zM484.514 234.998c.195 0 .381-.03.568-.058-1.859-.275-3.293-1.864-3.293-3.801 0-1.938 1.434-3.527 3.293-3.803-.188-.027-.373-.058-.568-.058-2.131 0-3.857 1.728-3.857 3.86-.001 2.133 1.726 3.86 3.857 3.86z" id="Shape"/></g><g fill="#C43934"><path d="M494.617 302.218c-.9-.701-1.484-1.788-1.484-3.022 0-.844.283-1.612.742-2.244l-.143-.975c-1.045.691-1.734 1.873-1.734 3.219 0 1.726 1.141 3.17 2.703 3.663l-.084-.641zM495.98 314.385l-.014-.156c-1.629-.448-2.834-1.917-2.834-3.69 0-1.497.857-2.777 2.104-3.413l-.043-.379c-1.814.315-3.195 1.889-3.195 3.792 0 2.131 1.729 3.859 3.859 3.859l.123-.013zM496.424 325.683c-1.859-.276-3.291-1.864-3.291-3.802 0-1.878 1.35-3.417 3.125-3.763l-.004-.058-.396-.039c-2.131 0-3.859 1.728-3.859 3.859 0 2.131 1.729 3.859 3.859 3.859.193.001.38-.029.566-.056z" id="Shape"/></g></g></g><g sketch:type="MSShapeGroup"><g><path d="M276.886.391c-10.805 0-19.564 8.76-19.564 19.565 0 10.805 8.76 19.564 19.564 19.564s19.564-8.76 19.564-19.564c0-10.806-8.76-19.565-19.564-19.565zm0 35.431c-8.762 0-15.866-7.104-15.866-15.866s7.104-15.865 15.866-15.865c8.763 0 15.866 7.103 15.866 15.865s-7.104 15.866-15.866 15.866z" id="Shape" fill="url(#K)"/><path d="M280.94 27.185c0-1.291-1.057-2.348-2.348-2.348h-3.239c-1.291 0-2.348 1.057-2.348 2.348v26.187c0 1.291 1.057 2.348 2.348 2.348h3.239c1.291 0 2.348-1.057 2.348-2.348v-26.187z" id="Shape" fill="#4C6966"/><path d="M299.101 47.74c0-5.571-14.628-5.571-22.127-5.571-7.561 0-22.302 0-22.302 5.596v20.032h44.429v-20.057z" fill="url(#L)"/><g fill="#4C6966"><path d="M275.42 42.17v25.626h3.107v-25.626l-1.554-.001-1.553.001zM280.94 67.796h3.108v-25.523c-1.062-.042-2.106-.069-3.108-.083v25.606zM286.464 67.796h3.105v-25.103c-1.013-.123-2.057-.218-3.105-.291v25.394zM291.984 67.796h3.106v-23.951c-.929-.32-1.979-.578-3.106-.787v24.738zM297.506 45.02v22.777h1.595v-20.057c0-1.117-.595-2.007-1.595-2.72zM269.898 67.796h3.107v-25.607c-1.001.015-2.047.04-3.107.083v25.524zM264.376 67.796h3.107v-25.398c-1.049.07-2.092.165-3.107.285v25.113zM258.855 67.796h3.107v-24.756c-1.124.203-2.172.454-3.107.763v23.993zM256.44 44.918c-1.106.736-1.769 1.665-1.769 2.846v20.032h1.769v-22.878z" id="Shape"/></g></g><g><path d="M190.297 67.103l7.988-3.914 11.424 16.792-7.986 3.913-11.426-16.791z" id="Shape" fill="#4C6966"/><path d="M180.711 72.686c2.034 2.988 11.309-1.556 16.066-3.887 4.719-2.312 13.922-6.821 11.899-9.795l-2.036-2.99c-2.024-2.976-11.228 1.533-15.946 3.845-4.759 2.332-14.033 6.875-12.001 9.863l2.018 2.964z" fill="url(#M)"/><g fill="#4C6966"><path d="M189.717 60.339l6.082 8.938.979-.479.978-.479-6.083-8.938-.099.048-.878.429-.894.44-.085.041zM202.664 65.748c.634-.361 1.255-.733 1.85-1.112l-5.702-8.38c-.683.247-1.374.519-2.06.802l5.912 8.69zM206.318 55.658l-.066-.058c-.128-.1-.264-.188-.417-.259l-.031-.012c-.331-.151-.719-.241-1.155-.276l4.011 5.896c.371-.69.422-1.348.016-1.944l-2.036-2.99c-.09-.138-.203-.252-.322-.357zM188.664 72.407c.683-.248 1.373-.52 2.059-.806l-5.917-8.695-.006.004c-.632.36-1.251.73-1.844 1.105l5.708 8.392zM182.859 73.66l-4.084-6.004-.002.002c-.207.354-.329.702-.354 1.035l-.003.058c-.008.156.008.307.046.457l.022.07c.048.152.111.299.209.444l2.018 2.964c.428.63 1.184.922 2.148.974z" id="Shape"/></g></g><g><path d="M355.521 63.21l8.014 3.913-11.464 16.792-8.011-3.914 11.461-16.791z" id="Shape" fill="#4C6966"/><path d="M344.995 58.959c-2.04 2.987 7.267 7.531 12.039 9.862 4.735 2.312 13.97 6.821 16.001 3.846l2.041-2.992c2.031-2.974-7.203-7.482-11.939-9.794-4.771-2.331-14.078-6.875-16.118-3.888l-2.024 2.966z" fill="url(#N)"/><g fill="#4C6966"><path d="M362.157 59.402l-6.104 8.939.98.479.982.478 6.101-8.938-.098-.049-.883-.431-.897-.438-.081-.04zM363.111 71.621c.689.285 1.383.556 2.068.802l5.719-8.379c-.596-.379-1.219-.751-1.855-1.114l-5.932 8.691zM375.275 69.261l.025-.079c.041-.143.062-.287.059-.434l-.004-.03c-.01-.319-.111-.648-.295-.986h-.002l-4.023 5.895c.893-.071 1.592-.363 2-.959l2.041-2.992c.092-.135.153-.275.199-.415zM349.27 64.663c.599.377 1.222.749 1.858 1.11l5.937-8.695-.008-.003c-.687-.284-1.376-.556-2.058-.801l-5.729 8.389zM345.075 61.024l4.098-6.004h-.002c-.468.024-.883.109-1.237.257l-.062.027c-.162.071-.311.159-.443.262l-.06.051c-.132.111-.252.232-.351.375l-2.023 2.966c-.431.632-.35 1.331.08 2.066z" id="Shape"/></g></g><g transform="translate(120) translate(0 56)"><circle fill="#4C6966" cx="156.516" cy="156.516" r="156.516"/><circle fill="#ADC5BF" cx="157.447" cy="156.447" r="149.447"/></g><g transform="translate(120) translate(21 77)"><circle fill="#E1F0EA" cx="135.757" cy="135.757" r="135.757"/><g transform="translate(7 6)" fill="#74968E"><circle id="Oval" cx="129.221" cy="6.221" r="6.221"/><circle id="Oval" cx="190.221" cy="22.221" r="6.221"/><circle id="Oval" cx="235.221" cy="68.221" r="6.221"/><circle id="Oval" cx="252.222" cy="129.222" r="6.222"/><circle id="Oval" cx="235.221" cy="191.221" r="6.221"/><circle id="Oval" cx="190.221" cy="236.221" r="6.221"/><circle id="Oval" cx="129.221" cy="252.221" r="6.221"/><circle id="Oval" cx="67.221" cy="236.221" r="6.221"/><circle id="Oval" cx="22.221" cy="191.221" r="6.221"/><circle id="Oval" cx="67.221" cy="22.221" r="6.221"/><circle id="Oval" cx="22.221" cy="68.221" r="6.221"/><circle id="Oval" cx="6.221" cy="129.221" r="6.221"/></g><g transform="translate(10 10)" fill="#ADC5BF"><circle id="Oval" cx="112.935" cy="2.935" r="2.935"/><circle id="Oval" cx="99.935" cy="4.935" r="2.935"/><circle id="Oval" cx="87.935" cy="7.935" r="2.935"/><circle id="Oval" cx="75.935" cy="12.935" r="2.935"/><circle id="Oval" cx="52.935" cy="25.935" r="2.935"/><circle id="Oval" cx="42.935" cy="33.935" r="2.935"/><circle id="Oval" cx="33.934" cy="42.934" r="2.934"/><circle id="Oval" cx="25.935" cy="52.935" r="2.935"/><circle id="Oval" cx="12.935" cy="75.935" r="2.935"/><circle id="Oval" cx="8.935" cy="87.935" r="2.935"/><circle id="Oval" cx="4.934" cy="99.934" r="2.934"/><circle id="Oval" cx="2.935" cy="112.935" r="2.935"/><circle id="Oval" cx="3.936" cy="138.936" r="2.936"/><circle id="Oval" cx="5.935" cy="151.935" r="2.935"/><path d="M8.517 161.172c1.612-.171 3.056 1 3.226 2.609.168 1.615-1 3.057-2.612 3.228-1.612.169-3.056-1-3.225-2.612-.17-1.611 1-3.056 2.611-3.225z" id="Shape"/><circle id="Oval" cx="13.935" cy="175.935" r="2.935"/><path d="M24.883 195.98c1.312-.952 3.146-.663 4.102.65.95 1.309.66 3.145-.65 4.098-1.311.953-3.147.663-4.099-.648-.954-1.313-.661-3.146.647-4.1zM32.991 205.98c1.312-.951 3.148-.66 4.1.648.953 1.314.663 3.147-.648 4.101-1.312.954-3.145.662-4.098-.648-.953-1.31-.663-3.147.646-4.101zM42.132 215.115c1.312-.952 3.146-.662 4.098.648.954 1.313.663 3.147-.649 4.101-1.311.953-3.146.661-4.098-.651-.952-1.309-.662-3.145.649-4.098zM52.142 223.221c1.31-.954 3.146-.662 4.1.65.951 1.309.661 3.146-.65 4.098-1.311.955-3.147.663-4.099-.65-.951-1.309-.662-3.145.649-4.098zM73.73 237.057c.661-1.479 2.395-2.146 3.877-1.487 1.478.66 2.145 2.394 1.486 3.874-.659 1.482-2.395 2.148-3.875 1.487-1.479-.66-2.142-2.392-1.488-3.874zM85.752 241.664c.662-1.479 2.396-2.146 3.875-1.487 1.483.661 2.149 2.395 1.489 3.875-.659 1.481-2.393 2.146-3.873 1.487-1.481-.657-2.147-2.394-1.491-3.875zM98.236 245.004c.659-1.48 2.394-2.146 3.874-1.487 1.483.661 2.148 2.395 1.488 3.876-.659 1.481-2.393 2.146-3.874 1.485-1.481-.657-2.146-2.393-1.488-3.874zM110.958 247.02c.659-1.48 2.394-2.146 3.875-1.488 1.479.659 2.145 2.395 1.485 3.875-.658 1.481-2.394 2.147-3.874 1.486-1.477-.66-2.145-2.392-1.486-3.873zM136.569 248.203c-.169-1.612 1-3.055 2.613-3.226 1.608-.168 3.054 1 3.225 2.612.17 1.612-1 3.057-2.612 3.226-1.612.167-3.054-1.001-3.226-2.612z" id="Shape"/><circle id="Oval" cx="151.936" cy="245.936" r="2.936"/><path d="M161.764 242.835c-.168-1.614 1.001-3.059 2.611-3.227 1.615-.168 3.058 1 3.227 2.613.17 1.612-.999 3.055-2.613 3.223-1.611.169-3.054-.999-3.225-2.609z" id="Shape"/><circle id="Oval" cx="176.935" cy="237.935" r="2.935"/><circle id="Oval" cx="198.935" cy="224.935" r="2.935"/><circle id="Oval" cx="208.935" cy="216.935" r="2.935"/><path d="M215.697 209.201c-.953-1.312-.662-3.147.648-4.099 1.314-.954 3.146-.663 4.1.649.955 1.312.662 3.145-.65 4.098-1.311.952-3.145.662-4.098-.648z" id="Shape"/><circle id="Oval" cx="225.934" cy="197.934" r="2.934"/><path d="M237.641 177.615c-1.482-.66-2.148-2.394-1.488-3.877.658-1.477 2.393-2.144 3.875-1.486 1.48.657 2.146 2.396 1.486 3.876-.66 1.48-2.395 2.144-3.873 1.487zM242.248 165.594c-1.482-.662-2.146-2.396-1.49-3.874.664-1.483 2.395-2.146 3.877-1.489 1.48.66 2.145 2.391 1.486 3.872-.659 1.481-2.396 2.147-3.873 1.491zM245.588 153.11c-1.482-.659-2.148-2.396-1.488-3.872.66-1.484 2.393-2.149 3.875-1.489 1.482.66 2.146 2.393 1.486 3.874-.66 1.479-2.393 2.146-3.873 1.487zM247.602 140.39c-1.48-.66-2.146-2.396-1.486-3.877.656-1.479 2.395-2.145 3.873-1.485 1.48.659 2.148 2.395 1.486 3.873-.659 1.479-2.393 2.146-3.873 1.489zM248.799 114.785c-1.611.168-3.057-1-3.227-2.615-.17-1.607.998-3.053 2.611-3.225 1.611-.169 3.057 1.002 3.227 2.612.166 1.613-1.002 3.055-2.611 3.228zM246.777 102.069c-1.615.169-3.057-1.002-3.227-2.611-.166-1.615.998-3.056 2.611-3.228 1.613-.168 3.055.998 3.225 2.61.173 1.613-.999 3.058-2.609 3.229zM243.428 89.588c-1.611.169-3.055-1-3.223-2.609-.172-1.615.998-3.058 2.609-3.228 1.615-.17 3.057 1 3.225 2.612.168 1.61-.998 3.054-2.611 3.225zM238.811 77.563c-1.611.17-3.055-1-3.225-2.612-.17-1.609 1.002-3.054 2.613-3.223 1.611-.17 3.057.998 3.225 2.61.166 1.612-1 3.056-2.613 3.225zM227.062 54.784c-1.314.952-3.148.663-4.104-.65-.949-1.309-.66-3.144.65-4.099 1.311-.954 3.148-.662 4.102.649.952 1.312.659 3.147-.648 4.1zM218.955 44.783c-1.316.953-3.148.661-4.1-.649-.953-1.314-.664-3.146.646-4.101 1.312-.951 3.143-.662 4.098.649.956 1.312.663 3.147-.644 4.101z" id="Shape"/><circle id="Oval" cx="207.935" cy="32.935" r="2.935"/><circle id="Oval" cx="197.934" cy="24.934" r="2.934"/><path d="M178.224 13.692c-.661 1.482-2.396 2.149-3.879 1.488-1.477-.658-2.144-2.392-1.486-3.875.658-1.481 2.396-2.146 3.877-1.488 1.478.661 2.143 2.396 1.488 3.875zM166.2 9.085c-.662 1.482-2.395 2.147-3.874 1.489-1.482-.662-2.147-2.393-1.49-3.876.661-1.48 2.391-2.145 3.873-1.486 1.482.657 2.145 2.393 1.491 3.873z" id="Shape"/><circle id="Oval" cx="150.935" cy="4.935" r="2.935"/><circle id="Oval" cx="137.934" cy="2.934" r="2.934"/></g><g transform="translate(59 146)"><path d="M24.676 2.505c0 1.626-1.312 2.938-2.934 2.938-1.62 0-2.935-1.312-2.935-2.938 0-1.619 1.314-2.932 2.935-2.932 1.622 0 2.934 1.313 2.934 2.932z" id="Shape" fill="#74968E"/><circle id="Oval" fill="#74968E" cx="30.935" cy="4.935" r="2.935"/><path d="M40.822 11.816c0 1.626-1.314 2.937-2.935 2.937-1.623 0-2.935-1.311-2.935-2.937 0-1.621 1.312-2.932 2.935-2.932 1.62.001 2.935 1.311 2.935 2.932z" id="Shape" fill="#74968E"/><circle id="Oval" fill="#74968E" cx="39.935" cy="20.935" r="2.935"/><path d="M40.818 30.446c0 1.62-1.312 2.931-2.934 2.931-1.621 0-2.935-1.311-2.935-2.931s1.314-2.938 2.935-2.938c1.622.001 2.934 1.318 2.934 2.938zM34.002 37.264c0 1.617-1.315 2.93-2.934 2.93-1.622 0-2.936-1.312-2.936-2.93 0-1.625 1.314-2.938 2.936-2.938 1.619 0 2.934 1.313 2.934 2.938zM24.69 39.759c0 1.619-1.314 2.931-2.935 2.931-1.623 0-2.935-1.312-2.935-2.931 0-1.627 1.312-2.938 2.935-2.938 1.621-.001 2.935 1.311 2.935 2.938zM15.376 37.261c0 1.62-1.314 2.937-2.933 2.937-1.622 0-2.936-1.316-2.936-2.937 0-1.618 1.314-2.934 2.936-2.934 1.619 0 2.933 1.316 2.933 2.934z" id="Shape" fill="#74968E"/><circle id="Oval" fill="#74968E" cx="5.935" cy="30.935" r="2.935"/><path d="M15.377 4.999c0 1.625-1.312 2.936-2.934 2.936-1.623 0-2.935-1.311-2.935-2.936 0-1.622 1.312-2.933 2.935-2.933 1.622 0 2.934 1.311 2.934 2.933zM8.556 11.818c0 1.618-1.315 2.932-2.937 2.932-1.619 0-2.933-1.313-2.933-2.932 0-1.624 1.314-2.937 2.933-2.937 1.622.001 2.937 1.313 2.937 2.937z" id="Shape" fill="#74968E"/><circle id="Oval" fill="#74968E" cx="2.935" cy="20.935" r="2.935"/><g><path id="Rectangle" fill="#74968E" d="M17 11h3.913v15.65h-3.913z"/><path id="Rectangle" fill="#4C6966" d="M18 10h3.914v15.65h-3.914z"/></g></g><g transform="translate(170 146)"><path d="M24.113 2.505c0 1.626-1.314 2.938-2.936 2.938-1.619 0-2.936-1.312-2.936-2.938 0-1.619 1.316-2.932 2.936-2.932 1.622 0 2.936 1.313 2.936 2.932z" id="Shape" fill="#74968E"/><circle id="Oval" fill="#74968E" cx="30.934" cy="4.934" r="2.934"/><path d="M40.258 11.816c0 1.626-1.315 2.937-2.936 2.937-1.624 0-2.935-1.311-2.935-2.937 0-1.621 1.311-2.932 2.935-2.932 1.62.001 2.936 1.311 2.936 2.932z" id="Shape" fill="#74968E"/><circle id="Oval" fill="#74968E" cx="39.935" cy="20.935" r="2.935"/><path d="M40.254 30.446c0 1.62-1.312 2.931-2.934 2.931s-2.936-1.311-2.936-2.931 1.313-2.938 2.936-2.938c1.621.001 2.934 1.318 2.934 2.938zM33.438 37.264c0 1.617-1.315 2.93-2.934 2.93-1.621 0-2.935-1.312-2.935-2.93 0-1.625 1.313-2.938 2.935-2.938 1.618 0 2.934 1.313 2.934 2.938zM24.126 39.759c0 1.619-1.314 2.931-2.935 2.931-1.623 0-2.935-1.312-2.935-2.931 0-1.627 1.312-2.938 2.935-2.938 1.621-.001 2.935 1.311 2.935 2.938zM14.812 37.261c0 1.62-1.314 2.937-2.934 2.937-1.622 0-2.936-1.316-2.936-2.937 0-1.618 1.313-2.934 2.936-2.934 1.62 0 2.934 1.316 2.934 2.934zM7.994 30.443c0 1.625-1.313 2.938-2.934 2.938-1.624 0-2.936-1.313-2.936-2.938 0-1.621 1.312-2.933 2.936-2.933 1.621.001 2.934 1.312 2.934 2.933zM14.812 4.999c0 1.625-1.312 2.936-2.934 2.936-1.623 0-2.936-1.311-2.936-2.936 0-1.622 1.312-2.933 2.936-2.933 1.623 0 2.934 1.311 2.934 2.933zM7.991 11.818c0 1.618-1.315 2.932-2.937 2.932-1.618 0-2.934-1.313-2.934-2.932 0-1.624 1.315-2.937 2.934-2.937 1.622.001 2.937 1.313 2.937 2.937z" id="Shape" fill="#74968E"/><circle fill="#74968E" cx="2.935" cy="20.935" r="2.935"/><g><path id="Rectangle" fill="#74968E" d="M18 10h3.913v15.65h-3.913z"/><path fill="#4C6966" d="M19 8h3.913v15.65h-3.913z"/></g></g></g><g><path d="M286.762 215.141c0-4.701-2.59-8.792-6.416-10.942v-89.562l-6.133-9.618-6.134 9.618v89.562c-3.826 2.15-6.415 6.241-6.415 10.942 0 4.699 2.589 8.791 6.415 10.942v8.318h12.267v-8.318c3.826-2.151 6.416-6.243 6.416-10.942z" fill="#74968E"/><path d="M283.106 111.875l-6.132-9.618-6.134 9.618v119.768h12.266v-119.768z" fill="#4C6966"/><g transform="translate(264 200)"><circle fill="#ADC5BF" cx="12.548" cy="12.548" r="12.548"/><circle fill="#E1F0EA" cx="12.912" cy="11.912" r="3.912"/></g></g><g opacity=".7"><path d="M359.098 104.281l-190.223 190.221c10.909 14.338 24.598 26.44 40.271 35.496l185.447-185.447c-9.058-15.674-21.159-29.363-35.495-40.27z" id="Shape" fill="url(#O)"/><path d="M157.146 276.223l183.671-183.672c-3.422-1.827-6.929-3.514-10.517-5.048l-178.202 178.203c1.534 3.589 3.221 7.096 5.048 10.517z" id="Shape" fill="url(#P)"/><path d="M234.799 341.446l171.242-171.243c-2.334-7.144-5.242-14.026-8.672-20.595l-183.164 183.167c6.567 3.43 13.451 6.337 20.594 8.671z" fill="url(#Q)"/></g><path d="M276.974 76.623c-37.839 0-72.057 15.487-96.676 40.46 24.51-24.162 58.159-39.08 95.295-39.08 74.976 0 135.757 60.781 135.757 135.758 0 37.137-14.916 70.784-39.08 95.295 24.973-24.621 40.461-58.837 40.461-96.677-.001-74.976-60.781-135.756-135.757-135.756z" fill="#74968E"/></g></g></svg>