<svg xmlns="http://www.w3.org/2000/svg" viewBox="148.2 113.4 545.4 368.5"><linearGradient id="a" gradientUnits="userSpaceOnUse" x1="160.443" y1="300.333" x2="179.241" y2="300.333" gradientTransform="matrix(1 0 0 -1 0 595.89)"><stop offset="0" stop-color="#E1F0EA"/><stop offset="1" stop-color="#ADC5BF"/></linearGradient><path fill="url(#a)" d="M174.1 178.4h-8.4l-5.2 21.5 5.3 17.6v191.1c0 2.3 1.9 4.1 4.1 4.1s4.1-1.8 4.1-4.1v-191.1l5.3-17.6-5.2-21.5z"/><path fill="#74968E" d="M174.1 178.4h-2l5.2 21.5-5.3 17.6v191.1c0 1.9-1.3 3.5-3.1 4 .3.1.7.1 1 .1 2.3 0 4.1-1.8 4.1-4.1v-191.1l5.3-17.6-5.2-21.5z"/><path fill="#E1F0EA" d="M175.5 184.6l-1.5-6.1h-8.4l-1.5 6.1h11.4z"/><linearGradient id="b" gradientUnits="userSpaceOnUse" x1="163.464" y1="409.911" x2="176.223" y2="409.911" gradientTransform="matrix(1 0 0 -1 0 595.89)"><stop offset="0" stop-color="#E1F0EA"/><stop offset="1" stop-color="#74968E"/></linearGradient><path fill="url(#b)" d="M175.5 184.6h-11.4l-.7 2.8h12.8l-.7-2.8z"/><linearGradient id="c" gradientUnits="userSpaceOnUse" x1="164.967" y1="379.612" x2="174.719" y2="379.612" gradientTransform="matrix(1 0 0 -1 0 595.89)"><stop offset="0" stop-color="#E1F0EA"/><stop offset="1" stop-color="#74968E"/></linearGradient><path fill="url(#c)" d="M165 215l.7 2.5h8.3l.7-2.5h-9.7z"/><linearGradient id="d" gradientUnits="userSpaceOnUse" x1="148.247" y1="200.02" x2="191.441" y2="200.02" gradientTransform="matrix(1 0 0 -1 0 595.89)"><stop offset="0" stop-color="#EB6C60"/><stop offset="1" stop-color="#C43934"/></linearGradient><path fill="url(#d)" d="M191.4 345.2l-4.2-15.3h-34.8l-4.2 15.3c4.7 1.6 8.1 6 8.1 11.2 0 5.2-3.4 9.7-8.1 11.2v83.7c0 4 3.2 9.7 7.2 9.7 0 0 9.4.8 14.4.8l14.4-.8c4 0 7.2-5.7 7.2-9.7v-83.7c-4.7-1.6-8.1-6-8.1-11.2 0-5.2 3.4-9.7 8.1-11.2z"/><linearGradient id="e" gradientUnits="userSpaceOnUse" x1="151.768" y1="258.383" x2="191.44" y2="258.383" gradientTransform="matrix(1 0 0 -1 0 595.89)"><stop offset="0" stop-color="#F3A79C"/><stop offset="1" stop-color="#C43934"/></linearGradient><path fill="url(#e)" d="M184.7 332.4s5.7 13.1 6.7 12.8l-4.2-15.3h-34.8l-.7 2.5h33z"/><path fill="#96241E" d="M183.3 356.4c0-2.6.9-5 2.3-7-2.9 2.2-4.8 5.6-4.8 9.5 0 5.2 3.4 9.7 8.1 11.2v83.7c0 2-.8 4.5-2.1 6.4 2.7-1.7 4.7-5.8 4.7-8.9v-83.7c-4.8-1.5-8.2-6-8.2-11.2z"/><linearGradient id="f" gradientUnits="userSpaceOnUse" x1="174.061" y1="184.688" x2="184.425" y2="184.688" gradientTransform="matrix(1 0 0 -1 0 595.89)"><stop offset="0" stop-color="#EB6C60"/><stop offset="1" stop-color="#96241E"/></linearGradient><path fill="url(#f)" d="M179.2 369.7c-2.9 0-5.2 2.3-5.2 5.2v72.6c0 2.9 2.3 5.2 5.2 5.2s5.2-2.3 5.2-5.2v-72.6c0-2.9-2.3-5.2-5.2-5.2z"/><path fill="#96241E" d="M180.9 451c-2.9 0-5.2-2.3-5.2-5.2v-72.6c0-1 .3-1.9.8-2.7-1.5.9-2.5 2.5-2.5 4.4v72.6c0 2.9 2.3 5.2 5.2 5.2 1.9 0 3.5-1 4.4-2.5-.7.5-1.7.8-2.7.8z"/><linearGradient id="g" gradientUnits="userSpaceOnUse" x1="155.262" y1="184.688" x2="165.625" y2="184.688" gradientTransform="matrix(1 0 0 -1 0 595.89)"><stop offset="0" stop-color="#EB6C60"/><stop offset="1" stop-color="#96241E"/></linearGradient><path fill="url(#g)" d="M160.4 369.7c-2.9 0-5.2 2.3-5.2 5.2v72.6c0 2.9 2.3 5.2 5.2 5.2 2.9 0 5.2-2.3 5.2-5.2v-72.6c0-2.9-2.3-5.2-5.2-5.2z"/><path fill="#96241E" d="M162.1 451c-2.9 0-5.2-2.3-5.2-5.2v-72.6c0-1 .3-1.9.8-2.7-1.5.9-2.5 2.5-2.5 4.4v72.6c0 2.9 2.3 5.2 5.2 5.2 1.9 0 3.5-1 4.4-2.5-.7.5-1.7.8-2.7.8z"/><path fill="#F3A79C" d="M149.9 452.2v-83.7c4.7-1.6 8.1-6 8.1-11.2 0-5-3.1-9.2-7.4-11 3.4 2.1 5.7 5.8 5.7 10.1 0 5.2-3.4 9.7-8.1 11.2v83.7c0 3.6 2.6 8.5 6 9.5-2.5-1.8-4.3-5.7-4.3-8.6z"/><linearGradient id="h" gradientUnits="userSpaceOnUse" x1="206.295" y1="275.729" x2="261.809" y2="275.729" gradientTransform="matrix(1 0 0 -1 0 595.89)"><stop offset="0" stop-color="#E1F0EA"/><stop offset="1" stop-color="#ADC5BF"/></linearGradient><path fill="url(#h)" d="M208.7 422.8l53.1 8.6c-10.9-16.5-14-20-14-23.4v-175.7c0-2.5 1.1-4.1 11.6-14.8l-53.1-8.6c10.9 16.5 14 20 14 23.4v175.7c0 2.5-1.1 4.2-11.6 14.8z"/><path fill="#4C6966" d="M257.2 217.5c-10.5 10.6-11.6 12.3-11.6 14.8v175.7c0 3.4 3.1 6.9 13.8 23l2.5.4c-10.9-16.5-14-20-14-23.4v-175.7c0-2.5 1.1-4.1 11.6-14.8l-53.1-8.6.3.4 50.5 8.2z"/><linearGradient id="i" gradientUnits="userSpaceOnUse" x1="227.969" y1="275.799" x2="240.135" y2="275.799" gradientTransform="matrix(1 0 0 -1 0 595.89)"><stop offset="0" stop-color="#E1F0EA"/><stop offset="1" stop-color="#74968E"/></linearGradient><path fill="url(#i)" d="M234.1 237.4c-3.4 0-6.1 2.7-6.1 6.1v153.4c.1 3.3 2.8 5.9 6.1 5.9s6-2.6 6.1-5.9v-153.4c-.1-3.4-2.8-6.1-6.1-6.1z"/><path fill="#4C6966" d="M236.3 401.7c-3.3 0-6-2.6-6.1-5.9v-153.4c0-1.9.9-3.6 2.3-4.8-2.6.7-4.5 3.1-4.5 5.9v153.4c.1 3.3 2.8 5.9 6.1 5.9 1.4 0 2.7-.5 3.8-1.3-.6.1-1.1.2-1.6.2z"/><linearGradient id="j" gradientUnits="userSpaceOnUse" x1="203.974" y1="394.299" x2="263.302" y2="394.299" gradientTransform="matrix(1 0 0 -1 0 595.89)"><stop offset="0" stop-color="#E1F0EA"/><stop offset="1" stop-color="#ADC5BF"/></linearGradient><path fill="url(#j)" d="M250.4 183.6l-4.7 20.8c-3.1.3-7.1.1-11.9-1-4.7-1.1-8.5-2.6-11.1-4.2l4.7-20.8c-37.3 13.2-24.9 39.1 1.9 45.2 26.7 6 49.1-12 21.1-40z"/><path fill="#4C6966" d="M250.4 183.6c24.6 26.7 2.6 43.6-23.4 37.7-7.3-1.7-13.6-4.8-18.1-8.8 4.5 5 11.6 9.1 20.3 11 26.8 6.1 49.2-11.9 21.2-39.9zm-25.5-4.3l-4.5 19.9c2.7 1.6 6.4 3.1 11.1 4.2 4 .9 7.5 1.2 10.3 1.1-2.4-.1-5.1-.4-8.1-1.1-4.7-1.1-8.5-2.6-11.1-4.2l4.7-20.8-2.4.9z"/><linearGradient id="k" gradientUnits="userSpaceOnUse" x1="204.803" y1="157.16" x2="264.131" y2="157.16" gradientTransform="matrix(1 0 0 -1 0 595.89)"><stop offset="0" stop-color="#E1F0EA"/><stop offset="1" stop-color="#ADC5BF"/></linearGradient><path fill="url(#k)" d="M217.7 456.7l4.7-20.8c3.1-.3 7.1-.1 11.9 1 4.7 1.1 8.5 2.6 11.1 4.2l-4.7 20.8c37.3-13.2 24.9-39.1-1.9-45.2-26.7-6-49.1 12-21.1 40z"/><path fill="#4C6966" d="M238.9 416.7c-8.5-1.9-16.6-1.4-22.7 1.1 5.6-1.5 12.3-1.6 19.4 0 25.9 5.9 38.4 30.4 5.3 43.9v.2c37.2-13.2 24.7-39.1-2-45.2zm-6.8 19.1c-4.7-1.1-8.8-1.3-11.9-1l-4.5 19.8c.6.7 1.3 1.4 2 2.1l4.7-20.8c3.1-.3 7.1-.1 11.9 1 3.2.7 6 1.7 8.3 2.7-2.6-1.4-6.1-2.8-10.5-3.8z"/><linearGradient id="l" gradientUnits="userSpaceOnUse" x1="606.529" y1="340.639" x2="633.547" y2="340.639" gradientTransform="matrix(1 0 0 -1 0 595.89)"><stop offset="0" stop-color="#ADC5BF"/><stop offset="1" stop-color="#74968E"/></linearGradient><path fill="url(#l)" d="M606.5 235.1h27v40.2h-27v-40.2z"/><linearGradient id="m" gradientUnits="userSpaceOnUse" x1="594.398" y1="388.639" x2="645.678" y2="388.639" gradientTransform="matrix(1 0 0 -1 0 595.89)"><stop offset="0" stop-color="#ADC5BF"/><stop offset="1" stop-color="#74968E"/></linearGradient><path fill="url(#m)" d="M620 179.4c13 0 25.6 2.3 25.6 2.3v35.1l-12.1 18.4h-27l-12.1-18.4v-35.1c0-.1 12.7-2.3 25.6-2.3z"/><linearGradient id="n" gradientUnits="userSpaceOnUse" x1="581.993" y1="379.179" x2="581.993" y2="414.246" gradientTransform="matrix(1 0 0 -1 0 595.89)"><stop offset="0" stop-color="#74968E"/><stop offset="1" stop-color="#E1F0EA"/></linearGradient><path fill="url(#n)" d="M569.6 216.7s5.8-3.4 12.4-3.4c6.6 0 12.4 3.4 12.4 3.4v-35.1s-5 3.4-12.4 3.4l-12.4-3.4v35.1z"/><linearGradient id="o" gradientUnits="userSpaceOnUse" x1="559.388" y1="375.964" x2="559.388" y2="417.461" gradientTransform="matrix(1 0 0 -1 0 595.89)"><stop offset="0" stop-color="#74968E"/><stop offset="1" stop-color="#E1F0EA"/></linearGradient><path fill="url(#o)" d="M569.6 216.7c0 1.8-1.4 3.2-3.2 3.2h-14c-1.8 0-3.2-1.4-3.2-3.2v-35.1c0-1.8 1.4-3.2 3.2-3.2h14c1.8 0 3.2 1.4 3.2 3.2v35.1z"/><linearGradient id="p" gradientUnits="userSpaceOnUse" x1="645.678" y1="387.505" x2="693.647" y2="387.505" gradientTransform="matrix(1 0 0 -1 0 595.89)"><stop offset="0" stop-color="#ADC5BF"/><stop offset="1" stop-color="#74968E"/></linearGradient><path fill="url(#p)" d="M645.7 216.7s26.1-3.1 42.1 18.4h5.9c-7.2-45.2-48-53.5-48-53.5v35.1z"/><path fill="#E1F0EA" d="M593.3 182.3v33.8c.7.4 1.1.6 1.1.6v-35.1s-.4.3-1.1.7zm-41.8 34.4v-35.1c0-1.8 1.4-3.2 3.2-3.2h-2.3c-1.8 0-3.2 1.4-3.2 3.2v35.1c0 1.8 1.4 3.2 3.2 3.2h2.3c-1.8 0-3.2-1.4-3.2-3.2zm55 18.4h1.1v40.2h-1.1v-40.2z"/><path fill="#4C6966" d="M571.9 182.9c-1.5-.7-2.3-1.2-2.3-1.2v35.1s.9-.5 2.3-1.1v-32.8z"/><linearGradient id="q" gradientUnits="userSpaceOnUse" x1="605.783" y1="368.515" x2="645.678" y2="368.515" gradientTransform="matrix(1 0 0 -1 0 595.89)"><stop offset="0" stop-color="#E1F0EA"/><stop offset=".162" stop-color="#B7CAC4"/><stop offset=".337" stop-color="#90A7A3"/><stop offset=".51" stop-color="#738C88"/><stop offset=".68" stop-color="#5D7975"/><stop offset=".846" stop-color="#506D6A"/><stop offset="1" stop-color="#4C6966"/></linearGradient><path fill="url(#q)" d="M620 179.4h-1.1c12.6.1 24.5 2.3 24.5 2.3v35.1l-11.4 17.2h-26.2l.7 1.1h24.8v40.2h2.3v-40.2l12.1-18.4v-35.1s-12.7-2.2-25.7-2.2z"/><path fill="#4C6966" d="M645.7 181.6v.6c8.6 2.5 39.5 14.1 45.7 52.9h2.3c-7.2-45.2-48-53.5-48-53.5z"/><linearGradient id="r" gradientUnits="userSpaceOnUse" x1="598.812" y1="227.256" x2="644.543" y2="227.256" gradientTransform="matrix(1 0 0 -1 0 595.89)"><stop offset="0" stop-color="#EB6C60"/><stop offset=".11" stop-color="#DA5E53"/><stop offset=".342" stop-color="#BD453C"/><stop offset=".57" stop-color="#A7332B"/><stop offset=".792" stop-color="#9A2821"/><stop offset="1" stop-color="#96241E"/></linearGradient><path fill="url(#r)" d="M606.5 275.4c-3.3 0-5.5 5.5-5.5 38.6s3.4 39.1 3.4 68.9c0 16-5.6 32.7-5.6 53.3 0 25.7 0 25.7 21.2 25.7 24.5 0 24.5-1 24.5-22.3s-6-45.1-6-56.7c0-11.6 2.2-36.9 2.2-68.4s-1.7-39.1-7.2-39.1h-27z"/><path fill="#F3A79C" d="M601.1 437.3c0-20.6 5.6-37.3 5.6-53.3 0-29.8-3.4-35.8-3.4-68.9 0-33.1 2.2-38.6 5.5-38.6h27c.3 0 .5 0 .7.1-.8-.8-1.8-1.2-3-1.2h-27c-3.3 0-5.5 5.5-5.5 38.6s3.4 39.1 3.4 68.9c0 16-5.6 32.7-5.6 53.3 0 16.9 0 22.7 6 24.7-3.7-2.8-3.7-9.1-3.7-23.6z"/><linearGradient id="s" gradientUnits="userSpaceOnUse" x1="617.313" y1="251.75" x2="625.031" y2="251.75" gradientTransform="matrix(1 0 0 -1 0 595.89)"><stop offset="0" stop-color="#C43934"/><stop offset="1" stop-color="#96241E"/></linearGradient><circle fill="url(#s)" cx="621.2" cy="344.1" r="3.9"/><linearGradient id="t" gradientUnits="userSpaceOnUse" x1="617.313" y1="240.408" x2="625.031" y2="240.408" gradientTransform="matrix(1 0 0 -1 0 595.89)"><stop offset="0" stop-color="#C43934"/><stop offset="1" stop-color="#96241E"/></linearGradient><circle fill="url(#t)" cx="621.2" cy="355.5" r="3.9"/><linearGradient id="u" gradientUnits="userSpaceOnUse" x1="617.313" y1="229.066" x2="625.031" y2="229.066" gradientTransform="matrix(1 0 0 -1 0 595.89)"><stop offset="0" stop-color="#C43934"/><stop offset="1" stop-color="#96241E"/></linearGradient><circle fill="url(#u)" cx="621.2" cy="366.8" r="3.9"/><linearGradient id="v" gradientUnits="userSpaceOnUse" x1="617.313" y1="217.723" x2="625.031" y2="217.723" gradientTransform="matrix(1 0 0 -1 0 595.89)"><stop offset="0" stop-color="#C43934"/><stop offset="1" stop-color="#96241E"/></linearGradient><circle fill="url(#v)" cx="621.2" cy="378.2" r="3.9"/><linearGradient id="w" gradientUnits="userSpaceOnUse" x1="617.313" y1="206.38" x2="625.031" y2="206.38" gradientTransform="matrix(1 0 0 -1 0 595.89)"><stop offset="0" stop-color="#C43934"/><stop offset="1" stop-color="#96241E"/></linearGradient><circle fill="url(#w)" cx="621.2" cy="389.5" r="3.9"/><linearGradient id="x" gradientUnits="userSpaceOnUse" x1="617.313" y1="195.037" x2="625.031" y2="195.037" gradientTransform="matrix(1 0 0 -1 0 595.89)"><stop offset="0" stop-color="#C43934"/><stop offset="1" stop-color="#96241E"/></linearGradient><circle fill="url(#x)" cx="621.2" cy="400.9" r="3.9"/><linearGradient id="y" gradientUnits="userSpaceOnUse" x1="617.313" y1="183.695" x2="625.031" y2="183.695" gradientTransform="matrix(1 0 0 -1 0 595.89)"><stop offset="0" stop-color="#C43934"/><stop offset="1" stop-color="#96241E"/></linearGradient><circle fill="url(#y)" cx="621.2" cy="412.2" r="3.9"/><linearGradient id="z" gradientUnits="userSpaceOnUse" x1="617.313" y1="172.352" x2="625.031" y2="172.352" gradientTransform="matrix(1 0 0 -1 0 595.89)"><stop offset="0" stop-color="#C43934"/><stop offset="1" stop-color="#96241E"/></linearGradient><circle fill="url(#z)" cx="621.2" cy="423.5" r="3.9"/><linearGradient id="A" gradientUnits="userSpaceOnUse" x1="617.313" y1="161.009" x2="625.031" y2="161.009" gradientTransform="matrix(1 0 0 -1 0 595.89)"><stop offset="0" stop-color="#C43934"/><stop offset="1" stop-color="#96241E"/></linearGradient><circle fill="url(#A)" cx="621.2" cy="434.9" r="3.9"/><circle fill="#96241E" cx="632.5" cy="344.1" r="3.9"/><circle fill="#96241E" cx="632.5" cy="355.5" r="3.9"/><circle fill="#96241E" cx="632.5" cy="366.8" r="3.9"/><circle fill="#96241E" cx="632.5" cy="378.2" r="3.9"/><circle fill="#96241E" cx="632.5" cy="389.5" r="3.9"/><circle fill="#96241E" cx="632.5" cy="400.9" r="3.9"/><circle fill="#96241E" cx="632.5" cy="412.2" r="3.9"/><circle fill="#96241E" cx="632.5" cy="423.5" r="3.9"/><circle fill="#96241E" cx="632.5" cy="434.9" r="3.9"/><linearGradient id="B" gradientUnits="userSpaceOnUse" x1="605.971" y1="251.75" x2="613.687" y2="251.75" gradientTransform="matrix(1 0 0 -1 0 595.89)"><stop offset="0" stop-color="#EB6C60"/><stop offset="1" stop-color="#96241E"/></linearGradient><circle fill="url(#B)" cx="609.8" cy="344.1" r="3.9"/><linearGradient id="C" gradientUnits="userSpaceOnUse" x1="605.971" y1="240.408" x2="613.687" y2="240.408" gradientTransform="matrix(1 0 0 -1 0 595.89)"><stop offset="0" stop-color="#EB6C60"/><stop offset="1" stop-color="#96241E"/></linearGradient><circle fill="url(#C)" cx="609.8" cy="355.5" r="3.9"/><linearGradient id="D" gradientUnits="userSpaceOnUse" x1="605.971" y1="229.066" x2="613.687" y2="229.066" gradientTransform="matrix(1 0 0 -1 0 595.89)"><stop offset="0" stop-color="#EB6C60"/><stop offset="1" stop-color="#96241E"/></linearGradient><circle fill="url(#D)" cx="609.8" cy="366.8" r="3.9"/><linearGradient id="E" gradientUnits="userSpaceOnUse" x1="605.971" y1="217.723" x2="613.687" y2="217.723" gradientTransform="matrix(1 0 0 -1 0 595.89)"><stop offset="0" stop-color="#EB6C60"/><stop offset="1" stop-color="#96241E"/></linearGradient><circle fill="url(#E)" cx="609.8" cy="378.2" r="3.9"/><linearGradient id="F" gradientUnits="userSpaceOnUse" x1="605.971" y1="206.38" x2="613.687" y2="206.38" gradientTransform="matrix(1 0 0 -1 0 595.89)"><stop offset="0" stop-color="#EB6C60"/><stop offset="1" stop-color="#96241E"/></linearGradient><circle fill="url(#F)" cx="609.8" cy="389.5" r="3.9"/><linearGradient id="G" gradientUnits="userSpaceOnUse" x1="605.971" y1="195.037" x2="613.687" y2="195.037" gradientTransform="matrix(1 0 0 -1 0 595.89)"><stop offset="0" stop-color="#EB6C60"/><stop offset="1" stop-color="#96241E"/></linearGradient><circle fill="url(#G)" cx="609.8" cy="400.9" r="3.9"/><linearGradient id="H" gradientUnits="userSpaceOnUse" x1="605.971" y1="183.695" x2="613.687" y2="183.695" gradientTransform="matrix(1 0 0 -1 0 595.89)"><stop offset="0" stop-color="#EB6C60"/><stop offset="1" stop-color="#96241E"/></linearGradient><circle fill="url(#H)" cx="609.8" cy="412.2" r="3.9"/><linearGradient id="I" gradientUnits="userSpaceOnUse" x1="605.971" y1="172.352" x2="613.687" y2="172.352" gradientTransform="matrix(1 0 0 -1 0 595.89)"><stop offset="0" stop-color="#EB6C60"/><stop offset="1" stop-color="#96241E"/></linearGradient><circle fill="url(#I)" cx="609.8" cy="423.5" r="3.9"/><linearGradient id="J" gradientUnits="userSpaceOnUse" x1="605.971" y1="161.009" x2="613.687" y2="161.009" gradientTransform="matrix(1 0 0 -1 0 595.89)"><stop offset="0" stop-color="#EB6C60"/><stop offset="1" stop-color="#96241E"/></linearGradient><circle fill="url(#J)" cx="609.8" cy="434.9" r="3.9"/><path fill="#F3A79C" d="M607.1 355.5c0-1.9 1.4-3.5 3.3-3.8l-.6-.1c-2.1 0-3.9 1.7-3.9 3.9 0 2.1 1.7 3.9 3.9 3.9.2 0 .4 0 .6-.1-1.9-.3-3.3-1.9-3.3-3.8zm0 11.3c0-1.9 1.4-3.5 3.3-3.8l-.6-.1c-2.1 0-3.9 1.7-3.9 3.9s1.7 3.9 3.9 3.9c.2 0 .4 0 .6-.1-1.9-.2-3.3-1.8-3.3-3.8zm0 11.4c0-1.9 1.4-3.5 3.3-3.8l-.6-.1c-2.1 0-3.9 1.7-3.9 3.9s1.7 3.9 3.9 3.9c.2 0 .4 0 .6-.1-1.9-.3-3.3-1.9-3.3-3.8zm0 11.3c0-1.9 1.4-3.5 3.3-3.8l-.6-.1c-2.1 0-3.9 1.7-3.9 3.9s1.7 3.9 3.9 3.9c.2 0 .4 0 .6-.1-1.9-.3-3.3-1.9-3.3-3.8zm0 11.4c0-1.9 1.4-3.5 3.3-3.8l-.6-.1c-2.1 0-3.9 1.7-3.9 3.9s1.7 3.9 3.9 3.9c.2 0 .4 0 .6-.1-1.9-.3-3.3-1.9-3.3-3.8zm0 11.3c0-1.9 1.4-3.5 3.3-3.8l-.6-.1c-2.1 0-3.9 1.7-3.9 3.9s1.7 3.9 3.9 3.9c.2 0 .4 0 .6-.1-1.9-.3-3.3-1.9-3.3-3.8zm0 11.3c0-1.9 1.4-3.5 3.3-3.8l-.6-.1c-2.1 0-3.9 1.7-3.9 3.9s1.7 3.9 3.9 3.9c.2 0 .4 0 .6-.1-1.9-.2-3.3-1.8-3.3-3.8zm0 11.4c0-1.9 1.4-3.5 3.3-3.8l-.6-.1c-2.1 0-3.9 1.7-3.9 3.9s1.7 3.9 3.9 3.9c.2 0 .4 0 .6-.1-1.9-.3-3.3-1.9-3.3-3.8zm2.7-86.9c.2 0 .4 0 .6-.1-1.9-.3-3.3-1.9-3.3-3.8s1.4-3.5 3.3-3.8l-.6-.1c-2.1 0-3.9 1.7-3.9 3.9.1 2.2 1.8 3.9 3.9 3.9z"/><path fill="#EB6C60" d="M618.4 355.5c0-1.9 1.4-3.5 3.3-3.8l-.6-.1c-2.1 0-3.9 1.7-3.9 3.9 0 2.1 1.7 3.9 3.9 3.9.2 0 .4 0 .6-.1-1.8-.3-3.3-1.9-3.3-3.8zm0 11.3c0-1.9 1.4-3.5 3.3-3.8l-.6-.1c-2.1 0-3.9 1.7-3.9 3.9s1.7 3.9 3.9 3.9c.2 0 .4 0 .6-.1-1.8-.2-3.3-1.8-3.3-3.8zm0 11.4c0-1.9 1.4-3.5 3.3-3.8l-.6-.1c-2.1 0-3.9 1.7-3.9 3.9s1.7 3.9 3.9 3.9c.2 0 .4 0 .6-.1-1.8-.3-3.3-1.9-3.3-3.8zm0 11.3c0-1.9 1.4-3.5 3.3-3.8l-.6-.1c-2.1 0-3.9 1.7-3.9 3.9s1.7 3.9 3.9 3.9c.2 0 .4 0 .6-.1-1.8-.3-3.3-1.9-3.3-3.8zm0 11.4c0-1.9 1.4-3.5 3.3-3.8l-.6-.1c-2.1 0-3.9 1.7-3.9 3.9s1.7 3.9 3.9 3.9c.2 0 .4 0 .6-.1-1.8-.3-3.3-1.9-3.3-3.8zm0 11.3c0-1.9 1.4-3.5 3.3-3.8l-.6-.1c-2.1 0-3.9 1.7-3.9 3.9s1.7 3.9 3.9 3.9c.2 0 .4 0 .6-.1-1.8-.3-3.3-1.9-3.3-3.8zm0 11.3c0-1.9 1.4-3.5 3.3-3.8l-.6-.1c-2.1 0-3.9 1.7-3.9 3.9s1.7 3.9 3.9 3.9c.2 0 .4 0 .6-.1-1.8-.2-3.3-1.8-3.3-3.8zm0 11.4c0-1.9 1.4-3.5 3.3-3.8l-.6-.1c-2.1 0-3.9 1.7-3.9 3.9s1.7 3.9 3.9 3.9c.2 0 .4 0 .6-.1-1.8-.3-3.3-1.9-3.3-3.8zm2.8-86.9c.2 0 .4 0 .6-.1-1.9-.3-3.3-1.9-3.3-3.8s1.4-3.5 3.3-3.8l-.6-.1c-2.1 0-3.9 1.7-3.9 3.9s1.7 3.9 3.9 3.9z"/><path fill="#C43934" d="M629.8 355.5c0-1.9 1.4-3.5 3.3-3.8l-.6-.1c-2.1 0-3.9 1.7-3.9 3.9 0 2.1 1.7 3.9 3.9 3.9.2 0 .4 0 .6-.1-1.9-.3-3.3-1.9-3.3-3.8zm0 11.3c0-1.9 1.4-3.5 3.3-3.8l-.6-.1c-2.1 0-3.9 1.7-3.9 3.9s1.7 3.9 3.9 3.9c.2 0 .4 0 .6-.1-1.9-.2-3.3-1.8-3.3-3.8zm0 11.4c0-1.9 1.4-3.5 3.3-3.8l-.6-.1c-2.1 0-3.9 1.7-3.9 3.9s1.7 3.9 3.9 3.9c.2 0 .4 0 .6-.1-1.9-.3-3.3-1.9-3.3-3.8zm0 11.3c0-1.9 1.4-3.5 3.3-3.8l-.6-.1c-2.1 0-3.9 1.7-3.9 3.9s1.7 3.9 3.9 3.9c.2 0 .4 0 .6-.1-1.9-.3-3.3-1.9-3.3-3.8zm0 11.4c0-1.9 1.4-3.5 3.3-3.8l-.6-.1c-2.1 0-3.9 1.7-3.9 3.9s1.7 3.9 3.9 3.9c.2 0 .4 0 .6-.1-1.9-.3-3.3-1.9-3.3-3.8zm0 11.3c0-1.9 1.4-3.5 3.3-3.8l-.6-.1c-2.1 0-3.9 1.7-3.9 3.9s1.7 3.9 3.9 3.9c.2 0 .4 0 .6-.1-1.9-.3-3.3-1.9-3.3-3.8zm0 11.3c0-1.9 1.4-3.5 3.3-3.8l-.6-.1c-2.1 0-3.9 1.7-3.9 3.9s1.7 3.9 3.9 3.9c.2 0 .4 0 .6-.1-1.9-.2-3.3-1.8-3.3-3.8zm0 11.4c0-1.9 1.4-3.5 3.3-3.8l-.6-.1c-2.1 0-3.9 1.7-3.9 3.9s1.7 3.9 3.9 3.9c.2 0 .4 0 .6-.1-1.9-.3-3.3-1.9-3.3-3.8zm2.7-86.9c.2 0 .4 0 .6-.1-1.9-.3-3.3-1.9-3.3-3.8s1.4-3.5 3.3-3.8l-.6-.1c-2.1 0-3.9 1.7-3.9 3.9.1 2.2 1.8 3.9 3.9 3.9zM642.6 415.2c-.9-.7-1.5-1.8-1.5-3 0-.8.3-1.6.7-2.2l-.1-1c-1 .7-1.7 1.9-1.7 3.2 0 1.7 1.1 3.2 2.7 3.7l-.1-.7zm1.4 12.2v-.2c-1.6-.4-2.8-1.9-2.8-3.7 0-1.5.9-2.8 2.1-3.4v-.4c-1.8.3-3.2 1.9-3.2 3.8 0 2.1 1.7 3.9 3.9 3.9zm.4 11.3c-1.9-.3-3.3-1.9-3.3-3.8s1.3-3.4 3.1-3.8v-.1h-.4c-2.1 0-3.9 1.7-3.9 3.9s1.7 3.9 3.9 3.9c.3-.1.4-.1.6-.1z"/><linearGradient id="K" gradientUnits="userSpaceOnUse" x1="405.322" y1="462.935" x2="444.45" y2="462.935" gradientTransform="matrix(1 0 0 -1 0 595.89)"><stop offset="0" stop-color="#4C6966"/><stop offset="1" stop-color="#ADC5BF"/></linearGradient><path fill="url(#K)" d="M424.9 113.4c-10.8 0-19.6 8.8-19.6 19.6s8.8 19.6 19.6 19.6 19.6-8.8 19.6-19.6c-.1-10.9-8.8-19.6-19.6-19.6zm0 35.4c-8.8 0-15.9-7.1-15.9-15.9s7.1-15.9 15.9-15.9 15.9 7.1 15.9 15.9-7.2 15.9-15.9 15.9z"/><path fill="#4C6966" d="M428.9 140.2c0-1.3-1.1-2.3-2.3-2.3h-3.2c-1.3 0-2.3 1.1-2.3 2.3v26.2c0 1.3 1.1 2.3 2.3 2.3h3.2c1.3 0 2.3-1.1 2.3-2.3v-26.2z"/><linearGradient id="L" gradientUnits="userSpaceOnUse" x1="402.672" y1="427.907" x2="447.101" y2="427.907" gradientTransform="matrix(1 0 0 -1 0 595.89)"><stop offset="0" stop-color="#4C6966"/><stop offset="1" stop-color="#ADC5BF"/></linearGradient><path fill="url(#L)" d="M447.1 160.7c0-5.6-14.6-5.6-22.1-5.6-7.6 0-22.3 0-22.3 5.6v20h44.4v-20z"/><path fill="#4C6966" d="M423.4 155.2v25.6h3.1v-25.6h-3.1zm5.5 25.6h3.1v-25.5c-1.1 0-2.1-.1-3.1-.1v25.6zm5.6 0h3.1v-25.1l-3.1-.3v25.4zm5.5 0h3.1v-24c-.9-.3-2-.6-3.1-.8v24.8zm5.5-22.8v22.8h1.6v-20.1c0-1.1-.6-2-1.6-2.7zm-27.6 22.8h3.1v-25.6c-1 0-2 0-3.1.1v25.5zm-5.5 0h3.1v-25.4l-3.1.3v25.1zm-5.5 0h3.1v-24.8c-1.1.2-2.2.5-3.1.8v24zm-2.5-22.9c-1.1.7-1.8 1.7-1.8 2.8v20h1.8v-22.8zM338.3 180.1l8-3.9 11.4 16.8-8 3.9-11.4-16.8z"/><linearGradient id="M" gradientUnits="userSpaceOnUse" x1="263.371" y1="676.017" x2="294.707" y2="676.017" gradientTransform="matrix(.866 -.5 .5 .866 -237.974 -268.553)"><stop offset="0" stop-color="#4C6966"/><stop offset="1" stop-color="#ADC5BF"/></linearGradient><path fill="url(#M)" d="M328.7 185.7c2 3 11.3-1.6 16.1-3.9 4.7-2.3 13.9-6.8 11.9-9.8l-2-3c-2-3-11.2 1.5-15.9 3.8-4.8 2.3-14 6.9-12 9.9l1.9 3z"/><path fill="#4C6966" d="M337.7 173.3l6.1 8.9 1-.5 1-.5-6.1-8.9h-.1l-.9.4-1 .6zm13 5.4l1.9-1.1-5.7-8.4c-.7.2-1.4.5-2.1.8l5.9 8.7zm3.6-10c-.2-.2-.3-.2-.5-.3-.3-.2-.7-.2-1.2-.3l4 5.9c.4-.7.4-1.3 0-1.9l-2-3c-.1-.2-.2-.3-.3-.4zm-17.6 16.7c.7-.2 1.4-.5 2.1-.8l-5.9-8.7c-.6.4-1.3.7-1.8 1.1l5.6 8.4zm-5.8 1.3l-4.1-6c-.2.4-.3.7-.4 1v.7c0 .2.1.3.2.4l2 3c.5.5 1.3.8 2.3.9zM503.5 176.2l8 3.9-11.5 16.8-8-3.9 11.5-16.8z"/><linearGradient id="N" gradientUnits="userSpaceOnUse" x1="517.868" y1="622.097" x2="549.288" y2="622.097" gradientTransform="matrix(.866 .5 -.5 .866 357.003 -628.204)"><stop offset="0" stop-color="#4C6966"/><stop offset="1" stop-color="#ADC5BF"/></linearGradient><path fill="url(#N)" d="M493 172c-2 3 7.3 7.5 12 9.9 4.7 2.3 14 6.8 16 3.8l2-3c2-3-7.2-7.5-11.9-9.8-4.8-2.3-14.1-6.9-16.1-3.9l-2 3z"/><path fill="#4C6966" d="M510.2 172.4l-6.1 8.9 1 .5 1 .5 6.1-8.9h-.1l-.9-.4-1-.6zm.9 12.2c.7.3 1.4.6 2.1.8l5.7-8.4c-.6-.4-1.2-.8-1.9-1.1l-5.9 8.7zm12.2-2.3c.1-.2.1-.4.1-.5 0-.3-.1-.6-.3-1l-4 5.9c.9-.1 1.6-.4 2-1l2-3c.1-.2.1-.3.2-.4zm-26-4.6c.6.4 1.2.7 1.9 1.1l5.9-8.7c-.7-.3-1.4-.6-2.1-.8l-5.7 8.4zm-4.2-3.7l4.1-6c-.5 0-.9.1-1.2.3h-.1c-.2.1-.3.2-.4.3l-.1.1c-.1.1-.3.2-.4.4l-2 3c-.4.5-.4 1.2.1 1.9z"/><circle fill="#4C6966" cx="425" cy="325.4" r="156.5"/><circle fill="#ADC5BF" cx="425" cy="325.4" r="149.4"/><circle fill="#E1F0EA" cx="425" cy="325.4" r="135.8"/><g fill="#74968E"><circle cx="424.9" cy="202.2" r="6.2"/><circle cx="486.6" cy="218.7" r="6.2"/><circle cx="531.7" cy="263.8" r="6.2"/><circle cx="548.2" cy="325.4" r="6.2"/><circle cx="531.7" cy="387" r="6.2"/><circle cx="486.6" cy="432.1" r="6.2"/><circle cx="425" cy="448.6" r="6.2"/><circle cx="363.4" cy="432.1" r="6.2"/><circle cx="318.3" cy="387" r="6.2"/><circle cx="363.4" cy="218.7" r="6.2"/><circle cx="318.2" cy="263.8" r="6.2"/><circle cx="301.8" cy="325.4" r="6.2"/></g><g fill="#ADC5BF"><circle cx="412.1" cy="202.8" r="2.9"/><circle cx="399.4" cy="204.8" r="2.9"/><circle cx="386.9" cy="208.2" r="2.9"/><circle cx="374.9" cy="212.8" r="2.9"/><circle cx="352.2" cy="225.8" r="2.9"/><circle cx="342.2" cy="233.9" r="2.9"/><circle cx="333.1" cy="243.1" r="2.9"/><circle cx="325" cy="253.1" r="2.9"/><circle cx="312.1" cy="275.8" r="2.9"/><circle cx="307.5" cy="287.8" r="2.9"/><circle cx="304.1" cy="300.3" r="2.9"/><circle cx="302.1" cy="313" r="2.9"/><circle cx="302.5" cy="338.9" r="2.9"/><circle cx="304.5" cy="351.6" r="2.9"/><path d="M307.5 361.2c1.6-.2 3.1 1 3.2 2.6.2 1.6-1 3.1-2.6 3.2-1.6.2-3.1-1-3.2-2.6-.2-1.6 1-3.1 2.6-3.2z"/><circle cx="312.4" cy="376.1" r="2.9"/><path d="M323.9 396c1.3-1 3.1-.7 4.1.6 1 1.3.7 3.1-.6 4.1-1.3 1-3.1.7-4.1-.6-1-1.3-.7-3.2.6-4.1zm8.1 10c1.3-1 3.1-.7 4.1.6 1 1.3.7 3.1-.6 4.1-1.3 1-3.1.7-4.1-.6s-.7-3.2.6-4.1zm9.1 9.1c1.3-1 3.1-.7 4.1.6 1 1.3.7 3.1-.6 4.1-1.3 1-3.1.7-4.1-.7-1-1.2-.7-3 .6-4zm10 8.1c1.3-1 3.1-.7 4.1.6 1 1.3.7 3.1-.6 4.1-1.3 1-3.1.7-4.1-.6-1-1.3-.7-3.1.6-4.1zm21.6 13.9c.7-1.5 2.4-2.1 3.9-1.5 1.5.7 2.1 2.4 1.5 3.9-.7 1.5-2.4 2.1-3.9 1.5-1.5-.7-2.1-2.5-1.5-3.9zm12.1 4.6c.7-1.5 2.4-2.1 3.9-1.5 1.5.7 2.1 2.4 1.5 3.9-.7 1.5-2.4 2.1-3.9 1.5-1.5-.7-2.2-2.5-1.5-3.9zm12.4 3.3c.7-1.5 2.4-2.1 3.9-1.5 1.5.7 2.1 2.4 1.5 3.9-.7 1.5-2.4 2.1-3.9 1.5-1.5-.7-2.1-2.4-1.5-3.9zm12.8 2c.7-1.5 2.4-2.1 3.9-1.5 1.5.7 2.1 2.4 1.5 3.9-.7 1.5-2.4 2.1-3.9 1.5-1.5-.7-2.2-2.4-1.5-3.9zm25.6 1.2c-.2-1.6 1-3.1 2.6-3.2 1.6-.2 3.1 1 3.2 2.6.2 1.6-1 3.1-2.6 3.2-1.6.2-3.1-1-3.2-2.6z"/><circle cx="451.2" cy="445.9" r="2.9"/><path d="M460.8 442.8c-.2-1.6 1-3.1 2.6-3.2 1.6-.2 3.1 1 3.2 2.6.2 1.6-1 3.1-2.6 3.2-1.6.2-3.1-1-3.2-2.6z"/><circle cx="475.7" cy="437.9" r="2.9"/><circle cx="497.9" cy="424.7" r="2.9"/><circle cx="507.9" cy="416.6" r="2.9"/><path d="M514.7 409.2c-1-1.3-.7-3.1.6-4.1 1.3-1 3.1-.7 4.1.6 1 1.3.7 3.1-.7 4.1-1.2 1-3.1.7-4-.6z"/><circle cx="525.2" cy="397.5" r="2.9"/><path d="M536.6 377.6c-1.5-.7-2.1-2.4-1.5-3.9.7-1.5 2.4-2.1 3.9-1.5 1.5.7 2.1 2.4 1.5 3.9s-2.4 2.2-3.9 1.5zm4.6-12c-1.5-.7-2.1-2.4-1.5-3.9.7-1.5 2.4-2.1 3.9-1.5 1.5.7 2.1 2.4 1.5 3.9s-2.4 2.1-3.9 1.5zm3.4-12.5c-1.5-.7-2.1-2.4-1.5-3.9.7-1.5 2.4-2.1 3.9-1.5s2.1 2.4 1.5 3.9c-.7 1.5-2.4 2.2-3.9 1.5zm2-12.7c-1.5-.7-2.1-2.4-1.5-3.9.7-1.5 2.4-2.1 3.9-1.5 1.5.7 2.1 2.4 1.5 3.9-.7 1.5-2.4 2.1-3.9 1.5zm1.2-25.6c-1.6.2-3.1-1-3.2-2.6-.2-1.6 1-3.1 2.6-3.2 1.6-.2 3.1 1 3.2 2.6.2 1.6-1 3-2.6 3.2zm-2-12.7c-1.6.2-3.1-1-3.2-2.6-.2-1.6 1-3.1 2.6-3.2 1.6-.2 3.1 1 3.2 2.6.2 1.6-1 3-2.6 3.2zm-3.4-12.5c-1.6.2-3.1-1-3.2-2.6-.2-1.6 1-3.1 2.6-3.2 1.6-.2 3.1 1 3.2 2.6.2 1.6-1 3-2.6 3.2zm-4.6-12c-1.6.2-3.1-1-3.2-2.6-.2-1.6 1-3.1 2.6-3.2 1.6-.2 3.1 1 3.2 2.6.2 1.5-1 3-2.6 3.2zm-11.7-22.8c-1.3 1-3.1.7-4.1-.6-.9-1.3-.7-3.1.7-4.1 1.3-1 3.1-.7 4.1.6.9 1.3.6 3.1-.7 4.1zm-8.1-10c-1.3 1-3.1.7-4.1-.6-1-1.3-.7-3.1.6-4.1 1.3-1 3.1-.7 4.1.6 1 1.3.7 3.1-.6 4.1z"/><circle cx="507.1" cy="233.3" r="2.9"/><circle cx="497.1" cy="225.2" r="2.9"/><path d="M477.2 213.7c-.7 1.5-2.4 2.1-3.9 1.5-1.5-.7-2.1-2.4-1.5-3.9.7-1.5 2.4-2.1 3.9-1.5 1.5.7 2.2 2.4 1.5 3.9zm-12-4.6c-.7 1.5-2.4 2.1-3.9 1.5-1.5-.7-2.1-2.4-1.5-3.9.7-1.5 2.4-2.1 3.9-1.5 1.5.7 2.2 2.4 1.5 3.9z"/><circle cx="450" cy="204.6" r="2.9"/><circle cx="437.3" cy="202.5" r="2.9"/></g><path fill="#74968E" d="M372.7 338.5c0 1.6-1.3 2.9-2.9 2.9-1.6 0-2.9-1.3-2.9-2.9 0-1.6 1.3-2.9 2.9-2.9 1.6 0 2.9 1.3 2.9 2.9z"/><circle fill="#74968E" cx="379.1" cy="341" r="2.9"/><path fill="#74968E" d="M388.8 347.8c0 1.6-1.3 2.9-2.9 2.9-1.6 0-2.9-1.3-2.9-2.9 0-1.6 1.3-2.9 2.9-2.9 1.6 0 2.9 1.3 2.9 2.9z"/><circle fill="#74968E" cx="388.4" cy="357.1" r="2.9"/><path fill="#74968E" d="M388.8 366.4c0 1.6-1.3 2.9-2.9 2.9-1.6 0-2.9-1.3-2.9-2.9s1.3-2.9 2.9-2.9c1.6 0 2.9 1.3 2.9 2.9zm-6.8 6.9c0 1.6-1.3 2.9-2.9 2.9-1.6 0-2.9-1.3-2.9-2.9 0-1.6 1.3-2.9 2.9-2.9 1.6-.1 2.9 1.2 2.9 2.9zm-9.3 2.5c0 1.6-1.3 2.9-2.9 2.9-1.6 0-2.9-1.3-2.9-2.9 0-1.6 1.3-2.9 2.9-2.9 1.6-.1 2.9 1.2 2.9 2.9zm-9.3-2.5c0 1.6-1.3 2.9-2.9 2.9-1.6 0-2.9-1.3-2.9-2.9 0-1.6 1.3-2.9 2.9-2.9 1.6-.1 2.9 1.2 2.9 2.9z"/><circle fill="#74968E" cx="353.6" cy="366.4" r="2.9"/><path fill="#74968E" d="M363.4 341c0 1.6-1.3 2.9-2.9 2.9-1.6 0-2.9-1.3-2.9-2.9 0-1.6 1.3-2.9 2.9-2.9 1.6 0 2.9 1.3 2.9 2.9zm-6.8 6.8c0 1.6-1.3 2.9-2.9 2.9-1.6 0-2.9-1.3-2.9-2.9 0-1.6 1.3-2.9 2.9-2.9 1.5 0 2.9 1.3 2.9 2.9z"/><circle fill="#74968E" cx="351.1" cy="357.1" r="2.9"/><path fill="#74968E" d="M365 347h3.9v15.6h-3.9v-15.6z"/><path fill="#4C6966" d="M366.4 345.6h3.9v15.6h-3.9v-15.6z"/><path fill="#74968E" d="M483.1 338.5c0 1.6-1.3 2.9-2.9 2.9-1.6 0-2.9-1.3-2.9-2.9 0-1.6 1.3-2.9 2.9-2.9 1.6 0 2.9 1.3 2.9 2.9z"/><circle fill="#74968E" cx="489.5" cy="341" r="2.9"/><path fill="#74968E" d="M499.3 347.8c0 1.6-1.3 2.9-2.9 2.9-1.6 0-2.9-1.3-2.9-2.9 0-1.6 1.3-2.9 2.9-2.9 1.5 0 2.9 1.3 2.9 2.9z"/><circle fill="#74968E" cx="498.8" cy="357.1" r="2.9"/><path fill="#74968E" d="M499.3 366.4c0 1.6-1.3 2.9-2.9 2.9s-2.9-1.3-2.9-2.9 1.3-2.9 2.9-2.9c1.5 0 2.9 1.3 2.9 2.9zm-6.9 6.9c0 1.6-1.3 2.9-2.9 2.9-1.6 0-2.9-1.3-2.9-2.9 0-1.6 1.3-2.9 2.9-2.9 1.6-.1 2.9 1.2 2.9 2.9zm-9.3 2.5c0 1.6-1.3 2.9-2.9 2.9-1.6 0-2.9-1.3-2.9-2.9 0-1.6 1.3-2.9 2.9-2.9 1.6-.1 2.9 1.2 2.9 2.9zm-9.3-2.5c0 1.6-1.3 2.9-2.9 2.9-1.6 0-2.9-1.3-2.9-2.9 0-1.6 1.3-2.9 2.9-2.9 1.6-.1 2.9 1.2 2.9 2.9zm-6.8-6.9c0 1.6-1.3 2.9-2.9 2.9-1.6 0-2.9-1.3-2.9-2.9 0-1.6 1.3-2.9 2.9-2.9 1.6 0 2.9 1.3 2.9 2.9zm6.8-25.4c0 1.6-1.3 2.9-2.9 2.9-1.6 0-2.9-1.3-2.9-2.9 0-1.6 1.3-2.9 2.9-2.9 1.6 0 2.9 1.3 2.9 2.9zm-6.8 6.8c0 1.6-1.3 2.9-2.9 2.9-1.6 0-2.9-1.3-2.9-2.9 0-1.6 1.3-2.9 2.9-2.9 1.6 0 2.9 1.3 2.9 2.9z"/><circle fill="#74968E" cx="461.6" cy="357.1" r="2.9"/><path fill="#74968E" d="M476.9 345.6h3.9v15.6h-3.9v-15.6z"/><path fill="#4C6966" d="M478.2 344.2h3.9v15.6h-3.9v-15.6z"/><path fill="#74968E" d="M434.8 328.1c0-4.7-2.6-8.8-6.4-10.9v-89.6l-6.1-9.6-6.1 9.6v89.6c-3.8 2.1-6.4 6.2-6.4 10.9s2.6 8.8 6.4 10.9v8.3h12.3v-8.3c3.7-2.1 6.3-6.2 6.3-10.9z"/><path fill="#4C6966" d="M431.1 224.9l-6.1-9.6-6.1 9.6v119.8h12.3v-119.8z"/><circle fill="#ADC5BF" cx="425" cy="325.4" r="12.5"/><circle fill="#E1F0EA" cx="425" cy="325.4" r="3.9"/><linearGradient id="O" gradientUnits="userSpaceOnUse" x1="316.875" y1="265.75" x2="542.593" y2="265.75" gradientTransform="matrix(1 0 0 -1 0 595.89)"><stop offset="0" stop-color="#fff" stop-opacity="0"/><stop offset="1" stop-color="#fff"/></linearGradient><path opacity=".7" fill="url(#O)" enable-background="new" d="M507.1 217.3l-190.2 190.2c10.9 14.3 24.6 26.4 40.3 35.5l185.4-185.4c-9.1-15.7-21.2-29.4-35.5-40.3z"/><linearGradient id="P" gradientUnits="userSpaceOnUse" x1="300.098" y1="301.027" x2="488.817" y2="301.027" gradientTransform="matrix(1 0 0 -1 0 595.89)"><stop offset="0" stop-color="#fff" stop-opacity="0"/><stop offset="1" stop-color="#fff"/></linearGradient><path opacity=".7" fill="url(#P)" enable-background="new" d="M305.1 389.2l183.7-183.7c-3.4-1.8-6.9-3.5-10.5-5l-178.2 178.2c1.5 3.6 3.2 7.1 5 10.5z"/><linearGradient id="Q" gradientUnits="userSpaceOnUse" x1="362.205" y1="237.363" x2="554.041" y2="237.363" gradientTransform="matrix(1 0 0 -1 0 595.89)"><stop offset="0" stop-color="#fff" stop-opacity="0"/><stop offset="1" stop-color="#fff"/></linearGradient><path opacity=".7" fill="url(#Q)" enable-background="new" d="M382.8 454.4l171.2-171.2c-2.3-7.1-5.2-14-8.7-20.6l-183.1 183.2c6.6 3.4 13.5 6.3 20.6 8.6z"/><path fill="#74968E" d="M425 189.6c-37.8 0-72.1 15.5-96.7 40.5 24.5-24.2 58.2-39.1 95.3-39.1 75 0 135.8 60.8 135.8 135.8 0 37.1-14.9 70.8-39.1 95.3 25-24.6 40.5-58.8 40.5-96.7-.1-75-60.8-135.8-135.8-135.8z"/></svg>
